<?xml version="1.0" encoding="UTF-8"?>
<svg id="Layer_2" data-name="Layer 2" xmlns="http://www.w3.org/2000/svg" viewBox="0 0 345.03 53.76">
  <defs>
    <style>
      .cls-1 {
        fill: #241e33;
      }

      .cls-2 {
        fill: #fff;
      }

      .cls-3 {
        fill: #39b54a;
      }
    </style>
  </defs>
  <g id="Layer_1-2" data-name="Layer 1">
    <g>
      <path class="cls-1" d="M314.41,0H30.62l-10.6,14.08v25.61l10.6,14.08h283.79l10.6-14.08V14.08l-10.6-14.08Z"/>
      <g>
        <g>
          <polygon class="cls-3" points="7.06 39.68 7.06 29.59 0 29.59 0 39.68 10.6 53.76 17.66 53.76 7.06 39.68"/>
          <polygon class="cls-3" points="7.06 14.08 17.66 0 10.6 0 0 14.08 0 24.16 7.06 24.16 7.06 14.08"/>
          <polygon class="cls-3" points="15.89 39.68 15.89 29.59 8.83 29.59 8.83 39.68 19.43 53.76 26.49 53.76 15.89 39.68"/>
          <polygon class="cls-3" points="8.83 14.08 8.83 24.16 15.89 24.16 15.89 14.08 26.49 0 19.43 0 8.83 14.08 8.83 14.08"/>
        </g>
        <g>
          <polygon class="cls-3" points="337.97 39.68 337.97 29.59 345.03 29.59 345.03 39.68 334.44 53.76 327.37 53.76 337.97 39.68"/>
          <polygon class="cls-3" points="337.97 14.08 327.37 0 334.44 0 345.03 14.08 345.03 24.16 337.97 24.16 337.97 14.08"/>
          <polygon class="cls-3" points="329.14 39.68 329.14 29.59 336.2 29.59 336.2 39.68 325.61 53.76 318.54 53.76 329.14 39.68"/>
          <polygon class="cls-3" points="336.2 14.08 336.2 24.16 329.14 24.16 329.14 14.08 318.54 0 325.61 0 336.2 14.08 336.2 14.08"/>
        </g>
      </g>
      <polygon class="cls-3" points="321.11 15.45 321.11 38.31 311.48 50.78 33.55 50.78 23.92 38.31 23.92 15.45 33.55 2.98 311.48 2.98 321.11 15.45"/>
      <path class="cls-2" d="M311.81,51.45H33.23s-9.97-12.91-9.97-12.91V15.22l9.97-12.91h278.58l9.97,12.91v23.31l-9.97,12.91ZM33.55,50.78h277.93s9.63-12.47,9.63-12.47V15.45l-9.63-12.47H33.55l-9.63,12.47v22.86l9.63,12.47Z"/>
      <g>
        <path class="cls-2" d="M99.32,20.15c3.21,0,4.51,1.49,4.51,4.33v1.55c0,2.83-1.3,4.33-4.51,4.33h-8.69v4.03c0,.32-.15.46-.46.46h-2.27c-.32,0-.48-.15-.48-.46v-13.61c0-.42.21-.63.63-.63h11.28ZM90.63,27.58h8.04c1.43,0,1.95-.61,1.95-1.87v-.8c0-1.26-.52-1.87-1.95-1.87h-7.77c-.19,0-.27.06-.27.25v4.28Z"/>
        <path class="cls-2" d="M113.14,20.15c1.07,0,1.72.34,2.41,1.6l6.95,12.62c.15.27.08.48-.25.48h-2.67c-.27,0-.38-.06-.48-.27l-1.49-2.71h-9.87l-1.45,2.71c-.1.21-.23.27-.48.27h-2.73c-.36,0-.42-.21-.27-.48l6.89-12.62c.69-1.26,1.32-1.6,2.2-1.6h1.24ZM109.07,29.43h7.22l-3.34-6.15c-.06-.11-.13-.15-.23-.15h-.13c-.1,0-.17.04-.23.15l-3.3,6.15Z"/>
        <path class="cls-2" d="M122.66,20.15c.25,0,.38.06.5.25l5.61,7.58,5.65-7.58c.13-.19.25-.25.5-.25h2.75c.23,0,.34.23.19.42l-7.54,9.78v4.03c0,.32-.15.46-.46.46h-2.27c-.32,0-.48-.15-.48-.46v-4.03l-7.45-9.78c-.15-.19-.06-.42.19-.42h2.81Z"/>
        <path class="cls-2" d="M142.25,20.15c.31,0,.46.15.46.46v8.38c0,2.22.63,2.88,2.79,2.88h8.5c.31,0,.46.15.46.46v2.06c0,.32-.15.46-.46.46h-8.63c-4.24,0-5.88-1.51-5.88-5.54v-8.69c0-.32.17-.46.48-.46h2.27Z"/>
        <path class="cls-2" d="M165.68,20.15c1.07,0,1.72.34,2.42,1.6l6.95,12.62c.15.27.08.48-.25.48h-2.67c-.27,0-.38-.06-.48-.27l-1.49-2.71h-9.87l-1.45,2.71c-.11.21-.23.27-.48.27h-2.73c-.36,0-.42-.21-.27-.48l6.89-12.62c.69-1.26,1.32-1.6,2.21-1.6h1.24ZM161.61,29.43h7.22l-3.34-6.15c-.06-.11-.13-.15-.23-.15h-.12c-.11,0-.17.04-.23.15l-3.3,6.15Z"/>
        <path class="cls-2" d="M191.43,20.15c.32,0,.46.15.46.46v2c0,.31-.15.46-.46.46h-10.52c-.8,0-1.11.44-1.11,1.18v.71c0,.78.36,1.18,1.09,1.18h7.87c2.42,0,3.67,1.3,3.67,3.61v1.68c0,2.04-1.18,3.42-3.72,3.42h-11.63c-.31,0-.48-.15-.48-.46v-2c0-.31.17-.46.48-.46h11.02c.8,0,1.11-.44,1.11-1.18v-.86c0-.78-.36-1.18-1.09-1.18h-7.87c-2.42,0-3.67-1.3-3.67-3.61v-1.53c0-2.04,1.18-3.42,3.72-3.42h11.13ZM185.53,35.71c.34,0,.48.19.4.54l-.92,3.82c-.08.31-.23.48-.53.48h-1.2c-.34,0-.5-.19-.48-.48l.34-3.88c.02-.31.21-.48.5-.48h1.89Z"/>
        <path class="cls-2" d="M197.58,20.15c.31,0,.46.15.46.46v13.77c0,.32-.15.46-.46.46h-2.27c-.31,0-.48-.15-.48-.46v-13.77c0-.32.17-.46.48-.46h2.27Z"/>
        <path class="cls-2" d="M203.55,20.15c.32,0,.46.15.46.46v8.38c0,2.22.63,2.88,2.79,2.88h8.5c.32,0,.46.15.46.46v2.06c0,.32-.15.46-.46.46h-8.63c-4.24,0-5.88-1.51-5.88-5.54v-8.69c0-.32.17-.46.48-.46h2.27Z"/>
        <path class="cls-2" d="M226.98,20.15c1.07,0,1.72.34,2.41,1.6l6.95,12.62c.15.27.08.48-.25.48h-2.67c-.27,0-.38-.06-.48-.27l-1.49-2.71h-9.87l-1.45,2.71c-.1.21-.23.27-.48.27h-2.73c-.36,0-.42-.21-.27-.48l6.89-12.62c.69-1.26,1.32-1.6,2.21-1.6h1.24ZM222.91,29.43h7.22l-3.34-6.15c-.06-.11-.12-.15-.23-.15h-.13c-.1,0-.17.04-.23.15l-3.3,6.15Z"/>
        <path class="cls-2" d="M250.86,20.15c2.9,0,3.99,1.13,3.99,3.46v1.01c0,1.2-.46,2.08-1.34,2.67.99.57,1.45,1.47,1.45,2.71v1.22c0,2.23-.92,3.63-3.72,3.63h-12.47c-.42,0-.63-.21-.63-.63v-13.44c0-.42.21-.63.63-.63h12.09ZM241.35,26.26h8.61c1.39,0,1.81-.42,1.81-1.24v-.71c0-.86-.46-1.26-1.55-1.26h-8.59c-.19,0-.27.08-.27.27v2.94ZM241.35,28.55v3.13c0,.19.08.27.27.27h8.61c1.11,0,1.55-.4,1.55-1.28v-.8c0-.86-.44-1.32-1.83-1.32h-8.61Z"/>
        <path class="cls-2" d="M260.19,20.15c.32,0,.46.15.46.46v13.77c0,.32-.15.46-.46.46h-2.27c-.32,0-.48-.15-.48-.46v-13.77c0-.32.17-.46.48-.46h2.27ZM260.06,16.27c.31,0,.46.13.46.38v1.99c0,.25-.15.38-.46.38h-2.06c-.32,0-.46-.13-.46-.38v-1.99c0-.25.15-.38.46-.38h2.06Z"/>
        <path class="cls-2" d="M266.15,20.15c.31,0,.46.15.46.46v8.38c0,2.22.63,2.88,2.79,2.88h8.5c.31,0,.46.15.46.46v2.06c0,.32-.15.46-.46.46h-8.63c-4.24,0-5.88-1.51-5.88-5.54v-8.69c0-.32.17-.46.48-.46h2.27Z"/>
        <path class="cls-2" d="M283.01,20.15c.31,0,.46.15.46.46v13.77c0,.32-.15.46-.46.46h-2.27c-.32,0-.48-.15-.48-.46v-13.77c0-.32.17-.46.48-.46h2.27ZM282.89,16.27c.32,0,.46.13.46.38v1.99c0,.25-.15.38-.46.38h-2.06c-.32,0-.46-.13-.46-.38v-1.99c0-.25.15-.38.46-.38h2.06Z"/>
        <path class="cls-2" d="M298.17,20.15c3.21,0,4.51,1.49,4.51,4.33v1.2c0,2.39-.92,3.8-3.13,4.2l3.59,4.45c.13.15.1.53-.27.53h-2.71c-.36,0-.46-.08-.59-.27l-3.32-4.37h-6.78v4.18c0,.32-.15.46-.46.46h-2.27c-.32,0-.48-.15-.48-.46v-13.61c0-.42.21-.63.63-.63h11.28ZM289.48,27.65h8.04c1.43,0,1.95-.61,1.95-1.87v-.88c0-1.26-.52-1.87-1.95-1.87h-7.77c-.19,0-.27.08-.27.25v4.37Z"/>
      </g>
      <g>
        <path class="cls-2" d="M73.2,15.58l-1.33-1.33c-.58-.58-1.51-.58-2.09,0l-13.23,13.23c-.58.58-1.51.58-2.09,0l-6.64-6.64c-.58-.58-1.51-.58-2.09,0l-1.33,1.33c-.58.58-.58,1.51,0,2.09l10.07,10.07c.58.58,1.51.58,2.09,0l16.65-16.65c.58-.58.58-1.51,0-2.09Z"/>
        <path class="cls-2" d="M70.77,23.5l-1.46,1.46c-.22.22-.34.53-.31.85.03.35.04.71.04,1.07,0,7.95-6.65,14.37-14.68,13.99-7.17-.34-12.99-6.15-13.32-13.32-.38-8.03,6.05-14.68,13.99-14.68,3.19,0,6.13,1.07,8.49,2.87.43.33,1.04.3,1.43-.08l1.17-1.17c.46-.46.41-1.21-.1-1.61-3.28-2.58-7.48-4.03-12.01-3.78-9.2.52-16.54,8.12-16.77,17.33-.24,10.02,7.83,18.24,17.79,18.24s17.8-7.98,17.8-17.8c0-.95-.08-1.88-.22-2.79-.14-.87-1.22-1.21-1.84-.59Z"/>
      </g>
    </g>
  </g>
</svg>