<?xml version="1.0" encoding="UTF-8"?>
<svg id="Layer_2" data-name="Layer 2" xmlns="http://www.w3.org/2000/svg" viewBox="0 0 271.85 53.76">
  <defs>
    <style>
      .cls-1 {
        fill: #241e33;
      }

      .cls-2 {
        fill: #fff;
      }

      .cls-3 {
        fill: #39b54a;
      }
    </style>
  </defs>
  <g id="Layer_1-2" data-name="Layer 1">
    <g>
      <path class="cls-1" d="M241.23,0H30.62l-10.6,14.08v25.61l10.6,14.08h210.61l10.6-14.08V14.08l-10.6-14.08Z"/>
      <g>
        <g>
          <polygon class="cls-3" points="7.06 39.68 7.06 29.59 0 29.59 0 39.68 10.6 53.76 17.66 53.76 7.06 39.68"/>
          <polygon class="cls-3" points="7.06 14.08 17.66 0 10.6 0 0 14.08 0 24.16 7.06 24.16 7.06 14.08"/>
          <polygon class="cls-3" points="15.89 39.68 15.89 29.59 8.83 29.59 8.83 39.68 19.43 53.76 26.49 53.76 15.89 39.68"/>
          <polygon class="cls-3" points="8.83 14.08 8.83 24.16 15.89 24.16 15.89 14.08 26.49 0 19.43 0 8.83 14.08 8.83 14.08"/>
        </g>
        <g>
          <polygon class="cls-3" points="264.79 39.68 264.79 29.59 271.85 29.59 271.85 39.68 261.26 53.76 254.19 53.76 264.79 39.68"/>
          <polygon class="cls-3" points="264.79 14.08 254.19 0 261.26 0 271.85 14.08 271.85 24.16 264.79 24.16 264.79 14.08"/>
          <polygon class="cls-3" points="255.96 39.68 255.96 29.59 263.02 29.59 263.02 39.68 252.43 53.76 245.36 53.76 255.96 39.68"/>
          <polygon class="cls-3" points="263.02 14.08 263.02 24.16 255.96 24.16 255.96 14.08 245.36 0 252.43 0 263.02 14.08 263.02 14.08"/>
        </g>
      </g>
      <polygon class="cls-3" points="247.93 15.45 247.93 38.31 238.3 50.78 33.55 50.78 23.92 38.31 23.92 15.45 33.55 2.98 238.3 2.98 247.93 15.45"/>
      <path class="cls-2" d="M238.63,51.45H33.23s-9.97-12.91-9.97-12.91V15.22l9.97-12.91h205.4l9.97,12.91v23.31l-9.97,12.91ZM33.55,50.78h204.75s9.63-12.47,9.63-12.47V15.45l-9.63-12.47H33.55l-9.63,12.47v22.86l9.63,12.47Z"/>
      <g>
        <path class="cls-2" d="M49.17,20.33c.31,0,.46.15.46.46v5.58h2.96c1.32,0,1.72-.15,2.33-.94l3.61-4.83c.15-.19.23-.27.61-.27h2.6c.36,0,.42.32.27.5l-4.07,5.27c-.48.63-.86,1.07-1.26,1.41.57.36,1.07.84,1.6,1.51l4.3,5.46c.11.15.15.54-.27.54h-2.69c-.36,0-.44-.08-.59-.27l-3.86-5c-.57-.73-1.05-.95-2.35-.95h-3.19v5.75c0,.31-.15.46-.46.46h-2.27c-.32,0-.48-.15-.48-.46v-13.77c0-.32.17-.46.48-.46h2.27Z"/>
        <path class="cls-2" d="M75.92,20.33c4.26,0,5.88,1.51,5.88,5.54v3.61c0,4.03-1.62,5.54-5.88,5.54h-6.49c-4.24,0-5.88-1.51-5.88-5.54v-3.61c0-4.03,1.64-5.54,5.88-5.54h6.49ZM66.76,29.25c0,2.21.63,2.86,2.79,2.86h6.24c2.16,0,2.79-.65,2.79-2.86v-3.15c0-2.2-.63-2.86-2.79-2.86h-6.24c-2.16,0-2.79.65-2.79,2.86v3.15Z"/>
        <path class="cls-2" d="M88.14,20.33c1.34,0,1.64.17,2.44,1.24l7.81,10.25c.06.1.15.15.27.15h.19c.1,0,.17-.06.17-.21v-10.96c0-.32.15-.46.46-.46h2.21c.31,0,.46.15.46.46v12.05c0,1.7-.61,2.18-1.89,2.18h-1.81c-1.28,0-1.6-.12-2.44-1.24l-7.83-10.25c-.08-.11-.15-.15-.27-.15h-.19c-.13,0-.17.06-.17.21v10.96c0,.31-.15.46-.46.46h-2.2c-.32,0-.48-.15-.48-.46v-12.05c0-1.7.61-2.18,1.89-2.18h1.85Z"/>
        <path class="cls-2" d="M120.92,20.33c.31,0,.48.15.48.46v2.06c0,.32-.17.48-.48.48h-6.59v11.23c0,.31-.15.46-.46.46h-2.29c-.31,0-.46-.15-.46-.46v-11.23h-6.59c-.31,0-.48-.17-.48-.48v-2.06c0-.32.17-.46.48-.46h16.4Z"/>
        <path class="cls-2" d="M135.18,20.33c3.21,0,4.51,1.49,4.51,4.33v1.2c0,2.39-.92,3.8-3.13,4.2l3.59,4.45c.13.15.11.52-.27.52h-2.71c-.36,0-.46-.08-.59-.27l-3.32-4.37h-6.78v4.18c0,.31-.15.46-.46.46h-2.27c-.32,0-.48-.15-.48-.46v-13.61c0-.42.21-.63.63-.63h11.27ZM126.49,27.83h8.04c1.43,0,1.95-.61,1.95-1.87v-.88c0-1.26-.53-1.87-1.95-1.87h-7.77c-.19,0-.27.08-.27.25v4.37Z"/>
        <path class="cls-2" d="M154.1,20.33c4.26,0,5.88,1.51,5.88,5.54v3.61c0,4.03-1.62,5.54-5.88,5.54h-6.49c-4.24,0-5.88-1.51-5.88-5.54v-3.61c0-4.03,1.64-5.54,5.88-5.54h6.49ZM144.94,29.25c0,2.21.63,2.86,2.79,2.86h6.24c2.16,0,2.79-.65,2.79-2.86v-3.15c0-2.2-.63-2.86-2.79-2.86h-6.24c-2.16,0-2.79.65-2.79,2.86v3.15Z"/>
        <path class="cls-2" d="M165.29,20.33c.31,0,.46.15.46.46v8.38c0,2.23.63,2.88,2.79,2.88h8.5c.31,0,.46.15.46.46v2.06c0,.31-.15.46-.46.46h-8.63c-4.24,0-5.88-1.51-5.88-5.54v-8.69c0-.32.17-.46.48-.46h2.27Z"/>
        <path class="cls-2" d="M201.39,20.33c.32,0,.48.15.48.46v1.99c0,.31-.17.46-.48.46h-9.17c-2.18,0-2.79.65-2.79,2.86v.21h11.86c.32,0,.46.15.46.46v1.66c0,.31-.15.46-.46.46h-11.86v.36c0,2.21.61,2.86,2.79,2.86h9.17c.32,0,.48.15.48.46v2c0,.31-.17.46-.48.46h-9.24c-4.24,0-5.88-1.51-5.88-5.54v-3.61c0-4.03,1.64-5.54,5.88-5.54h9.24Z"/>
        <path class="cls-2" d="M220.27,20.33c.31,0,.48.15.48.46v2.06c0,.32-.17.48-.48.48h-6.59v11.23c0,.31-.15.46-.46.46h-2.29c-.31,0-.46-.15-.46-.46v-11.23h-6.59c-.31,0-.48-.17-.48-.48v-2.06c0-.32.17-.46.48-.46h16.4Z"/>
        <path class="cls-2" d="M225.21,19.6c.31,0,.48.17.48.48l-.59,9.45c-.02.31-.15.46-.46.46h-1.22c-.31,0-.44-.15-.46-.46l-.59-9.45c0-.31.17-.48.48-.48h2.35ZM225.06,32.09c.32,0,.46.15.46.46v2.02c0,.31-.15.46-.46.46h-2.06c-.31,0-.48-.15-.48-.46v-2.02c0-.32.17-.46.48-.46h2.06Z"/>
      </g>
    </g>
  </g>
</svg>