<?xml version="1.0" encoding="UTF-8"?>
<svg id="Layer_2" data-name="Layer 2" xmlns="http://www.w3.org/2000/svg" xmlns:xlink="http://www.w3.org/1999/xlink" viewBox="0 0 1192.52 657.72">
  <defs>
    <style>
      .cls-1 {
        fill: #241e33;
      }

      .cls-2 {
        fill: url(#_ÂÁ_Ï_ÌÌ_È_ËÂÌÚ_2-2);
      }

      .cls-3 {
        fill: url(#_ÂÁ_Ï_ÌÌ_È_ËÂÌÚ_2-3);
      }

      .cls-4 {
        fill: url(#_ÂÁ_Ï_ÌÌ_È_ËÂÌÚ_2-4);
      }

      .cls-5 {
        fill: url(#_ÂÁ_Ï_ÌÌ_È_ËÂÌÚ_3-2);
      }

      .cls-6 {
        fill: url(#linear-gradient);
      }

      .cls-7 {
        fill: url(#_ÂÁ_Ï_ÌÌ_È_ËÂÌÚ_3);
      }

      .cls-8 {
        fill: url(#_ÂÁ_Ï_ÌÌ_È_ËÂÌÚ_2);
      }

      .cls-9 {
        fill: url(#_ÂÁ_Ï_ÌÌ_È_ËÂÌÚ_4);
      }

      .cls-10 {
        fill: #00134a;
      }

      .cls-11 {
        fill: #3c354f;
      }
    </style>
    <radialGradient id="_ÂÁ_Ï_ÌÌ_È_ËÂÌÚ_3" data-name="¡ÂÁ˚ÏˇÌÌ˚È „‡‰ËÂÌÚ 3" cx="7227.18" cy="-8205.05" fx="7227.18" fy="-8205.05" r="1699.92" gradientTransform="translate(2784.44 842.26) rotate(-180) scale(.3 -.1)" gradientUnits="userSpaceOnUse">
      <stop offset="0" stop-color="#241883"/>
      <stop offset=".35" stop-color="#241a60"/>
      <stop offset=".75" stop-color="#241d3f"/>
      <stop offset=".97" stop-color="#241e33"/>
    </radialGradient>
    <radialGradient id="_ÂÁ_Ï_ÌÌ_È_ËÂÌÚ_3-2" data-name="¡ÂÁ˚ÏˇÌÌ˚È „‡‰ËÂÌÚ 3" cx="7354.08" cy="3236.4" fx="7354.08" fy="3236.4" r="1049.07" gradientTransform="translate(2784.44 942.77) rotate(-180) scale(.3 .1)" xlink:href="#_ÂÁ_Ï_ÌÌ_È_ËÂÌÚ_3"/>
    <linearGradient id="_ÂÁ_Ï_ÌÌ_È_ËÂÌÚ_2" data-name="¡ÂÁ˚ÏˇÌÌ˚È „‡‰ËÂÌÚ 2" x1="-67.94" y1="308.98" x2="1275.9" y2="302.96" gradientUnits="userSpaceOnUse">
      <stop offset="0" stop-color="#d730c4"/>
      <stop offset=".23" stop-color="#b048d4"/>
      <stop offset=".57" stop-color="#7a69eb"/>
      <stop offset=".83" stop-color="#597ef9"/>
      <stop offset=".97" stop-color="#4d86ff"/>
    </linearGradient>
    <linearGradient id="_ÂÁ_Ï_ÌÌ_È_ËÂÌÚ_2-2" data-name="¡ÂÁ˚ÏˇÌÌ˚È „‡‰ËÂÌÚ 2" x1="-23.12" y1="340.07" x2="574.01" y2="337.4" xlink:href="#_ÂÁ_Ï_ÌÌ_È_ËÂÌÚ_2"/>
    <linearGradient id="_ÂÁ_Ï_ÌÌ_È_ËÂÌÚ_2-3" data-name="¡ÂÁ˚ÏˇÌÌ˚È „‡‰ËÂÌÚ 2" x1="330.24" y1="606.72" x2="869.64" y2="604.31" xlink:href="#_ÂÁ_Ï_ÌÌ_È_ËÂÌÚ_2"/>
    <linearGradient id="_ÂÁ_Ï_ÌÌ_È_ËÂÌÚ_2-4" data-name="¡ÂÁ˚ÏˇÌÌ˚È „‡‰ËÂÌÚ 2" x1="329.08" y1="8" x2="868.47" y2="5.59" xlink:href="#_ÂÁ_Ï_ÌÌ_È_ËÂÌÚ_2"/>
    <linearGradient id="linear-gradient" x1="596.26" y1="646.13" x2="596.26" y2="563" gradientUnits="userSpaceOnUse">
      <stop offset="0" stop-color="#0bf"/>
      <stop offset=".44" stop-color="#056ba4" stop-opacity=".55"/>
      <stop offset="1" stop-color="#0d0934" stop-opacity="0"/>
    </linearGradient>
    <linearGradient id="_ÂÁ_Ï_ÌÌ_È_ËÂÌÚ_4" data-name="¡ÂÁ˚ÏˇÌÌ˚È „‡‰ËÂÌÚ 4" x1="560.02" y1="604.2" x2="632.52" y2="604.2" gradientUnits="userSpaceOnUse">
      <stop offset="0" stop-color="#4d86ff"/>
      <stop offset=".03" stop-color="#587efa"/>
      <stop offset=".14" stop-color="#8562e6"/>
      <stop offset=".24" stop-color="#a84cd7"/>
      <stop offset=".34" stop-color="#c23ccc"/>
      <stop offset=".44" stop-color="#d133c6"/>
      <stop offset=".51" stop-color="#d730c4"/>
      <stop offset=".58" stop-color="#d233c6"/>
      <stop offset=".67" stop-color="#c33ccc"/>
      <stop offset=".76" stop-color="#ab4ad6"/>
      <stop offset=".86" stop-color="#8a5fe4"/>
      <stop offset=".96" stop-color="#6079f6"/>
      <stop offset="1" stop-color="#4d86ff"/>
    </linearGradient>
  </defs>
  <g id="Layer_1-2" data-name="Layer 1">
    <g>
      <g>
        <polygon class="cls-11" points="1192.52 0 21.39 0 .84 27.3 0 28.42 0 583.6 0 612.01 1171.13 612.01 1191.68 584.71 1192.52 583.6 1192.52 28.42 1192.52 0"/>
        <polygon class="cls-1" points="5.35 606.66 5.35 581.8 5.35 30.21 24.07 5.35 1187.17 5.35 1187.17 30.21 1187.17 581.8 1168.46 606.66 5.35 606.66"/>
        <path class="cls-7" d="M1180.94,11.79c-24.06,76.61-272.76,136.85-576.05,136.85S52.89,88.4,28.83,11.79h1152.11Z"/>
        <path class="cls-5" d="M922.12,602.87c-14.85-47.28-168.33-84.46-355.5-84.46s-340.65,37.18-355.5,84.46h711Z"/>
        <path class="cls-8" d="M28.34,10.21l-16.75,21.99v569.61h1152.38l16.98-22.29V10.21H28.34ZM1179.35,578.98l-16.18,21.24H13.17V32.73l15.95-20.94h1150.23v567.19Z"/>
        <g>
          <polygon class="cls-11" points="0 116.36 0 574.22 18.8 560.64 18.8 102.83 0 116.36"/>
          <polygon class="cls-1" points=".1 122.24 0 568 15.83 556.25 15.83 110.92 .1 122.24"/>
          <polygon class="cls-2" points="0 129.05 0 560.64 13.65 550.62 13.65 119.23 0 129.05"/>
        </g>
        <g>
          <g>
            <polygon class="cls-11" points="703.77 593.78 479.54 593.78 462.52 612.01 719.34 612.01 703.77 593.78"/>
            <polygon class="cls-1" points="507.06 612.01 677.1 612.01 664.56 596.86 519.25 596.86 507.06 612.01"/>
            <polygon class="cls-3" points="658.92 599.05 524.85 599.05 514.82 612.01 668.95 612.01 658.92 599.05"/>
          </g>
          <g>
            <g>
              <polygon class="cls-1" points="511.52 596.86 499.34 612.01 487.25 612.01 500.57 596.86 511.52 596.86"/>
              <polygon class="cls-1" points="493.67 596.86 481.49 612.01 469.4 612.01 482.72 596.86 493.67 596.86"/>
            </g>
            <g>
              <polygon class="cls-1" points="670.34 596.86 682.53 612.01 694.62 612.01 681.29 596.86 670.34 596.86"/>
              <polygon class="cls-1" points="688.19 596.86 700.38 612.01 712.47 612.01 699.14 596.86 688.19 596.86"/>
            </g>
          </g>
        </g>
        <g>
          <polygon class="cls-11" points="705.21 20.39 488.3 20.39 473.73 0 718.79 0 705.21 20.39"/>
          <polygon class="cls-1" points="485.62 .14 709.21 0 698.24 15.83 496.23 15.83 485.62 .14"/>
          <polygon class="cls-4" points="695.19 13.65 499.24 13.65 489.21 0 705.21 0 695.19 13.65"/>
        </g>
      </g>
      <g>
        <g>
          <path class="cls-10" d="M641.02,573.2l-.08-1.37-1.37-.12c-25.5-2.31-42.2-20.66-42.36-20.84l-.95-1.11-.95,1.11c-.17.19-16.86,18.53-42.36,20.84l-1.36.12-.08,1.37c0,.19-1.02,19.32,3.88,38.97,6.57,26.37,20.7,41.73,40.85,44.44h.03s.03,0,.03,0c20.15-2.71,34.27-18.08,40.84-44.44,4.9-19.65,3.89-38.78,3.88-38.97Z"/>
          <path class="cls-11" d="M596.27,657.72l-.22-.03c-20.58-2.77-35.02-18.42-41.71-45.25-4.87-19.55-3.95-38.5-3.91-39.29l.13-2.32,2.31-.21c25.03-2.27,41.48-20.3,41.64-20.48l1.77-2.06,1.78,2.07c.15.17,16.55,18.19,41.63,20.47l2.31.21.13,2.31c.01.18,1.01,19.55-3.91,39.3-6.69,26.84-21.13,42.49-41.76,45.26l-.17.02ZM552.63,572.83l-.02.43c-.04.78-.94,19.41,3.85,38.65,6.44,25.84,20.21,40.92,39.81,43.61,19.62-2.71,33.37-17.79,39.81-43.61,4.88-19.58,3.86-38.45,3.85-38.64l-.02-.43-.42-.04c-25.82-2.34-42.92-21.02-43.09-21.21l-.13-.15-.12.14c-.18.2-17.03,18.86-43.09,21.22l-.42.04Z"/>
        </g>
        <path class="cls-10" d="M631.08,581.24l-.06-1.07-1.06-.1c-19.83-1.8-32.82-16.07-32.95-16.21l-.74-.86-.74.86c-.13.14-13.12,14.41-32.95,16.21l-1.06.1-.06,1.07c0,.15-.79,15.03,3.02,30.31,5.11,20.51,16.1,32.46,31.77,34.57h0s.02,0,.02,0c0,0,.01,0,.02,0h0c15.67-2.12,26.66-14.07,31.77-34.58,3.81-15.29,3.03-30.17,3.02-30.31Z"/>
        <path class="cls-6" d="M631.08,581.24l-.06-1.07-1.06-.1c-19.83-1.8-32.82-16.07-32.95-16.21l-.74-.86-.74.86c-.13.14-13.12,14.41-32.95,16.21l-1.06.1-.06,1.07c0,.15-.79,15.03,3.02,30.31,5.11,20.51,16.1,32.46,31.77,34.57h0s.02,0,.02,0c0,0,.01,0,.02,0h0c15.67-2.12,26.66-14.07,31.77-34.58,3.81-15.29,3.03-30.17,3.02-30.31Z"/>
        <path class="cls-9" d="M596.29,647.5l-.22-.02c-16.29-2.19-27.67-14.5-32.93-35.6-3.84-15.42-3.07-30.59-3.06-30.73l.12-2.23,2.24-.21c19.16-1.74,31.94-15.63,32.06-15.77l1.75-2.05,1.78,2.07c.49.54,12.95,14.01,32.04,15.74l2.24.21.12,2.24c0,.15.8,15.22-3.06,30.72-5.26,21.1-16.64,33.41-32.92,35.6l-.17.02ZM562.81,581.42c-.07,1.39-.62,15.32,2.99,29.79,4.95,19.85,15.48,31.44,30.47,33.53,14.98-2.08,25.52-13.67,30.47-33.53,3.58-14.35,3.05-28.4,2.99-29.79-18.74-1.74-31.42-14.22-33.45-16.35-2.1,2.17-14.92,14.63-33.45,16.35Z"/>
      </g>
    </g>
  </g>
</svg>