<?xml version="1.0" encoding="UTF-8"?>
<svg id="Layer_2" data-name="Layer 2" xmlns="http://www.w3.org/2000/svg" viewBox="0 0 159.69 33.66">
  <defs>
    <style>
      .cls-1 {
        fill: #241e33;
      }

      .cls-2 {
        fill: #fff;
      }

      .cls-3 {
        fill: #39b54a;
      }
    </style>
  </defs>
  <g id="Layer_1-2" data-name="Layer 1">
    <g>
      <g>
        <path class="cls-1" d="M140.51,0H19.17l-6.64,8.81v16.03l6.64,8.81h121.34l6.64-8.81V8.81l-6.64-8.81Z"/>
        <g>
          <g>
            <polygon class="cls-3" points="4.42 24.85 4.42 18.53 0 18.53 0 24.85 6.64 33.66 11.06 33.66 4.42 24.85"/>
            <polygon class="cls-3" points="4.42 8.81 11.06 0 6.64 0 0 8.81 0 15.13 4.42 15.13 4.42 8.81"/>
            <polygon class="cls-3" points="9.95 24.85 9.95 18.53 5.53 18.53 5.53 24.85 12.16 33.66 16.59 33.66 9.95 24.85"/>
            <polygon class="cls-3" points="5.53 8.81 5.53 15.13 9.95 15.13 9.95 8.81 16.59 0 12.16 0 5.53 8.81 5.53 8.81"/>
          </g>
          <g>
            <polygon class="cls-3" points="155.26 24.85 155.26 18.53 159.69 18.53 159.69 24.85 153.05 33.66 148.63 33.66 155.26 24.85"/>
            <polygon class="cls-3" points="155.26 8.81 148.63 0 153.05 0 159.69 8.81 159.69 15.13 155.26 15.13 155.26 8.81"/>
            <polygon class="cls-3" points="149.73 24.85 149.73 18.53 154.16 18.53 154.16 24.85 147.52 33.66 143.1 33.66 149.73 24.85"/>
            <polygon class="cls-3" points="154.16 8.81 154.16 15.13 149.73 15.13 149.73 8.81 143.1 0 147.52 0 154.16 8.81 154.16 8.81"/>
          </g>
        </g>
        <polygon class="cls-3" points="144.71 9.67 144.71 23.99 138.68 31.8 21.01 31.8 14.98 23.99 14.98 9.67 21.01 1.87 138.68 1.87 144.71 9.67"/>
        <path class="cls-2" d="M138.88,32.21H20.81s-6.24-8.08-6.24-8.08v-14.6L20.81,1.45h118.08l6.24,8.08v14.6l-6.24,8.08ZM21.01,31.8h117.67s6.03-7.81,6.03-7.81v-14.32l-6.03-7.81H21.01l-6.03,7.81v14.32l6.03,7.81Z"/>
      </g>
      <g>
        <g>
          <path class="cls-2" d="M86.75,10.52c.25,0,.36.12.36.36v1.61c0,.25-.12.38-.36.38h-8.24c-1.69,0-2.19.49-2.19,2.24v2.37c0,1.74.49,2.25,2.19,2.25h5.43c.58,0,.82-.26.82-1v-1.33c0-.15-.05-.21-.2-.21h-4.82c-.23,0-.36-.13-.36-.38v-1.23c0-.25.13-.38.36-.38h6.86c.33,0,.49.17.49.49v3.83c0,1.84-.72,2.52-2.04,2.52h-6.65c-3.32,0-4.61-1.19-4.61-4.34v-2.83c0-3.16,1.28-4.34,4.61-4.34h8.34Z"/>
          <path class="cls-2" d="M100.87,10.52c.25,0,.38.12.38.36v1.56c0,.25-.13.36-.38.36h-7.19c-1.71,0-2.19.51-2.19,2.24v.17h9.29c.25,0,.36.12.36.36v1.3c0,.25-.12.36-.36.36h-9.29v.28c0,1.73.48,2.24,2.19,2.24h7.19c.25,0,.38.12.38.36v1.56c0,.25-.13.36-.38.36h-7.24c-3.32,0-4.61-1.19-4.61-4.34v-2.83c0-3.16,1.28-4.34,4.61-4.34h7.24Z"/>
          <path class="cls-2" d="M115.03,10.52c.25,0,.36.12.36.36v1.61c0,.25-.12.38-.36.38h-7.32c-1.69,0-2.19.49-2.19,2.24v2.34c0,1.74.49,2.25,2.19,2.25h7.32c.25,0,.36.12.36.36v1.61c0,.25-.12.36-.36.36h-7.42c-3.32,0-4.61-1.19-4.61-4.34v-2.83c0-3.16,1.28-4.34,4.61-4.34h7.42ZM110.49,22.71c.26,0,.38.15.31.43l-.72,2.99c-.07.25-.18.38-.41.38h-.94c-.26,0-.4-.15-.38-.38l.26-3.04c.02-.25.16-.38.39-.38h1.48Z"/>
        </g>
        <g>
          <path class="cls-2" d="M66.14,9.76l-.83-.83c-.36-.36-.95-.36-1.31,0l-8.28,8.28c-.36.36-.95.36-1.31,0l-4.16-4.16c-.36-.36-.95-.36-1.31,0l-.83.83c-.36.36-.36.95,0,1.31l6.3,6.3c.36.36.95.36,1.31,0l10.43-10.43c.36-.36.36-.95,0-1.31Z"/>
          <path class="cls-2" d="M64.62,14.72l-.91.91c-.14.14-.21.33-.2.53.02.22.03.45.03.67,0,4.98-4.16,9-9.19,8.76-4.49-.21-8.13-3.85-8.34-8.34-.24-5.03,3.79-9.19,8.76-9.19,2,0,3.84.67,5.31,1.8.27.21.65.19.89-.05l.73-.73c.29-.29.26-.76-.06-1.01-2.05-1.61-4.68-2.52-7.52-2.36-5.76.33-10.36,5.08-10.5,10.85-.15,6.27,4.9,11.42,11.14,11.42s11.15-5,11.15-11.15c0-.59-.05-1.18-.14-1.75-.09-.55-.76-.76-1.15-.37Z"/>
        </g>
      </g>
    </g>
  </g>
</svg>