<?xml version="1.0" encoding="UTF-8"?>
<svg id="Layer_2" data-name="Layer 2" xmlns="http://www.w3.org/2000/svg" viewBox="0 0 67.02 67.02">
  <defs>
    <style>
      .cls-1 {
        fill: #fff;
      }
    </style>
  </defs>
  <g id="Layer_1-2" data-name="Layer 1">
    <g>
      <path class="cls-1" d="M40.04,20.67c4.13,0,5.98,2.07,5.98,5.94v1.85c0,3.56-1.01,5.06-4.05,6.51l-7.26,3.47c-.88.4-1.1,1.01-1.19,1.8l-.13,1.1c-.09.88-.35,1.1-1.32,1.1h-1.93c-.92,0-1.23-.35-1.23-1.1l-.04-2.16c0-1.54.26-2.9,1.94-3.78l7.48-3.87c.97-.48,1.36-1.14,1.36-2.33v-1.14c0-1.23-.57-1.85-1.89-1.85h-15.79c-.66,0-.97-.35-.97-.97v-3.61c0-.66.31-.97.97-.97h18.08ZM33.27,46.84c.66,0,1.01.31,1.01.97v4.22c0,.66-.35.97-1.01.97h-4.31c-.66,0-.97-.31-.97-.97v-4.22c0-.66.31-.97.97-.97h4.31Z"/>
      <path class="cls-1" d="M33.51,0C15,0,0,15,0,33.51s15,33.51,33.51,33.51,33.51-15,33.51-33.51S52.01,0,33.51,0ZM33.51,62.01c-15.74,0-28.5-12.76-28.5-28.5S17.77,5.01,33.51,5.01s28.5,12.76,28.5,28.5-12.76,28.5-28.5,28.5Z"/>
    </g>
  </g>
</svg>