<?xml version="1.0" encoding="UTF-8"?>
<svg id="Layer_2" data-name="Layer 2" xmlns="http://www.w3.org/2000/svg" xmlns:xlink="http://www.w3.org/1999/xlink" viewBox="0 0 353.73 50.98">
  <defs>
    <style>
      .cls-1 {
        fill: #241e33;
      }

      .cls-2 {
        fill: url(#_ÂÁ_Ï_ÌÌ_È_ËÂÌÚ_2-2);
      }

      .cls-3 {
        fill: url(#_ÂÁ_Ï_ÌÌ_È_ËÂÌÚ_3);
      }

      .cls-4 {
        fill: url(#_ÂÁ_Ï_ÌÌ_È_ËÂÌÚ_2);
      }

      .cls-5 {
        fill: #fff;
      }

      .cls-6 {
        fill: #3c354f;
      }
    </style>
    <radialGradient id="_ÂÁ_Ï_ÌÌ_È_ËÂÌÚ_3" data-name="¡ÂÁ˚ÏˇÌÌ˚È „‡‰ËÂÌÚ 3" cx="-21605.37" cy="-973.86" fx="-21605.37" fy="-973.86" r="1566.72" gradientTransform="translate(1274.95 101.85) scale(.05 .1)" gradientUnits="userSpaceOnUse">
      <stop offset="0" stop-color="#241883"/>
      <stop offset=".35" stop-color="#241a60"/>
      <stop offset=".75" stop-color="#241d3f"/>
      <stop offset=".97" stop-color="#241e33"/>
    </radialGradient>
    <linearGradient id="_ÂÁ_Ï_ÌÌ_È_ËÂÌÚ_2" data-name="¡ÂÁ˚ÏˇÌÌ˚È „‡‰ËÂÌÚ 2" x1="2" y1="25.49" x2="351.74" y2="25.49" gradientUnits="userSpaceOnUse">
      <stop offset="0" stop-color="#d730c4"/>
      <stop offset=".23" stop-color="#b048d4"/>
      <stop offset=".57" stop-color="#7a69eb"/>
      <stop offset=".83" stop-color="#597ef9"/>
      <stop offset=".97" stop-color="#4d86ff"/>
    </linearGradient>
    <linearGradient id="_ÂÁ_Ï_ÌÌ_È_ËÂÌÚ_2-2" data-name="¡ÂÁ˚ÏˇÌÌ˚È „‡‰ËÂÌÚ 2" x1="46.96" y1="25.49" x2="348.19" y2="25.49" xlink:href="#_ÂÁ_Ï_ÌÌ_È_ËÂÌÚ_2"/>
  </defs>
  <g id="Layer_1-2" data-name="Layer 1">
    <g>
      <polygon class="cls-6" points="343.47 0 10.26 0 .4 13.1 0 13.63 0 37.35 10.26 50.98 343.47 50.98 353.33 37.88 353.73 37.35 353.73 13.63 343.47 0"/>
      <polygon class="cls-1" points="11.54 48.41 2.57 36.49 2.57 14.49 11.54 2.57 342.19 2.57 351.17 14.49 351.17 36.49 342.19 48.41 11.54 48.41"/>
      <path class="cls-3" d="M88.83,4.9c1,19.25,84.16,34.39,108.67,34.39,22.23,0,107.81-15.14,108.81-34.39H88.83Z"/>
      <path class="cls-4" d="M342.48,2H11.26L2,14.3v22.38l9.26,12.3h331.22l9.26-12.3V14.3l-9.26-12.3ZM350.6,36.3l-8.69,11.54H53.4l-8.57-11.38V14.52l8.57-11.38h288.5l8.69,11.54v21.62Z"/>
      <path class="cls-2" d="M54.99,4.9l-8.04,10.55v20.09l8.04,10.55h285.05l8.14-10.69V15.59l-8.14-10.69H54.99ZM347.43,35.14l-7.76,10.19H55.37l-7.65-10.04V15.7l7.65-10.04h284.29l7.76,10.19v19.29Z"/>
      <g>
        <path class="cls-5" d="M111.31,20.8c3.06,0,4.3,1.42,4.3,4.12v1.48c0,2.7-1.24,4.12-4.3,4.12h-8.28v3.84c0,.3-.14.44-.44.44h-2.16c-.3,0-.46-.14-.46-.44v-12.96c0-.4.2-.6.6-.6h10.74ZM103.02,27.88h7.66c1.36,0,1.86-.58,1.86-1.78v-.76c0-1.2-.5-1.78-1.86-1.78h-7.4c-.18,0-.26.06-.26.24v4.08Z"/>
        <path class="cls-5" d="M124.47,20.8c1.02,0,1.64.32,2.3,1.52l6.62,12.02c.14.26.08.46-.24.46h-2.54c-.26,0-.36-.06-.46-.26l-1.42-2.58h-9.4l-1.38,2.58c-.1.2-.22.26-.46.26h-2.6c-.34,0-.4-.2-.26-.46l6.56-12.02c.66-1.2,1.26-1.52,2.1-1.52h1.18ZM120.58,29.64h6.88l-3.18-5.86c-.06-.1-.12-.14-.22-.14h-.12c-.1,0-.16.04-.22.14l-3.14,5.86Z"/>
        <path class="cls-5" d="M133.52,20.8c.24,0,.36.06.48.24l5.34,7.22,5.38-7.22c.12-.18.24-.24.48-.24h2.62c.22,0,.32.22.18.4l-7.18,9.32v3.84c0,.3-.14.44-.44.44h-2.16c-.3,0-.46-.14-.46-.44v-3.84l-7.1-9.32c-.14-.18-.06-.4.18-.4h2.68Z"/>
        <path class="cls-5" d="M152.18,20.8c.3,0,.44.14.44.44v7.98c0,2.12.6,2.74,2.66,2.74h8.1c.3,0,.44.14.44.44v1.96c0,.3-.14.44-.44.44h-8.22c-4.04,0-5.6-1.44-5.6-5.28v-8.28c0-.3.16-.44.46-.44h2.16Z"/>
        <path class="cls-5" d="M174.5,20.8c1.02,0,1.64.32,2.3,1.52l6.62,12.02c.14.26.08.46-.24.46h-2.54c-.26,0-.36-.06-.46-.26l-1.42-2.58h-9.4l-1.38,2.58c-.1.2-.22.26-.46.26h-2.6c-.34,0-.4-.2-.26-.46l6.56-12.02c.66-1.2,1.26-1.52,2.1-1.52h1.18ZM170.62,29.64h6.88l-3.18-5.86c-.06-.1-.12-.14-.22-.14h-.12c-.1,0-.16.04-.22.14l-3.14,5.86Z"/>
        <path class="cls-5" d="M199.03,20.8c.3,0,.44.14.44.44v1.9c0,.3-.14.44-.44.44h-10.02c-.76,0-1.06.42-1.06,1.12v.68c0,.74.34,1.12,1.04,1.12h7.5c2.3,0,3.5,1.24,3.5,3.44v1.6c0,1.94-1.12,3.26-3.54,3.26h-11.08c-.3,0-.46-.14-.46-.44v-1.9c0-.3.16-.44.46-.44h10.5c.76,0,1.06-.42,1.06-1.12v-.82c0-.74-.34-1.12-1.04-1.12h-7.5c-2.3,0-3.5-1.24-3.5-3.44v-1.46c0-1.94,1.12-3.26,3.54-3.26h10.6ZM193.41,35.62c.32,0,.46.18.38.52l-.88,3.64c-.08.3-.22.46-.5.46h-1.14c-.32,0-.48-.18-.46-.46l.32-3.7c.02-.3.2-.46.48-.46h1.8Z"/>
        <path class="cls-5" d="M208.04,18.5c.22,0,.32.14.24.36l-6,18.56c-.08.22-.12.32-.38.32h-1.4c-.22,0-.32-.12-.24-.36l6-18.54c.08-.24.12-.34.38-.34h1.4Z"/>
        <path class="cls-5" d="M222.85,20.8c.3,0,.44.14.44.44v1.9c0,.3-.14.44-.44.44h-10.02c-.76,0-1.06.42-1.06,1.12v.68c0,.74.34,1.12,1.04,1.12h7.5c2.3,0,3.5,1.24,3.5,3.44v1.6c0,1.94-1.12,3.26-3.54,3.26h-11.08c-.3,0-.46-.14-.46-.44v-1.9c0-.3.16-.44.46-.44h10.5c.76,0,1.06-.42,1.06-1.12v-.82c0-.74-.34-1.12-1.04-1.12h-7.5c-2.3,0-3.5-1.24-3.5-3.44v-1.46c0-1.94,1.12-3.26,3.54-3.26h10.6Z"/>
        <path class="cls-5" d="M234.6,20.8c1.02,0,1.64.32,2.3,1.52l6.62,12.02c.14.26.08.46-.24.46h-2.54c-.26,0-.36-.06-.46-.26l-1.42-2.58h-9.4l-1.38,2.58c-.1.2-.22.26-.46.26h-2.6c-.34,0-.4-.2-.26-.46l6.56-12.02c.66-1.2,1.26-1.52,2.1-1.52h1.18ZM230.72,29.64h6.88l-3.18-5.86c-.06-.1-.12-.14-.22-.14h-.12c-.1,0-.16.04-.22.14l-3.14,5.86Z"/>
        <path class="cls-5" d="M247.84,20.8c.3,0,.44.14.44.44v5.32h2.82c1.26,0,1.64-.14,2.22-.9l3.44-4.6c.14-.18.22-.26.58-.26h2.48c.34,0,.4.3.26.48l-3.88,5.02c-.46.6-.82,1.02-1.2,1.34.54.34,1.02.8,1.52,1.44l4.1,5.2c.1.14.14.52-.26.52h-2.56c-.34,0-.42-.08-.56-.26l-3.68-4.76c-.54-.7-1-.9-2.24-.9h-3.04v5.48c0,.3-.14.44-.44.44h-2.16c-.3,0-.46-.14-.46-.44v-13.12c0-.3.16-.44.46-.44h2.16Z"/>
        <path class="cls-5" d="M264.88,20.8c.3,0,.44.14.44.44v7.98c0,2.12.6,2.74,2.66,2.74h8.1c.3,0,.44.14.44.44v1.96c0,.3-.14.44-.44.44h-8.22c-4.04,0-5.6-1.44-5.6-5.28v-8.28c0-.3.16-.44.46-.44h2.16Z"/>
        <path class="cls-5" d="M287.2,20.8c1.02,0,1.64.32,2.3,1.52l6.62,12.02c.14.26.08.46-.24.46h-2.54c-.26,0-.36-.06-.46-.26l-1.42-2.58h-9.4l-1.38,2.58c-.1.2-.22.26-.46.26h-2.6c-.34,0-.4-.2-.26-.46l6.56-12.02c.66-1.2,1.26-1.52,2.1-1.52h1.18ZM283.32,29.64h6.88l-3.18-5.86c-.06-.1-.12-.14-.22-.14h-.12c-.1,0-.16.04-.22.14l-3.14,5.86Z"/>
      </g>
      <g>
        <path class="cls-5" d="M35.24,38.61c-.25-.25-.56-.46-.81-.75-.11-.13-.33-.57-.41-.61-.12-.08-.92.49-1.11.59-4.15,2.22-8.79,2.62-13.21.85-6.91-2.77-10.97-10.37-9.2-17.67-.3-.02-.62-.11-.9-.22-.39-.15-.69-.43-1.07-.53-.2,1.01-.34,1.98-.41,3.01,0,.05-.06.09-.06.11-.04.72.03,1.45,0,2.17l.22,1.78c1.22,7.44,7.31,13.35,14.79,14.34.41.05.85.04,1.24.15h2.1c.16,0,.44-.05.64-.07,2.98-.28,5.74-1.38,8.23-2.98.03-.1-.02-.11-.07-.16Z"/>
        <path class="cls-5" d="M12.43,13.17c.57.28,1.16.48,1.58,1,.64-.55,1.22-1.16,1.89-1.69,4.74-3.74,11.17-4.38,16.56-1.63.2-.68.68-1.19,1.15-1.69-2.01-1.02-4.21-1.74-6.47-1.97-.22-.02-.47.06-.64-.07h-2.17c-.77.05-1.68.2-2.45.36-3.7.77-7.04,2.76-9.54,5.57-.02.13.02.08.08.12Z"/>
        <path class="cls-5" d="M42.69,22.82c-.28-2.97-1.38-5.75-2.98-8.23-.1-.03-.11.02-.16.07-.44.45-.81,1.03-1.46,1.22,3.14,4.59,3.49,10.71.95,15.65.68.2,1.19.68,1.69,1.15.23-.58.54-1.12.78-1.7.7-1.73,1.07-3.58,1.26-5.42v-2.1c0-.16-.05-.44-.07-.64Z"/>
        <path class="cls-5" d="M16.83,34.29l3.81-1.14c4.86,2.45,10.74.87,13.39-3.95,3.76-6.85-1.64-15.1-9.37-14.53-7.07.52-11.22,8.27-7.91,14.52l-1.16,4c-.05.71.54,1.23,1.24,1.1ZM22.48,19.41h5.81c1.14.26,1.13,1.74,0,2.01h-5.75c-1.11-.3-1.14-1.66-.06-2.01ZM22.48,23.48h5.81c1.14.26,1.13,1.74,0,2.01h-5.75c-1.11-.3-1.14-1.66-.06-2.01ZM22.48,27.54h5.81c1.14.26,1.13,1.74,0,2.01h-5.75c-1.11-.3-1.14-1.66-.06-2.01Z"/>
        <path class="cls-5" d="M36.49,14.3c2.64-.27,2.23-4.4-.52-4.04-2.57.34-2.16,4.32.52,4.04Z"/>
        <path class="cls-5" d="M11.35,19.05c2.64-.27,2.23-4.4-.52-4.04-2.57.34-2.16,4.32.52,4.04Z"/>
        <path class="cls-5" d="M37.32,33.31c-2.57.34-2.16,4.32.52,4.04,2.64-.27,2.23-4.4-.52-4.04Z"/>
      </g>
    </g>
  </g>
</svg>