<?xml version="1.0" encoding="UTF-8"?>
<svg id="Layer_2" data-name="Layer 2" xmlns="http://www.w3.org/2000/svg" xmlns:xlink="http://www.w3.org/1999/xlink" viewBox="0 0 504.69 50.98">
  <defs>
    <style>
      .cls-1 {
        fill: #241e33;
      }

      .cls-2 {
        fill: url(#_ÂÁ_Ï_ÌÌ_È_ËÂÌÚ_2-2);
      }

      .cls-3 {
        fill: url(#_ÂÁ_Ï_ÌÌ_È_ËÂÌÚ_3);
      }

      .cls-4 {
        fill: url(#_ÂÁ_Ï_ÌÌ_È_ËÂÌÚ_2);
      }

      .cls-5 {
        fill: #fff;
      }

      .cls-6 {
        fill: #3c354f;
      }
    </style>
    <radialGradient id="_ÂÁ_Ï_ÌÌ_È_ËÂÌÚ_3" data-name="¡ÂÁ˚ÏˇÌÌ˚È „‡‰ËÂÌÚ 3" cx="17244.23" cy="8369.63" fx="17244.23" fy="8369.63" r="1566.72" gradientTransform="translate(-1437.44 -860.06) scale(.1)" gradientUnits="userSpaceOnUse">
      <stop offset="0" stop-color="#241883"/>
      <stop offset=".35" stop-color="#241a60"/>
      <stop offset=".75" stop-color="#241d3f"/>
      <stop offset=".97" stop-color="#241e33"/>
    </radialGradient>
    <linearGradient id="_ÂÁ_Ï_ÌÌ_È_ËÂÌÚ_2" data-name="¡ÂÁ˚ÏˇÌÌ˚È „‡‰ËÂÌÚ 2" x1="2" y1="25.49" x2="502.69" y2="25.49" gradientUnits="userSpaceOnUse">
      <stop offset="0" stop-color="#d730c4"/>
      <stop offset=".23" stop-color="#b048d4"/>
      <stop offset=".57" stop-color="#7a69eb"/>
      <stop offset=".83" stop-color="#597ef9"/>
      <stop offset=".97" stop-color="#4d86ff"/>
    </linearGradient>
    <linearGradient id="_ÂÁ_Ï_ÌÌ_È_ËÂÌÚ_2-2" data-name="¡ÂÁ˚ÏˇÌÌ˚È „‡‰ËÂÌÚ 2" x1="46.96" y1="25.49" x2="499.14" y2="25.49" xlink:href="#_ÂÁ_Ï_ÌÌ_È_ËÂÌÚ_2"/>
  </defs>
  <g id="Layer_1-2" data-name="Layer 1">
    <g>
      <g>
        <polygon class="cls-6" points="494.42 0 10.26 0 .4 13.1 0 13.63 0 37.35 10.26 50.98 494.42 50.98 504.28 37.88 504.69 37.35 504.69 13.63 494.42 0"/>
        <polygon class="cls-1" points="11.54 48.41 2.57 36.49 2.57 14.49 11.54 2.57 493.14 2.57 502.12 14.49 502.12 36.49 493.14 48.41 11.54 48.41"/>
        <path class="cls-3" d="M56.86,2.57c1.99,19.25,167.42,34.39,216.18,34.39,44.23,0,214.48-15.14,216.46-34.39H56.86Z"/>
        <path class="cls-4" d="M493.43,2H11.26L2,14.3v22.38l9.26,12.3h482.17l9.26-12.3V14.3l-9.26-12.3ZM501.55,36.3l-8.69,11.54H53.4l-8.57-11.38V14.52l8.57-11.38h439.46l8.69,11.54v21.62Z"/>
        <path class="cls-2" d="M54.99,4.9l-8.04,10.55v20.09l8.04,10.55h436l8.14-10.69V15.59l-8.14-10.69H54.99ZM498.38,35.14l-7.76,10.19H55.37l-7.65-10.04V15.7l7.65-10.04h435.25l7.76,10.19v19.29Z"/>
      </g>
      <g>
        <path class="cls-5" d="M81.9,18.05c3.06,0,4.3,1.42,4.3,4.12v1.48c0,2.7-1.24,4.12-4.3,4.12h-8.28v3.84c0,.3-.14.44-.44.44h-2.16c-.3,0-.46-.14-.46-.44v-12.96c0-.4.2-.6.6-.6h10.74ZM73.62,25.13h7.66c1.36,0,1.86-.58,1.86-1.78v-.76c0-1.2-.5-1.78-1.86-1.78h-7.4c-.18,0-.26.06-.26.24v4.08Z"/>
        <path class="cls-5" d="M90.8,18.05c.3,0,.44.14.44.44v5.2h9.36v-5.2c0-.3.14-.44.44-.44h2.16c.3,0,.46.14.46.44v13.12c0,.3-.16.44-.46.44h-2.16c-.3,0-.44-.14-.44-.44v-5.32h-9.36v5.32c0,.3-.14.44-.44.44h-2.16c-.3,0-.46-.14-.46-.44v-13.12c0-.3.16-.44.46-.44h2.16Z"/>
        <path class="cls-5" d="M108.92,18.05c.3,0,.44.14.44.44v13.12c0,.3-.14.44-.44.44h-2.16c-.3,0-.46-.14-.46-.44v-13.12c0-.3.16-.44.46-.44h2.16Z"/>
        <path class="cls-5" d="M125.92,18.05c.3,0,.44.14.44.44v1.9c0,.3-.14.44-.44.44h-10.02c-.76,0-1.06.42-1.06,1.12v.68c0,.74.34,1.12,1.04,1.12h7.5c2.3,0,3.5,1.24,3.5,3.44v1.6c0,1.94-1.12,3.26-3.54,3.26h-11.08c-.3,0-.46-.14-.46-.44v-1.9c0-.3.16-.44.46-.44h10.5c.76,0,1.06-.42,1.06-1.12v-.82c0-.74-.34-1.12-1.04-1.12h-7.5c-2.3,0-3.5-1.24-3.5-3.44v-1.46c0-1.94,1.12-3.26,3.54-3.26h10.6Z"/>
        <path class="cls-5" d="M131.78,18.05c.3,0,.44.14.44.44v5.2h9.36v-5.2c0-.3.14-.44.44-.44h2.16c.3,0,.46.14.46.44v13.12c0,.3-.16.44-.46.44h-2.16c-.3,0-.44-.14-.44-.44v-5.32h-9.36v5.32c0,.3-.14.44-.44.44h-2.16c-.3,0-.46-.14-.46-.44v-13.12c0-.3.16-.44.46-.44h2.16Z"/>
        <path class="cls-5" d="M149.9,18.05c.3,0,.44.14.44.44v13.12c0,.3-.14.44-.44.44h-2.16c-.3,0-.46-.14-.46-.44v-13.12c0-.3.16-.44.46-.44h2.16ZM149.78,14.35c.3,0,.44.12.44.36v1.9c0,.24-.14.36-.44.36h-1.96c-.3,0-.44-.12-.44-.36v-1.9c0-.24.14-.36.44-.36h1.96Z"/>
        <path class="cls-5" d="M156.56,18.05c1.28,0,1.56.16,2.32,1.18l7.44,9.76c.06.1.14.14.26.14h.18c.1,0,.16-.06.16-.2v-10.44c0-.3.14-.44.44-.44h2.1c.3,0,.44.14.44.44v11.48c0,1.62-.58,2.08-1.8,2.08h-1.72c-1.22,0-1.52-.12-2.32-1.18l-7.46-9.76c-.08-.1-.14-.14-.26-.14h-.18c-.12,0-.16.06-.16.2v10.44c0,.3-.14.44-.44.44h-2.1c-.3,0-.46-.14-.46-.44v-11.48c0-1.62.58-2.08,1.8-2.08h1.76Z"/>
        <path class="cls-5" d="M188.14,18.05c.3,0,.44.14.44.44v1.96c0,.3-.14.46-.44.46h-10.02c-2.06,0-2.66.6-2.66,2.72v2.88c0,2.12.6,2.74,2.66,2.74h6.6c.7,0,1-.32,1-1.22v-1.62c0-.18-.06-.26-.24-.26h-5.86c-.28,0-.44-.16-.44-.46v-1.5c0-.3.16-.46.44-.46h8.34c.4,0,.6.2.6.6v4.66c0,2.24-.88,3.06-2.48,3.06h-8.08c-4.04,0-5.6-1.44-5.6-5.28v-3.44c0-3.84,1.56-5.28,5.6-5.28h10.14Z"/>
        <path class="cls-5" d="M213,18.05c.3,0,.46.14.46.44v1.96c0,.3-.16.46-.46.46h-6.28v10.7c0,.3-.14.44-.44.44h-2.18c-.3,0-.44-.14-.44-.44v-10.7h-6.28c-.3,0-.46-.16-.46-.46v-1.96c0-.3.16-.44.46-.44h15.62Z"/>
        <path class="cls-5" d="M229.08,18.05c.3,0,.46.14.46.44v1.9c0,.3-.16.44-.46.44h-8.74c-2.08,0-2.66.62-2.66,2.72v.2h11.3c.3,0,.44.14.44.44v1.58c0,.3-.14.44-.44.44h-11.3v.34c0,2.1.58,2.72,2.66,2.72h8.74c.3,0,.46.14.46.44v1.9c0,.3-.16.44-.46.44h-8.8c-4.04,0-5.6-1.44-5.6-5.28v-3.44c0-3.84,1.56-5.28,5.6-5.28h8.8Z"/>
        <path class="cls-5" d="M245.74,18.05c.3,0,.44.14.44.44v1.9c0,.3-.14.44-.44.44h-10.02c-.76,0-1.06.42-1.06,1.12v.68c0,.74.34,1.12,1.04,1.12h7.5c2.3,0,3.5,1.24,3.5,3.44v1.6c0,1.94-1.12,3.26-3.54,3.26h-11.08c-.3,0-.46-.14-.46-.44v-1.9c0-.3.16-.44.46-.44h10.5c.76,0,1.06-.42,1.06-1.12v-.82c0-.74-.34-1.12-1.04-1.12h-7.5c-2.3,0-3.5-1.24-3.5-3.44v-1.46c0-1.94,1.12-3.26,3.54-3.26h10.6Z"/>
        <path class="cls-5" d="M264.2,18.05c.3,0,.46.14.46.44v1.96c0,.3-.16.46-.46.46h-6.28v10.7c0,.3-.14.44-.44.44h-2.18c-.3,0-.44-.14-.44-.44v-10.7h-6.28c-.3,0-.46-.16-.46-.46v-1.96c0-.3.16-.44.46-.44h15.62Z"/>
        <path class="cls-5" d="M269.06,18.05c.3,0,.44.14.44.44v13.12c0,.3-.14.44-.44.44h-2.16c-.3,0-.46-.14-.46-.44v-13.12c0-.3.16-.44.46-.44h2.16ZM268.94,14.35c.3,0,.44.12.44.36v1.9c0,.24-.14.36-.44.36h-1.96c-.3,0-.44-.12-.44-.36v-1.9c0-.24.14-.36.44-.36h1.96Z"/>
        <path class="cls-5" d="M294.44,18.05c.3,0,.44.14.44.44v1.96c0,.3-.14.46-.44.46h-10.02c-2.06,0-2.66.6-2.66,2.72v2.88c0,2.12.6,2.74,2.66,2.74h6.6c.7,0,1-.32,1-1.22v-1.62c0-.18-.06-.26-.24-.26h-5.86c-.28,0-.44-.16-.44-.46v-1.5c0-.3.16-.46.44-.46h8.34c.4,0,.6.2.6.6v4.66c0,2.24-.88,3.06-2.48,3.06h-8.08c-4.04,0-5.6-1.44-5.6-5.28v-3.44c0-3.84,1.56-5.28,5.6-5.28h10.14Z"/>
        <path class="cls-5" d="M309,18.05c4.06,0,5.6,1.44,5.6,5.28v3.44c0,3.84-1.54,5.28-5.6,5.28h-6.18c-4.04,0-5.6-1.44-5.6-5.28v-3.44c0-3.84,1.56-5.28,5.6-5.28h6.18ZM300.28,26.55c0,2.1.6,2.72,2.66,2.72h5.94c2.06,0,2.66-.62,2.66-2.72v-3c0-2.1-.6-2.72-2.66-2.72h-5.94c-2.06,0-2.66.62-2.66,2.72v3ZM304.1,14.35c.3,0,.44.12.44.36v1.9c0,.24-.14.36-.44.36h-1.96c-.3,0-.44-.12-.44-.36v-1.9c0-.24.14-.36.44-.36h1.96ZM309.68,14.35c.3,0,.46.12.46.36v1.9c0,.24-.16.36-.46.36h-1.96c-.3,0-.44-.12-.44-.36v-1.9c0-.24.14-.36.44-.36h1.96Z"/>
        <path class="cls-5" d="M328.42,18.05c3.06,0,4.3,1.42,4.3,4.12v1.14c0,2.28-.88,3.62-2.98,4l3.42,4.24c.12.14.1.5-.26.5h-2.58c-.34,0-.44-.08-.56-.26l-3.16-4.16h-6.46v3.98c0,.3-.14.44-.44.44h-2.16c-.3,0-.46-.14-.46-.44v-12.96c0-.4.2-.6.6-.6h10.74ZM320.14,25.19h7.66c1.36,0,1.86-.58,1.86-1.78v-.84c0-1.2-.5-1.78-1.86-1.78h-7.4c-.18,0-.26.08-.26.24v4.16Z"/>
        <path class="cls-5" d="M349.06,18.05c.3,0,.46.14.46.44v1.9c0,.3-.16.44-.46.44h-8.74c-2.08,0-2.66.62-2.66,2.72v.2h11.3c.3,0,.44.14.44.44v1.58c0,.3-.14.44-.44.44h-11.3v.34c0,2.1.58,2.72,2.66,2.72h8.74c.3,0,.46.14.46.44v1.9c0,.3-.16.44-.46.44h-8.8c-4.04,0-5.6-1.44-5.6-5.28v-3.44c0-3.84,1.56-5.28,5.6-5.28h8.8Z"/>
        <path class="cls-5" d="M353.64,18.05c.26,0,.36.08.46.26l5.86,10.76c.06.12.12.14.24.14h.1c.1,0,.16-.02.22-.14l5.78-10.76c.1-.2.22-.26.46-.26h2.62c.32,0,.38.2.24.46l-6.56,12.02c-.66,1.22-1.26,1.52-2.1,1.52h-1.16c-1.04,0-1.62-.3-2.3-1.52l-6.64-12.02c-.14-.26-.08-.46.26-.46h2.52Z"/>
        <path class="cls-5" d="M373.94,18.05c.3,0,.44.14.44.44v13.12c0,.3-.14.44-.44.44h-2.16c-.3,0-.46-.14-.46-.44v-13.12c0-.3.16-.44.46-.44h2.16ZM373.82,14.35c.3,0,.44.12.44.36v1.9c0,.24-.14.36-.44.36h-1.96c-.3,0-.44-.12-.44-.36v-1.9c0-.24.14-.36.44-.36h1.96Z"/>
        <path class="cls-5" d="M380.6,18.05c1.28,0,1.56.16,2.32,1.18l7.44,9.76c.06.1.14.14.26.14h.18c.1,0,.16-.06.16-.2v-10.44c0-.3.14-.44.44-.44h2.1c.3,0,.44.14.44.44v11.48c0,1.62-.58,2.08-1.8,2.08h-1.72c-1.22,0-1.52-.12-2.32-1.18l-7.46-9.76c-.08-.1-.14-.14-.26-.14h-.18c-.12,0-.16.06-.16.2v10.44c0,.3-.14.44-.44.44h-2.1c-.3,0-.46-.14-.46-.44v-11.48c0-1.62.58-2.08,1.8-2.08h1.76Z"/>
        <path class="cls-5" d="M410.84,18.05c.3,0,.46.14.46.44v1.9c0,.3-.16.44-.46.44h-8.74c-2.08,0-2.66.62-2.66,2.72v.2h11.3c.3,0,.44.14.44.44v1.58c0,.3-.14.44-.44.44h-11.3v.34c0,2.1.58,2.72,2.66,2.72h8.74c.3,0,.46.14.46.44v1.9c0,.3-.16.44-.46.44h-8.8c-4.04,0-5.6-1.44-5.6-5.28v-3.44c0-3.84,1.56-5.28,5.6-5.28h8.8Z"/>
        <path class="cls-5" d="M435.88,18.05c.3,0,.44.14.44.44v1.96c0,.3-.14.46-.44.46h-10.02c-2.06,0-2.66.6-2.66,2.72v2.88c0,2.12.6,2.74,2.66,2.74h6.6c.7,0,1-.32,1-1.22v-1.62c0-.18-.06-.26-.24-.26h-5.86c-.28,0-.44-.16-.44-.46v-1.5c0-.3.16-.46.44-.46h8.34c.4,0,.6.2.6.6v4.66c0,2.24-.88,3.06-2.48,3.06h-8.08c-4.04,0-5.6-1.44-5.6-5.28v-3.44c0-3.84,1.56-5.28,5.6-5.28h10.14Z"/>
        <path class="cls-5" d="M453.06,18.05c.3,0,.46.14.46.44v1.9c0,.3-.16.44-.46.44h-8.74c-2.08,0-2.66.62-2.66,2.72v.2h11.3c.3,0,.44.14.44.44v1.58c0,.3-.14.44-.44.44h-11.3v.34c0,2.1.58,2.72,2.66,2.72h8.74c.3,0,.46.14.46.44v1.9c0,.3-.16.44-.46.44h-8.8c-4.04,0-5.6-1.44-5.6-5.28v-3.44c0-3.84,1.56-5.28,5.6-5.28h8.8Z"/>
        <path class="cls-5" d="M470.28,18.05c.3,0,.44.14.44.44v1.96c0,.3-.14.46-.44.46h-8.9c-2.06,0-2.66.6-2.66,2.72v2.84c0,2.12.6,2.74,2.66,2.74h8.9c.3,0,.44.14.44.44v1.96c0,.3-.14.44-.44.44h-9.02c-4.04,0-5.6-1.44-5.6-5.28v-3.44c0-3.84,1.56-5.28,5.6-5.28h9.02ZM464.76,32.87c.32,0,.46.18.38.52l-.88,3.64c-.08.3-.22.46-.5.46h-1.14c-.32,0-.48-.18-.46-.46l.32-3.7c.02-.3.2-.46.48-.46h1.8Z"/>
        <path class="cls-5" d="M475.32,17.35c.3,0,.46.16.46.46l-.56,9c-.02.3-.14.44-.44.44h-1.16c-.3,0-.42-.14-.44-.44l-.56-9c0-.3.16-.46.46-.46h2.24ZM475.18,29.25c.3,0,.44.14.44.44v1.92c0,.3-.14.44-.44.44h-1.96c-.3,0-.46-.14-.46-.44v-1.92c0-.3.16-.44.46-.44h1.96Z"/>
      </g>
      <g>
        <path class="cls-5" d="M37.58,17.64c-.1-.05-.5-.21-.57-.21h-9.01v-3.78c1.4-.59,2.2-1.97,1.69-3.48-.32-.97-1.19-1.59-2.17-1.79h-.71l-.94.33c-1.99,1.14-1.75,3.99.35,4.87v3.84c-1.78,0-3.57,0-5.35,0,.03,1.61.18,3,1.9,3.66.78.29,2.16,0,1.96,1.31-.2,1.28-2.5.46-3.21.06-2.06-1.17-2.4-2.82-2.44-5.03h-8.94c-.95.16-1.58.81-1.82,1.72v17.96c.24.9.82,1.49,1.72,1.72h27c.91-.24,1.49-.82,1.72-1.72v-17.96c-.21-.68-.52-1.21-1.19-1.52ZM21.79,35.27h-8.98c-.4-.02-.79-.35-.86-.75-.05-.32-.03-1.08,0-1.42.13-1.72,1.18-3.47,2.73-4.25v-.09c-1.68-1.75-1.03-4.72,1.17-5.67,3.21-1.39,6.28,2.12,4.51,5.1-.07.12-.47.61-.44.66,1.57.8,2.62,2.56,2.74,4.31.05.77.19,2.04-.86,2.12ZM26.97,10.19c1.19-.25,1.49,1.53.39,1.76-1.17.24-1.51-1.52-.39-1.76ZM32.55,33.49h-7.31c-.97-.27-1-1.46-.05-1.77h7.42c1.02.24.98,1.59-.05,1.77ZM34.33,29.92h-9.16c-.97-.26-1.01-1.48-.05-1.77h9.26c1.02.24.98,1.59-.05,1.77ZM34.33,26.35h-9.1c-.97-.25-1-1.47-.05-1.77h9.2c1.02.24.98,1.59-.05,1.77Z"/>
        <path class="cls-5" d="M20.86,17.43c-.01-.75,0-1.51,0-2.26.84,1.07,2.38.1,1.55-1.04-.26-.35-1.43-1.5-1.78-1.78-.62-.49-1.34-.28-1.54.48,0,1.53-.03,3.07,0,4.6.59,0,1.19,0,1.78,0Z"/>
        <path class="cls-5" d="M15.57,30.36c-1.11.6-1.85,1.85-1.84,3.12h7.14c-.03-2.7-2.87-4.43-5.29-3.12Z"/>
        <path class="cls-5" d="M17.5,28.13c2.31-.24,1.96-3.86-.45-3.55-2.25.3-1.89,3.79.45,3.55Z"/>
      </g>
    </g>
  </g>
</svg>