<?xml version="1.0" encoding="UTF-8"?>
<svg id="Layer_2" data-name="Layer 2" xmlns="http://www.w3.org/2000/svg" xmlns:xlink="http://www.w3.org/1999/xlink" viewBox="0 0 492.45 482.27">
  <defs>
    <style>
      .cls-1 {
        fill: #241e33;
      }

      .cls-2 {
        fill: url(#_ÂÁ_Ï_ÌÌ_È_ËÂÌÚ_2-2);
      }

      .cls-3 {
        fill: url(#_ÂÁ_Ï_ÌÌ_È_ËÂÌÚ_2-3);
      }

      .cls-4 {
        fill: url(#_ÂÁ_Ï_ÌÌ_È_ËÂÌÚ_2-4);
      }

      .cls-5 {
        fill: url(#_ÂÁ_Ï_ÌÌ_È_ËÂÌÚ_2-5);
      }

      .cls-6 {
        fill: url(#_ÂÁ_Ï_ÌÌ_È_ËÂÌÚ_3-2);
      }

      .cls-7 {
        fill: url(#linear-gradient);
      }

      .cls-8 {
        fill: url(#_ÂÁ_Ï_ÌÌ_È_ËÂÌÚ_3);
      }

      .cls-9 {
        fill: url(#_ÂÁ_Ï_ÌÌ_È_ËÂÌÚ_2);
      }

      .cls-10 {
        fill: url(#_ÂÁ_Ï_ÌÌ_È_ËÂÌÚ_4);
      }

      .cls-11 {
        fill: #fff;
      }

      .cls-12 {
        fill: #00134a;
      }

      .cls-13 {
        fill: #3c354f;
      }

      .cls-14 {
        fill: #302942;
      }
    </style>
    <radialGradient id="_ÂÁ_Ï_ÌÌ_È_ËÂÌÚ_3" data-name="¡ÂÁ˚ÏˇÌÌ˚È „‡‰ËÂÌÚ 3" cx="35602.43" cy="5399.48" fx="35602.43" fy="5399.48" r="1450.79" gradientTransform="translate(4509.48 1123.15) rotate(-180) scale(.12)" gradientUnits="userSpaceOnUse">
      <stop offset="0" stop-color="#241883"/>
      <stop offset=".35" stop-color="#241a60"/>
      <stop offset=".75" stop-color="#241d3f"/>
      <stop offset=".97" stop-color="#241e33"/>
    </radialGradient>
    <linearGradient id="_ÂÁ_Ï_ÌÌ_È_ËÂÌÚ_2" data-name="¡ÂÁ˚ÏˇÌÌ˚È „‡‰ËÂÌÚ 2" x1="-26.45" y1="232.11" x2="549.19" y2="228.26" gradientUnits="userSpaceOnUse">
      <stop offset="0" stop-color="#d730c4"/>
      <stop offset=".23" stop-color="#b048d4"/>
      <stop offset=".57" stop-color="#7a69eb"/>
      <stop offset=".83" stop-color="#597ef9"/>
      <stop offset=".97" stop-color="#4d86ff"/>
    </linearGradient>
    <linearGradient id="_ÂÁ_Ï_ÌÌ_È_ËÂÌÚ_2-2" data-name="¡ÂÁ˚ÏˇÌÌ˚È „‡‰ËÂÌÚ 2" x1="167.16" y1="214.63" x2="523.84" y2="212.25" xlink:href="#_ÂÁ_Ï_ÌÌ_È_ËÂÌÚ_2"/>
    <linearGradient id="_ÂÁ_Ï_ÌÌ_È_ËÂÌÚ_2-3" data-name="¡ÂÁ˚ÏˇÌÌ˚È „‡‰ËÂÌÚ 2" x1="-12.29" y1="298.72" x2="344.39" y2="296.33" xlink:href="#_ÂÁ_Ï_ÌÌ_È_ËÂÌÚ_2"/>
    <linearGradient id="_ÂÁ_Ï_ÌÌ_È_ËÂÌÚ_2-4" data-name="¡ÂÁ˚ÏˇÌÌ˚È „‡‰ËÂÌÚ 2" x1="78.63" y1="435.35" x2="435.31" y2="432.97" xlink:href="#_ÂÁ_Ï_ÌÌ_È_ËÂÌÚ_2"/>
    <radialGradient id="_ÂÁ_Ï_ÌÌ_È_ËÂÌÚ_3-2" data-name="¡ÂÁ˚ÏˇÌÌ˚È „‡‰ËÂÌÚ 3" cx="-36409.63" cy="-8298.79" fx="-36409.63" fy="-8298.79" r="1231.27" gradientTransform="translate(3859.5 855.73) scale(.1)" xlink:href="#_ÂÁ_Ï_ÌÌ_È_ËÂÌÚ_3"/>
    <linearGradient id="_ÂÁ_Ï_ÌÌ_È_ËÂÌÚ_2-5" data-name="¡ÂÁ˚ÏˇÌÌ˚È „‡‰ËÂÌÚ 2" x1="8.46" y1="40.29" x2="651.58" y2="35.99" xlink:href="#_ÂÁ_Ï_ÌÌ_È_ËÂÌÚ_2"/>
    <linearGradient id="linear-gradient" x1="246.22" y1="470.68" x2="246.22" y2="387.55" gradientUnits="userSpaceOnUse">
      <stop offset="0" stop-color="#0bf"/>
      <stop offset=".44" stop-color="#056ba4" stop-opacity=".55"/>
      <stop offset="1" stop-color="#0d0934" stop-opacity="0"/>
    </linearGradient>
    <linearGradient id="_ÂÁ_Ï_ÌÌ_È_ËÂÌÚ_4" data-name="¡ÂÁ˚ÏˇÌÌ˚È „‡‰ËÂÌÚ 4" x1="209.97" y1="428.75" x2="282.47" y2="428.75" gradientUnits="userSpaceOnUse">
      <stop offset="0" stop-color="#4d86ff"/>
      <stop offset=".03" stop-color="#587efa"/>
      <stop offset=".14" stop-color="#8562e6"/>
      <stop offset=".24" stop-color="#a84cd7"/>
      <stop offset=".34" stop-color="#c23ccc"/>
      <stop offset=".44" stop-color="#d133c6"/>
      <stop offset=".51" stop-color="#d730c4"/>
      <stop offset=".58" stop-color="#d233c6"/>
      <stop offset=".67" stop-color="#c33ccc"/>
      <stop offset=".76" stop-color="#ab4ad6"/>
      <stop offset=".86" stop-color="#8a5fe4"/>
      <stop offset=".96" stop-color="#6079f6"/>
      <stop offset="1" stop-color="#4d86ff"/>
    </linearGradient>
  </defs>
  <g id="Layer_1-2" data-name="Layer 1">
    <g>
      <g>
        <rect class="cls-13" x="35.58" y="-15.94" width="421.3" height="492.45" transform="translate(15.94 476.51) rotate(-90)"/>
        <rect class="cls-1" x="40.19" y="-11.35" width="412.04" height="483.28" transform="translate(15.93 476.5) rotate(-90)"/>
        <path class="cls-8" d="M461.14,436.31c-5-48.92-83.11-121.51-209.74-121.51-135.12,0-204.68,72.59-209.68,121.51h419.42Z"/>
        <path class="cls-9" d="M481.5,30.46v399.65H10.93V30.46h470.58ZM479.54,428.15V32.42H12.89v395.72h466.66Z"/>
      </g>
      <g>
        <polygon class="cls-13" points="473.86 288.64 473.86 135.37 492.45 120.97 492.45 302.06 473.86 288.64"/>
        <polygon class="cls-1" points="492.32 128.6 492.45 296.7 476.8 284.3 476.8 140.65 492.32 128.6"/>
        <polygon class="cls-2" points="478.96 278.73 478.96 146.18 492.45 136.28 492.45 288.64 478.96 278.73"/>
      </g>
      <g>
        <g>
          <path class="cls-13" d="M16.6,236.01c-5.53,5.5-11.06,10.99-16.6,16.47v154.75l18.02-15.39v-157.24c-.47.47-.95.94-1.42,1.41Z"/>
          <path class="cls-1" d="M0,252.49v112.99l14.97-12.4v-115.45c-4.99,4.96-9.98,9.91-14.97,14.86Z"/>
          <path class="cls-3" d="M0,252.49v104.93l12.82-9.91v-107.74c-4.27,4.24-8.54,8.48-12.82,12.71Z"/>
        </g>
        <g>
          <polygon class="cls-1" points="14.97 358.8 0 370.84 0 382.8 14.97 369.62 14.97 358.8"/>
          <polygon class="cls-1" points="14.97 376.44 0 388.49 0 400.44 14.97 387.27 14.97 376.44"/>
        </g>
      </g>
      <g>
        <polygon class="cls-13" points="311.15 427.45 182.33 427.45 169.9 440.94 322.55 440.94 311.15 427.45"/>
        <polygon class="cls-1" points="183.04 440.82 311.29 440.94 301.15 427.45 194.04 427.45 183.04 440.82"/>
        <polygon class="cls-4" points="294.81 427.45 199.52 427.45 189.61 440.94 304.72 440.94 294.81 427.45"/>
      </g>
      <g>
        <g>
          <g>
            <polygon class="cls-14" points="371.29 11.87 255.2 11.87 266.35 0 360.14 0 371.29 11.87"/>
            <g>
              <polygon class="cls-14" points="273.31 64.79 70.8 65.19 81.96 77.05 260.01 77.45 273.31 64.79"/>
              <polygon class="cls-14" points="420.73 65.19 353.18 64.79 366.48 77.45 409.57 77.05 420.73 65.19"/>
            </g>
          </g>
          <polygon class="cls-13" points="437.62 4.45 54.83 4.45 35.07 22.05 34.5 22.77 34.5 54.63 54.83 72.94 437.62 72.94 457.38 55.34 457.95 54.63 457.95 22.77 437.62 4.45"/>
          <polygon class="cls-1" points="56.55 69.49 38.15 53.47 38.15 23.92 56.55 7.91 435.9 7.91 454.3 23.92 454.3 53.47 435.9 69.49 56.55 69.49"/>
          <path class="cls-6" d="M84.34,8.11c3.03,29.32,64.2,52.38,177.8,52.38,94.7,0,145.81-23.06,148.84-52.38H84.34Z"/>
          <path class="cls-5" d="M59.31,11.03l-16.91,14.17v26.99l16.91,14.17h373.69l17.05-14.36v-26.61l-17.05-14.36H59.31ZM448.97,51.66l-16.48,13.68H59.81l-16.33-13.49v-26.3l16.33-13.49h372.68l16.48,13.68v25.92Z"/>
        </g>
        <g>
          <path class="cls-11" d="M74.03,32.47c.31,0,.46.15.46.46v1.99c0,.31-.15.46-.46.46h-10.52c-.8,0-1.11.44-1.11,1.18v.71c0,.78.36,1.18,1.09,1.18h7.87c2.41,0,3.67,1.3,3.67,3.61v1.68c0,2.04-1.18,3.42-3.72,3.42h-11.63c-.31,0-.48-.15-.48-.46v-1.99c0-.31.17-.46.48-.46h11.02c.8,0,1.11-.44,1.11-1.18v-.86c0-.78-.36-1.18-1.09-1.18h-7.87c-2.41,0-3.67-1.3-3.67-3.61v-1.53c0-2.04,1.18-3.42,3.72-3.42h11.13Z"/>
          <path class="cls-11" d="M80.18,32.47c.31,0,.46.15.46.46v13.77c0,.31-.15.46-.46.46h-2.27c-.31,0-.48-.15-.48-.46v-13.77c0-.31.17-.46.48-.46h2.27ZM80.06,28.59c.31,0,.46.13.46.38v1.99c0,.25-.15.38-.46.38h-2.06c-.31,0-.46-.13-.46-.38v-1.99c0-.25.15-.38.46-.38h2.06Z"/>
          <path class="cls-11" d="M96.16,32.47c2.9,0,3.99,1.13,3.99,3.46v1.01c0,1.2-.46,2.08-1.34,2.67.99.57,1.45,1.47,1.45,2.71v1.22c0,2.23-.92,3.63-3.72,3.63h-12.47c-.42,0-.63-.21-.63-.63v-13.44c0-.42.21-.63.63-.63h12.09ZM86.65,38.58h8.61c1.39,0,1.81-.42,1.81-1.24v-.71c0-.86-.46-1.26-1.55-1.26h-8.59c-.19,0-.27.08-.27.27v2.94ZM86.65,40.87v3.13c0,.19.08.27.27.27h8.61c1.11,0,1.55-.4,1.55-1.28v-.8c0-.86-.44-1.32-1.83-1.32h-8.61Z"/>
          <path class="cls-11" d="M117.69,32.47c.31,0,.48.15.48.46v1.99c0,.31-.17.46-.48.46h-9.18c-2.18,0-2.79.65-2.79,2.86v.21h11.86c.31,0,.46.15.46.46v1.66c0,.31-.15.46-.46.46h-11.86v.36c0,2.2.61,2.86,2.79,2.86h9.18c.31,0,.48.15.48.46v1.99c0,.31-.17.46-.48.46h-9.24c-4.24,0-5.88-1.51-5.88-5.54v-3.61c0-4.03,1.64-5.54,5.88-5.54h9.24Z"/>
          <path class="cls-11" d="M132.49,32.47c3.21,0,4.51,1.49,4.51,4.33v1.2c0,2.39-.92,3.8-3.13,4.2l3.59,4.45c.13.15.1.52-.27.52h-2.71c-.36,0-.46-.08-.59-.27l-3.32-4.37h-6.78v4.18c0,.31-.15.46-.46.46h-2.27c-.31,0-.48-.15-.48-.46v-13.61c0-.42.21-.63.63-.63h11.27ZM123.8,39.97h8.04c1.43,0,1.95-.61,1.95-1.87v-.88c0-1.26-.52-1.87-1.95-1.87h-7.77c-.19,0-.27.08-.27.25v4.37Z"/>
          <path class="cls-11" d="M162.98,32.47c.31,0,.46.15.46.46v2.06c0,.31-.15.48-.46.48h-10.52c-2.16,0-2.79.63-2.79,2.86v3.02c0,2.23.63,2.88,2.79,2.88h6.93c.73,0,1.05-.34,1.05-1.28v-1.7c0-.19-.06-.27-.25-.27h-6.15c-.29,0-.46-.17-.46-.48v-1.57c0-.31.17-.48.46-.48h8.76c.42,0,.63.21.63.63v4.89c0,2.35-.92,3.21-2.6,3.21h-8.48c-4.24,0-5.88-1.51-5.88-5.54v-3.61c0-4.03,1.64-5.54,5.88-5.54h10.65Z"/>
          <path class="cls-11" d="M168.78,32.47c.31,0,.46.15.46.46v8.38c0,2.23.63,2.88,2.79,2.88h5.82c2.16,0,2.77-.65,2.77-2.88v-8.38c0-.31.15-.46.46-.46h2.29c.31,0,.46.15.46.46v8.69c0,4.03-1.62,5.54-5.88,5.54h-6.05c-4.24,0-5.88-1.51-5.88-5.54v-8.69c0-.31.17-.46.48-.46h2.27ZM173.02,28.59c.31,0,.46.13.46.38v1.99c0,.25-.15.38-.46.38h-2.06c-.31,0-.46-.13-.46-.38v-1.99c0-.25.15-.38.46-.38h2.06ZM178.88,28.59c.31,0,.48.13.48.38v1.99c0,.25-.17.38-.48.38h-2.06c-.31,0-.46-.13-.46-.38v-1.99c0-.25.15-.38.46-.38h2.06Z"/>
          <path class="cls-11" d="M188.5,32.47c.27,0,.38.08.48.27l6.15,11.3c.06.13.13.15.25.15h.1c.1,0,.17-.02.23-.15l6.07-11.3c.1-.21.23-.27.48-.27h2.75c.34,0,.4.21.25.48l-6.89,12.62c-.69,1.28-1.32,1.6-2.2,1.6h-1.22c-1.09,0-1.7-.31-2.41-1.6l-6.97-12.62c-.15-.27-.08-.48.27-.48h2.65Z"/>
          <path class="cls-11" d="M221.18,32.47c.31,0,.48.15.48.46v1.99c0,.31-.17.46-.48.46h-9.18c-2.18,0-2.79.65-2.79,2.86v.21h11.86c.31,0,.46.15.46.46v1.66c0,.31-.15.46-.46.46h-11.86v.36c0,2.2.61,2.86,2.79,2.86h9.18c.31,0,.48.15.48.46v1.99c0,.31-.17.46-.48.46h-9.24c-4.24,0-5.88-1.51-5.88-5.54v-3.61c0-4.03,1.64-5.54,5.88-5.54h9.24Z"/>
          <path class="cls-11" d="M227.81,32.47c1.34,0,1.64.17,2.44,1.24l7.81,10.25c.06.1.15.15.27.15h.19c.1,0,.17-.06.17-.21v-10.96c0-.31.15-.46.46-.46h2.2c.31,0,.46.15.46.46v12.05c0,1.7-.61,2.18-1.89,2.18h-1.81c-1.28,0-1.6-.13-2.44-1.24l-7.83-10.25c-.08-.1-.15-.15-.27-.15h-.19c-.13,0-.17.06-.17.21v10.96c0,.31-.15.46-.46.46h-2.2c-.31,0-.48-.15-.48-.46v-12.05c0-1.7.61-2.18,1.89-2.18h1.85Z"/>
          <path class="cls-11" d="M247.32,32.47c.31,0,.46.15.46.46v8.38c0,2.23.63,2.88,2.79,2.88h8.5c.31,0,.46.15.46.46v2.06c0,.31-.15.46-.46.46h-8.63c-4.24,0-5.88-1.51-5.88-5.54v-8.69c0-.31.17-.46.48-.46h2.27Z"/>
          <path class="cls-11" d="M264.18,32.47c.31,0,.46.15.46.46v13.77c0,.31-.15.46-.46.46h-2.27c-.31,0-.48-.15-.48-.46v-13.77c0-.31.17-.46.48-.46h2.27ZM264.06,28.59c.31,0,.46.13.46.38v1.99c0,.25-.15.38-.46.38h-2.06c-.31,0-.46-.13-.46-.38v-1.99c0-.25.15-.38.46-.38h2.06Z"/>
          <path class="cls-11" d="M270.19,32.47c.31,0,.46.15.46.46v5.58h2.96c1.32,0,1.72-.15,2.33-.94l3.61-4.83c.15-.19.23-.27.61-.27h2.6c.36,0,.42.31.27.5l-4.07,5.27c-.48.63-.86,1.07-1.26,1.41.57.36,1.07.84,1.6,1.51l4.3,5.46c.1.15.15.55-.27.55h-2.69c-.36,0-.44-.08-.59-.27l-3.86-5c-.57-.73-1.05-.94-2.35-.94h-3.19v5.75c0,.31-.15.46-.46.46h-2.27c-.31,0-.48-.15-.48-.46v-13.77c0-.31.17-.46.48-.46h2.27Z"/>
          <path class="cls-11" d="M296.57,32.47c1.26,0,1.68.27,2.25,1.6l4.37,10.08c.06.15.15.19.29.19h.25c.15,0,.23-.04.29-.19l4.37-10.08c.57-1.32.99-1.6,2.23-1.6h2.25c1.47,0,1.85.59,1.85,2.18v12.05c0,.31-.17.46-.48.46h-2.14c-.31,0-.46-.15-.46-.46v-10.96c0-.15-.04-.21-.17-.21h-.19c-.15,0-.23.04-.27.17l-4.24,9.41c-.69,1.51-1.28,2.06-2.69,2.06h-1.01c-1.41,0-1.99-.55-2.69-2.06l-4.24-9.41c-.04-.13-.13-.17-.27-.17h-.19c-.13,0-.17.06-.17.21v10.96c0,.31-.15.46-.46.46h-2.14c-.31,0-.48-.15-.48-.46v-12.05c0-1.6.38-2.18,1.87-2.18h2.29Z"/>
          <path class="cls-11" d="M326.81,32.47c1.07,0,1.72.34,2.41,1.6l6.95,12.62c.15.27.08.48-.25.48h-2.67c-.27,0-.38-.06-.48-.27l-1.49-2.71h-9.87l-1.45,2.71c-.1.21-.23.27-.48.27h-2.73c-.36,0-.42-.21-.27-.48l6.89-12.62c.69-1.26,1.32-1.6,2.2-1.6h1.24ZM322.73,41.75h7.22l-3.34-6.15c-.06-.1-.13-.15-.23-.15h-.13c-.1,0-.17.04-.23.15l-3.3,6.15Z"/>
          <path class="cls-11" d="M352.3,32.47c.31,0,.46.15.46.46v2.06c0,.31-.15.48-.46.48h-9.34c-2.16,0-2.79.63-2.79,2.86v2.98c0,2.23.63,2.88,2.79,2.88h9.34c.31,0,.46.15.46.46v2.06c0,.31-.15.46-.46.46h-9.47c-4.24,0-5.88-1.51-5.88-5.54v-3.61c0-4.03,1.64-5.54,5.88-5.54h9.47Z"/>
          <path class="cls-11" d="M369.96,32.47c.31,0,.48.15.48.46v1.99c0,.31-.17.46-.48.46h-9.18c-2.18,0-2.79.65-2.79,2.86v.21h11.86c.31,0,.46.15.46.46v1.66c0,.31-.15.46-.46.46h-11.86v.36c0,2.2.61,2.86,2.79,2.86h9.18c.31,0,.48.15.48.46v1.99c0,.31-.17.46-.48.46h-9.24c-4.24,0-5.88-1.51-5.88-5.54v-3.61c0-4.03,1.64-5.54,5.88-5.54h9.24Z"/>
          <path class="cls-11" d="M384.76,32.47c3.21,0,4.51,1.49,4.51,4.33v1.2c0,2.39-.92,3.8-3.13,4.2l3.59,4.45c.13.15.1.52-.27.52h-2.71c-.36,0-.46-.08-.59-.27l-3.32-4.37h-6.78v4.18c0,.31-.15.46-.46.46h-2.27c-.31,0-.48-.15-.48-.46v-13.61c0-.42.21-.63.63-.63h11.27ZM376.07,39.97h8.04c1.43,0,1.95-.61,1.95-1.87v-.88c0-1.26-.52-1.87-1.95-1.87h-7.77c-.19,0-.27.08-.27.25v4.37Z"/>
          <path class="cls-11" d="M401.19,32.47c1.07,0,1.72.34,2.41,1.6l6.95,12.62c.15.27.08.48-.25.48h-2.67c-.27,0-.38-.06-.48-.27l-1.49-2.71h-9.87l-1.45,2.71c-.1.21-.23.27-.48.27h-2.73c-.36,0-.42-.21-.27-.48l6.89-12.62c.69-1.26,1.32-1.6,2.2-1.6h1.24ZM397.11,41.75h7.22l-3.34-6.15c-.06-.1-.13-.15-.23-.15h-.13c-.1,0-.17.04-.23.15l-3.3,6.15Z"/>
          <path class="cls-11" d="M426.93,32.47c.31,0,.46.15.46.46v1.99c0,.31-.15.46-.46.46h-10.52c-.8,0-1.11.44-1.11,1.18v.71c0,.78.36,1.18,1.09,1.18h7.87c2.41,0,3.67,1.3,3.67,3.61v1.68c0,2.04-1.18,3.42-3.72,3.42h-11.63c-.31,0-.48-.15-.48-.46v-1.99c0-.31.17-.46.48-.46h11.02c.8,0,1.11-.44,1.11-1.18v-.86c0-.78-.36-1.18-1.09-1.18h-7.87c-2.41,0-3.67-1.3-3.67-3.61v-1.53c0-2.04,1.18-3.42,3.72-3.42h11.13Z"/>
          <path class="cls-11" d="M433.09,32.47c.31,0,.46.15.46.46v13.77c0,.31-.15.46-.46.46h-2.27c-.31,0-.48-.15-.48-.46v-13.77c0-.31.17-.46.48-.46h2.27Z"/>
        </g>
      </g>
      <g>
        <g>
          <path class="cls-12" d="M290.97,397.75l-.08-1.37-1.37-.12c-25.5-2.31-42.2-20.66-42.36-20.84l-.95-1.11-.95,1.11c-.17.19-16.86,18.53-42.36,20.84l-1.36.12-.08,1.37c0,.19-1.02,19.32,3.88,38.97,6.57,26.37,20.7,41.73,40.85,44.44h.03s.03,0,.03,0c20.15-2.71,34.27-18.08,40.84-44.44,4.9-19.65,3.89-38.78,3.88-38.97Z"/>
          <path class="cls-13" d="M246.22,482.27l-.22-.03c-20.58-2.77-35.02-18.42-41.71-45.25-4.87-19.55-3.95-38.5-3.91-39.29l.13-2.32,2.31-.21c25.03-2.27,41.48-20.3,41.64-20.48l1.77-2.06,1.78,2.07c.15.17,16.55,18.19,41.63,20.47l2.31.21.13,2.31c.01.18,1.01,19.55-3.91,39.3-6.69,26.84-21.13,42.49-41.76,45.26l-.17.02ZM202.58,397.38l-.02.43c-.04.78-.94,19.41,3.85,38.65,6.44,25.84,20.21,40.92,39.81,43.61,19.62-2.71,33.37-17.79,39.81-43.61,4.88-19.58,3.86-38.45,3.85-38.64l-.02-.43-.42-.04c-25.82-2.34-42.92-21.02-43.09-21.21l-.13-.15-.12.14c-.18.2-17.03,18.86-43.09,21.22l-.42.04Z"/>
        </g>
        <path class="cls-12" d="M281.03,405.79l-.06-1.07-1.06-.1c-19.83-1.8-32.82-16.07-32.95-16.21l-.74-.86-.74.86c-.13.14-13.12,14.41-32.95,16.21l-1.06.1-.06,1.07c0,.15-.79,15.03,3.02,30.31,5.11,20.51,16.1,32.46,31.77,34.57h0s.02,0,.02,0c0,0,.01,0,.02,0h0c15.67-2.12,26.66-14.07,31.77-34.58,3.81-15.29,3.03-30.17,3.02-30.31Z"/>
        <path class="cls-7" d="M281.03,405.79l-.06-1.07-1.06-.1c-19.83-1.8-32.82-16.07-32.95-16.21l-.74-.86-.74.86c-.13.14-13.12,14.41-32.95,16.21l-1.06.1-.06,1.07c0,.15-.79,15.03,3.02,30.31,5.11,20.51,16.1,32.46,31.77,34.57h0s.02,0,.02,0c0,0,.01,0,.02,0h0c15.67-2.12,26.66-14.07,31.77-34.58,3.81-15.29,3.03-30.17,3.02-30.31Z"/>
        <path class="cls-10" d="M246.25,472.05l-.22-.02c-16.29-2.19-27.67-14.5-32.93-35.6-3.84-15.42-3.07-30.59-3.06-30.73l.12-2.23,2.24-.21c19.16-1.74,31.94-15.63,32.06-15.77l1.75-2.05,1.78,2.07c.49.54,12.95,14.01,32.04,15.74l2.24.21.12,2.24c0,.15.8,15.22-3.06,30.72-5.26,21.1-16.64,33.41-32.92,35.6l-.17.02ZM212.77,405.97c-.07,1.39-.62,15.32,2.99,29.79,4.95,19.85,15.48,31.44,30.47,33.53,14.98-2.08,25.52-13.67,30.47-33.53,3.58-14.35,3.05-28.4,2.99-29.79-18.74-1.74-31.42-14.22-33.45-16.35-2.1,2.17-14.92,14.63-33.45,16.35Z"/>
      </g>
    </g>
  </g>
</svg>