<?xml version="1.0" encoding="UTF-8"?>
<svg id="Layer_2" data-name="Layer 2" xmlns="http://www.w3.org/2000/svg" xmlns:xlink="http://www.w3.org/1999/xlink" viewBox="0 0 727.13 678.16">
  <defs>
    <style>
      .cls-1 {
        fill: #241e33;
      }

      .cls-2 {
        fill: url(#_ÂÁ_Ï_ÌÌ_È_ËÂÌÚ_4-4);
      }

      .cls-3 {
        fill: url(#_ÂÁ_Ï_ÌÌ_È_ËÂÌÚ_4-5);
      }

      .cls-4 {
        fill: url(#_ÂÁ_Ï_ÌÌ_È_ËÂÌÚ_4-2);
      }

      .cls-5 {
        fill: url(#_ÂÁ_Ï_ÌÌ_È_ËÂÌÚ_4-3);
      }

      .cls-6 {
        fill: url(#_ÂÁ_Ï_ÌÌ_È_ËÂÌÚ_4-8);
      }

      .cls-7 {
        fill: url(#_ÂÁ_Ï_ÌÌ_È_ËÂÌÚ_4-9);
      }

      .cls-8 {
        fill: url(#_ÂÁ_Ï_ÌÌ_È_ËÂÌÚ_4-6);
      }

      .cls-9 {
        fill: url(#_ÂÁ_Ï_ÌÌ_È_ËÂÌÚ_4-7);
      }

      .cls-10 {
        fill: url(#_ÂÁ_Ï_ÌÌ_È_ËÂÌÚ_3-2);
      }

      .cls-11 {
        fill: url(#_ÂÁ_Ï_ÌÌ_È_ËÂÌÚ_3-3);
      }

      .cls-12 {
        fill: url(#_ÂÁ_Ï_ÌÌ_È_ËÂÌÚ_3-4);
      }

      .cls-13 {
        fill: url(#_ÂÁ_Ï_ÌÌ_È_ËÂÌÚ_6);
      }

      .cls-14 {
        fill: url(#_ÂÁ_Ï_ÌÌ_È_ËÂÌÚ_3);
      }

      .cls-15 {
        fill: url(#_ÂÁ_Ï_ÌÌ_È_ËÂÌÚ_4);
      }

      .cls-16 {
        fill: #171222;
      }

      .cls-17 {
        fill: #3c354f;
      }

      .cls-18 {
        fill: url(#_ÂÁ_Ï_ÌÌ_È_ËÂÌÚ_4-10);
      }

      .cls-19 {
        fill: url(#_ÂÁ_Ï_ÌÌ_È_ËÂÌÚ_4-11);
      }

      .cls-20 {
        fill: #302942;
      }
    </style>
    <linearGradient id="_ÂÁ_Ï_ÌÌ_È_ËÂÌÚ_4" data-name="¡ÂÁ˚ÏˇÌÌ˚È „‡‰ËÂÌÚ 4" x1="-28.61" y1="36.16" x2="749.33" y2="35.02" gradientUnits="userSpaceOnUse">
      <stop offset="0" stop-color="#4d86ff"/>
      <stop offset=".03" stop-color="#587efa"/>
      <stop offset=".14" stop-color="#8562e6"/>
      <stop offset=".24" stop-color="#a84cd7"/>
      <stop offset=".34" stop-color="#c23ccc"/>
      <stop offset=".44" stop-color="#d133c6"/>
      <stop offset=".51" stop-color="#d730c4"/>
      <stop offset=".58" stop-color="#d233c6"/>
      <stop offset=".67" stop-color="#c33ccc"/>
      <stop offset=".76" stop-color="#ab4ad6"/>
      <stop offset=".86" stop-color="#8a5fe4"/>
      <stop offset=".96" stop-color="#6079f6"/>
      <stop offset="1" stop-color="#4d86ff"/>
    </linearGradient>
    <linearGradient id="_ÂÁ_Ï_ÌÌ_È_ËÂÌÚ_4-2" data-name="¡ÂÁ˚ÏˇÌÌ˚È „‡‰ËÂÌÚ 4" x1="-28.6" y1="47.01" x2="749.35" y2="45.87" xlink:href="#_ÂÁ_Ï_ÌÌ_È_ËÂÌÚ_4"/>
    <linearGradient id="_ÂÁ_Ï_ÌÌ_È_ËÂÌÚ_4-3" data-name="¡ÂÁ˚ÏˇÌÌ˚È „‡‰ËÂÌÚ 4" x1="-28.64" y1="22.2" x2="749.31" y2="21.07" xlink:href="#_ÂÁ_Ï_ÌÌ_È_ËÂÌÚ_4"/>
    <linearGradient id="_ÂÁ_Ï_ÌÌ_È_ËÂÌÚ_4-4" data-name="¡ÂÁ˚ÏˇÌÌ˚È „‡‰ËÂÌÚ 4" x1="-28.62" y1="34.52" x2="749.33" y2="33.38" xlink:href="#_ÂÁ_Ï_ÌÌ_È_ËÂÌÚ_4"/>
    <linearGradient id="_ÂÁ_Ï_ÌÌ_È_ËÂÌÚ_4-5" data-name="¡ÂÁ˚ÏˇÌÌ˚È „‡‰ËÂÌÚ 4" x1="-28.6" y1="45.62" x2="749.35" y2="44.49" xlink:href="#_ÂÁ_Ï_ÌÌ_È_ËÂÌÚ_4"/>
    <linearGradient id="_ÂÁ_Ï_ÌÌ_È_ËÂÌÚ_4-6" data-name="¡ÂÁ˚ÏˇÌÌ˚È „‡‰ËÂÌÚ 4" x1="-28.64" y1="21.02" x2="749.31" y2="19.88" xlink:href="#_ÂÁ_Ï_ÌÌ_È_ËÂÌÚ_4"/>
    <radialGradient id="_ÂÁ_Ï_ÌÌ_È_ËÂÌÚ_3" data-name="¡ÂÁ˚ÏˇÌÌ˚È „‡‰ËÂÌÚ 3" cx="-43161.68" cy="-9163.95" fx="-43161.68" fy="-9163.95" r="2382.18" gradientTransform="translate(4644.09 966.37) scale(.1)" gradientUnits="userSpaceOnUse">
      <stop offset="0" stop-color="#241883"/>
      <stop offset=".35" stop-color="#241a60"/>
      <stop offset=".75" stop-color="#241d3f"/>
      <stop offset=".97" stop-color="#241e33"/>
    </radialGradient>
    <radialGradient id="_ÂÁ_Ï_ÌÌ_È_ËÂÌÚ_3-2" data-name="¡ÂÁ˚ÏˇÌÌ˚È „‡‰ËÂÌÚ 3" cx="-43180.26" cy="2356.8" fx="-43180.26" fy="2356.8" r="2382.18" gradientTransform="translate(4644.09 915.45) scale(.1 -.1)" xlink:href="#_ÂÁ_Ï_ÌÌ_È_ËÂÌÚ_3"/>
    <linearGradient id="_ÂÁ_Ï_ÌÌ_È_ËÂÌÚ_4-7" data-name="¡ÂÁ˚ÏˇÌÌ˚È „‡‰ËÂÌÚ 4" x1="-37.91" y1="353.61" x2="750.3" y2="352.46" xlink:href="#_ÂÁ_Ï_ÌÌ_È_ËÂÌÚ_4"/>
    <linearGradient id="_ÂÁ_Ï_ÌÌ_È_ËÂÌÚ_4-8" data-name="¡ÂÁ˚ÏˇÌÌ˚È „‡‰ËÂÌÚ 4" x1="-29.03" y1="351.85" x2="759.18" y2="350.7" xlink:href="#_ÂÁ_Ï_ÌÌ_È_ËÂÌÚ_4"/>
    <radialGradient id="_ÂÁ_Ï_ÌÌ_È_ËÂÌÚ_3-3" data-name="¡ÂÁ˚ÏˇÌÌ˚È „‡‰ËÂÌÚ 3" cx="-43150.51" cy="-9351.46" fx="-43150.51" fy="-9351.46" r="640.2" xlink:href="#_ÂÁ_Ï_ÌÌ_È_ËÂÌÚ_3"/>
    <linearGradient id="_ÂÁ_Ï_ÌÌ_È_ËÂÌÚ_4-9" data-name="¡ÂÁ˚ÏˇÌÌ˚È „‡‰ËÂÌÚ 4" x1="-28.61" y1="41.44" x2="749.34" y2="40.31" xlink:href="#_ÂÁ_Ï_ÌÌ_È_ËÂÌÚ_4"/>
    <linearGradient id="_ÂÁ_Ï_ÌÌ_È_ËÂÌÚ_4-10" data-name="¡ÂÁ˚ÏˇÌÌ˚È „‡‰ËÂÌÚ 4" x1="-23.28" y1="646.12" x2="738" y2="645.01" xlink:href="#_ÂÁ_Ï_ÌÌ_È_ËÂÌÚ_4"/>
    <linearGradient id="_ÂÁ_Ï_ÌÌ_È_ËÂÌÚ_4-11" data-name="¡ÂÁ˚ÏˇÌÌ˚È „‡‰ËÂÌÚ 4" x1="11669.23" y1="645.56" x2="12430.52" y2="644.44" gradientTransform="translate(12420.44) rotate(-180) scale(1 -1)" xlink:href="#_ÂÁ_Ï_ÌÌ_È_ËÂÌÚ_4"/>
    <radialGradient id="_ÂÁ_Ï_ÌÌ_È_ËÂÌÚ_3-4" data-name="¡ÂÁ˚ÏˇÌÌ˚È „‡‰ËÂÌÚ 3" cx="-43139.22" cy="-3258.24" fx="-43139.22" fy="-3258.24" r="417.6" xlink:href="#_ÂÁ_Ï_ÌÌ_È_ËÂÌÚ_3"/>
    <linearGradient id="_ÂÁ_Ï_ÌÌ_È_ËÂÌÚ_6" data-name="¡ÂÁ˚ÏˇÌÌ˚È „‡‰ËÂÌÚ 6" x1="270.27" y1="653.61" x2="456.85" y2="653.61" gradientUnits="userSpaceOnUse">
      <stop offset="0" stop-color="#d730c4"/>
      <stop offset=".14" stop-color="#d133c6"/>
      <stop offset=".32" stop-color="#c03dcd"/>
      <stop offset=".53" stop-color="#a54ed8"/>
      <stop offset=".75" stop-color="#8065e9"/>
      <stop offset=".98" stop-color="#5083fd"/>
      <stop offset="1" stop-color="#4d86ff"/>
    </linearGradient>
  </defs>
  <g id="Layer_1-2" data-name="Layer 1">
    <g>
      <g>
        <path class="cls-15" d="M617.01,17.33l10.85-11.36h98.07c.95,0,1.52,1.15.98,1.99l-27.99,56.37h-59.95l-21.96-47Z"/>
        <path class="cls-1" d="M619.31,20.7l10.85-11.36,88.2.7c.95,0,1.52,1.15.98,1.99l-23.46,48.77h-59.96l-16.62-40.1Z"/>
        <path class="cls-4" d="M521.47,28.31l12.55-11.37h113.4c1.1,0,1.75,1.15,1.13,1.99l-32.37,56.37h-69.32l-25.39-47Z"/>
        <path class="cls-1" d="M524.13,31.68l12.55-11.36,101.98.7c1.1,0,1.75,1.15,1.13,1.99l-27.12,48.77h-69.32l-19.22-40.1Z"/>
        <path class="cls-20" d="M453.36,11.3l10.85-10.57h89.11c.95,0,1.52,1.07.98,1.85l-35.83,52.41h-43.16l-21.96-43.7Z"/>
        <path class="cls-1" d="M455.66,14.44l10.85-10.57,79.24.65c.95,0,1.52,1.07.98,1.85l-31.3,45.34h-43.16l-16.62-37.28Z"/>
        <polygon class="cls-5" points="538.68 9.01 492.06 9.01 520.82 33.84 538.68 9.01"/>
        <path class="cls-2" d="M110.11,16.59l-10.85-11.36H1.19c-.95,0-1.52,1.15-.98,1.99l27.99,56.37h59.95l21.96-47Z"/>
        <path class="cls-1" d="M107.81,19.96l-10.85-11.37-88.2.7c-.95,0-1.52,1.15-.98,1.99l23.46,48.77h59.96l16.62-40.1Z"/>
        <path class="cls-3" d="M205.65,27.57l-12.55-11.36h-113.4c-1.1,0-1.75,1.15-1.13,1.99l32.37,56.37h69.32l25.39-47Z"/>
        <path class="cls-1" d="M202.99,30.94l-12.55-11.36-101.98.7c-1.1,0-1.75,1.15-1.13,1.99l27.12,48.77h69.32l19.22-40.1Z"/>
        <path class="cls-20" d="M273.76,10.57l-10.85-10.57h-89.11c-.95,0-1.52,1.07-.98,1.85l35.83,52.41h43.16l21.96-43.7Z"/>
        <path class="cls-1" d="M271.46,13.7l-10.85-10.57-79.24.65c-.95,0-1.52,1.07-.98,1.85l31.3,45.34h43.16l16.62-37.28Z"/>
        <polygon class="cls-8" points="188.45 8.27 235.07 8.27 206.31 33.1 188.45 8.27"/>
      </g>
      <g>
        <g>
          <polygon class="cls-1" points="678.22 39.37 362.46 39.37 362.46 38.63 48.91 38.63 17.42 80.37 17.42 631.67 275.74 631.67 289.21 644.73 359.82 644.73 359.82 645.46 437.91 645.46 451.39 632.41 709.71 632.41 709.71 81.1 678.22 39.37"/>
          <path class="cls-14" d="M96.96,42.32c11.09,107.39,125.71,191.83,265.49,191.83s254.4-84.44,265.49-191.83H96.96Z"/>
          <path class="cls-10" d="M95.12,656.31c11.09-107.39,125.71-191.83,265.49-191.83s254.4,84.44,265.49,191.83H95.12Z"/>
          <polygon class="cls-16" points="243.34 10.53 314.83 10.53 319.15 5.94 403.57 5.94 407.88 10.53 479.37 10.53 498.82 27.85 499.38 28.55 499.38 40.12 675.83 40.12 708.26 83.1 708.26 150.94 708.26 563.75 708.26 626.68 690.21 667.71 437.32 667.71 462.79 617.72 704.53 617.72 704.53 560.04 686.19 541.79 686.19 168.79 704.53 150.55 704.53 84.35 674.25 44.41 499.66 44.41 503.84 57.99 481.56 77.93 459.55 77.93 455.23 82.52 396.93 82.52 392.62 77.93 333.11 77.93 328.79 82.52 270.49 82.52 266.18 77.93 243.34 77.93 222.23 57.72 222.23 26.36 243.34 10.53"/>
          <polygon class="cls-17" points="707.84 632.41 711.58 632.41 711.58 80.48 679.15 37.5 487.06 37.5 487.06 41.23 677.29 41.23 707.84 81.73 707.84 632.41"/>
          <polygon class="cls-17" points="689.5 539.17 711.58 561.13 711.58 148.32 689.5 170.28 689.5 539.17"/>
          <polygon class="cls-9" points="689.5 522.59 711.58 544.55 711.58 160.49 689.5 182.45 689.5 522.59"/>
          <polygon class="cls-16" points="483.83 8.61 412.34 8.61 408.03 4.02 323.61 4.02 319.29 8.61 247.8 8.61 228.35 25.93 227.79 26.63 227.79 38.21 51.34 38.21 18.91 81.18 18.91 149.03 18.91 561.83 18.91 624.77 36.96 665.79 288.75 666.07 264.38 617.72 22.64 617.72 22.64 561.41 40.98 543.16 40.98 166.88 22.64 148.63 22.64 82.43 51.83 43.86 226.42 43.86 227.79 57.99 247.8 76.02 270.64 76.02 274.95 80.61 330.24 80.61 334.56 76.02 397.08 76.02 401.39 80.61 456.68 80.61 461 76.02 483.83 76.02 503.28 58.7 503.84 57.99 503.84 26.63 483.83 8.61"/>
          <polygon class="cls-17" points="19.28 631.67 15.55 631.67 15.55 79.74 47.98 36.76 240.07 36.76 240.07 40.5 49.84 40.5 19.28 80.99 19.28 631.67"/>
          <polygon class="cls-17" points="37.62 538.43 15.55 560.39 15.55 147.58 37.62 169.54 37.62 538.43"/>
          <polygon class="cls-6" points="37.62 521.86 15.55 543.82 15.55 159.75 37.62 181.71 37.62 521.86"/>
          <g>
            <polygon class="cls-16" points="25.84 556.9 40.82 542 40.82 595.19 66.29 595.19 79.35 608.54 98.32 608.54 106.07 618.37 28.14 618.37 25.84 556.9"/>
            <polygon class="cls-17" points="22.64 560.04 37.62 545.14 37.62 598.33 63.09 598.33 76.15 611.68 95.12 611.68 100.57 617.72 22.64 617.72 22.64 560.04"/>
          </g>
          <g>
            <polygon class="cls-16" points="701.59 557.03 686.61 542.13 686.61 595.32 661.14 595.32 648.08 608.67 629.11 608.67 621.36 618.5 699.29 618.5 701.59 557.03"/>
            <polygon class="cls-17" points="704.79 560.17 689.81 545.27 689.81 598.46 664.34 598.46 651.28 611.81 632.31 611.81 626.86 617.85 704.79 617.85 704.79 560.17"/>
          </g>
          <g>
            <polygon class="cls-16" points="704.53 87.09 686.78 104.63 686.19 171.53 704.53 153.29 704.53 87.09"/>
            <polygon class="cls-17" points="689.5 164.67 704.53 149.73 704.53 133.19 689.5 148.93 689.5 164.67"/>
            <polygon class="cls-17" points="689.5 143.44 704.53 128.5 704.53 111.96 689.5 127.7 689.5 143.44"/>
            <polygon class="cls-17" points="689.5 122.22 704.53 107.27 704.53 90.73 689.5 106.47 689.5 122.22"/>
          </g>
          <g>
            <polygon class="cls-16" points="22.56 86.81 40.31 104.91 40.9 171.53 22.56 153.29 22.56 86.81"/>
            <polygon class="cls-17" points="37.58 164.67 22.56 149.73 22.56 133.19 37.58 148.93 37.58 164.67"/>
            <polygon class="cls-17" points="37.58 143.44 22.56 128.5 22.56 111.96 37.58 127.7 37.58 143.44"/>
            <polygon class="cls-17" points="37.58 122.22 22.56 107.27 22.56 90.73 37.58 106.47 37.58 122.22"/>
          </g>
        </g>
        <polygon class="cls-16" points="651.28 611.81 689.5 611.81 689.5 608.82 652.86 608.82 651.28 611.81"/>
        <polygon class="cls-16" points="76.7 611.68 37.93 611.68 37.93 608.42 74.57 608.42 76.7 611.68"/>
      </g>
      <g>
        <g>
          <polygon class="cls-20" points="416.75 14.26 310.38 14.26 321.35 2.58 405.77 2.58 416.75 14.26"/>
          <g>
            <polygon class="cls-20" points="338.97 67.48 261.72 67.48 272.7 79.16 327.99 79.16 338.97 67.48"/>
            <polygon class="cls-20" points="465.41 67.48 388.16 67.48 399.14 79.16 454.43 79.16 465.41 67.48"/>
          </g>
        </g>
        <polygon class="cls-17" points="481.58 7.17 245.55 7.17 226.1 24.49 225.53 25.19 225.53 56.55 245.55 74.57 481.58 74.57 501.03 57.26 501.59 56.55 501.59 25.19 481.58 7.17"/>
        <polygon class="cls-1" points="247.24 71.26 229.13 55.5 229.13 26.41 247.24 10.65 479.89 10.65 498 26.41 498 55.5 479.89 71.26 247.24 71.26"/>
        <path class="cls-11" d="M292.21,10.57c2.98,28.86,33.78,51.55,71.35,51.55s68.37-22.69,71.35-51.55h-142.7Z"/>
        <path class="cls-7" d="M249.95,13.64l-16.64,13.95v26.56l16.64,13.95h227.08l16.78-14.13v-26.19l-16.78-14.13h-227.08ZM492.75,53.63l-16.22,13.47h-226.09l-16.07-13.28v-25.89l16.07-13.28h226.09l16.22,13.47v25.51Z"/>
      </g>
      <g>
        <path class="cls-17" d="M286.14,671.54H28.15l-23.32-47.26c-.65-1.32.31-2.87,1.79-2.87h254.79l24.74,50.14Z"/>
        <path class="cls-18" d="M278.45,666.18H32.2l-18.25-38.15c-.56-1.14.27-2.48,1.54-2.48h243.49l19.47,40.63Z"/>
      </g>
      <g>
        <path class="cls-17" d="M441.77,670.99h257.99l23.32-47.26c.65-1.32-.31-2.87-1.79-2.87h-254.79l-24.74,50.14Z"/>
        <path class="cls-19" d="M449.46,665.63h246.25l18.25-38.15c.56-1.14-.27-2.48-1.54-2.48h-243.49l-19.47,40.63Z"/>
      </g>
      <g>
        <path class="cls-17" d="M439.15,678.16h-151.17c-.27,0-.52-.22-.63-.57l-22.04-45.6h196.52l-22.04,45.6c-.12.35-.36.57-.63.57Z"/>
        <path class="cls-1" d="M438.08,672.49h-149.04c-.26,0-.51-.2-.62-.51l-18.15-37.24h186.58l-18.15,37.24c-.11.31-.35.51-.62.51Z"/>
        <path class="cls-12" d="M318.14,634.74c1.94,18.83,22.04,33.63,46.54,33.63s44.6-14.8,46.54-33.63h-93.08Z"/>
        <g>
          <path class="cls-1" d="M438.08,672.49h-149.04c-.26,0-.51-.2-.62-.51l-18.15-37.24h186.58l-18.15,37.24c-.11.31-.35.51-.62.51Z"/>
          <path class="cls-13" d="M455.54,635.56l-17.57,36.06-.02.04s-148.76,0-148.76,0c0,0-.02-.05-.02-.05l-17.57-36.06h183.95ZM456.85,634.74h-186.58l18.15,37.24c.11.31.35.51.62.51h149.04c.26,0,.51-.2.62-.51l18.15-37.24h0Z"/>
        </g>
      </g>
      <g>
        <polygon class="cls-16" points="675.36 73.32 539.84 73.32 526.02 55 661.55 55 675.36 73.32"/>
        <polygon class="cls-16" points="51.76 73.32 187.29 73.32 201.1 55 65.58 55 51.76 73.32"/>
      </g>
    </g>
  </g>
</svg>