<?xml version="1.0" encoding="UTF-8"?>
<svg id="Layer_2" data-name="Layer 2" xmlns="http://www.w3.org/2000/svg" xmlns:xlink="http://www.w3.org/1999/xlink" viewBox="0 0 718.67 719.13">
  <defs>
    <style>
      .cls-1 {
        fill: #241e33;
      }

      .cls-2 {
        fill: url(#_ÂÁ_Ï_ÌÌ_È_ËÂÌÚ_4-4);
      }

      .cls-3 {
        fill: url(#_ÂÁ_Ï_ÌÌ_È_ËÂÌÚ_4-5);
      }

      .cls-4 {
        fill: url(#_ÂÁ_Ï_ÌÌ_È_ËÂÌÚ_4-2);
      }

      .cls-5 {
        fill: url(#_ÂÁ_Ï_ÌÌ_È_ËÂÌÚ_4-3);
      }

      .cls-6 {
        fill: url(#_ÂÁ_Ï_ÌÌ_È_ËÂÌÚ_4-6);
      }

      .cls-7 {
        fill: url(#_ÂÁ_Ï_ÌÌ_È_ËÂÌÚ_3-2);
      }

      .cls-8 {
        fill: url(#_ÂÁ_Ï_ÌÌ_È_ËÂÌÚ_3-3);
      }

      .cls-9 {
        fill: url(#_ÂÁ_Ï_ÌÌ_È_ËÂÌÚ_3-4);
      }

      .cls-10 {
        fill: url(#linear-gradient);
      }

      .cls-11 {
        fill: url(#_ÂÁ_Ï_ÌÌ_È_ËÂÌÚ_6);
      }

      .cls-12 {
        fill: url(#_ÂÁ_Ï_ÌÌ_È_ËÂÌÚ_3);
      }

      .cls-13 {
        fill: url(#_ÂÁ_Ï_ÌÌ_È_ËÂÌÚ_4);
      }

      .cls-14 {
        fill: #fff;
      }

      .cls-15 {
        fill: #171222;
      }

      .cls-16 {
        fill: #00134a;
      }

      .cls-17 {
        fill: #3c354f;
      }

      .cls-18 {
        fill: #302942;
      }
    </style>
    <radialGradient id="_ÂÁ_Ï_ÌÌ_È_ËÂÌÚ_3" data-name="¡ÂÁ˚ÏˇÌÌ˚È „‡‰ËÂÌÚ 3" cx="-19187.76" cy="-8423.09" fx="-19187.76" fy="-8423.09" r="2382.18" gradientTransform="translate(2261.26 886.25) scale(.1)" gradientUnits="userSpaceOnUse">
      <stop offset="0" stop-color="#241883"/>
      <stop offset=".35" stop-color="#241a60"/>
      <stop offset=".75" stop-color="#241d3f"/>
      <stop offset=".97" stop-color="#241e33"/>
    </radialGradient>
    <radialGradient id="_ÂÁ_Ï_ÌÌ_È_ËÂÌÚ_3-2" data-name="¡ÂÁ˚ÏˇÌÌ˚È „‡‰ËÂÌÚ 3" cx="-19206.34" cy="1437.38" fx="-19206.34" fy="1437.38" r="2382.18" gradientTransform="translate(2261.26 816.99) scale(.1 -.1)" xlink:href="#_ÂÁ_Ï_ÌÌ_È_ËÂÌÚ_3"/>
    <linearGradient id="_ÂÁ_Ï_ÌÌ_È_ËÂÌÚ_4" data-name="¡ÂÁ˚ÏˇÌÌ˚È „‡‰ËÂÌÚ 4" x1="-42.53" y1="349.58" x2="745.68" y2="348.43" gradientUnits="userSpaceOnUse">
      <stop offset="0" stop-color="#4d86ff"/>
      <stop offset=".03" stop-color="#587efa"/>
      <stop offset=".14" stop-color="#8562e6"/>
      <stop offset=".24" stop-color="#a84cd7"/>
      <stop offset=".34" stop-color="#c23ccc"/>
      <stop offset=".44" stop-color="#d133c6"/>
      <stop offset=".51" stop-color="#d730c4"/>
      <stop offset=".58" stop-color="#d233c6"/>
      <stop offset=".67" stop-color="#c33ccc"/>
      <stop offset=".76" stop-color="#ab4ad6"/>
      <stop offset=".86" stop-color="#8a5fe4"/>
      <stop offset=".96" stop-color="#6079f6"/>
      <stop offset="1" stop-color="#4d86ff"/>
    </linearGradient>
    <linearGradient id="_ÂÁ_Ï_ÌÌ_È_ËÂÌÚ_4-2" data-name="¡ÂÁ˚ÏˇÌÌ˚È „‡‰ËÂÌÚ 4" x1="-33.65" y1="347.82" x2="754.56" y2="346.67" xlink:href="#_ÂÁ_Ï_ÌÌ_È_ËÂÌÚ_4"/>
    <linearGradient id="_ÂÁ_Ï_ÌÌ_È_ËÂÌÚ_4-3" data-name="¡ÂÁ˚ÏˇÌÌ˚È „‡‰ËÂÌÚ 4" x1="-27.9" y1="642.09" x2="733.38" y2="640.98" xlink:href="#_ÂÁ_Ï_ÌÌ_È_ËÂÌÚ_4"/>
    <linearGradient id="_ÂÁ_Ï_ÌÌ_È_ËÂÌÚ_4-4" data-name="¡ÂÁ˚ÏˇÌÌ˚È „‡‰ËÂÌÚ 4" x1="6383.38" y1="641.52" x2="7144.66" y2="640.41" gradientTransform="translate(7129.96) rotate(-180) scale(1 -1)" xlink:href="#_ÂÁ_Ï_ÌÌ_È_ËÂÌÚ_4"/>
    <radialGradient id="_ÂÁ_Ï_ÌÌ_È_ËÂÌÚ_3-3" data-name="¡ÂÁ˚ÏˇÌÌ˚È „‡‰ËÂÌÚ 3" cx="-19165.31" cy="-2517.39" fx="-19165.31" fy="-2517.39" r="417.6" xlink:href="#_ÂÁ_Ï_ÌÌ_È_ËÂÌÚ_3"/>
    <linearGradient id="_ÂÁ_Ï_ÌÌ_È_ËÂÌÚ_6" data-name="¡ÂÁ˚ÏˇÌÌ˚È „‡‰ËÂÌÚ 6" x1="265.65" y1="649.58" x2="452.23" y2="649.58" gradientUnits="userSpaceOnUse">
      <stop offset="0" stop-color="#d730c4"/>
      <stop offset=".14" stop-color="#d133c6"/>
      <stop offset=".32" stop-color="#c03dcd"/>
      <stop offset=".53" stop-color="#a54ed8"/>
      <stop offset=".75" stop-color="#8065e9"/>
      <stop offset=".98" stop-color="#5083fd"/>
      <stop offset="1" stop-color="#4d86ff"/>
    </linearGradient>
    <linearGradient id="linear-gradient" x1="360.07" y1="703.99" x2="360.07" y2="595.42" gradientUnits="userSpaceOnUse">
      <stop offset="0" stop-color="#0bf"/>
      <stop offset=".44" stop-color="#056ba4" stop-opacity=".55"/>
      <stop offset="1" stop-color="#0d0934" stop-opacity="0"/>
    </linearGradient>
    <linearGradient id="_ÂÁ_Ï_ÌÌ_È_ËÂÌÚ_4-5" data-name="¡ÂÁ˚ÏˇÌÌ˚È „‡‰ËÂÌÚ 4" x1="312.73" y1="649.23" x2="407.42" y2="649.23" xlink:href="#_ÂÁ_Ï_ÌÌ_È_ËÂÌÚ_4"/>
    <radialGradient id="_ÂÁ_Ï_ÌÌ_È_ËÂÌÚ_3-4" data-name="¡ÂÁ˚ÏˇÌÌ˚È „‡‰ËÂÌÚ 3" cx="-27276.67" cy="-8595.67" fx="-27276.67" fy="-8595.67" r="640.2" gradientTransform="translate(7060.39 886.25) scale(.25 .1)" xlink:href="#_ÂÁ_Ï_ÌÌ_È_ËÂÌÚ_3"/>
    <linearGradient id="_ÂÁ_Ï_ÌÌ_È_ËÂÌÚ_4-6" data-name="¡ÂÁ˚ÏˇÌÌ˚È „‡‰ËÂÌÚ 4" x1="-334.3" y1="39.3" x2="1040.88" y2="37.3" xlink:href="#_ÂÁ_Ï_ÌÌ_È_ËÂÌÚ_4"/>
  </defs>
  <g id="Layer_1-2" data-name="Layer 1">
    <g>
      <polygon class="cls-1" points="673.6 35.33 357.84 35.33 357.84 34.6 44.29 34.6 12.8 76.33 12.8 627.64 271.12 627.64 284.59 640.7 355.2 640.7 355.2 641.43 433.29 641.43 446.77 628.38 705.09 628.38 705.09 77.07 673.6 35.33"/>
      <path class="cls-12" d="M92.34,38.29c11.09,107.39,125.71,191.83,265.49,191.83s254.4-84.44,265.49-191.83H92.34Z"/>
      <path class="cls-7" d="M90.5,652.28c11.09-107.39,125.71-191.83,265.49-191.83s254.4,84.44,265.49,191.83H90.5Z"/>
      <polyline class="cls-15" points="494.76 36.09 671.21 36.09 703.64 79.07 703.64 146.91 703.64 559.72 703.64 622.65 685.59 663.68 432.7 663.68 458.17 613.69 699.91 613.69 699.91 556.01 681.57 537.76 681.57 164.76 699.91 146.52 699.91 80.32 669.63 40.37 495.04 40.37"/>
      <polygon class="cls-17" points="684.88 535.14 706.96 557.09 706.96 144.29 684.88 166.24 684.88 535.14"/>
      <polygon class="cls-13" points="684.88 518.56 706.96 540.52 706.96 156.46 684.88 178.41 684.88 518.56"/>
      <polyline class="cls-15" points="223.17 34.18 46.72 34.18 14.29 77.15 14.29 145 14.29 557.8 14.29 620.74 32.34 661.76 284.13 662.03 259.76 613.69 18.02 613.69 18.02 557.37 36.36 539.13 36.36 162.85 18.02 144.6 18.02 78.4 47.21 39.83 221.8 39.83"/>
      <polygon class="cls-17" points="14.66 627.64 10.93 627.64 10.93 75.71 43.36 32.73 235.45 32.73 235.45 36.47 45.22 36.47 14.66 76.96 14.66 627.64"/>
      <polygon class="cls-17" points="33 534.4 10.93 556.36 10.93 143.55 33 165.51 33 534.4"/>
      <polygon class="cls-4" points="33 517.83 10.93 539.78 10.93 155.72 33 177.68 33 517.83"/>
      <g>
        <polygon class="cls-15" points="21.22 552.87 36.2 537.97 36.2 591.16 61.67 591.16 74.73 604.51 93.7 604.51 101.45 614.34 23.52 614.34 21.22 552.87"/>
        <polygon class="cls-17" points="18.02 556.01 33 541.1 33 594.3 58.47 594.3 71.53 607.65 90.5 607.65 95.95 613.69 18.02 613.69 18.02 556.01"/>
      </g>
      <g>
        <polygon class="cls-15" points="696.97 553 681.99 538.1 681.99 591.29 656.52 591.29 643.46 604.64 624.49 604.64 616.74 614.47 694.67 614.47 696.97 553"/>
        <polygon class="cls-17" points="700.17 556.13 685.19 541.23 685.19 594.43 659.72 594.43 646.66 607.78 627.69 607.78 622.24 613.82 700.17 613.82 700.17 556.13"/>
      </g>
      <g>
        <polygon class="cls-15" points="699.91 83.06 682.16 100.6 681.57 167.5 699.91 149.26 699.91 83.06"/>
        <polygon class="cls-17" points="684.88 160.64 699.91 145.7 699.91 129.16 684.88 144.9 684.88 160.64"/>
        <polygon class="cls-17" points="684.88 139.41 699.91 124.47 699.91 107.93 684.88 123.67 684.88 139.41"/>
        <polygon class="cls-17" points="684.88 118.18 699.91 103.24 699.91 86.7 684.88 102.44 684.88 118.18"/>
      </g>
      <g>
        <polygon class="cls-15" points="17.94 82.78 35.69 100.88 36.28 167.5 17.94 149.26 17.94 82.78"/>
        <polygon class="cls-17" points="32.96 160.64 17.94 145.7 17.94 129.16 32.96 144.9 32.96 160.64"/>
        <polygon class="cls-17" points="32.96 139.41 17.94 124.47 17.94 107.93 32.96 123.67 32.96 139.41"/>
        <polygon class="cls-17" points="32.96 118.18 17.94 103.24 17.94 86.7 32.96 102.44 32.96 118.18"/>
      </g>
      <polygon class="cls-15" points="646.66 607.78 684.88 607.78 684.88 604.79 648.24 604.79 646.66 607.78"/>
      <polygon class="cls-15" points="72.08 607.65 33.31 607.65 33.31 604.39 69.95 604.39 72.08 607.65"/>
      <g>
        <path class="cls-17" d="M281.52,667.51H23.53L.21,620.25c-.65-1.32.31-2.87,1.79-2.87h254.79l24.74,50.14Z"/>
        <path class="cls-5" d="M273.83,662.15H27.58l-18.25-38.15c-.56-1.14.27-2.48,1.54-2.48h243.49l19.47,40.63Z"/>
      </g>
      <g>
        <path class="cls-17" d="M437.15,666.96h257.99l23.32-47.26c.65-1.32-.31-2.87-1.79-2.87h-254.79l-24.74,50.14Z"/>
        <path class="cls-2" d="M444.84,661.6h246.25l18.25-38.15c.56-1.14-.27-2.48-1.54-2.48h-243.49l-19.47,40.63Z"/>
      </g>
      <g>
        <path class="cls-17" d="M434.53,674.13h-151.17c-.27,0-.52-.22-.63-.57l-22.04-45.6h196.52l-22.04,45.6c-.12.35-.36.57-.63.57Z"/>
        <path class="cls-1" d="M433.46,668.46h-149.04c-.26,0-.51-.2-.62-.51l-18.15-37.24h186.58l-18.15,37.24c-.11.31-.35.51-.62.51Z"/>
        <path class="cls-8" d="M313.52,630.71c1.94,18.83,22.04,33.63,46.54,33.63s44.6-14.8,46.54-33.63h-93.08Z"/>
        <g>
          <path class="cls-1" d="M433.46,668.46h-149.04c-.26,0-.51-.2-.62-.51l-18.15-37.24h186.58l-18.15,37.24c-.11.31-.35.51-.62.51Z"/>
          <path class="cls-11" d="M450.92,631.53l-17.57,36.06-.02.04s-148.76,0-148.76,0c0,0-.02-.05-.02-.05l-17.57-36.06h183.95ZM452.23,630.71h-186.58l18.15,37.24c.11.31.35.51.62.51h149.04c.26,0,.51-.2.62-.51l18.15-37.24h0Z"/>
        </g>
      </g>
      <g>
        <g>
          <path class="cls-16" d="M418.53,608.73l-.1-1.79-1.79-.16c-33.3-3.02-55.11-26.98-55.33-27.22l-1.24-1.44-1.24,1.44c-.22.24-22.03,24.2-55.33,27.22l-1.78.16-.1,1.79c-.01.25-1.33,25.23,5.07,50.9,8.59,34.44,27.03,54.51,53.35,58.05h.03s.04,0,.04,0c26.32-3.54,44.76-23.61,53.35-58.05,6.4-25.67,5.09-50.65,5.07-50.9Z"/>
          <path class="cls-17" d="M360.07,719.13l-.29-.04c-26.88-3.61-45.74-24.06-54.48-59.11-6.36-25.53-5.16-50.28-5.11-51.32l.17-3.03,3.01-.27c32.69-2.97,54.18-26.52,54.39-26.75l2.31-2.69,2.33,2.71c.2.22,21.61,23.76,54.37,26.73l3.02.27.17,3.02c.01.24,1.32,25.54-5.11,51.33-8.74,35.05-27.6,55.49-54.54,59.12l-.22.03ZM303.08,608.26l-.03.56c-.05,1.02-1.23,25.35,5.03,50.48,8.41,33.75,26.39,53.44,52,56.95,25.63-3.54,43.59-23.23,51.99-56.95,6.37-25.57,5.05-50.22,5.03-50.47l-.03-.56-.55-.05c-33.72-3.06-56.06-27.46-56.27-27.7l-.17-.19-.16.18c-.23.26-22.25,24.63-56.28,27.72l-.55.05Z"/>
        </g>
        <path class="cls-16" d="M405.54,619.23l-.08-1.39-1.39-.13c-25.9-2.35-42.87-20.99-43.04-21.17l-.96-1.13-.96,1.13c-.17.19-17.14,18.82-43.04,21.17l-1.39.13-.08,1.39c-.01.19-1.03,19.63,3.94,39.59,6.68,26.79,21.02,42.4,41.5,45.15h0s.02,0,.03,0c0,0,.02,0,.03,0h0c20.47-2.77,34.82-18.37,41.5-45.16,4.98-19.96,3.96-39.4,3.94-39.59Z"/>
        <path class="cls-10" d="M405.54,619.23l-.08-1.39-1.39-.13c-25.9-2.35-42.87-20.99-43.04-21.17l-.96-1.13-.96,1.13c-.17.19-17.14,18.82-43.04,21.17l-1.39.13-.08,1.39c-.01.19-1.03,19.63,3.94,39.59,6.68,26.79,21.02,42.4,41.5,45.15h0s.02,0,.03,0c0,0,.02,0,.03,0h0c20.47-2.77,34.82-18.37,41.5-45.16,4.98-19.96,3.96-39.4,3.94-39.59Z"/>
        <path class="cls-3" d="M360.11,705.78l-.28-.03c-21.28-2.86-36.14-18.94-43.01-46.5-5.02-20.14-4-39.95-3.99-40.14l.16-2.91,2.92-.27c25.02-2.27,41.71-20.41,41.88-20.59l2.29-2.67,2.32,2.71c.65.71,16.92,18.3,41.84,20.56l2.93.27.16,2.93c.01.2,1.05,19.88-4,40.12-6.87,27.55-21.73,43.63-42.99,46.49l-.23.03ZM316.38,619.48c-.09,1.81-.81,20.01,3.9,38.91,6.46,25.92,20.22,41.06,39.79,43.79,19.57-2.72,33.33-17.86,39.79-43.79,4.67-18.74,3.98-37.1,3.9-38.91-24.48-2.28-41.03-18.58-43.69-21.36-2.74,2.83-19.49,19.1-43.69,21.36Z"/>
      </g>
      <g>
        <g>
          <polygon class="cls-18" points="472.14 11.68 245.75 11.68 256.73 0 461.16 0 472.14 11.68"/>
          <g>
            <polygon class="cls-18" points="274.34 64.9 157.09 64.9 168.07 76.58 263.36 76.58 274.34 64.9"/>
            <polygon class="cls-18" points="560.8 64.9 443.55 64.9 454.52 76.58 549.82 76.58 560.8 64.9"/>
          </g>
        </g>
        <polygon class="cls-17" points="576.97 4.59 140.92 4.59 121.47 21.91 120.9 22.61 120.9 53.97 140.92 71.99 576.97 71.99 596.42 54.68 596.98 53.97 596.98 22.61 576.97 4.59"/>
        <polygon class="cls-1" points="142.61 68.68 124.5 52.92 124.5 23.83 142.61 8.07 575.28 8.07 593.39 23.83 593.39 52.92 575.28 68.68 142.61 68.68"/>
        <path class="cls-9" d="M182.23,8.07c7.38,28.86,83.67,51.55,176.71,51.55s169.33-22.69,176.71-51.55H182.23Z"/>
        <path class="cls-6" d="M145.32,11.06l-16.64,13.95v26.56l16.64,13.95h427.1l16.78-14.13v-26.19l-16.78-14.13H145.32ZM588.14,51.05l-16.22,13.47H145.82l-16.07-13.28v-25.89l16.07-13.28h426.11l16.22,13.47v25.51Z"/>
        <g>
          <g>
            <path class="cls-14" d="M202.69,29.7c.31,0,.46.15.46.46v2c0,.31-.15.46-.46.46h-10.52c-.8,0-1.11.44-1.11,1.18v.71c0,.78.36,1.18,1.09,1.18h7.87c2.41,0,3.67,1.3,3.67,3.61v1.68c0,2.04-1.18,3.42-3.72,3.42h-11.63c-.31,0-.48-.15-.48-.46v-1.99c0-.32.17-.46.48-.46h11.02c.8,0,1.11-.44,1.11-1.18v-.86c0-.78-.36-1.18-1.09-1.18h-7.87c-2.41,0-3.67-1.3-3.67-3.61v-1.53c0-2.04,1.18-3.42,3.72-3.42h11.13Z"/>
            <path class="cls-14" d="M208.84,29.7c.31,0,.46.15.46.46v13.77c0,.32-.15.46-.46.46h-2.27c-.32,0-.48-.15-.48-.46v-13.77c0-.31.17-.46.48-.46h2.27ZM208.72,25.82c.31,0,.46.13.46.38v1.99c0,.25-.15.38-.46.38h-2.06c-.32,0-.46-.13-.46-.38v-1.99c0-.25.15-.38.46-.38h2.06Z"/>
            <path class="cls-14" d="M224.82,29.7c2.9,0,3.99,1.13,3.99,3.46v1.01c0,1.2-.46,2.08-1.34,2.67.99.57,1.45,1.47,1.45,2.71v1.22c0,2.23-.92,3.63-3.72,3.63h-12.47c-.42,0-.63-.21-.63-.63v-13.44c0-.42.21-.63.63-.63h12.09ZM215.31,35.81h8.61c1.39,0,1.81-.42,1.81-1.24v-.71c0-.86-.46-1.26-1.55-1.26h-8.59c-.19,0-.27.08-.27.27v2.94ZM215.31,38.1v3.13c0,.19.08.27.27.27h8.61c1.11,0,1.55-.4,1.55-1.28v-.8c0-.86-.44-1.32-1.83-1.32h-8.61Z"/>
            <path class="cls-14" d="M246.35,29.7c.32,0,.48.15.48.46v2c0,.31-.17.46-.48.46h-9.17c-2.18,0-2.79.65-2.79,2.86v.21h11.86c.31,0,.46.15.46.46v1.66c0,.32-.15.46-.46.46h-11.86v.36c0,2.2.61,2.86,2.79,2.86h9.17c.32,0,.48.15.48.46v1.99c0,.32-.17.46-.48.46h-9.24c-4.24,0-5.88-1.51-5.88-5.54v-3.61c0-4.03,1.64-5.54,5.88-5.54h9.24Z"/>
            <path class="cls-14" d="M261.15,29.7c3.21,0,4.51,1.49,4.51,4.33v1.2c0,2.39-.92,3.8-3.13,4.2l3.59,4.45c.13.15.1.52-.27.52h-2.71c-.36,0-.46-.08-.59-.27l-3.32-4.37h-6.78v4.18c0,.32-.15.46-.46.46h-2.27c-.31,0-.48-.15-.48-.46v-13.61c0-.42.21-.63.63-.63h11.27ZM252.46,37.2h8.04c1.43,0,1.95-.61,1.95-1.87v-.88c0-1.26-.52-1.87-1.95-1.87h-7.77c-.19,0-.27.08-.27.25v4.37Z"/>
            <path class="cls-14" d="M291.64,29.7c.31,0,.46.15.46.46v2.06c0,.32-.15.48-.46.48h-10.52c-2.16,0-2.79.63-2.79,2.86v3.02c0,2.23.63,2.88,2.79,2.88h6.93c.74,0,1.05-.34,1.05-1.28v-1.7c0-.19-.06-.27-.25-.27h-6.15c-.29,0-.46-.17-.46-.48v-1.57c0-.32.17-.48.46-.48h8.75c.42,0,.63.21.63.63v4.89c0,2.35-.92,3.21-2.6,3.21h-8.48c-4.24,0-5.88-1.51-5.88-5.54v-3.61c0-4.03,1.64-5.54,5.88-5.54h10.65Z"/>
            <path class="cls-14" d="M297.44,29.7c.31,0,.46.15.46.46v8.38c0,2.23.63,2.88,2.79,2.88h5.82c2.16,0,2.77-.65,2.77-2.88v-8.38c0-.31.15-.46.46-.46h2.29c.31,0,.46.15.46.46v8.69c0,4.03-1.62,5.54-5.88,5.54h-6.05c-4.24,0-5.88-1.51-5.88-5.54v-8.69c0-.31.17-.46.48-.46h2.27ZM301.68,25.82c.31,0,.46.13.46.38v1.99c0,.25-.15.38-.46.38h-2.06c-.31,0-.46-.13-.46-.38v-1.99c0-.25.15-.38.46-.38h2.06ZM307.54,25.82c.31,0,.48.13.48.38v1.99c0,.25-.17.38-.48.38h-2.06c-.31,0-.46-.13-.46-.38v-1.99c0-.25.15-.38.46-.38h2.06Z"/>
            <path class="cls-14" d="M317.16,29.7c.27,0,.38.08.48.27l6.15,11.3c.06.13.13.15.25.15h.1c.1,0,.17-.02.23-.15l6.07-11.3c.1-.21.23-.27.48-.27h2.75c.34,0,.4.21.25.48l-6.89,12.62c-.69,1.28-1.32,1.6-2.2,1.6h-1.22c-1.09,0-1.7-.31-2.41-1.6l-6.97-12.62c-.15-.27-.08-.48.27-.48h2.65Z"/>
            <path class="cls-14" d="M349.83,29.7c.32,0,.48.15.48.46v2c0,.31-.17.46-.48.46h-9.17c-2.18,0-2.79.65-2.79,2.86v.21h11.86c.31,0,.46.15.46.46v1.66c0,.32-.15.46-.46.46h-11.86v.36c0,2.2.61,2.86,2.79,2.86h9.17c.32,0,.48.15.48.46v1.99c0,.32-.17.46-.48.46h-9.24c-4.24,0-5.88-1.51-5.88-5.54v-3.61c0-4.03,1.64-5.54,5.88-5.54h9.24Z"/>
            <path class="cls-14" d="M356.47,29.7c1.34,0,1.64.17,2.44,1.24l7.81,10.25c.06.1.15.15.27.15h.19c.1,0,.17-.06.17-.21v-10.96c0-.31.15-.46.46-.46h2.2c.31,0,.46.15.46.46v12.05c0,1.7-.61,2.18-1.89,2.18h-1.81c-1.28,0-1.6-.13-2.44-1.24l-7.83-10.25c-.08-.11-.15-.15-.27-.15h-.19c-.13,0-.17.06-.17.21v10.96c0,.32-.15.46-.46.46h-2.2c-.31,0-.48-.15-.48-.46v-12.05c0-1.7.61-2.18,1.89-2.18h1.85Z"/>
            <path class="cls-14" d="M375.98,29.7c.31,0,.46.15.46.46v8.38c0,2.23.63,2.88,2.79,2.88h8.5c.31,0,.46.15.46.46v2.06c0,.32-.15.46-.46.46h-8.63c-4.24,0-5.88-1.51-5.88-5.54v-8.69c0-.31.17-.46.48-.46h2.27Z"/>
            <path class="cls-14" d="M392.84,29.7c.31,0,.46.15.46.46v13.77c0,.32-.15.46-.46.46h-2.27c-.31,0-.48-.15-.48-.46v-13.77c0-.31.17-.46.48-.46h2.27ZM392.72,25.82c.31,0,.46.13.46.38v1.99c0,.25-.15.38-.46.38h-2.06c-.31,0-.46-.13-.46-.38v-1.99c0-.25.15-.38.46-.38h2.06Z"/>
            <path class="cls-14" d="M398.85,29.7c.31,0,.46.15.46.46v5.58h2.96c1.32,0,1.72-.15,2.33-.94l3.61-4.83c.15-.19.23-.27.61-.27h2.6c.36,0,.42.32.27.5l-4.07,5.27c-.48.63-.86,1.07-1.26,1.41.57.36,1.07.84,1.6,1.51l4.3,5.46c.1.15.15.55-.27.55h-2.69c-.36,0-.44-.08-.59-.27l-3.86-5c-.57-.74-1.05-.95-2.35-.95h-3.19v5.75c0,.32-.15.46-.46.46h-2.27c-.31,0-.48-.15-.48-.46v-13.77c0-.31.17-.46.48-.46h2.27Z"/>
            <path class="cls-14" d="M425.23,29.7c1.26,0,1.68.27,2.25,1.6l4.37,10.08c.06.15.15.19.29.19h.25c.15,0,.23-.04.29-.19l4.37-10.08c.57-1.32.99-1.6,2.23-1.6h2.25c1.47,0,1.85.59,1.85,2.18v12.05c0,.32-.17.46-.48.46h-2.14c-.31,0-.46-.15-.46-.46v-10.96c0-.15-.04-.21-.17-.21h-.19c-.15,0-.23.04-.27.17l-4.24,9.41c-.69,1.51-1.28,2.06-2.69,2.06h-1.01c-1.41,0-1.99-.55-2.69-2.06l-4.24-9.41c-.04-.13-.13-.17-.27-.17h-.19c-.13,0-.17.06-.17.21v10.96c0,.32-.15.46-.46.46h-2.14c-.31,0-.48-.15-.48-.46v-12.05c0-1.6.38-2.18,1.87-2.18h2.29Z"/>
            <path class="cls-14" d="M455.46,29.7c1.07,0,1.72.34,2.42,1.6l6.95,12.62c.15.27.08.48-.25.48h-2.67c-.27,0-.38-.06-.48-.27l-1.49-2.71h-9.87l-1.45,2.71c-.1.21-.23.27-.48.27h-2.73c-.36,0-.42-.21-.27-.48l6.89-12.62c.69-1.26,1.32-1.6,2.21-1.6h1.24ZM451.39,38.98h7.22l-3.34-6.15c-.06-.11-.13-.15-.23-.15h-.13c-.1,0-.17.04-.23.15l-3.3,6.15Z"/>
            <path class="cls-14" d="M480.96,29.7c.31,0,.46.15.46.46v2.06c0,.32-.15.48-.46.48h-9.34c-2.16,0-2.79.63-2.79,2.86v2.98c0,2.23.63,2.88,2.79,2.88h9.34c.31,0,.46.15.46.46v2.06c0,.32-.15.46-.46.46h-9.47c-4.24,0-5.88-1.51-5.88-5.54v-3.61c0-4.03,1.64-5.54,5.88-5.54h9.47Z"/>
            <path class="cls-14" d="M498.62,29.7c.31,0,.48.15.48.46v2c0,.31-.17.46-.48.46h-9.18c-2.18,0-2.79.65-2.79,2.86v.21h11.86c.31,0,.46.15.46.46v1.66c0,.32-.15.46-.46.46h-11.86v.36c0,2.2.61,2.86,2.79,2.86h9.18c.31,0,.48.15.48.46v1.99c0,.32-.17.46-.48.46h-9.24c-4.24,0-5.88-1.51-5.88-5.54v-3.61c0-4.03,1.64-5.54,5.88-5.54h9.24Z"/>
            <path class="cls-14" d="M513.42,29.7c3.21,0,4.51,1.49,4.51,4.33v1.2c0,2.39-.92,3.8-3.13,4.2l3.59,4.45c.13.15.1.52-.27.52h-2.71c-.36,0-.46-.08-.59-.27l-3.32-4.37h-6.78v4.18c0,.32-.15.46-.46.46h-2.27c-.31,0-.48-.15-.48-.46v-13.61c0-.42.21-.63.63-.63h11.27ZM504.73,37.2h8.04c1.43,0,1.95-.61,1.95-1.87v-.88c0-1.26-.52-1.87-1.95-1.87h-7.77c-.19,0-.27.08-.27.25v4.37Z"/>
            <path class="cls-14" d="M529.85,29.7c1.07,0,1.72.34,2.41,1.6l6.95,12.62c.15.27.08.48-.25.48h-2.67c-.27,0-.38-.06-.48-.27l-1.49-2.71h-9.87l-1.45,2.71c-.1.21-.23.27-.48.27h-2.73c-.36,0-.42-.21-.27-.48l6.89-12.62c.69-1.26,1.32-1.6,2.2-1.6h1.24ZM525.77,38.98h7.22l-3.34-6.15c-.06-.11-.13-.15-.23-.15h-.13c-.1,0-.17.04-.23.15l-3.3,6.15Z"/>
            <path class="cls-14" d="M555.59,29.7c.31,0,.46.15.46.46v2c0,.31-.15.46-.46.46h-10.52c-.8,0-1.11.44-1.11,1.18v.71c0,.78.36,1.18,1.09,1.18h7.87c2.41,0,3.67,1.3,3.67,3.61v1.68c0,2.04-1.18,3.42-3.72,3.42h-11.63c-.31,0-.48-.15-.48-.46v-1.99c0-.32.17-.46.48-.46h11.02c.8,0,1.11-.44,1.11-1.18v-.86c0-.78-.36-1.18-1.09-1.18h-7.87c-2.41,0-3.67-1.3-3.67-3.61v-1.53c0-2.04,1.18-3.42,3.72-3.42h11.13Z"/>
            <path class="cls-14" d="M561.75,29.7c.31,0,.46.15.46.46v13.77c0,.32-.15.46-.46.46h-2.27c-.31,0-.48-.15-.48-.46v-13.77c0-.31.17-.46.48-.46h2.27Z"/>
          </g>
          <g>
            <path class="cls-14" d="M160.4,38.84c0,3.07,2.49,5.56,5.56,5.56s5.56-2.49,5.56-5.56-2.49-5.56-5.56-5.56-5.56,2.49-5.56,5.56ZM169.02,36.59c.31.31.32.81.01,1.12l-3.28,3.34c-.33.33-.86.34-1.19.01l-1.65-1.62c-.31-.31-.32-.81-.01-1.12.31-.31.81-.32,1.12-.01l1.13,1.11,2.76-2.82c.31-.31.81-.32,1.12-.01Z"/>
            <path class="cls-14" d="M165.42,25.94c-2.99,1.49-6.28,2.27-9.62,2.27v11.02c0,4.14,2.34,7.93,6.04,9.78l4.12,2.06,4.12-2.06c3.7-1.85,6.04-5.64,6.04-9.78v-11.02c-3.34,0-6.63-.78-9.62-2.27l-.54-.27-.54.27ZM172.67,38.84c0,3.71-3,6.71-6.71,6.71s-6.71-3-6.71-6.71,3-6.71,6.71-6.71,6.71,3,6.71,6.71Z"/>
            <path class="cls-14" d="M177.37,26.69c-3.69,0-7.38-.87-10.68-2.52l-.73-.36-.73.36c-3.3,1.65-6.99,2.52-10.68,2.52h-.28v12.66c0,4.79,2.66,9.09,6.94,11.23l4.75,2.37,4.75-2.37c4.28-2.14,6.94-6.44,6.94-11.23v-12.66h-.28ZM177.09,39.34c0,4.57-2.54,8.69-6.63,10.73l-4.5,2.25-4.5-2.25c-4.09-2.05-6.63-6.16-6.63-10.73v-12.1c3.68-.04,7.36-.93,10.65-2.58l.48-.24.48.24c3.29,1.65,6.97,2.54,10.65,2.58v12.1Z"/>
          </g>
        </g>
      </g>
    </g>
  </g>
</svg>