<?xml version="1.0" encoding="UTF-8"?>
<svg id="Layer_2" data-name="Layer 2" xmlns="http://www.w3.org/2000/svg" xmlns:xlink="http://www.w3.org/1999/xlink" viewBox="0 0 336.62 53.76">
  <defs>
    <style>
      .cls-1 {
        fill: #241e33;
      }

      .cls-2 {
        fill: url(#_ÂÁ_Ï_ÌÌ_È_ËÂÌÚ_2-9);
      }

      .cls-3 {
        fill: url(#_ÂÁ_Ï_ÌÌ_È_ËÂÌÚ_2-2);
      }

      .cls-4 {
        fill: url(#_ÂÁ_Ï_ÌÌ_È_ËÂÌÚ_2-3);
      }

      .cls-5 {
        fill: url(#_ÂÁ_Ï_ÌÌ_È_ËÂÌÚ_2-4);
      }

      .cls-6 {
        fill: url(#_ÂÁ_Ï_ÌÌ_È_ËÂÌÚ_2-5);
      }

      .cls-7 {
        fill: url(#_ÂÁ_Ï_ÌÌ_È_ËÂÌÚ_2-6);
      }

      .cls-8 {
        fill: url(#_ÂÁ_Ï_ÌÌ_È_ËÂÌÚ_2-7);
      }

      .cls-9 {
        fill: url(#_ÂÁ_Ï_ÌÌ_È_ËÂÌÚ_2-8);
      }

      .cls-10 {
        fill: url(#_ÂÁ_Ï_ÌÌ_È_ËÂÌÚ_3);
      }

      .cls-11 {
        fill: url(#_ÂÁ_Ï_ÌÌ_È_ËÂÌÚ_2);
      }

      .cls-12 {
        fill: #fff;
      }
    </style>
    <linearGradient id="_ÂÁ_Ï_ÌÌ_È_ËÂÌÚ_2" data-name="¡ÂÁ˚ÏˇÌÌ˚È „‡‰ËÂÌÚ 2" x1="-7.71" y1="41.61" x2="227.62" y2="42.5" gradientUnits="userSpaceOnUse">
      <stop offset="0" stop-color="#d730c4"/>
      <stop offset=".23" stop-color="#b048d4"/>
      <stop offset=".57" stop-color="#7a69eb"/>
      <stop offset=".83" stop-color="#597ef9"/>
      <stop offset=".97" stop-color="#4d86ff"/>
    </linearGradient>
    <linearGradient id="_ÂÁ_Ï_ÌÌ_È_ËÂÌÚ_2-2" data-name="¡ÂÁ˚ÏˇÌÌ˚È „‡‰ËÂÌÚ 2" x1="-7.6" y1="12.02" x2="227.73" y2="12.9" xlink:href="#_ÂÁ_Ï_ÌÌ_È_ËÂÌÚ_2"/>
    <linearGradient id="_ÂÁ_Ï_ÌÌ_È_ËÂÌÚ_2-3" data-name="¡ÂÁ˚ÏˇÌÌ˚È „‡‰ËÂÌÚ 2" x1="-7.71" y1="41.58" x2="227.62" y2="42.46" xlink:href="#_ÂÁ_Ï_ÌÌ_È_ËÂÌÚ_2"/>
    <linearGradient id="_ÂÁ_Ï_ÌÌ_È_ËÂÌÚ_2-4" data-name="¡ÂÁ˚ÏˇÌÌ˚È „‡‰ËÂÌÚ 2" x1="-7.6" y1="11.99" x2="227.73" y2="12.87" xlink:href="#_ÂÁ_Ï_ÌÌ_È_ËÂÌÚ_2"/>
    <linearGradient id="_ÂÁ_Ï_ÌÌ_È_ËÂÌÚ_2-5" data-name="¡ÂÁ˚ÏˇÌÌ˚È „‡‰ËÂÌÚ 2" x1="164.68" y1="41.06" x2="400.01" y2="41.95" xlink:href="#_ÂÁ_Ï_ÌÌ_È_ËÂÌÚ_2"/>
    <linearGradient id="_ÂÁ_Ï_ÌÌ_È_ËÂÌÚ_2-6" data-name="¡ÂÁ˚ÏˇÌÌ˚È „‡‰ËÂÌÚ 2" x1="164.79" y1="11.47" x2="400.12" y2="12.35" xlink:href="#_ÂÁ_Ï_ÌÌ_È_ËÂÌÚ_2"/>
    <linearGradient id="_ÂÁ_Ï_ÌÌ_È_ËÂÌÚ_2-7" data-name="¡ÂÁ˚ÏˇÌÌ˚È „‡‰ËÂÌÚ 2" x1="164.68" y1="41.1" x2="400.01" y2="41.98" xlink:href="#_ÂÁ_Ï_ÌÌ_È_ËÂÌÚ_2"/>
    <linearGradient id="_ÂÁ_Ï_ÌÌ_È_ËÂÌÚ_2-8" data-name="¡ÂÁ˚ÏˇÌÌ˚È „‡‰ËÂÌÚ 2" x1="164.79" y1="11.5" x2="400.12" y2="12.39" xlink:href="#_ÂÁ_Ï_ÌÌ_È_ËÂÌÚ_2"/>
    <radialGradient id="_ÂÁ_Ï_ÌÌ_È_ËÂÌÚ_3" data-name="¡ÂÁ˚ÏˇÌÌ˚È „‡‰ËÂÌÚ 3" cx="-16657.84" cy="-2198.43" fx="-16657.84" fy="-2198.43" r="438.31" gradientTransform="translate(4773.35 222.63) scale(.28 .1)" gradientUnits="userSpaceOnUse">
      <stop offset="0" stop-color="#241883"/>
      <stop offset=".35" stop-color="#241a60"/>
      <stop offset=".75" stop-color="#241d3f"/>
      <stop offset=".97" stop-color="#241e33"/>
    </radialGradient>
    <linearGradient id="_ÂÁ_Ï_ÌÌ_È_ËÂÌÚ_2-9" data-name="¡ÂÁ˚ÏˇÌÌ˚È „‡‰ËÂÌÚ 2" x1="23.25" y1="26.88" x2="313.37" y2="26.88" xlink:href="#_ÂÁ_Ï_ÌÌ_È_ËÂÌÚ_2"/>
  </defs>
  <g id="Layer_1-2" data-name="Layer 1">
    <g>
      <g>
        <path class="cls-1" d="M306,0H30.62l-10.6,14.08v25.61l10.6,14.08h275.38l10.6-14.08V14.08l-10.6-14.08Z"/>
        <g>
          <g>
            <polygon class="cls-11" points="7.06 39.68 7.06 29.59 0 29.59 0 39.68 10.6 53.76 17.66 53.76 7.06 39.68"/>
            <polygon class="cls-3" points="7.06 14.08 17.66 0 10.6 0 0 14.08 0 24.16 7.06 24.16 7.06 14.08"/>
            <polygon class="cls-4" points="15.89 39.68 15.89 29.59 8.83 29.59 8.83 39.68 19.43 53.76 26.49 53.76 15.89 39.68"/>
            <polygon class="cls-5" points="8.83 14.08 8.83 24.16 15.89 24.16 15.89 14.08 26.49 0 19.43 0 8.83 14.08 8.83 14.08"/>
          </g>
          <g>
            <polygon class="cls-6" points="329.56 39.68 329.56 29.59 336.62 29.59 336.62 39.68 326.02 53.76 318.96 53.76 329.56 39.68"/>
            <polygon class="cls-7" points="329.56 14.08 318.96 0 326.02 0 336.62 14.08 336.62 24.16 329.56 24.16 329.56 14.08"/>
            <polygon class="cls-8" points="320.73 39.68 320.73 29.59 327.79 29.59 327.79 39.68 317.19 53.76 310.13 53.76 320.73 39.68"/>
            <polygon class="cls-9" points="327.79 14.08 327.79 24.16 320.73 24.16 320.73 14.08 310.13 0 317.19 0 327.79 14.08 327.79 14.08"/>
          </g>
        </g>
        <path class="cls-10" d="M32.18,0c5.69,19.76,64.46,35.3,136.13,35.3S298.76,19.76,304.44,0H32.18Z"/>
        <path class="cls-2" d="M303.39,51.45H33.23s-9.97-12.91-9.97-12.91V15.22l9.97-12.91h270.17l9.97,12.91v23.31l-9.97,12.91ZM33.55,50.78h269.52s9.63-12.47,9.63-12.47V15.45l-9.63-12.47H33.55l-9.63,12.47v22.86l9.63,12.47Z"/>
      </g>
      <g>
        <path class="cls-12" d="M49.94,18.21c1.07,0,1.72.34,2.41,1.6l6.95,12.62c.15.27.08.48-.25.48h-2.67c-.27,0-.38-.06-.48-.27l-1.49-2.71h-9.87l-1.45,2.71c-.1.21-.23.27-.48.27h-2.73c-.36,0-.42-.21-.27-.48l6.89-12.62c.69-1.26,1.32-1.6,2.2-1.6h1.24ZM45.87,27.49h7.22l-3.34-6.15c-.06-.1-.13-.15-.23-.15h-.13c-.1,0-.17.04-.23.15l-3.3,6.15Z"/>
        <path class="cls-12" d="M64.83,18.21c1.34,0,1.64.17,2.44,1.24l7.81,10.25c.06.1.15.15.27.15h.19c.1,0,.17-.06.17-.21v-10.96c0-.31.15-.46.46-.46h2.2c.31,0,.46.15.46.46v12.05c0,1.7-.61,2.18-1.89,2.18h-1.81c-1.28,0-1.6-.13-2.44-1.24l-7.83-10.25c-.08-.1-.15-.15-.27-.15h-.19c-.13,0-.17.06-.17.21v10.96c0,.31-.15.46-.46.46h-2.2c-.31,0-.48-.15-.48-.46v-12.05c0-1.7.61-2.18,1.89-2.18h1.85Z"/>
        <path class="cls-12" d="M90.96,18.21c1.07,0,1.72.34,2.41,1.6l6.95,12.62c.15.27.08.48-.25.48h-2.67c-.27,0-.38-.06-.48-.27l-1.49-2.71h-9.87l-1.45,2.71c-.1.21-.23.27-.48.27h-2.73c-.36,0-.42-.21-.27-.48l6.89-12.62c.69-1.26,1.32-1.6,2.2-1.6h1.24ZM86.88,27.49h7.22l-3.34-6.15c-.06-.1-.13-.15-.23-.15h-.13c-.1,0-.17.04-.23.15l-3.3,6.15Z"/>
        <path class="cls-12" d="M124.09,18.21c.31,0,.48.15.48.46v1.99c0,.31-.17.46-.48.46h-9.18c-2.18,0-2.79.65-2.79,2.86v.21h11.86c.31,0,.46.15.46.46v1.66c0,.31-.15.46-.46.46h-11.86v.36c0,2.2.61,2.86,2.79,2.86h9.18c.31,0,.48.15.48.46v1.99c0,.31-.17.46-.48.46h-9.24c-4.24,0-5.88-1.51-5.88-5.54v-3.61c0-4.03,1.64-5.54,5.88-5.54h9.24Z"/>
        <path class="cls-12" d="M129.74,18.21c.31,0,.46.15.46.46v5.58h2.96c1.32,0,1.72-.15,2.33-.94l3.61-4.83c.15-.19.23-.27.61-.27h2.6c.36,0,.42.31.27.5l-4.07,5.27c-.48.63-.86,1.07-1.26,1.41.57.36,1.07.84,1.6,1.51l4.3,5.46c.1.15.15.55-.27.55h-2.69c-.36,0-.44-.08-.59-.27l-3.86-5c-.57-.73-1.05-.94-2.35-.94h-3.19v5.75c0,.31-.15.46-.46.46h-2.27c-.31,0-.48-.15-.48-.46v-13.77c0-.31.17-.46.48-.46h2.27Z"/>
        <path class="cls-12" d="M156.83,18.21c3.21,0,4.51,1.49,4.51,4.33v1.2c0,2.39-.92,3.8-3.13,4.2l3.59,4.45c.13.15.1.52-.27.52h-2.71c-.36,0-.46-.08-.59-.27l-3.32-4.37h-6.78v4.18c0,.31-.15.46-.46.46h-2.27c-.31,0-.48-.15-.48-.46v-13.61c0-.42.21-.63.63-.63h11.27ZM148.14,25.7h8.04c1.43,0,1.95-.61,1.95-1.87v-.88c0-1.26-.52-1.87-1.95-1.87h-7.77c-.19,0-.27.08-.27.25v4.37Z"/>
        <path class="cls-12" d="M173.25,18.21c1.07,0,1.72.34,2.41,1.6l6.95,12.62c.15.27.08.48-.25.48h-2.67c-.27,0-.38-.06-.48-.27l-1.49-2.71h-9.87l-1.45,2.71c-.1.21-.23.27-.48.27h-2.73c-.36,0-.42-.21-.27-.48l6.89-12.62c.69-1.26,1.32-1.6,2.2-1.6h1.24ZM169.18,27.49h7.22l-3.34-6.15c-.06-.1-.13-.15-.23-.15h-.13c-.1,0-.17.04-.23.15l-3.3,6.15Z"/>
        <path class="cls-12" d="M188.14,18.21c1.34,0,1.64.17,2.44,1.24l7.81,10.25c.06.1.15.15.27.15h.19c.1,0,.17-.06.17-.21v-10.96c0-.31.15-.46.46-.46h2.2c.31,0,.46.15.46.46v12.05c0,1.7-.61,2.18-1.89,2.18h-1.81c-1.28,0-1.6-.13-2.44-1.24l-7.83-10.25c-.08-.1-.15-.15-.27-.15h-.19c-.13,0-.17.06-.17.21v10.96c0,.31-.15.46-.46.46h-2.2c-.31,0-.48-.15-.48-.46v-12.05c0-1.7.61-2.18,1.89-2.18h1.85Z"/>
        <path class="cls-12" d="M214.27,18.21c1.07,0,1.72.34,2.41,1.6l6.95,12.62c.15.27.08.48-.25.48h-2.67c-.27,0-.38-.06-.48-.27l-1.49-2.71h-9.87l-1.45,2.71c-.1.21-.23.27-.48.27h-2.73c-.36,0-.42-.21-.27-.48l6.89-12.62c.69-1.26,1.32-1.6,2.2-1.6h1.24ZM210.19,27.49h7.22l-3.34-6.15c-.06-.1-.13-.15-.23-.15h-.13c-.1,0-.17.04-.23.15l-3.3,6.15Z"/>
        <path class="cls-12" d="M242.91,18.21c4.56,0,6.42,1.83,6.42,5.92v2.86c0,4.09-1.87,5.92-6.42,5.92h-9.83c-.42,0-.63-.21-.63-.63v-13.44c0-.42.21-.63.63-.63h9.83ZM235.67,29.72c0,.19.08.27.27.27h6.89c2.48,0,3.3-.8,3.3-3.28v-2.31c0-2.48-.82-3.28-3.3-3.28h-6.89c-.19,0-.27.08-.27.29v8.29Z"/>
        <path class="cls-12" d="M264.16,18.21c4.26,0,5.88,1.51,5.88,5.54v3.61c0,4.03-1.62,5.54-5.88,5.54h-6.49c-4.24,0-5.88-1.51-5.88-5.54v-3.61c0-4.03,1.64-5.54,5.88-5.54h6.49ZM255.01,27.13c0,2.2.63,2.86,2.79,2.86h6.24c2.16,0,2.79-.65,2.79-2.86v-3.15c0-2.2-.63-2.86-2.79-2.86h-6.24c-2.16,0-2.79.65-2.79,2.86v3.15ZM259.02,14.33c.31,0,.46.13.46.38v1.99c0,.25-.15.38-.46.38h-2.06c-.31,0-.46-.13-.46-.38v-1.99c0-.25.15-.38.46-.38h2.06ZM264.88,14.33c.31,0,.48.13.48.38v1.99c0,.25-.17.38-.48.38h-2.06c-.31,0-.46-.13-.46-.38v-1.99c0-.25.15-.38.46-.38h2.06Z"/>
        <path class="cls-12" d="M276.39,18.21c1.34,0,1.64.17,2.44,1.24l7.81,10.25c.06.1.15.15.27.15h.19c.1,0,.17-.06.17-.21v-10.96c0-.31.15-.46.46-.46h2.2c.31,0,.46.15.46.46v12.05c0,1.7-.61,2.18-1.89,2.18h-1.81c-1.28,0-1.6-.13-2.44-1.24l-7.83-10.25c-.08-.1-.15-.15-.27-.15h-.19c-.13,0-.17.06-.17.21v10.96c0,.31-.15.46-.46.46h-2.2c-.31,0-.48-.15-.48-.46v-12.05c0-1.7.61-2.18,1.89-2.18h1.85Z"/>
        <path class="cls-12" d="M295.77,17.47c.31,0,.48.17.48.48l-.59,9.45c-.02.31-.15.46-.46.46h-1.22c-.31,0-.44-.15-.46-.46l-.59-9.45c0-.31.17-.48.48-.48h2.35ZM295.62,29.97c.31,0,.46.15.46.46v2.02c0,.31-.15.46-.46.46h-2.06c-.31,0-.48-.15-.48-.46v-2.02c0-.31.17-.46.48-.46h2.06Z"/>
      </g>
    </g>
  </g>
</svg>