<?xml version="1.0" encoding="UTF-8"?>
<svg id="Layer_2" data-name="Layer 2" xmlns="http://www.w3.org/2000/svg" xmlns:xlink="http://www.w3.org/1999/xlink" viewBox="0 0 144.53 40.78">
  <defs>
    <style>
      .cls-1 {
        fill: #241e33;
      }

      .cls-2 {
        fill: url(#_ÂÁ_Ï_ÌÌ_È_ËÂÌÚ_2-2);
      }

      .cls-3 {
        fill: url(#_ÂÁ_Ï_ÌÌ_È_ËÂÌÚ_3);
      }

      .cls-4 {
        fill: url(#_ÂÁ_Ï_ÌÌ_È_ËÂÌÚ_2);
      }

      .cls-5 {
        fill: #fff;
      }

      .cls-6 {
        fill: #3c354f;
      }
    </style>
    <radialGradient id="_ÂÁ_Ï_ÌÌ_È_ËÂÌÚ_3" data-name="¡ÂÁ˚ÏˇÌÌ˚È „‡‰ËÂÌÚ 3" cx="-1846.11" cy="-176.02" fx="-1846.11" fy="-176.02" r="341.58" gradientTransform="translate(310.09 17.68) scale(.12 .1)" gradientUnits="userSpaceOnUse">
      <stop offset="0" stop-color="#241883"/>
      <stop offset=".35" stop-color="#241a60"/>
      <stop offset=".75" stop-color="#241d3f"/>
      <stop offset=".97" stop-color="#241e33"/>
    </radialGradient>
    <linearGradient id="_ÂÁ_Ï_ÌÌ_È_ËÂÌÚ_2" data-name="¡ÂÁ˚ÏˇÌÌ˚È „‡‰ËÂÌÚ 2" x1="1.6" y1="20.39" x2="142.93" y2="20.39" gradientUnits="userSpaceOnUse">
      <stop offset="0" stop-color="#d730c4"/>
      <stop offset=".23" stop-color="#b048d4"/>
      <stop offset=".57" stop-color="#7a69eb"/>
      <stop offset=".83" stop-color="#597ef9"/>
      <stop offset=".97" stop-color="#4d86ff"/>
    </linearGradient>
    <linearGradient id="_ÂÁ_Ï_ÌÌ_È_ËÂÌÚ_2-2" data-name="¡ÂÁ˚ÏˇÌÌ˚È „‡‰ËÂÌÚ 2" x1="37.46" y1="20.39" x2="139.99" y2="20.39" xlink:href="#_ÂÁ_Ï_ÌÌ_È_ËÂÌÚ_2"/>
  </defs>
  <g id="Layer_1-2" data-name="Layer 1">
    <polygon class="cls-6" points="136.32 0 8.21 0 .32 10.48 0 10.9 0 29.87 8.21 40.78 136.32 40.78 144.2 30.3 144.53 29.87 144.53 10.9 136.32 0"/>
    <polygon class="cls-1" points="9.23 38.72 2.05 29.19 2.05 11.59 9.23 2.05 135.29 2.05 142.47 11.59 142.47 29.19 135.29 38.72 9.23 38.72"/>
    <path class="cls-3" d="M43.13,2.05c1.92,15.4,21.75,27.51,45.94,27.51s44.03-12.11,45.94-27.51H43.13Z"/>
    <path class="cls-4" d="M135.52,1.6H9.01L1.6,11.44v17.9l7.41,9.84h126.51l7.41-9.84V11.44l-7.41-9.84ZM142.01,29.03l-6.95,9.23H42.72l-6.86-9.11V11.62l6.86-9.11h92.35l6.95,9.23v17.29Z"/>
    <path class="cls-2" d="M43.89,3.92l-6.43,8.44v16.07l6.43,8.44h89.58l6.51-8.55v-15.84l-6.51-8.55H43.89ZM139.38,28.11l-6.21,8.15H44.19l-6.12-8.03v-15.66l6.12-8.03h88.98l6.21,8.15v15.43Z"/>
    <g>
      <path class="cls-5" d="M63.07,13.76h-5.29v12.85h-1.64v-12.85h-5.3v-1.5h12.23v1.5Z"/>
      <path class="cls-5" d="M63.56,25.41c-1-.98-1.5-2.29-1.5-3.92,0-1.53.49-2.8,1.46-3.82.97-1.02,2.22-1.53,3.75-1.53s2.84.48,3.75,1.45c.91.97,1.37,2.19,1.37,3.66,0,.31-.01.56-.04.74h-8.73c.07,1.04.45,1.88,1.13,2.52s1.58.96,2.7.96c.83,0,1.53-.19,2.1-.56.57-.37.99-.84,1.26-1.41l1.45.43c-.38.83-.98,1.53-1.8,2.1-.82.57-1.83.85-3.03.85-1.59,0-2.88-.49-3.88-1.47ZM70.82,20.8c-.07-.98-.42-1.77-1.05-2.37-.63-.6-1.47-.9-2.52-.9s-1.85.32-2.52.96c-.67.64-1.04,1.42-1.11,2.33l7.21-.02Z"/>
      <path class="cls-5" d="M86.72,16.15c1.23,0,2.2.38,2.91,1.14s1.07,1.82,1.07,3.19v6.15h-1.58v-5.91c0-.98-.22-1.74-.67-2.28s-1.11-.81-1.98-.81-1.58.32-2.12.96-.81,1.49-.81,2.56v5.48h-1.58v-5.91c0-.97-.21-1.73-.64-2.28-.43-.55-1.05-.82-1.87-.82-.9,0-1.63.34-2.2,1.03-.57.69-.85,1.6-.85,2.73v5.23h-1.57v-10.23h1.57v1.68c.77-1.29,1.9-1.93,3.4-1.93s2.64.66,3.27,1.97c.75-1.31,1.97-1.97,3.66-1.97v.02Z"/>
      <path class="cls-5" d="M94.51,14.49c-.31,0-.57-.1-.78-.31-.21-.21-.31-.47-.31-.78,0-.29.11-.54.32-.74.21-.2.47-.3.77-.3s.56.1.77.3c.21.2.32.44.32.73,0,.31-.1.57-.3.78-.2.21-.46.31-.77.31h-.02ZM93.73,16.39h1.57v10.23h-1.57v-10.23Z"/>
      <path class="cls-5" d="M106.62,25.24v1.37h-8.76v-1.04l6.44-7.82h-6.32v-1.37h8.45v1.09l-6.42,7.77h6.61Z"/>
      <path class="cls-5" d="M109.05,11.64h1.57v14.96h-1.57v-14.96Z"/>
      <path class="cls-5" d="M114.54,25.41c-1-.98-1.5-2.29-1.5-3.92,0-1.53.49-2.8,1.46-3.82.97-1.02,2.22-1.53,3.75-1.53s2.84.48,3.75,1.45c.91.97,1.37,2.19,1.37,3.66,0,.31,0,.56-.04.74h-8.73c.07,1.04.45,1.88,1.13,2.52s1.58.96,2.7.96c.83,0,1.53-.19,2.1-.56.57-.37.99-.84,1.26-1.41l1.45.43c-.38.83-.98,1.53-1.8,2.1-.82.57-1.83.85-3.03.85-1.59,0-2.88-.49-3.88-1.47ZM121.8,20.8c-.07-.98-.42-1.77-1.05-2.37-.63-.6-1.47-.9-2.52-.9s-1.85.32-2.52.96c-.67.64-1.04,1.42-1.11,2.33l7.21-.02Z"/>
    </g>
    <g>
      <path class="cls-5" d="M23.18,25.58c-1.19.34-2.27-.21-2.86-1.25-.88,0-1.67-.15-2.37-.7-.19-.15-.48-.55-.66-.62-.21-.09-.59-.1-.85-.19-.32-.11-.54-.29-.84-.44-1.68,2.36-4.27,4.1-7.11,4.73-.57.13-1.15.19-1.73.3-.49.39-.12.71.19,1.06.67.77,1.89,1.8,2.74,2.37.18.12.47.37.67.35.14-.02.62-.25.78-.33,2.08-1,3.96-2.82,5.38-4.6.22-.27.7-1.12,1-1.15.25-.03.52.2.53.44.01.28-.69,1.14-.89,1.41-1.53,1.98-3.59,3.79-5.88,4.82-.03.14.02.09.08.13.29.2.76.43,1.08.6.57.29,1.17.54,1.77.78,2.5-1.29,4.31-3.53,5.83-5.83.24-.36.55-1.28,1.1-1.04.6.25-.09,1.18-.29,1.51-1.32,2.17-3.15,4.17-5.23,5.62-.07.05-.14.08-.23.09-.02.15.01.09.08.12.49.22,1.39.43,1.94.56.63.15,1.88.45,2.48.43.69-.03,1.47-.9,1.92-1.4,1.68-1.85,2.84-4.13,3.74-6.44-.96-.2-1.87-.39-2.36-1.33Z"/>
      <path class="cls-5" d="M29.76,6.38c-.56-.57-1.65-.58-2.12.13l-6.86,13.42,3.86,1.63,5.33-13.88c.13-.44.13-.95-.21-1.3Z"/>
      <path class="cls-5" d="M21.75,21.33c-1.62-.69-3.57-1.73-5.12-.34-.1.09-.46.47-.49.56-.04.1.39.28.46.35.25.13.56.1.82.17.7.18.93.89,1.68,1.16.72.26,1.45-.07,1.97.52.42.48.52.99,1.37,1.02.54.01.89-.33,1.46.19.19.17.28.52.52.67.14.09,1.35.44,1.42.39.29-.92,0-2.03-.61-2.76-.64-.77-2.5-1.51-3.47-1.92Z"/>
    </g>
  </g>
</svg>