<?xml version="1.0" encoding="UTF-8"?>
<svg id="Layer_2" data-name="Layer 2" xmlns="http://www.w3.org/2000/svg" xmlns:xlink="http://www.w3.org/1999/xlink" viewBox="0 0 465.53 70.7">
  <defs>
    <style>
      .cls-1 {
        fill: #241e33;
      }

      .cls-2 {
        fill: url(#_ÂÁ_Ï_ÌÌ_È_ËÂÌÚ_6-2);
      }

      .cls-3 {
        fill: url(#_ÂÁ_Ï_ÌÌ_È_ËÂÌÚ_6-5);
      }

      .cls-4 {
        fill: url(#_ÂÁ_Ï_ÌÌ_È_ËÂÌÚ_6-7);
      }

      .cls-5 {
        fill: url(#_ÂÁ_Ï_ÌÌ_È_ËÂÌÚ_6-4);
      }

      .cls-6 {
        fill: url(#_ÂÁ_Ï_ÌÌ_È_ËÂÌÚ_6-3);
      }

      .cls-7 {
        fill: url(#_ÂÁ_Ï_ÌÌ_È_ËÂÌÚ_6-6);
      }

      .cls-8 {
        fill: url(#_ÂÁ_Ï_ÌÌ_È_ËÂÌÚ_6);
      }

      .cls-9 {
        fill: #fff;
      }

      .cls-10 {
        fill: #3c354f;
      }
    </style>
    <linearGradient id="_ÂÁ_Ï_ÌÌ_È_ËÂÌÚ_6" data-name="¡ÂÁ˚ÏˇÌÌ˚È „‡‰ËÂÌÚ 6" x1="-10.74" y1="63.16" x2="293.28" y2="63.16" gradientUnits="userSpaceOnUse">
      <stop offset="0" stop-color="#d730c4"/>
      <stop offset=".14" stop-color="#d133c6"/>
      <stop offset=".32" stop-color="#c03dcd"/>
      <stop offset=".53" stop-color="#a54ed8"/>
      <stop offset=".75" stop-color="#8065e9"/>
      <stop offset=".98" stop-color="#5083fd"/>
      <stop offset="1" stop-color="#4d86ff"/>
    </linearGradient>
    <linearGradient id="_ÂÁ_Ï_ÌÌ_È_ËÂÌÚ_6-2" data-name="¡ÂÁ˚ÏˇÌÌ˚È „‡‰ËÂÌÚ 6" x1="-10.74" x2="293.27" xlink:href="#_ÂÁ_Ï_ÌÌ_È_ËÂÌÚ_6"/>
    <linearGradient id="_ÂÁ_Ï_ÌÌ_È_ËÂÌÚ_6-3" data-name="¡ÂÁ˚ÏˇÌÌ˚È „‡‰ËÂÌÚ 6" x1="-10.74" x2="293.28" xlink:href="#_ÂÁ_Ï_ÌÌ_È_ËÂÌÚ_6"/>
    <linearGradient id="_ÂÁ_Ï_ÌÌ_È_ËÂÌÚ_6-4" data-name="¡ÂÁ˚ÏˇÌÌ˚È „‡‰ËÂÌÚ 6" x1="-10.74" x2="293.28" xlink:href="#_ÂÁ_Ï_ÌÌ_È_ËÂÌÚ_6"/>
    <linearGradient id="_ÂÁ_Ï_ÌÌ_È_ËÂÌÚ_6-5" data-name="¡ÂÁ˚ÏˇÌÌ˚È „‡‰ËÂÌÚ 6" x1="-10.74" x2="293.28" xlink:href="#_ÂÁ_Ï_ÌÌ_È_ËÂÌÚ_6"/>
    <linearGradient id="_ÂÁ_Ï_ÌÌ_È_ËÂÌÚ_6-6" data-name="¡ÂÁ˚ÏˇÌÌ˚È „‡‰ËÂÌÚ 6" x1="66.74" y1="61.4" x2="486.17" y2="61.4" xlink:href="#_ÂÁ_Ï_ÌÌ_È_ËÂÌÚ_6"/>
    <linearGradient id="_ÂÁ_Ï_ÌÌ_È_ËÂÌÚ_6-7" data-name="¡ÂÁ˚ÏˇÌÌ˚È „‡‰ËÂÌÚ 6" x1="-23.42" y1="29.95" x2="492.23" y2="29.95" xlink:href="#_ÂÁ_Ï_ÌÌ_È_ËÂÌÚ_6"/>
  </defs>
  <g id="Layer_1-2" data-name="Layer 1">
    <g>
      <polygon class="cls-10" points="448.53 0 16.99 0 .54 17.73 0 18.4 0 58.33 16.99 70.7 448.53 70.7 464.99 58.99 465.53 58.33 465.53 18.4 448.53 0"/>
      <polygon class="cls-1" points="3.46 56.62 3.46 19.46 18.64 3.34 446.88 3.34 462.07 19.46 462.07 56.62 3.46 56.62"/>
      <g>
        <path class="cls-8" d="M57.47,63.16c0,.95-.79,1.72-1.76,1.72s-1.76-.77-1.76-1.72.79-1.71,1.76-1.71,1.76.77,1.76,1.71Z"/>
        <path class="cls-2" d="M43.16,63.16c0,.95-.79,1.72-1.76,1.72s-1.76-.77-1.76-1.72.79-1.71,1.76-1.71,1.76.77,1.76,1.71Z"/>
        <path class="cls-6" d="M28.85,63.16c0,.95-.79,1.72-1.76,1.72s-1.76-.77-1.76-1.72.79-1.71,1.76-1.71,1.76.77,1.76,1.71Z"/>
        <path class="cls-5" d="M86.1,63.16c0,.95-.79,1.72-1.76,1.72s-1.76-.77-1.76-1.72.79-1.71,1.76-1.71,1.76.77,1.76,1.71Z"/>
        <path class="cls-3" d="M71.79,63.16c0,.95-.79,1.72-1.76,1.72s-1.76-.77-1.76-1.72.79-1.71,1.76-1.71,1.76.77,1.76,1.71Z"/>
      </g>
      <g>
        <g>
          <polygon class="cls-1" points="462.07 56.62 305.66 56.62 315.13 67.79 445.97 67.79 462.07 56.62"/>
          <polygon class="cls-7" points="457.2 56.62 311.82 56.62 319.38 66.18 443.56 66.18 457.2 56.62"/>
        </g>
        <g>
          <polygon class="cls-1" points="310.76 67.79 301.56 56.62 292.43 56.62 302.49 67.79 310.76 67.79"/>
          <polygon class="cls-1" points="297.28 67.79 288.08 56.62 278.95 56.62 289.02 67.79 297.28 67.79"/>
        </g>
      </g>
      <polygon class="cls-9" points="457.02 21.13 457.02 52.4 8.51 52.56 8.51 20.96 21.77 7.34 443.63 7.34 457.02 21.13"/>
      <path class="cls-4" d="M21.28,6.36l-13.8,14.29v32.89l450.56-.18V20.83l-13.94-14.46H21.28ZM457.02,52.41l-448.51.18v-31.62l13.26-13.62h421.85l13.4,13.79v31.26Z"/>
    </g>
  </g>
</svg>