<?xml version="1.0" encoding="UTF-8"?>
<svg id="Layer_2" data-name="Layer 2" xmlns="http://www.w3.org/2000/svg" viewBox="0 0 50.82 50.82">
  <defs>
    <style>
      .cls-1 {
        fill: #fff;
      }
    </style>
  </defs>
  <g id="Layer_1-2" data-name="Layer 1">
    <g>
      <path class="cls-1" d="M31.27,15.14c.11-.93-.17-2.31-.2-3.27-.01-.39,0-.79.02-1.18l2.6-3.15c1.38-2.93-3.16-2.59-4.8-3.42l-2.34-3.61-.74-.5h-.79c-.24.22-.5.24-.74.5-.85.9-1.47,2.64-2.34,3.61-1.23.54-2.93.62-4.13,1.13-.73.31-1.04.98-.92,1.75.13.84,2.36,2.83,2.85,3.7.1,1.18-.15,2.37-.18,3.55-.04,1.21.16,2.06,1.53,2.23l4.38-1.58c1.11.19,3.44,1.65,4.44,1.57.65-.05,1.29-.67,1.37-1.32Z"/>
      <path class="cls-1" d="M23.91,21.58v27.9c.11.71.51,1.02,1.1,1.34h.79c.59-.31.98-.62,1.09-1.34v-27.9c-.12-1.94-2.87-1.94-2.98,0Z"/>
      <path class="cls-1" d="M40.25,31.96c.39-1.91-1.34-2.75-2.73-1.34-3.84,3.88-6.6,11.58-6.85,16.97-.06,1.21-.27,2.74,1.1,3.23h.69c1.57-.59,1.09-1.84,1.19-3.13.48-5.9,2.7-11.31,6.6-15.73Z"/>
      <path class="cls-1" d="M15.33,33.26c-.48-.72-1.88-2.71-2.55-3.11-1.3-.77-2.73.47-2.21,1.81.19.49,1.46,1.81,1.88,2.39,2.78,3.89,4.33,8.58,4.72,13.34.1,1.28-.37,2.54,1.19,3.13h.69c1.35-.49,1.15-1.92,1.1-3.13-.21-4.95-2.09-10.33-4.83-14.43Z"/>
      <path class="cls-1" d="M48.63,23.92c.42-2.92-3.35-2.86-2.98,0-2.88-.34-2.88,3.32,0,2.98-.37,2.86,3.4,2.92,2.98,0,1.02.11,1.76-.14,2.18-1.09v-.79c-.43-.96-1.16-1.2-2.18-1.09Z"/>
      <path class="cls-1" d="M5.16,23.92c.37-2.87-3.39-2.9-2.98,0-1.02-.11-1.76.14-2.18,1.09v.79c.43.96,1.16,1.2,2.18,1.09-.41,2.9,3.34,2.87,2.98,0,2.88.34,2.88-3.32,0-2.98Z"/>
      <path class="cls-1" d="M11.91,14.99c1.43.24,2.89-1.07,1.89-2.43-.66-.89-1.66-.37-1.84-.64.27-2.92-3.37-2.76-3.02.09-2.85-.45-2.8,3.27,0,2.98-.3,2.78,3.37,2.83,2.98,0Z"/>
      <path class="cls-1" d="M41.88,12.01c.27-1.47-1.05-2.91-2.43-1.89-.84.63-.4,1.67-.64,1.84-.8.09-1.32-.12-1.84.65-.92,1.37.53,2.6,1.93,2.37-.42,2.81,3.29,2.79,2.98,0,2.81.29,2.85-3.43,0-2.98Z"/>
      <path class="cls-1" d="M10.2,40.81c-1.86.29-1.45,3.16.46,2.95,1.87-.21,1.59-3.27-.46-2.95Z"/>
      <path class="cls-1" d="M40.07,40.81c-1.76.3-1.47,3.15.46,2.95,1.98-.21,1.55-3.29-.46-2.95Z"/>
      <path class="cls-1" d="M13.17,19.97c-1.8.31-1.47,3.18.46,2.95,1.98-.24,1.5-3.28-.46-2.95Z"/>
      <path class="cls-1" d="M37.56,22.92c1.98-.24,1.5-3.28-.46-2.95-1.8.31-1.47,3.18.46,2.95Z"/>
      <path class="cls-1" d="M18.2,29.87c1.98-.24,1.5-3.28-.46-2.95-1.8.31-1.47,3.18.46,2.95Z"/>
      <path class="cls-1" d="M32.53,26.92c-1.8.31-1.47,3.18.46,2.95,1.98-.24,1.5-3.28-.46-2.95Z"/>
      <path class="cls-1" d="M4.04,35.95c-1.46.3-1.32,2.63.08,2.85,2.49.39,2.38-3.36-.08-2.85Z"/>
      <path class="cls-1" d="M45.92,35.95c-1.45.3-1.38,2.62.08,2.85,2.49.39,2.33-3.35-.08-2.85Z"/>
    </g>
  </g>
</svg>