<?xml version="1.0" encoding="UTF-8"?>
<svg id="Layer_2" data-name="Layer 2" xmlns="http://www.w3.org/2000/svg" viewBox="0 0 345.03 53.76">
  <defs>
    <style>
      .cls-1 {
        fill: #241e33;
      }

      .cls-2 {
        fill: #fff;
      }

      .cls-3 {
        fill: red;
      }
    </style>
  </defs>
  <g id="Layer_1-2" data-name="Layer 1">
    <g>
      <path class="cls-1" d="M314.41,0H30.62l-10.6,14.08v25.61l10.6,14.08h283.79l10.6-14.08V14.08l-10.6-14.08Z"/>
      <g>
        <g>
          <polygon class="cls-3" points="7.06 39.68 7.06 29.59 0 29.59 0 39.68 10.6 53.76 17.66 53.76 7.06 39.68"/>
          <polygon class="cls-3" points="7.06 14.08 17.66 0 10.6 0 0 14.08 0 24.16 7.06 24.16 7.06 14.08"/>
          <polygon class="cls-3" points="15.89 39.68 15.89 29.59 8.83 29.59 8.83 39.68 19.43 53.76 26.49 53.76 15.89 39.68"/>
          <polygon class="cls-3" points="8.83 14.08 8.83 24.16 15.89 24.16 15.89 14.08 26.49 0 19.43 0 8.83 14.08 8.83 14.08"/>
        </g>
        <g>
          <polygon class="cls-3" points="337.97 39.68 337.97 29.59 345.03 29.59 345.03 39.68 334.44 53.76 327.37 53.76 337.97 39.68"/>
          <polygon class="cls-3" points="337.97 14.08 327.37 0 334.44 0 345.03 14.08 345.03 24.16 337.97 24.16 337.97 14.08"/>
          <polygon class="cls-3" points="329.14 39.68 329.14 29.59 336.2 29.59 336.2 39.68 325.61 53.76 318.54 53.76 329.14 39.68"/>
          <polygon class="cls-3" points="336.2 14.08 336.2 24.16 329.14 24.16 329.14 14.08 318.54 0 325.61 0 336.2 14.08 336.2 14.08"/>
        </g>
      </g>
      <polygon class="cls-3" points="321.11 15.45 321.11 38.31 311.48 50.78 33.55 50.78 23.92 38.31 23.92 15.45 33.55 2.98 311.48 2.98 321.11 15.45"/>
      <path class="cls-2" d="M311.81,51.45H33.23s-9.97-12.91-9.97-12.91V15.22l9.97-12.91h278.58l9.97,12.91v23.31l-9.97,12.91ZM33.55,50.78h277.93s9.63-12.47,9.63-12.47V15.45l-9.63-12.47H33.55l-9.63,12.47v22.86l9.63,12.47Z"/>
      <g>
        <path class="cls-2" d="M99.32,20.15c3.21,0,4.51,1.49,4.51,4.33v1.55c0,2.83-1.3,4.33-4.51,4.33h-8.69v4.03c0,.32-.15.46-.46.46h-2.27c-.31,0-.48-.15-.48-.46v-13.61c0-.42.21-.63.63-.63h11.27ZM90.63,27.58h8.04c1.43,0,1.95-.61,1.95-1.87v-.8c0-1.26-.53-1.87-1.95-1.87h-7.77c-.19,0-.27.06-.27.25v4.28Z"/>
        <path class="cls-2" d="M113.14,20.15c1.07,0,1.72.34,2.42,1.6l6.95,12.62c.15.27.08.48-.25.48h-2.67c-.27,0-.38-.06-.48-.27l-1.49-2.71h-9.87l-1.45,2.71c-.11.21-.23.27-.48.27h-2.73c-.36,0-.42-.21-.27-.48l6.89-12.62c.69-1.26,1.32-1.6,2.21-1.6h1.24ZM109.07,29.43h7.22l-3.34-6.15c-.06-.11-.13-.15-.23-.15h-.12c-.11,0-.17.04-.23.15l-3.3,6.15Z"/>
        <path class="cls-2" d="M122.66,20.15c.25,0,.38.06.5.25l5.61,7.58,5.65-7.58c.12-.19.25-.25.5-.25h2.75c.23,0,.34.23.19.42l-7.54,9.78v4.03c0,.32-.15.46-.46.46h-2.27c-.31,0-.48-.15-.48-.46v-4.03l-7.45-9.78c-.15-.19-.06-.42.19-.42h2.81Z"/>
        <path class="cls-2" d="M142.25,20.15c.32,0,.46.15.46.46v8.38c0,2.22.63,2.88,2.79,2.88h8.5c.32,0,.46.15.46.46v2.06c0,.32-.15.46-.46.46h-8.63c-4.24,0-5.88-1.51-5.88-5.54v-8.69c0-.32.17-.46.48-.46h2.27Z"/>
        <path class="cls-2" d="M165.69,20.15c1.07,0,1.72.34,2.41,1.6l6.95,12.62c.15.27.08.48-.25.48h-2.67c-.27,0-.38-.06-.48-.27l-1.49-2.71h-9.87l-1.45,2.71c-.1.21-.23.27-.48.27h-2.73c-.36,0-.42-.21-.27-.48l6.89-12.62c.69-1.26,1.32-1.6,2.2-1.6h1.24ZM161.61,29.43h7.22l-3.34-6.15c-.06-.11-.13-.15-.23-.15h-.13c-.1,0-.17.04-.23.15l-3.3,6.15Z"/>
        <path class="cls-2" d="M191.43,20.15c.31,0,.46.15.46.46v2c0,.31-.15.46-.46.46h-10.52c-.8,0-1.11.44-1.11,1.18v.71c0,.78.36,1.18,1.09,1.18h7.87c2.41,0,3.67,1.3,3.67,3.61v1.68c0,2.04-1.18,3.42-3.72,3.42h-11.63c-.32,0-.48-.15-.48-.46v-2c0-.31.17-.46.48-.46h11.02c.8,0,1.11-.44,1.11-1.18v-.86c0-.78-.36-1.18-1.09-1.18h-7.87c-2.41,0-3.67-1.3-3.67-3.61v-1.53c0-2.04,1.18-3.42,3.72-3.42h11.13ZM185.53,35.71c.34,0,.48.19.4.54l-.92,3.82c-.08.31-.23.48-.52.48h-1.2c-.34,0-.5-.19-.48-.48l.34-3.88c.02-.31.21-.48.5-.48h1.89Z"/>
        <path class="cls-2" d="M197.58,20.15c.32,0,.46.15.46.46v13.77c0,.32-.15.46-.46.46h-2.27c-.32,0-.48-.15-.48-.46v-13.77c0-.32.17-.46.48-.46h2.27Z"/>
        <path class="cls-2" d="M203.55,20.15c.31,0,.46.15.46.46v8.38c0,2.22.63,2.88,2.79,2.88h8.5c.31,0,.46.15.46.46v2.06c0,.32-.15.46-.46.46h-8.63c-4.24,0-5.88-1.51-5.88-5.54v-8.69c0-.32.17-.46.48-.46h2.27Z"/>
        <path class="cls-2" d="M226.98,20.15c1.07,0,1.72.34,2.42,1.6l6.95,12.62c.15.27.08.48-.25.48h-2.67c-.27,0-.38-.06-.48-.27l-1.49-2.71h-9.87l-1.45,2.71c-.11.21-.23.27-.48.27h-2.73c-.36,0-.42-.21-.27-.48l6.89-12.62c.69-1.26,1.32-1.6,2.2-1.6h1.24ZM222.91,29.43h7.22l-3.34-6.15c-.06-.11-.13-.15-.23-.15h-.13c-.11,0-.17.04-.23.15l-3.3,6.15Z"/>
        <path class="cls-2" d="M242.29,20.15c1.26,0,1.68.27,2.25,1.6l4.37,10.08c.06.15.15.19.29.19h.25c.15,0,.23-.04.29-.19l4.37-10.08c.57-1.32.99-1.6,2.23-1.6h2.25c1.47,0,1.85.59,1.85,2.18v12.05c0,.32-.17.46-.48.46h-2.14c-.32,0-.46-.15-.46-.46v-10.96c0-.15-.04-.21-.17-.21h-.19c-.15,0-.23.04-.27.17l-4.24,9.41c-.69,1.51-1.28,2.06-2.69,2.06h-1.01c-1.41,0-1.99-.55-2.69-2.06l-4.24-9.41c-.04-.13-.13-.17-.27-.17h-.19c-.13,0-.17.06-.17.21v10.96c0,.32-.15.46-.46.46h-2.14c-.31,0-.48-.15-.48-.46v-12.05c0-1.6.38-2.18,1.87-2.18h2.29Z"/>
        <path class="cls-2" d="M272.53,20.15c1.07,0,1.72.34,2.42,1.6l6.95,12.62c.15.27.08.48-.25.48h-2.67c-.27,0-.38-.06-.48-.27l-1.49-2.71h-9.87l-1.45,2.71c-.11.21-.23.27-.48.27h-2.73c-.36,0-.42-.21-.27-.48l6.89-12.62c.69-1.26,1.32-1.6,2.21-1.6h1.24ZM268.46,29.43h7.22l-3.34-6.15c-.06-.11-.13-.15-.23-.15h-.12c-.11,0-.17.04-.23.15l-3.3,6.15Z"/>
        <path class="cls-2" d="M297.5,20.15c1.13,0,1.66.5,1.66,1.6v1.91c0,1.03-.23,1.32-1.05,1.76l-11.11,5.86c-.15.08-.19.17-.19.32v.15c0,.13.06.19.21.19h11.53c.32,0,.48.15.48.46v2c0,.32-.17.46-.48.46h-13.58c-1.15,0-1.66-.5-1.66-1.57v-1.91c0-1.03.17-1.32.99-1.76l11.07-5.88c.15-.08.19-.17.19-.32v-.15c0-.13-.08-.19-.21-.19h-11.42c-.32,0-.48-.15-.48-.46v-2c0-.32.17-.46.48-.46h13.58Z"/>
      </g>
      <g>
        <path class="cls-2" d="M55.04,9.08c-9.81,0-17.8,7.98-17.8,17.8s7.98,17.8,17.8,17.8,17.8-7.98,17.8-17.8-7.98-17.8-17.8-17.8ZM55.04,40.89c-7.72,0-14.01-6.28-14.01-14.01s6.28-14.01,14.01-14.01,14.01,6.28,14.01,14.01-6.28,14.01-14.01,14.01Z"/>
        <path class="cls-2" d="M63.43,21.91c.43-.43.43-1.13,0-1.57l-1.86-1.86c-.43-.43-1.13-.43-1.57,0l-4.19,4.19c-.43.43-1.13.43-1.57,0l-4.19-4.19c-.43-.43-1.13-.43-1.57,0l-1.86,1.86c-.43.43-.43,1.13,0,1.57l4.19,4.19c.43.43.43,1.13,0,1.57l-4.19,4.19c-.43.43-.43,1.13,0,1.57l1.86,1.86c.43.43,1.13.43,1.57,0l4.19-4.19c.43-.43,1.13-.43,1.57,0l4.19,4.19c.43.43,1.13.43,1.57,0l1.86-1.86c.43-.43.43-1.13,0-1.57l-4.19-4.19c-.43-.43-.43-1.13,0-1.57l4.19-4.19Z"/>
      </g>
    </g>
  </g>
</svg>