<?xml version="1.0" encoding="UTF-8"?>
<svg id="Layer_2" data-name="Layer 2" xmlns="http://www.w3.org/2000/svg" xmlns:xlink="http://www.w3.org/1999/xlink" viewBox="0 0 270.9 59.01">
  <defs>
    <style>
      .cls-1 {
        fill: #241e33;
      }

      .cls-2 {
        fill: url(#_ÂÁ_Ï_ÌÌ_È_ËÂÌÚ_6-2);
      }

      .cls-3 {
        fill: url(#_ÂÁ_Ï_ÌÌ_È_ËÂÌÚ_6);
      }

      .cls-4 {
        fill: url(#_ÂÁ_Ï_ÌÌ_È_ËÂÌÚ_3);
      }

      .cls-5 {
        fill: url(#_ÂÁ_Ï_ÌÌ_È_ËÂÌÚ_2);
      }

      .cls-6 {
        fill: #fff;
      }

      .cls-7 {
        fill: #3c354f;
      }
    </style>
    <radialGradient id="_ÂÁ_Ï_ÌÌ_È_ËÂÌÚ_3" data-name="¡ÂÁ˚ÏˇÌÌ˚È „‡‰ËÂÌÚ 3" cx="35595.92" cy="-2875.84" fx="35595.92" fy="-2875.84" r="442.83" gradientTransform="translate(9542.38 294.46) rotate(-180) scale(.26 -.1)" gradientUnits="userSpaceOnUse">
      <stop offset="0" stop-color="#241883"/>
      <stop offset=".35" stop-color="#241a60"/>
      <stop offset=".75" stop-color="#241d3f"/>
      <stop offset=".97" stop-color="#241e33"/>
    </radialGradient>
    <linearGradient id="_ÂÁ_Ï_ÌÌ_È_ËÂÌÚ_2" data-name="¡ÂÁ˚ÏˇÌÌ˚È „‡‰ËÂÌÚ 2" x1="-2.55" y1="29.84" x2="265.09" y2="29.19" gradientUnits="userSpaceOnUse">
      <stop offset="0" stop-color="#d730c4"/>
      <stop offset=".23" stop-color="#b048d4"/>
      <stop offset=".57" stop-color="#7a69eb"/>
      <stop offset=".83" stop-color="#597ef9"/>
      <stop offset=".97" stop-color="#4d86ff"/>
    </linearGradient>
    <linearGradient id="_ÂÁ_Ï_ÌÌ_È_ËÂÌÚ_6" data-name="¡ÂÁ˚ÏˇÌÌ˚È „‡‰ËÂÌÚ 6" x1="50.99" y1="3.55" x2="214.68" y2="3.16" gradientUnits="userSpaceOnUse">
      <stop offset="0" stop-color="#d730c4"/>
      <stop offset=".14" stop-color="#d133c6"/>
      <stop offset=".32" stop-color="#c03dcd"/>
      <stop offset=".53" stop-color="#a54ed8"/>
      <stop offset=".75" stop-color="#8065e9"/>
      <stop offset=".98" stop-color="#5083fd"/>
      <stop offset="1" stop-color="#4d86ff"/>
    </linearGradient>
    <linearGradient id="_ÂÁ_Ï_ÌÌ_È_ËÂÌÚ_6-2" data-name="¡ÂÁ˚ÏˇÌÌ˚È „‡‰ËÂÌÚ 6" x1="51.1" y1="55.87" x2="214.79" y2="55.47" xlink:href="#_ÂÁ_Ï_ÌÌ_È_ËÂÌÚ_6"/>
  </defs>
  <g id="Layer_1-2" data-name="Layer 1">
    <g>
      <g>
        <rect class="cls-7" x="1.94" y=".01" width="267.02" height="59"/>
        <rect class="cls-1" x="4.24" y="2.29" width="262.42" height="54.44"/>
        <polygon class="cls-7" points="0 47.47 3.95 50.17 3.95 8.84 0 11.54 0 47.47"/>
        <polygon class="cls-7" points="270.9 47.47 266.95 50.17 266.95 8.84 270.9 11.54 270.9 47.47"/>
        <path class="cls-4" d="M266.95,2.29c-5.49,19.96-62.26,35.65-131.5,35.65S9.44,22.24,3.95,2.29h263Z"/>
        <path class="cls-5" d="M263.57,53.57H7.32V5.44h256.25v48.12ZM8.3,52.59h254.3V6.42H8.3v46.17Z"/>
        <polygon class="cls-7" points="174.34 8.77 96.56 8.77 88.24 0 182.65 0 174.34 8.77"/>
        <polygon class="cls-1" points="94.61 1.98 175.86 1.92 171.25 7.58 99.48 7.58 94.61 1.98"/>
        <polygon class="cls-3" points="168.4 6.71 102.5 6.71 97.57 0 173.32 0 168.4 6.71"/>
        <polygon class="cls-7" points="176.99 52.3 94.42 52.3 88.24 59.01 182.65 59.01 176.99 52.3"/>
        <polygon class="cls-1" points="94.78 58.95 177.06 59.01 172.01 52.3 100.24 52.3 94.78 58.95"/>
        <polygon class="cls-2" points="168.87 52.3 102.97 52.3 98.04 59.01 173.79 59.01 168.87 52.3"/>
      </g>
      <g>
        <path class="cls-6" d="M49.83,23.67c4.06,0,5.6,1.44,5.6,5.28v3.44c0,3.84-1.54,5.28-5.6,5.28h-6.18c-4.04,0-5.6-1.44-5.6-5.28v-3.44c0-3.84,1.56-5.28,5.6-5.28h6.18ZM41.11,32.17c0,2.1.6,2.72,2.66,2.72h5.94c2.06,0,2.66-.62,2.66-2.72v-3c0-2.1-.6-2.72-2.66-2.72h-5.94c-2.06,0-2.66.62-2.66,2.72v3Z"/>
        <path class="cls-6" d="M58.75,23.67c.24,0,.36.06.48.24l5.34,7.22,5.38-7.22c.12-.18.24-.24.48-.24h2.62c.22,0,.32.22.18.4l-7.18,9.32v3.84c0,.3-.14.44-.44.44h-2.16c-.3,0-.46-.14-.46-.44v-3.84l-7.1-9.32c-.14-.18-.06-.4.18-.4h2.68Z"/>
        <path class="cls-6" d="M77.41,23.67c.3,0,.44.14.44.44v7.98c0,2.12.6,2.74,2.66,2.74h5.54c2.06,0,2.64-.62,2.64-2.74v-7.98c0-.3.14-.44.44-.44h2.18c.3,0,.44.14.44.44v8.28c0,3.84-1.54,5.28-5.6,5.28h-5.76c-4.04,0-5.6-1.44-5.6-5.28v-8.28c0-.3.16-.44.46-.44h2.16Z"/>
        <path class="cls-6" d="M97.93,23.67c1.28,0,1.56.16,2.32,1.18l7.44,9.76c.06.1.14.14.26.14h.18c.1,0,.16-.06.16-.2v-10.44c0-.3.14-.44.44-.44h2.1c.3,0,.44.14.44.44v11.48c0,1.62-.58,2.08-1.8,2.08h-1.72c-1.22,0-1.52-.12-2.32-1.18l-7.46-9.76c-.08-.1-.14-.14-.26-.14h-.18c-.12,0-.16.06-.16.2v10.44c0,.3-.14.44-.44.44h-2.1c-.3,0-.46-.14-.46-.44v-11.48c0-1.62.58-2.08,1.8-2.08h1.76Z"/>
        <path class="cls-6" d="M122.81,23.67c1.02,0,1.64.32,2.3,1.52l6.62,12.02c.14.26.08.46-.24.46h-2.54c-.26,0-.36-.06-.46-.26l-1.42-2.58h-9.4l-1.38,2.58c-.1.2-.22.26-.46.26h-2.6c-.34,0-.4-.2-.26-.46l6.56-12.02c.66-1.2,1.26-1.52,2.1-1.52h1.18ZM118.93,32.51h6.88l-3.18-5.86c-.06-.1-.12-.14-.22-.14h-.12c-.1,0-.16.04-.22.14l-3.14,5.86Z"/>
        <path class="cls-6" d="M152.25,23.67c2.76,0,3.8,1.08,3.8,3.3v.96c0,1.14-.44,1.98-1.28,2.54.94.54,1.38,1.4,1.38,2.58v1.16c0,2.12-.88,3.46-3.54,3.46h-11.88c-.4,0-.6-.2-.6-.6v-12.8c0-.4.2-.6.6-.6h11.52ZM143.19,29.49h8.2c1.32,0,1.72-.4,1.72-1.18v-.68c0-.82-.44-1.2-1.48-1.2h-8.18c-.18,0-.26.08-.26.26v2.8ZM143.19,31.67v2.98c0,.18.08.26.26.26h8.2c1.06,0,1.48-.38,1.48-1.22v-.76c0-.82-.42-1.26-1.74-1.26h-8.2Z"/>
        <path class="cls-6" d="M166.73,23.67c1.02,0,1.64.32,2.3,1.52l6.62,12.02c.14.26.08.46-.24.46h-2.54c-.26,0-.36-.06-.46-.26l-1.42-2.58h-9.4l-1.38,2.58c-.1.2-.22.26-.46.26h-2.6c-.34,0-.4-.2-.26-.46l6.56-12.02c.66-1.2,1.26-1.52,2.1-1.52h1.18ZM162.85,32.51h6.88l-3.18-5.86c-.06-.1-.12-.14-.22-.14h-.12c-.1,0-.16.04-.22.14l-3.14,5.86Z"/>
        <path class="cls-6" d="M191.25,23.67c.3,0,.44.14.44.44v1.9c0,.3-.14.44-.44.44h-10.02c-.76,0-1.06.42-1.06,1.12v.68c0,.74.34,1.12,1.04,1.12h7.5c2.3,0,3.5,1.24,3.5,3.44v1.6c0,1.94-1.12,3.26-3.54,3.26h-11.08c-.3,0-.46-.14-.46-.44v-1.9c0-.3.16-.44.46-.44h10.5c.76,0,1.06-.42,1.06-1.12v-.82c0-.74-.34-1.12-1.04-1.12h-7.5c-2.3,0-3.5-1.24-3.5-3.44v-1.46c0-1.94,1.12-3.26,3.54-3.26h10.6ZM185.63,38.49c.32,0,.46.18.38.52l-.88,3.64c-.08.3-.22.46-.5.46h-1.14c-.32,0-.48-.18-.46-.46l.32-3.7c.02-.3.2-.46.48-.46h1.8Z"/>
        <path class="cls-6" d="M197.07,23.67c.3,0,.44.14.44.44v7.98c0,2.12.6,2.74,2.66,2.74h8.1c.3,0,.44.14.44.44v1.96c0,.3-.14.44-.44.44h-8.22c-4.04,0-5.6-1.44-5.6-5.28v-8.28c0-.3.16-.44.46-.44h2.16Z"/>
        <path class="cls-6" d="M219.39,23.67c1.02,0,1.64.32,2.3,1.52l6.62,12.02c.14.26.08.46-.24.46h-2.54c-.26,0-.36-.06-.46-.26l-1.42-2.58h-9.4l-1.38,2.58c-.1.2-.22.26-.46.26h-2.6c-.34,0-.4-.2-.26-.46l6.56-12.02c.66-1.2,1.26-1.52,2.1-1.52h1.18ZM215.51,32.51h6.88l-3.18-5.86c-.06-.1-.12-.14-.22-.14h-.12c-.1,0-.16.04-.22.14l-3.14,5.86Z"/>
        <path class="cls-6" d="M232.47,22.97c.3,0,.46.16.46.46l-.56,9c-.02.3-.14.44-.44.44h-1.16c-.3,0-.42-.14-.44-.44l-.56-9c0-.3.16-.46.46-.46h2.24ZM232.33,34.87c.3,0,.44.14.44.44v1.92c0,.3-.14.44-.44.44h-1.96c-.3,0-.46-.14-.46-.44v-1.92c0-.3.16-.44.46-.44h1.96Z"/>
      </g>
    </g>
  </g>
</svg>