<?xml version="1.0" encoding="UTF-8"?>
<svg id="Layer_2" data-name="Layer 2" xmlns="http://www.w3.org/2000/svg" viewBox="0 0 62.45 64.91">
  <defs>
    <style>
      .cls-1 {
        fill: #fff;
      }
    </style>
  </defs>
  <g id="Layer_1-2" data-name="Layer 1">
    <path class="cls-1" d="M52.96,7.69h4.19c2.28,0,4.88,2.55,5.17,4.78,1.3,9.94-7.1,20.85-16.65,23.11-2.24,3.75-5.05,6.84-9,8.81-.42.21-1.39.37-1.47.8-.06.31-.02,3.07.07,3.21,4.96,1.6,8.68,5.85,9.32,11.09,1.94.26,5.03-.79,6.16,1.3s-.42,4.2-2.68,4.12H14.25c-2.07-.01-3.48-1.87-2.69-3.85.97-2.42,4.29-1.32,6.31-1.58.74-5.22,4.38-9.39,9.32-11.08.05-.57.22-3.25-.07-3.49-.25-.21-1.98-.82-2.55-1.15-3.08-1.77-5.47-4.58-7.4-7.53-8.34-.69-15.64-7.36-16.86-15.7C.02,18.58-.12,14.4.13,12.47c.29-2.23,2.9-4.78,5.17-4.78h4.19c-.53-3.33-.29-7.39,3.9-7.69l36.19.04c3.75.71,3.86,4.54,3.37,7.65ZM25.73,25.57c1.63,1.64,3.91-.61,5.54-1.2,1.54.67,3.72,2.72,5.34,1.31,1.44-1.26,0-3.77.18-5.37.95-1.27,3.23-2.27,2.95-4.15-.35-2.31-3.51-1.67-5.1-2.29-1.01-1.33-1.3-4.1-3.37-4.14-2.13-.04-2.44,2.76-3.46,4.14-1.55.62-4.48-.02-5.04,2.07s1.95,2.96,2.89,4.38c.17,1.56-1.2,3.98.08,5.26ZM9.92,13.1h-4.19l-.21.21v5.98c0,.35.37,1.64.5,2.06,1.1,3.77,4.15,7.26,7.88,8.54-2.04-5.38-3.47-11.04-3.98-16.79ZM56.93,15.73c.07-.77-.05-1.63,0-2.42l-.21-.21h-4.19c-.43,5.1-1.66,10.11-3.27,14.94,3.44-2.26,6.13-5.95,7.17-9.96.17-.65.44-1.72.5-2.35Z"/>
  </g>
</svg>