<?xml version="1.0" encoding="UTF-8"?>
<svg id="Layer_2" data-name="Layer 2" xmlns="http://www.w3.org/2000/svg" viewBox="0 0 64.71 64.71">
  <defs>
    <style>
      .cls-1 {
        fill: #fff;
      }
    </style>
  </defs>
  <g id="Layer_1-2" data-name="Layer 1">
    <g>
      <path class="cls-1" d="M50.68,58.72c-.47-.47-1.05-.86-1.51-1.4-.2-.23-.62-1.06-.76-1.14-.23-.14-1.71.91-2.06,1.1-7.74,4.14-16.4,4.89-24.63,1.59C8.84,53.71,1.27,39.54,4.57,25.91c-.57-.03-1.15-.21-1.68-.41-.72-.28-1.29-.81-1.99-.98-.37,1.88-.64,3.7-.77,5.61,0,.1-.12.18-.12.2-.08,1.33.06,2.71,0,4.04l.42,3.31c2.28,13.87,13.64,24.9,27.59,26.75.76.1,1.59.08,2.32.27h3.92c.3-.02.83-.09,1.2-.13,5.56-.53,10.7-2.57,15.35-5.56.05-.19-.03-.2-.13-.31Z"/>
      <path class="cls-1" d="M8.14,11.28c1.06.53,2.17.89,2.95,1.86,1.2-1.03,2.28-2.16,3.53-3.15,8.83-6.97,20.83-8.17,30.88-3.04.37-1.26,1.27-2.23,2.15-3.16-3.75-1.91-7.85-3.25-12.07-3.67-.4-.04-.87.12-1.2-.13h-4.04c-1.44.08-3.12.37-4.57.67-6.91,1.43-13.12,5.15-17.79,10.39-.04.25.04.15.16.21Z"/>
      <path class="cls-1" d="M64.59,29.26c-.52-5.54-2.58-10.72-5.56-15.36-.19-.05-.2.03-.31.13-.83.83-1.5,1.92-2.72,2.27,5.86,8.55,6.51,19.97,1.77,29.19,1.26.37,2.23,1.27,3.16,2.15.42-1.08,1.01-2.09,1.45-3.16,1.31-3.23,2-6.68,2.34-10.11v-3.92c-.02-.3-.09-.83-.13-1.2Z"/>
      <path class="cls-1" d="M16.36,50.65l7.11-2.13c9.06,4.57,20.04,1.62,24.97-7.37,7.01-12.78-3.06-28.16-17.48-27.1-13.19.97-20.93,15.42-14.75,27.08l-2.16,7.46c-.1,1.32,1,2.3,2.31,2.05ZM26.9,22.91l10.83-.02c2.12.51,2.11,3.27,0,3.78h-10.72c-2.07-.55-2.14-3.09-.11-3.76ZM26.9,30.49l10.83-.02c2.12.51,2.11,3.27,0,3.78h-10.72c-2.07-.55-2.14-3.09-.11-3.76ZM26.9,38.07l10.83-.02c2.12.51,2.11,3.27,0,3.78h-10.72c-2.07-.55-2.14-3.09-.11-3.76Z"/>
      <path class="cls-1" d="M53.01,13.38c4.92-.51,4.16-8.21-.97-7.54-4.78.63-4.02,8.05.97,7.54Z"/>
      <path class="cls-1" d="M6.14,22.23c4.92-.51,4.16-8.21-.97-7.54-4.78.63-4.02,8.05.97,7.54Z"/>
      <path class="cls-1" d="M54.57,48.82c-4.78.63-4.02,8.05.97,7.54,4.92-.51,4.16-8.21-.97-7.54Z"/>
    </g>
  </g>
</svg>