<?xml version="1.0" encoding="UTF-8"?>
<svg id="Layer_2" data-name="Layer 2" xmlns="http://www.w3.org/2000/svg" xmlns:xlink="http://www.w3.org/1999/xlink" viewBox="0 0 504.69 50.98">
  <defs>
    <style>
      .cls-1 {
        fill: #241e33;
      }

      .cls-2 {
        fill: url(#_ÂÁ_Ï_ÌÌ_È_ËÂÌÚ_2-2);
      }

      .cls-3 {
        fill: url(#_ÂÁ_Ï_ÌÌ_È_ËÂÌÚ_3);
      }

      .cls-4 {
        fill: url(#_ÂÁ_Ï_ÌÌ_È_ËÂÌÚ_2);
      }

      .cls-5 {
        fill: #fff;
      }

      .cls-6 {
        fill: #3c354f;
      }
    </style>
    <radialGradient id="_ÂÁ_Ï_ÌÌ_È_ËÂÌÚ_3" data-name="¡ÂÁ˚ÏˇÌÌ˚È „‡‰ËÂÌÚ 3" cx="-43078.39" cy="-2747.32" fx="-43078.39" fy="-2747.32" r="1566.72" gradientTransform="translate(4546.57 281.65) scale(.1)" gradientUnits="userSpaceOnUse">
      <stop offset="0" stop-color="#241883"/>
      <stop offset=".35" stop-color="#241a60"/>
      <stop offset=".75" stop-color="#241d3f"/>
      <stop offset=".97" stop-color="#241e33"/>
    </radialGradient>
    <linearGradient id="_ÂÁ_Ï_ÌÌ_È_ËÂÌÚ_2" data-name="¡ÂÁ˚ÏˇÌÌ˚È „‡‰ËÂÌÚ 2" x1="2" y1="25.49" x2="502.69" y2="25.49" gradientUnits="userSpaceOnUse">
      <stop offset="0" stop-color="#d730c4"/>
      <stop offset=".23" stop-color="#b048d4"/>
      <stop offset=".57" stop-color="#7a69eb"/>
      <stop offset=".83" stop-color="#597ef9"/>
      <stop offset=".97" stop-color="#4d86ff"/>
    </linearGradient>
    <linearGradient id="_ÂÁ_Ï_ÌÌ_È_ËÂÌÚ_2-2" data-name="¡ÂÁ˚ÏˇÌÌ˚È „‡‰ËÂÌÚ 2" x1="46.96" y1="25.49" x2="499.14" y2="25.49" xlink:href="#_ÂÁ_Ï_ÌÌ_È_ËÂÌÚ_2"/>
  </defs>
  <g id="Layer_1-2" data-name="Layer 1">
    <g>
      <g>
        <polygon class="cls-6" points="494.42 0 10.26 0 .4 13.1 0 13.63 0 37.35 10.26 50.98 494.42 50.98 504.28 37.88 504.69 37.35 504.69 13.63 494.42 0"/>
        <polygon class="cls-1" points="11.54 48.41 2.57 36.49 2.57 14.49 11.54 2.57 493.14 2.57 502.12 14.49 502.12 36.49 493.14 48.41 11.54 48.41"/>
        <path class="cls-3" d="M56.86,2.57c1.99,19.25,167.42,34.39,216.18,34.39,44.23,0,214.48-15.14,216.46-34.39H56.86Z"/>
        <path class="cls-4" d="M493.43,2H11.26L2,14.3v22.38l9.26,12.3h482.17l9.26-12.3V14.3l-9.26-12.3ZM501.55,36.3l-8.69,11.54H53.4l-8.57-11.38V14.52l8.57-11.38h439.46l8.69,11.54v21.62Z"/>
        <path class="cls-2" d="M54.99,4.9l-8.04,10.55v20.09l8.04,10.55h436l8.14-10.69V15.59l-8.14-10.69H54.99ZM498.38,35.14l-7.76,10.19H55.37l-7.65-10.04V15.7l7.65-10.04h435.25l7.76,10.19v19.29Z"/>
      </g>
      <g>
        <path class="cls-5" d="M86.75,20.8c3.06,0,4.3,1.42,4.3,4.12v1.48c0,2.7-1.24,4.12-4.3,4.12h-8.28v3.84c0,.3-.14.44-.44.44h-2.16c-.3,0-.46-.14-.46-.44v-12.96c0-.4.2-.6.6-.6h10.74ZM78.47,27.88h7.66c1.36,0,1.86-.58,1.86-1.78v-.76c0-1.2-.5-1.78-1.86-1.78h-7.4c-.18,0-.26.06-.26.24v4.08Z"/>
        <path class="cls-5" d="M99.91,20.8c1.02,0,1.64.32,2.3,1.52l6.62,12.02c.14.26.08.46-.24.46h-2.54c-.26,0-.36-.06-.46-.26l-1.42-2.58h-9.4l-1.38,2.58c-.1.2-.22.26-.46.26h-2.6c-.34,0-.4-.2-.26-.46l6.56-12.02c.66-1.2,1.26-1.52,2.1-1.52h1.18ZM96.03,29.64h6.88l-3.18-5.86c-.06-.1-.12-.14-.22-.14h-.12c-.1,0-.16.04-.22.14l-3.14,5.86Z"/>
        <path class="cls-5" d="M121.87,20.8c3.06,0,4.3,1.42,4.3,4.12v1.14c0,2.28-.88,3.62-2.98,4l3.42,4.24c.12.14.1.5-.26.5h-2.58c-.34,0-.44-.08-.56-.26l-3.16-4.16h-6.46v3.98c0,.3-.14.44-.44.44h-2.16c-.3,0-.46-.14-.46-.44v-12.96c0-.4.2-.6.6-.6h10.74ZM113.59,27.94h7.66c1.36,0,1.86-.58,1.86-1.78v-.84c0-1.2-.5-1.78-1.86-1.78h-7.4c-.18,0-.26.08-.26.24v4.16Z"/>
        <path class="cls-5" d="M139.89,20.8c4.06,0,5.6,1.44,5.6,5.28v3.44c0,3.84-1.54,5.28-5.6,5.28h-6.18c-4.04,0-5.6-1.44-5.6-5.28v-3.44c0-3.84,1.56-5.28,5.6-5.28h6.18ZM131.17,29.3c0,2.1.6,2.72,2.66,2.72h5.94c2.06,0,2.66-.62,2.66-2.72v-3c0-2.1-.6-2.72-2.66-2.72h-5.94c-2.06,0-2.66.62-2.66,2.72v3Z"/>
        <path class="cls-5" d="M150.55,20.8c.3,0,.44.14.44.44v7.98c0,2.12.6,2.74,2.66,2.74h8.1c.3,0,.44.14.44.44v1.96c0,.3-.14.44-.44.44h-8.22c-4.04,0-5.6-1.44-5.6-5.28v-8.28c0-.3.16-.44.46-.44h2.16Z"/>
        <path class="cls-5" d="M172.87,20.8c1.02,0,1.64.32,2.3,1.52l6.62,12.02c.14.26.08.46-.24.46h-2.54c-.26,0-.36-.06-.46-.26l-1.42-2.58h-9.4l-1.38,2.58c-.1.2-.22.26-.46.26h-2.6c-.34,0-.4-.2-.26-.46l6.56-12.02c.66-1.2,1.26-1.52,2.1-1.52h1.18ZM168.99,29.64h6.88l-3.18-5.86c-.06-.1-.12-.14-.22-.14h-.12c-.1,0-.16.04-.22.14l-3.14,5.86Z"/>
        <path class="cls-5" d="M205.77,20.8c.3,0,.44.14.44.44v1.96c0,.3-.14.46-.44.46h-10.02c-2.06,0-2.66.6-2.66,2.72v2.88c0,2.12.6,2.74,2.66,2.74h6.6c.7,0,1-.32,1-1.22v-1.62c0-.18-.06-.26-.24-.26h-5.86c-.28,0-.44-.16-.44-.46v-1.5c0-.3.16-.46.44-.46h8.34c.4,0,.6.2.6.6v4.66c0,2.24-.88,3.06-2.48,3.06h-8.08c-4.04,0-5.6-1.44-5.6-5.28v-3.44c0-3.84,1.56-5.28,5.6-5.28h10.14Z"/>
        <path class="cls-5" d="M211.29,20.8c.3,0,.44.14.44.44v7.98c0,2.12.6,2.74,2.66,2.74h5.54c2.06,0,2.64-.62,2.64-2.74v-7.98c0-.3.14-.44.44-.44h2.18c.3,0,.44.14.44.44v8.28c0,3.84-1.54,5.28-5.6,5.28h-5.76c-4.04,0-5.6-1.44-5.6-5.28v-8.28c0-.3.16-.44.46-.44h2.16ZM215.33,17.1c.3,0,.44.12.44.36v1.9c0,.24-.14.36-.44.36h-1.96c-.3,0-.44-.12-.44-.36v-1.9c0-.24.14-.36.44-.36h1.96ZM220.91,17.1c.3,0,.46.12.46.36v1.9c0,.24-.16.36-.46.36h-1.96c-.3,0-.44-.12-.44-.36v-1.9c0-.24.14-.36.44-.36h1.96Z"/>
        <path class="cls-5" d="M242.71,20.8c.3,0,.44.14.44.44v1.96c0,.3-.14.46-.44.46h-8.9c-2.06,0-2.66.6-2.66,2.72v2.84c0,2.12.6,2.74,2.66,2.74h8.9c.3,0,.44.14.44.44v1.96c0,.3-.14.44-.44.44h-9.02c-4.04,0-5.6-1.44-5.6-5.28v-3.44c0-3.84,1.56-5.28,5.6-5.28h9.02Z"/>
        <path class="cls-5" d="M247.87,20.8c.3,0,.44.14.44.44v7.98c0,2.12.6,2.74,2.66,2.74h5.54c2.06,0,2.64-.62,2.64-2.74v-7.98c0-.3.14-.44.44-.44h2.18c.3,0,.44.14.44.44v8.28c0,3.84-1.54,5.28-5.6,5.28h-5.76c-4.04,0-5.6-1.44-5.6-5.28v-8.28c0-.3.16-.44.46-.44h2.16ZM251.91,17.1c.3,0,.44.12.44.36v1.9c0,.24-.14.36-.44.36h-1.96c-.3,0-.44-.12-.44-.36v-1.9c0-.24.14-.36.44-.36h1.96ZM257.49,17.1c.3,0,.46.12.46.36v1.9c0,.24-.16.36-.46.36h-1.96c-.3,0-.44-.12-.44-.36v-1.9c0-.24.14-.36.44-.36h1.96Z"/>
        <path class="cls-5" d="M287.11,20.8c.3,0,.44.14.44.44v1.96c0,.3-.14.46-.44.46h-10.02c-2.06,0-2.66.6-2.66,2.72v2.88c0,2.12.6,2.74,2.66,2.74h6.6c.7,0,1-.32,1-1.22v-1.62c0-.18-.06-.26-.24-.26h-5.86c-.28,0-.44-.16-.44-.46v-1.5c0-.3.16-.46.44-.46h8.34c.4,0,.6.2.6.6v4.66c0,2.24-.88,3.06-2.48,3.06h-8.08c-4.04,0-5.6-1.44-5.6-5.28v-3.44c0-3.84,1.56-5.28,5.6-5.28h10.14Z"/>
        <path class="cls-5" d="M301.67,20.8c4.06,0,5.6,1.44,5.6,5.28v3.44c0,3.84-1.54,5.28-5.6,5.28h-6.18c-4.04,0-5.6-1.44-5.6-5.28v-3.44c0-3.84,1.56-5.28,5.6-5.28h6.18ZM292.95,29.3c0,2.1.6,2.72,2.66,2.72h5.94c2.06,0,2.66-.62,2.66-2.72v-3c0-2.1-.6-2.72-2.66-2.72h-5.94c-2.06,0-2.66.62-2.66,2.72v3ZM296.77,17.1c.3,0,.44.12.44.36v1.9c0,.24-.14.36-.44.36h-1.96c-.3,0-.44-.12-.44-.36v-1.9c0-.24.14-.36.44-.36h1.96ZM302.35,17.1c.3,0,.46.12.46.36v1.9c0,.24-.16.36-.46.36h-1.96c-.3,0-.44-.12-.44-.36v-1.9c0-.24.14-.36.44-.36h1.96Z"/>
        <path class="cls-5" d="M321.09,20.8c3.06,0,4.3,1.42,4.3,4.12v1.14c0,2.28-.88,3.62-2.98,4l3.42,4.24c.12.14.1.5-.26.5h-2.58c-.34,0-.44-.08-.56-.26l-3.16-4.16h-6.46v3.98c0,.3-.14.44-.44.44h-2.16c-.3,0-.46-.14-.46-.44v-12.96c0-.4.2-.6.6-.6h10.74ZM312.81,27.94h7.66c1.36,0,1.86-.58,1.86-1.78v-.84c0-1.2-.5-1.78-1.86-1.78h-7.4c-.18,0-.26.08-.26.24v4.16Z"/>
        <path class="cls-5" d="M341.73,20.8c.3,0,.46.14.46.44v1.9c0,.3-.16.44-.46.44h-8.74c-2.08,0-2.66.62-2.66,2.72v.2h11.3c.3,0,.44.14.44.44v1.58c0,.3-.14.44-.44.44h-11.3v.34c0,2.1.58,2.72,2.66,2.72h8.74c.3,0,.46.14.46.44v1.9c0,.3-.16.44-.46.44h-8.8c-4.04,0-5.6-1.44-5.6-5.28v-3.44c0-3.84,1.56-5.28,5.6-5.28h8.8Z"/>
        <path class="cls-5" d="M346.31,20.8c.26,0,.36.08.46.26l5.86,10.76c.06.12.12.14.24.14h.1c.1,0,.16-.02.22-.14l5.78-10.76c.1-.2.22-.26.46-.26h2.62c.32,0,.38.2.24.46l-6.56,12.02c-.66,1.22-1.26,1.52-2.1,1.52h-1.16c-1.04,0-1.62-.3-2.3-1.52l-6.64-12.02c-.14-.26-.08-.46.26-.46h2.52Z"/>
        <path class="cls-5" d="M366.61,20.8c.3,0,.44.14.44.44v13.12c0,.3-.14.44-.44.44h-2.16c-.3,0-.46-.14-.46-.44v-13.12c0-.3.16-.44.46-.44h2.16ZM366.49,17.1c.3,0,.44.12.44.36v1.9c0,.24-.14.36-.44.36h-1.96c-.3,0-.44-.12-.44-.36v-1.9c0-.24.14-.36.44-.36h1.96Z"/>
        <path class="cls-5" d="M383.09,16.88c.16,0,.24.1.24.28v1.36c0,.18-.08.28-.24.28h-.48c-1.86,0-2.94,1.28-2.94,5.84v6.8c0,4.56,1.08,5.86,2.94,5.86h.48c.16,0,.24.08.24.28v1.36c0,.18-.08.26-.24.26h-.48c-3.3,0-4.86-2.1-4.86-7.76v-6.8c0-5.66,1.56-7.76,4.86-7.76h.48Z"/>
        <path class="cls-5" d="M395.53,20.8c4.04,0,5.6,1.44,5.6,5.28v3.44c0,3.84-1.56,5.28-5.6,5.28h-4.62c-4.04,0-5.6-1.44-5.6-5.28v-3.44c0-3.84,1.56-5.28,5.6-5.28h4.62ZM388.27,29.4c0,2.12.58,2.74,2.64,2.74h4.62c2.06,0,2.64-.62,2.64-2.74v-3.2c0-2.12-.58-2.74-2.64-2.74h-4.62c-2.06,0-2.64.62-2.64,2.74v3.2Z"/>
        <path class="cls-5" d="M409.11,26.84c.24,0,.36.12.36.36v1.44c0,.24-.12.36-.36.36h-6.02c-.24,0-.36-.12-.36-.36v-1.44c0-.24.12-.36.36-.36h6.02Z"/>
        <path class="cls-5" d="M425.17,20.8c.3,0,.44.14.44.44v1.78c0,.3-.14.44-.44.44h-10.78c-.28,0-.4.14-.4.42v2.28c0,.28.12.42.4.42h8.24c2.3,0,3.5,1.24,3.5,3.42v1.54c0,1.94-1.12,3.26-3.54,3.26h-11.08c-.3,0-.46-.14-.46-.44v-1.78c0-.3.16-.44.46-.44h10.6c.76,0,1.06-.44,1.06-1.14v-1c0-.74-.32-1.12-1.04-1.12h-9.24c-1.34,0-1.86-.52-1.86-1.7v-4.68c0-1.16.52-1.7,1.86-1.7h12.28Z"/>
        <path class="cls-5" d="M438.57,20.8c4.04,0,5.6,1.44,5.6,5.28v3.44c0,3.84-1.56,5.28-5.6,5.28h-4.62c-4.04,0-5.6-1.44-5.6-5.28v-3.44c0-3.84,1.56-5.28,5.6-5.28h4.62ZM431.31,29.4c0,2.12.58,2.74,2.64,2.74h4.62c2.06,0,2.64-.62,2.64-2.74v-3.2c0-2.12-.58-2.74-2.64-2.74h-4.62c-2.06,0-2.64.62-2.64,2.74v3.2Z"/>
        <path class="cls-5" d="M457.99,20.8c3.06,0,4.3,1.42,4.3,4.12v1.48c0,2.7-1.24,4.12-4.3,4.12h-8.28v3.84c0,.3-.14.44-.44.44h-2.16c-.3,0-.46-.14-.46-.44v-12.96c0-.4.2-.6.6-.6h10.74ZM449.71,27.88h7.66c1.36,0,1.86-.58,1.86-1.78v-.76c0-1.2-.5-1.78-1.86-1.78h-7.4c-.18,0-.26.06-.26.24v4.08Z"/>
        <path class="cls-5" d="M464.01,39.2c-.16,0-.24-.1-.24-.28v-1.36c0-.18.08-.28.24-.28h.48c1.86,0,2.94-1.28,2.94-5.84v-6.8c0-4.56-1.08-5.86-2.94-5.86h-.48c-.16,0-.24-.08-.24-.28v-1.36c0-.18.08-.26.24-.26h.48c3.3,0,4.86,2.1,4.86,7.76v6.8c0,5.66-1.56,7.76-4.86,7.76h-.48Z"/>
      </g>
      <g>
        <path class="cls-5" d="M14.43,24.34l.13.13h21.74l.13-.13v-8.21l-10.96-5.79-11.03,5.79v8.21ZM21.56,18.53c.13-.63.84-.9,1.42-.82-.05-1.29-.1-2.33,1.02-3.17.88-.66,2.04-.63,2.91.04,1.09.83,1.02,1.87.97,3.13.76-.05,1.3.31,1.42,1.08.09.63.1,2.86-.11,3.4-.15.42-.49.63-.93.68-1.78.2-3.93-.15-5.75,0-.6-.12-.92-.44-.97-1.06-.06-.63-.09-2.73.02-3.28Z"/>
        <path class="cls-5" d="M41.78,26.77c-.2-.68-1-1.16-1.69-1.19H10.69c-.78.03-1.59.67-1.68,1.47-.07.62-.09,2.89.02,3.45.1.51.75,1.19,1.3,1.24h30.11c.61,0,1.3-.74,1.39-1.31.08-.49.07-3.24-.05-3.66ZM16.04,29.25c.32.4.85,1.2.09,1.44-.65.21-.83-.69-1.06-.64-.91,1.4-2.02.31-.9-.81-.32-.32-.97-.19-1.02-.76-.1-1.11,1.3-.4,1.36-.47-.31-1.83,1.47-1.81,1.19,0,.1.1.66-.4,1.11-.05.88.69-.76,1.18-.77,1.27ZM22.98,29.13c-.19.22.73.76.33,1.39-.4.63-1.11-.1-1.3-.54-.15,0-.51,1.19-1.23.63-.6-.47.4-1.3.25-1.48-.53-.02-1.32-.52-.88-1.1.28-.37.87-.05,1.22-.04.26-.2-.27-1.32.63-1.32.72,0,.54.87.55,1.36.09.09,1.18-.58,1.34.23.12.59-.43.8-.92.87ZM29.83,29.25c.29.4.86,1.11.14,1.42-.66.29-.87-.66-1.11-.61-.88,1.38-2,.32-.9-.81-.01-.19-1.36-.27-.97-1.14.26-.58,1.25-.02,1.31-.09-.27-1.82,1.46-1.83,1.19,0,.06.06,1.24-.58,1.34.32.08.71-.99.71-1,.91ZM36.76,29.13c-.15.18.84.97.25,1.48-.67.58-1.09-.63-1.22-.63-.2.44-.9,1.17-1.3.54-.39-.62.5-1.19.33-1.39-.4-.04-1.05-.31-1-.78.1-.91,1.35-.24,1.42-.32-.01-.55-.14-1.51.7-1.34.67.14.25.89.48,1.3.12.09,1.06-.46,1.25.18.19.64-.37.91-.91.96Z"/>
        <path class="cls-5" d="M13.25,15.46c.33-.27.73-.48,1.1-.68,3.65-1.99,7.4-3.8,11.06-5.77,3.7,1.93,7.45,3.78,11.11,5.77.37.2.77.4,1.1.68v9.01h1.69v-10.28l-13.9-7.3-13.85,7.3v10.28h1.69v-9.01Z"/>
        <path class="cls-5" d="M19.48,36.3c1.95,1.43,4,2.75,5.98,4.15l7.71-5.49c.21-.13,1.8-1.9,1.65-2.03h-18.78c.07.25.27.51.42.72.82,1.09,1.93,1.85,3.02,2.65Z"/>
        <path class="cls-5" d="M33.76,35.97c-2.01,1.74-5.43,4.04-7.71,5.49-.18.11-.47.37-.66.36l-8.29-5.84c-1-.89-1.82-1.92-2.54-3.04h-1.9c.79,2.01,2.26,3.67,3.95,4.98l8.85,6.18c2.75-2.04,5.74-3.86,8.46-5.92,1.83-1.39,3.44-3.05,4.29-5.23h-1.9c-.73,1.11-1.53,2.17-2.54,3.04Z"/>
        <path class="cls-5" d="M26.7,16.14c0-.12-.38-.59-.51-.67-.57-.38-1.35-.29-1.77.25-.05.06-.25.4-.25.42v1.57h2.54v-1.57Z"/>
      </g>
    </g>
  </g>
</svg>