<?xml version="1.0" encoding="UTF-8"?>
<svg id="Layer_2" data-name="Layer 2" xmlns="http://www.w3.org/2000/svg" xmlns:xlink="http://www.w3.org/1999/xlink" viewBox="0 0 257.69 75.91">
  <defs>
    <style>
      .cls-1 {
        fill: #241e33;
      }

      .cls-2 {
        fill: url(#_ÂÁ_Ï_ÌÌ_È_ËÂÌÚ_8-2);
      }

      .cls-3 {
        fill: url(#_ÂÁ_Ï_ÌÌ_È_ËÂÌÚ_6);
      }

      .cls-4 {
        fill: url(#_ÂÁ_Ï_ÌÌ_È_ËÂÌÚ_8);
      }

      .cls-5 {
        fill: url(#_ÂÁ_Ï_ÌÌ_È_ËÂÌÚ_3);
      }

      .cls-6 {
        fill: #fff;
      }

      .cls-7 {
        fill: #3c354f;
      }
    </style>
    <linearGradient id="_ÂÁ_Ï_ÌÌ_È_ËÂÌÚ_8" data-name="¡ÂÁ˚ÏˇÌÌ˚È „‡‰ËÂÌÚ 8" x1="29.23" y1="48.95" x2="306.97" y2="45.74" gradientUnits="userSpaceOnUse">
      <stop offset="0" stop-color="#4d86ff"/>
      <stop offset=".15" stop-color="#5282fc"/>
      <stop offset=".32" stop-color="#6079f6"/>
      <stop offset=".52" stop-color="#796aeb"/>
      <stop offset=".72" stop-color="#9b54dd"/>
      <stop offset=".93" stop-color="#c739ca"/>
      <stop offset="1" stop-color="#d730c4"/>
    </linearGradient>
    <radialGradient id="_ÂÁ_Ï_ÌÌ_È_ËÂÌÚ_3" data-name="¡ÂÁ˚ÏˇÌÌ˚È „‡‰ËÂÌÚ 3" cx="50227.19" cy="3425.74" fx="50227.19" fy="3425.74" r="432.87" gradientTransform="translate(8139.13 -306.12) rotate(-180) scale(.16 -.09)" gradientUnits="userSpaceOnUse">
      <stop offset="0" stop-color="#241883"/>
      <stop offset=".35" stop-color="#241a60"/>
      <stop offset=".75" stop-color="#241d3f"/>
      <stop offset=".97" stop-color="#241e33"/>
    </radialGradient>
    <linearGradient id="_ÂÁ_Ï_ÌÌ_È_ËÂÌÚ_8-2" data-name="¡ÂÁ˚ÏˇÌÌ˚È „‡‰ËÂÌÚ 8" x1="66.03" y1="26.69" x2="291.45" y2="24.08" xlink:href="#_ÂÁ_Ï_ÌÌ_È_ËÂÌÚ_8"/>
    <linearGradient id="_ÂÁ_Ï_ÌÌ_È_ËÂÌÚ_6" data-name="¡ÂÁ˚ÏˇÌÌ˚È „‡‰ËÂÌÚ 6" x1="-8.56" y1="37.95" x2="104.98" y2="37.95" gradientTransform="translate(25.62 -14.29) rotate(31.72)" gradientUnits="userSpaceOnUse">
      <stop offset="0" stop-color="#d730c4"/>
      <stop offset=".14" stop-color="#d133c6"/>
      <stop offset=".32" stop-color="#c03dcd"/>
      <stop offset=".53" stop-color="#a54ed8"/>
      <stop offset=".75" stop-color="#8065e9"/>
      <stop offset=".98" stop-color="#5083fd"/>
      <stop offset="1" stop-color="#4d86ff"/>
    </linearGradient>
  </defs>
  <g id="Layer_1-2" data-name="Layer 1">
    <g>
      <path class="cls-7" d="M207.7,69.75H19.45l-4.53-36.77h210.84c1.49,0,2.41,1.61,1.66,2.89l-19.72,33.88Z"/>
      <path class="cls-4" d="M205.77,66.41H15.83l-2.85-36.77h210.84c1.49,0,2.41,1.61,1.66,2.89l-19.72,33.88Z"/>
      <path class="cls-7" d="M237.71,42.93H44.92V6.16h210.84c1.49,0,2.41,1.61,1.66,2.89l-19.72,33.88Z"/>
      <path class="cls-1" d="M234.33,40.13H53.92V8.96h196.91c1.36,0,1.38,1.37.7,2.45l-17.19,28.72Z"/>
      <path class="cls-7" d="M220.76,8.96c1.36,0,1.38,1.37.7,2.45l-17.47,29h9.46l18.94-31.45h-11.63Z"/>
      <path class="cls-5" d="M221.45,8.95c-3.1,16.6-45.15,29.66-84.24,29.66S66.07,25.56,62.97,8.95h158.48Z"/>
      <polygon class="cls-2" points="217.81 38.34 234.4 11.15 248.87 11.15 232.67 38.34 217.81 38.34"/>
      <path class="cls-7" d="M64.79,11.12C57.62,3.95,48.09,0,37.95,0S18.29,3.95,11.12,11.12C3.95,18.29,0,27.82,0,37.95s3.95,19.67,11.12,26.84c7.17,7.17,16.7,11.12,26.84,11.12s19.67-3.95,26.84-11.12c7.17-7.17,11.12-16.7,11.12-26.84s-3.95-19.67-11.12-26.84Z"/>
      <circle class="cls-3" cx="37.95" cy="37.95" r="35.52" transform="translate(-14.29 25.62) rotate(-31.72)"/>
      <path class="cls-6" d="M52.36,23.71h2.78c1.51,0,3.24,1.69,3.43,3.17.86,6.59-4.71,13.82-11.04,15.32-1.49,2.49-3.35,4.54-5.97,5.84-.28.14-.92.25-.98.53-.04.2-.02,2.04.04,2.13,3.29,1.06,5.76,3.88,6.18,7.35,1.29.17,3.34-.52,4.09.86.74,1.37-.28,2.78-1.78,2.73h-22.42c-1.37,0-2.31-1.24-1.79-2.55.64-1.61,2.85-.87,4.18-1.05.49-3.46,2.9-6.23,6.18-7.35.04-.38.15-2.15-.05-2.31-.17-.14-1.31-.55-1.69-.76-2.05-1.17-3.63-3.04-4.91-4.99-5.53-.46-10.37-4.88-11.18-10.41-.19-1.29-.28-4.07-.11-5.34.19-1.48,1.92-3.17,3.43-3.17h2.78c-.35-2.21-.19-4.9,2.59-5.1l24,.03c2.49.47,2.56,3.01,2.24,5.07ZM34.31,35.57c1.08,1.08,2.59-.4,3.67-.8,1.02.45,2.47,1.8,3.54.87.96-.83,0-2.5.12-3.56.63-.84,2.14-1.5,1.95-2.75-.23-1.53-2.33-1.11-3.38-1.52-.67-.88-.86-2.72-2.23-2.74-1.41-.03-1.62,1.83-2.3,2.74-1.03.41-2.97-.01-3.34,1.37s1.29,1.96,1.91,2.9c.12,1.04-.8,2.64.05,3.49ZM23.83,27.3h-2.78l-.14.14v3.96c0,.23.25,1.09.33,1.37.73,2.5,2.75,4.81,5.23,5.66-1.35-3.57-2.3-7.32-2.64-11.13ZM55,29.04c.05-.51-.03-1.08,0-1.6l-.14-.14h-2.78c-.29,3.38-1.1,6.7-2.17,9.91,2.28-1.5,4.07-3.95,4.76-6.6.11-.43.29-1.14.33-1.56Z"/>
      <g>
        <path class="cls-6" d="M95.81,17.98c.3,0,.44.14.44.44v1.9c0,.3-.14.44-.44.44h-10.02c-.76,0-1.06.42-1.06,1.12v.68c0,.74.34,1.12,1.04,1.12h7.5c2.3,0,3.5,1.24,3.5,3.44v1.6c0,1.94-1.12,3.26-3.54,3.26h-11.08c-.3,0-.46-.14-.46-.44v-1.9c0-.3.16-.44.46-.44h10.5c.76,0,1.06-.42,1.06-1.12v-.82c0-.74-.34-1.12-1.04-1.12h-7.5c-2.3,0-3.5-1.24-3.5-3.44v-1.46c0-1.94,1.12-3.26,3.54-3.26h10.6Z"/>
        <path class="cls-6" d="M101.67,17.98c.3,0,.44.14.44.44v5.32h2.82c1.26,0,1.64-.14,2.22-.9l3.44-4.6c.14-.18.22-.26.58-.26h2.48c.34,0,.4.3.26.48l-3.88,5.02c-.46.6-.82,1.02-1.2,1.34.54.34,1.02.8,1.52,1.44l4.1,5.2c.1.14.14.52-.26.52h-2.56c-.34,0-.42-.08-.56-.26l-3.68-4.76c-.54-.7-1-.9-2.24-.9h-3.04v5.48c0,.3-.14.44-.44.44h-2.16c-.3,0-.46-.14-.46-.44v-13.12c0-.3.16-.44.46-.44h2.16Z"/>
        <path class="cls-6" d="M127.15,17.98c4.06,0,5.6,1.44,5.6,5.28v3.44c0,3.84-1.54,5.28-5.6,5.28h-6.18c-4.04,0-5.6-1.44-5.6-5.28v-3.44c0-3.84,1.56-5.28,5.6-5.28h6.18ZM118.43,26.48c0,2.1.6,2.72,2.66,2.72h5.94c2.06,0,2.66-.62,2.66-2.72v-3c0-2.1-.6-2.72-2.66-2.72h-5.94c-2.06,0-2.66.62-2.66,2.72v3Z"/>
        <path class="cls-6" d="M146.57,17.98c3.06,0,4.3,1.42,4.3,4.12v1.14c0,2.28-.88,3.62-2.98,4l3.42,4.24c.12.14.1.5-.26.5h-2.58c-.34,0-.44-.08-.56-.26l-3.16-4.16h-6.46v3.98c0,.3-.14.44-.44.44h-2.16c-.3,0-.46-.14-.46-.44v-12.96c0-.4.2-.6.6-.6h10.74ZM138.29,25.12h7.66c1.36,0,1.86-.58,1.86-1.78v-.84c0-1.2-.5-1.78-1.86-1.78h-7.4c-.18,0-.26.08-.26.24v4.16Z"/>
      </g>
      <g>
        <path class="cls-6" d="M96.18,48.47c.3,0,.46.14.46.44v1.96c0,.3-.16.46-.46.46h-6.28v10.7c0,.3-.14.44-.44.44h-2.18c-.3,0-.44-.14-.44-.44v-10.7h-6.28c-.3,0-.46-.16-.46-.46v-1.96c0-.3.16-.44.46-.44h15.62Z"/>
        <path class="cls-6" d="M104.7,48.47c1.02,0,1.64.32,2.3,1.52l6.62,12.02c.14.26.08.46-.24.46h-2.54c-.26,0-.36-.06-.46-.26l-1.42-2.58h-9.4l-1.38,2.58c-.1.2-.22.26-.46.26h-2.6c-.34,0-.4-.2-.26-.46l6.56-12.02c.66-1.2,1.26-1.52,2.1-1.52h1.18ZM100.82,57.31h6.88l-3.18-5.86c-.06-.1-.12-.14-.22-.14h-.12c-.1,0-.16.04-.22.14l-3.14,5.86Z"/>
        <path class="cls-6" d="M127.44,48.47c2.76,0,3.8,1.08,3.8,3.3v.96c0,1.14-.44,1.98-1.28,2.54.94.54,1.38,1.4,1.38,2.58v1.16c0,2.12-.88,3.46-3.54,3.46h-11.88c-.4,0-.6-.2-.6-.6v-12.8c0-.4.2-.6.6-.6h11.52ZM118.38,54.29h8.2c1.32,0,1.72-.4,1.72-1.18v-.68c0-.82-.44-1.2-1.48-1.2h-8.18c-.18,0-.26.08-.26.26v2.8ZM118.38,56.47v2.98c0,.18.08.26.26.26h8.2c1.06,0,1.48-.38,1.48-1.22v-.76c0-.82-.42-1.26-1.74-1.26h-8.2Z"/>
        <path class="cls-6" d="M136.28,48.47c.3,0,.44.14.44.44v7.98c0,2.12.6,2.74,2.66,2.74h8.1c.3,0,.44.14.44.44v1.96c0,.3-.14.44-.44.44h-8.22c-4.04,0-5.6-1.44-5.6-5.28v-8.28c0-.3.16-.44.46-.44h2.16Z"/>
        <path class="cls-6" d="M161.34,48.47c4.06,0,5.6,1.44,5.6,5.28v3.44c0,3.84-1.54,5.28-5.6,5.28h-6.18c-4.04,0-5.6-1.44-5.6-5.28v-3.44c0-3.84,1.56-5.28,5.6-5.28h6.18ZM152.62,56.97c0,2.1.6,2.72,2.66,2.72h5.94c2.06,0,2.66-.62,2.66-2.72v-3c0-2.1-.6-2.72-2.66-2.72h-5.94c-2.06,0-2.66.62-2.66,2.72v3Z"/>
        <path class="cls-6" d="M183.32,48.47c.3,0,.44.14.44.44v1.9c0,.3-.14.44-.44.44h-10.02c-.76,0-1.06.42-1.06,1.12v.68c0,.74.34,1.12,1.04,1.12h7.5c2.3,0,3.5,1.24,3.5,3.44v1.6c0,1.94-1.12,3.26-3.54,3.26h-11.08c-.3,0-.46-.14-.46-.44v-1.9c0-.3.16-.44.46-.44h10.5c.76,0,1.06-.42,1.06-1.12v-.82c0-.74-.34-1.12-1.04-1.12h-7.5c-2.3,0-3.5-1.24-3.5-3.44v-1.46c0-1.94,1.12-3.26,3.54-3.26h10.6Z"/>
        <path class="cls-6" d="M189.14,48.47c.3,0,.44.14.44.44v7.98c0,2.12.6,2.74,2.66,2.74h5.54c2.06,0,2.64-.62,2.64-2.74v-7.98c0-.3.14-.44.44-.44h2.18c.3,0,.44.14.44.44v8.28c0,3.84-1.54,5.28-5.6,5.28h-5.76c-4.04,0-5.6-1.44-5.6-5.28v-8.28c0-.3.16-.44.46-.44h2.16Z"/>
      </g>
    </g>
  </g>
</svg>