<?xml version="1.0" encoding="UTF-8"?>
<svg id="Layer_2" data-name="Layer 2" xmlns="http://www.w3.org/2000/svg" xmlns:xlink="http://www.w3.org/1999/xlink" viewBox="0 0 360.62 70.7">
  <defs>
    <style>
      .cls-1 {
        fill: #241e33;
      }

      .cls-2 {
        fill: url(#_ÂÁ_Ï_ÌÌ_È_ËÂÌÚ_6-2);
      }

      .cls-3 {
        fill: url(#_ÂÁ_Ï_ÌÌ_È_ËÂÌÚ_6-5);
      }

      .cls-4 {
        fill: url(#_ÂÁ_Ï_ÌÌ_È_ËÂÌÚ_6-7);
      }

      .cls-5 {
        fill: url(#_ÂÁ_Ï_ÌÌ_È_ËÂÌÚ_6-4);
      }

      .cls-6 {
        fill: url(#_ÂÁ_Ï_ÌÌ_È_ËÂÌÚ_6-3);
      }

      .cls-7 {
        fill: url(#_ÂÁ_Ï_ÌÌ_È_ËÂÌÚ_6-6);
      }

      .cls-8 {
        fill: url(#_ÂÁ_Ï_ÌÌ_È_ËÂÌÚ_6);
      }

      .cls-9 {
        fill: #fff;
      }

      .cls-10 {
        fill: #3c354f;
      }
    </style>
    <linearGradient id="_ÂÁ_Ï_ÌÌ_È_ËÂÌÚ_6" data-name="¡ÂÁ˚ÏˇÌÌ˚È „‡‰ËÂÌÚ 6" x1="-10.74" y1="63.16" x2="293.28" y2="63.16" gradientUnits="userSpaceOnUse">
      <stop offset="0" stop-color="#d730c4"/>
      <stop offset=".14" stop-color="#d133c6"/>
      <stop offset=".32" stop-color="#c03dcd"/>
      <stop offset=".53" stop-color="#a54ed8"/>
      <stop offset=".75" stop-color="#8065e9"/>
      <stop offset=".98" stop-color="#5083fd"/>
      <stop offset="1" stop-color="#4d86ff"/>
    </linearGradient>
    <linearGradient id="_ÂÁ_Ï_ÌÌ_È_ËÂÌÚ_6-2" data-name="¡ÂÁ˚ÏˇÌÌ˚È „‡‰ËÂÌÚ 6" x1="-10.74" x2="293.27" xlink:href="#_ÂÁ_Ï_ÌÌ_È_ËÂÌÚ_6"/>
    <linearGradient id="_ÂÁ_Ï_ÌÌ_È_ËÂÌÚ_6-3" data-name="¡ÂÁ˚ÏˇÌÌ˚È „‡‰ËÂÌÚ 6" x1="-10.74" x2="293.28" xlink:href="#_ÂÁ_Ï_ÌÌ_È_ËÂÌÚ_6"/>
    <linearGradient id="_ÂÁ_Ï_ÌÌ_È_ËÂÌÚ_6-4" data-name="¡ÂÁ˚ÏˇÌÌ˚È „‡‰ËÂÌÚ 6" x1="-10.74" x2="293.28" xlink:href="#_ÂÁ_Ï_ÌÌ_È_ËÂÌÚ_6"/>
    <linearGradient id="_ÂÁ_Ï_ÌÌ_È_ËÂÌÚ_6-5" data-name="¡ÂÁ˚ÏˇÌÌ˚È „‡‰ËÂÌÚ 6" x1="-10.74" x2="293.28" xlink:href="#_ÂÁ_Ï_ÌÌ_È_ËÂÌÚ_6"/>
    <linearGradient id="_ÂÁ_Ï_ÌÌ_È_ËÂÌÚ_6-6" data-name="¡ÂÁ˚ÏˇÌÌ˚È „‡‰ËÂÌÚ 6" x1="-38.17" y1="61.4" x2="381.26" y2="61.4" xlink:href="#_ÂÁ_Ï_ÌÌ_È_ËÂÌÚ_6"/>
    <linearGradient id="_ÂÁ_Ï_ÌÌ_È_ËÂÌÚ_6-7" data-name="¡ÂÁ˚ÏˇÌÌ˚È „‡‰ËÂÌÚ 6" x1="-16.23" y1="29.95" x2="379.36" y2="29.95" xlink:href="#_ÂÁ_Ï_ÌÌ_È_ËÂÌÚ_6"/>
  </defs>
  <g id="Layer_1-2" data-name="Layer 1">
    <g>
      <polygon class="cls-10" points="343.62 0 16.99 0 .54 17.73 0 18.4 0 58.33 16.99 70.7 343.62 70.7 360.08 58.99 360.62 58.33 360.62 18.4 343.62 0"/>
      <polygon class="cls-1" points="3.46 56.62 3.46 19.46 18.64 3.34 341.97 3.34 357.16 19.46 357.16 56.62 3.46 56.62"/>
      <g>
        <path class="cls-8" d="M57.47,63.16c0,.95-.79,1.72-1.76,1.72s-1.76-.77-1.76-1.72.79-1.71,1.76-1.71,1.76.77,1.76,1.71Z"/>
        <path class="cls-2" d="M43.16,63.16c0,.95-.79,1.72-1.76,1.72s-1.76-.77-1.76-1.72.79-1.71,1.76-1.71,1.76.77,1.76,1.71Z"/>
        <path class="cls-6" d="M28.85,63.16c0,.95-.79,1.72-1.76,1.72s-1.76-.77-1.76-1.72.79-1.71,1.76-1.71,1.76.77,1.76,1.71Z"/>
        <path class="cls-5" d="M86.1,63.16c0,.95-.79,1.72-1.76,1.72s-1.76-.77-1.76-1.72.79-1.71,1.76-1.71,1.76.77,1.76,1.71Z"/>
        <path class="cls-3" d="M71.79,63.16c0,.95-.79,1.72-1.76,1.72s-1.76-.77-1.76-1.72.79-1.71,1.76-1.71,1.76.77,1.76,1.71Z"/>
      </g>
      <g>
        <g>
          <polygon class="cls-1" points="357.16 56.62 200.75 56.62 210.22 67.79 341.06 67.79 357.16 56.62"/>
          <polygon class="cls-7" points="352.29 56.62 206.91 56.62 214.47 66.18 338.65 66.18 352.29 56.62"/>
        </g>
        <g>
          <polygon class="cls-1" points="205.85 67.79 196.65 56.62 187.52 56.62 197.58 67.79 205.85 67.79"/>
          <polygon class="cls-1" points="192.37 67.79 183.17 56.62 174.04 56.62 184.11 67.79 192.37 67.79"/>
        </g>
      </g>
      <polygon class="cls-9" points="352.11 21.13 352.11 52.4 8.51 52.56 8.51 20.96 21.77 7.34 338.72 7.34 352.11 21.13"/>
      <path class="cls-4" d="M21.28,6.36l-13.8,14.29v32.89l345.65-.18V20.83l-13.94-14.46H21.28ZM352.11,52.41l-343.6.18v-31.62l13.26-13.62h316.94l13.4,13.79v31.26Z"/>
    </g>
  </g>
</svg>