<?xml version="1.0" encoding="UTF-8"?>
<svg xmlns="http://www.w3.org/2000/svg" xmlns:xlink="http://www.w3.org/1999/xlink" viewBox="0 0 1920 1538.23">
  <defs>
    <style>
      .cls-1 {
        fill: none;
      }

      .cls-2 {
        fill: url(#radial-gradient-2);
      }

      .cls-3 {
        fill: url(#radial-gradient);
      }

      .cls-4 {
        isolation: isolate;
      }

      .cls-5 {
        fill: url(#linear-gradient);
      }

      .cls-5, .cls-6, .cls-7, .cls-8, .cls-9, .cls-10, .cls-11, .cls-12, .cls-13, .cls-14, .cls-15, .cls-16, .cls-17, .cls-18, .cls-19, .cls-20, .cls-21, .cls-22, .cls-23, .cls-24, .cls-25, .cls-26, .cls-27, .cls-28, .cls-29, .cls-30, .cls-31, .cls-32, .cls-33, .cls-34, .cls-35, .cls-36, .cls-37, .cls-38, .cls-39, .cls-40, .cls-41, .cls-42, .cls-43, .cls-44, .cls-45, .cls-46, .cls-47, .cls-48, .cls-49, .cls-50, .cls-51, .cls-52, .cls-53, .cls-54, .cls-55, .cls-56 {
        mix-blend-mode: screen;
      }

      .cls-6 {
        fill: url(#linear-gradient-2);
      }

      .cls-7 {
        fill: url(#linear-gradient-3);
      }

      .cls-8 {
        fill: url(#linear-gradient-4);
      }

      .cls-9 {
        fill: url(#linear-gradient-9);
      }

      .cls-10 {
        fill: url(#linear-gradient-6);
      }

      .cls-11 {
        fill: url(#linear-gradient-7);
      }

      .cls-12 {
        fill: url(#linear-gradient-5);
      }

      .cls-13 {
        fill: url(#linear-gradient-8);
      }

      .cls-57 {
        fill: #00134a;
      }

      .cls-14 {
        fill: url(#linear-gradient-10);
      }

      .cls-15 {
        fill: url(#linear-gradient-13);
      }

      .cls-16 {
        fill: url(#linear-gradient-12);
      }

      .cls-17 {
        fill: url(#linear-gradient-11);
      }

      .cls-18 {
        fill: url(#linear-gradient-50);
      }

      .cls-19 {
        fill: url(#linear-gradient-51);
      }

      .cls-20 {
        fill: url(#linear-gradient-52);
      }

      .cls-21 {
        fill: url(#linear-gradient-29);
      }

      .cls-22 {
        fill: url(#linear-gradient-26);
      }

      .cls-23 {
        fill: url(#linear-gradient-27);
      }

      .cls-24 {
        fill: url(#linear-gradient-24);
      }

      .cls-25 {
        fill: url(#linear-gradient-39);
      }

      .cls-26 {
        fill: url(#linear-gradient-37);
      }

      .cls-27 {
        fill: url(#linear-gradient-20);
      }

      .cls-28 {
        fill: url(#linear-gradient-23);
      }

      .cls-29 {
        fill: url(#linear-gradient-22);
      }

      .cls-30 {
        fill: url(#linear-gradient-21);
      }

      .cls-31 {
        fill: url(#linear-gradient-14);
      }

      .cls-32 {
        fill: url(#linear-gradient-19);
      }

      .cls-33 {
        fill: url(#linear-gradient-31);
      }

      .cls-34 {
        fill: url(#linear-gradient-30);
      }

      .cls-35 {
        fill: url(#linear-gradient-33);
      }

      .cls-36 {
        fill: url(#linear-gradient-32);
      }

      .cls-37 {
        fill: url(#linear-gradient-28);
      }

      .cls-38 {
        fill: url(#linear-gradient-25);
      }

      .cls-39 {
        fill: url(#linear-gradient-35);
      }

      .cls-40 {
        fill: url(#linear-gradient-18);
      }

      .cls-41 {
        fill: url(#linear-gradient-16);
      }

      .cls-42 {
        fill: url(#linear-gradient-15);
      }

      .cls-43 {
        fill: url(#linear-gradient-17);
      }

      .cls-44 {
        fill: url(#linear-gradient-38);
      }

      .cls-45 {
        fill: url(#linear-gradient-34);
      }

      .cls-46 {
        fill: url(#linear-gradient-36);
      }

      .cls-47 {
        fill: url(#linear-gradient-40);
      }

      .cls-48 {
        fill: url(#linear-gradient-41);
      }

      .cls-49 {
        fill: url(#linear-gradient-42);
      }

      .cls-50 {
        fill: url(#linear-gradient-43);
      }

      .cls-51 {
        fill: url(#linear-gradient-48);
      }

      .cls-52 {
        fill: url(#linear-gradient-49);
      }

      .cls-53 {
        fill: url(#linear-gradient-45);
      }

      .cls-54 {
        fill: url(#linear-gradient-47);
      }

      .cls-55 {
        fill: url(#linear-gradient-44);
      }

      .cls-56 {
        fill: url(#linear-gradient-46);
      }

      .cls-58 {
        opacity: .2;
      }

      .cls-59 {
        clip-path: url(#clippath);
      }
    </style>
    <radialGradient id="radial-gradient" cx="9075.59" cy="585.46" fx="9075.59" fy="585.46" r="256.66" gradientTransform="translate(-41845.07 2417.8) scale(4.58 -3.18)" gradientUnits="userSpaceOnUse">
      <stop offset="0" stop-color="#0099e3"/>
      <stop offset=".38" stop-color="#0462a0" stop-opacity=".62"/>
      <stop offset="1" stop-color="#0d0934" stop-opacity="0"/>
    </radialGradient>
    <radialGradient id="radial-gradient-2" cx="5409.59" fx="5409.59" r="256.66" gradientTransform="translate(26964.88 2417.8) rotate(-180) scale(4.58 3.18)" xlink:href="#radial-gradient"/>
    <clipPath id="clippath">
      <rect class="cls-1" x="16.58" y="297.61" width="1886.84" height="782.39"/>
    </clipPath>
    <linearGradient id="linear-gradient" x1="9967.22" y1="1944.77" x2="9569.89" y2="1580.08" gradientTransform="translate(1979.98 -8620.25) rotate(90)" gradientUnits="userSpaceOnUse">
      <stop offset="0" stop-color="#0d0934" stop-opacity="0"/>
      <stop offset=".56" stop-color="#056ba4" stop-opacity=".55"/>
      <stop offset="1" stop-color="#0bf"/>
    </linearGradient>
    <linearGradient id="linear-gradient-2" x1="9845.86" y1="2071.95" x2="9287.07" y2="1559.06" xlink:href="#linear-gradient"/>
    <linearGradient id="linear-gradient-3" x1="10009.13" y1="1239.29" x2="9767.34" y2="1017.36" xlink:href="#linear-gradient"/>
    <linearGradient id="linear-gradient-4" x1="9913.82" y1="1259.9" x2="9447.61" y2="831.98" xlink:href="#linear-gradient"/>
    <linearGradient id="linear-gradient-5" x1="9919.01" y1="1936.83" x2="9431.63" y2="1489.49" xlink:href="#linear-gradient"/>
    <linearGradient id="linear-gradient-6" x1="9905.77" y1="1969.57" x2="9393.67" y2="1499.54" xlink:href="#linear-gradient"/>
    <linearGradient id="linear-gradient-7" x1="10145.27" y1="1217.97" x2="10119.09" y2="1193.93" xlink:href="#linear-gradient"/>
    <linearGradient id="linear-gradient-8" x1="9987.39" y1="1233.49" x2="9705.02" y2="974.31" xlink:href="#linear-gradient"/>
    <linearGradient id="linear-gradient-9" x1="10040.24" y1="1291.4" x2="9906.04" y2="1168.23" xlink:href="#linear-gradient"/>
    <linearGradient id="linear-gradient-10" x1="10143.73" y1="1263.79" x2="10074.9" y2="1200.61" xlink:href="#linear-gradient"/>
    <linearGradient id="linear-gradient-11" x1="10022.52" y1="1826.07" x2="9678.97" y2="1510.74" xlink:href="#linear-gradient"/>
    <linearGradient id="linear-gradient-12" x1="9960.91" y1="1321.53" x2="9629.08" y2="1016.95" xlink:href="#linear-gradient"/>
    <linearGradient id="linear-gradient-13" x1="9947.67" y1="1309.18" x2="9591.12" y2="981.92" xlink:href="#linear-gradient"/>
    <linearGradient id="linear-gradient-14" x1="10084.44" y1="1770.88" x2="9944.64" y2="1642.58" xlink:href="#linear-gradient"/>
    <linearGradient id="linear-gradient-15" x1="10026.74" y1="1448.66" x2="9740.54" y2="1185.97" xlink:href="#linear-gradient"/>
    <linearGradient id="linear-gradient-16" x1="9968.95" y1="1472.6" x2="9574.85" y2="1110.87" xlink:href="#linear-gradient"/>
    <linearGradient id="linear-gradient-17" x1="10096.02" y1="1423.79" x2="9977.85" y2="1315.33" xlink:href="#linear-gradient"/>
    <linearGradient id="linear-gradient-18" x1="10063.5" y1="1742.38" x2="9924.39" y2="1614.69" xlink:href="#linear-gradient"/>
    <linearGradient id="linear-gradient-19" x1="10114.63" y1="1319.78" x2="10031.21" y2="1243.21" xlink:href="#linear-gradient"/>
    <linearGradient id="linear-gradient-20" x1="10115.87" y1="1431.04" x2="10034.77" y2="1356.6" xlink:href="#linear-gradient"/>
    <linearGradient id="linear-gradient-21" x1="9987.3" y1="1434.7" x2="9608.8" y2="1087.28" xlink:href="#linear-gradient"/>
    <linearGradient id="linear-gradient-22" x1="9898.5" y1="1819.13" x2="9468.79" y2="1424.71" xlink:href="#linear-gradient"/>
    <linearGradient id="linear-gradient-23" x1="10053.92" y1="1716.19" x2="9857.15" y2="1535.58" xlink:href="#linear-gradient"/>
    <linearGradient id="linear-gradient-24" x1="9903.18" y1="1677.07" x2="9445.47" y2="1256.97" xlink:href="#linear-gradient"/>
    <linearGradient id="linear-gradient-25" x1="9874.82" y1="1754.69" x2="9441.37" y2="1356.84" xlink:href="#linear-gradient"/>
    <linearGradient id="linear-gradient-26" x1="9932.03" y1="1689.46" x2="9605.99" y2="1390.2" xlink:href="#linear-gradient"/>
    <linearGradient id="linear-gradient-27" x1="9967.22" y1="1050.23" x2="9569.89" y2="685.54" xlink:href="#linear-gradient"/>
    <linearGradient id="linear-gradient-28" x1="9845.86" y1="1177.41" x2="9287.06" y2="664.52" xlink:href="#linear-gradient"/>
    <linearGradient id="linear-gradient-29" x1="10009.13" y1="344.75" x2="9767.34" y2="122.82" xlink:href="#linear-gradient"/>
    <linearGradient id="linear-gradient-30" x1="9913.82" y1="365.36" x2="9447.61" y2="-62.56" xlink:href="#linear-gradient"/>
    <linearGradient id="linear-gradient-31" x1="9919.01" y1="1042.29" x2="9431.64" y2="594.95" xlink:href="#linear-gradient"/>
    <linearGradient id="linear-gradient-32" x1="9905.77" y1="1075.03" x2="9393.67" y2="605" xlink:href="#linear-gradient"/>
    <linearGradient id="linear-gradient-33" x1="10145.27" y1="323.43" x2="10119.09" y2="299.39" xlink:href="#linear-gradient"/>
    <linearGradient id="linear-gradient-34" x1="9987.39" y1="338.95" x2="9705.02" y2="79.77" xlink:href="#linear-gradient"/>
    <linearGradient id="linear-gradient-35" x1="10040.24" y1="396.87" x2="9906.04" y2="273.69" xlink:href="#linear-gradient"/>
    <linearGradient id="linear-gradient-36" x1="10143.73" y1="369.25" x2="10074.9" y2="306.07" xlink:href="#linear-gradient"/>
    <linearGradient id="linear-gradient-37" x1="10022.52" y1="931.53" x2="9678.97" y2="616.2" xlink:href="#linear-gradient"/>
    <linearGradient id="linear-gradient-38" x1="9960.91" y1="426.99" x2="9629.08" y2="122.41" xlink:href="#linear-gradient"/>
    <linearGradient id="linear-gradient-39" x1="9947.67" y1="414.64" x2="9591.12" y2="87.38" xlink:href="#linear-gradient"/>
    <linearGradient id="linear-gradient-40" x1="10084.44" y1="876.34" x2="9944.65" y2="748.04" xlink:href="#linear-gradient"/>
    <linearGradient id="linear-gradient-41" x1="10026.74" y1="554.12" x2="9740.54" y2="291.43" xlink:href="#linear-gradient"/>
    <linearGradient id="linear-gradient-42" x1="9968.95" y1="578.06" x2="9574.85" y2="216.33" xlink:href="#linear-gradient"/>
    <linearGradient id="linear-gradient-43" x1="10096.02" y1="529.25" x2="9977.85" y2="420.79" xlink:href="#linear-gradient"/>
    <linearGradient id="linear-gradient-44" x1="10063.5" y1="847.84" x2="9924.39" y2="720.15" xlink:href="#linear-gradient"/>
    <linearGradient id="linear-gradient-45" x1="10114.62" y1="425.24" x2="10031.21" y2="348.67" xlink:href="#linear-gradient"/>
    <linearGradient id="linear-gradient-46" x1="10115.87" y1="536.5" x2="10034.76" y2="462.06" xlink:href="#linear-gradient"/>
    <linearGradient id="linear-gradient-47" x1="9987.3" y1="540.16" x2="9608.8" y2="192.74" xlink:href="#linear-gradient"/>
    <linearGradient id="linear-gradient-48" x1="9898.5" y1="924.59" x2="9468.79" y2="530.17" xlink:href="#linear-gradient"/>
    <linearGradient id="linear-gradient-49" x1="10053.92" y1="821.65" x2="9857.15" y2="641.04" xlink:href="#linear-gradient"/>
    <linearGradient id="linear-gradient-50" x1="9903.18" y1="782.54" x2="9445.47" y2="362.43" xlink:href="#linear-gradient"/>
    <linearGradient id="linear-gradient-51" x1="9874.82" y1="860.15" x2="9441.37" y2="462.3" xlink:href="#linear-gradient"/>
    <linearGradient id="linear-gradient-52" x1="9932.03" y1="794.92" x2="9605.99" y2="495.67" xlink:href="#linear-gradient"/>
  </defs>
  <g class="cls-4">
    <g id="Layer_2" data-name="Layer 2">
      <g id="Layer_1-2" data-name="Layer 1">
        <g>
          <g>
            <rect class="cls-57" x="420" y="-420" width="1080" height="1920" transform="translate(1500 -420) rotate(90)"/>
            <path class="cls-3" d="M648.77,1080H0V0h603.98c197.13,145.83,317.85,324.36,317.85,540,0,198.78-102.6,398.5-273.06,540Z"/>
            <path class="cls-2" d="M1271.23,1080h648.77V0h-603.98c-197.13,145.83-317.85,324.36-317.85,540,0,198.78,102.6,398.5,273.06,540Z"/>
          </g>
          <g class="cls-59">
            <g class="cls-58">
              <path class="cls-5" d="M222.72,902v-95.35c1.65-.43,2.89-1.87,2.89-3.66,0-2.12-1.72-3.85-3.85-3.85s-3.85,1.72-3.85,3.85c0,1.79,1.24,3.22,2.89,3.66v94.55l-45.08,45.09v591.93h1.92v-591.14l45.09-45.09Z"/>
              <path class="cls-6" d="M155.09,1186.07v-248.17l45.09-45.08v-166.12c1.65-.43,2.89-1.87,2.89-3.65,0-2.13-1.73-3.85-3.85-3.85s-3.85,1.73-3.85,3.85c0,1.79,1.24,3.22,2.89,3.66v165.32l-44.8,44.8.68.68h-.96v248.57h-60.98v-248.17l62.9-62.9v-181.58c1.65-.43,2.89-1.87,2.89-3.66,0-2.12-1.72-3.85-3.85-3.85-2.13,0-3.85,1.73-3.85,3.85,0,1.79,1.24,3.23,2.89,3.66v180.79l-60.98,60.98v-42.48s31.79-31.79,31.79-31.79v-450.29h-1.92v449.5l-29.87,29.87v-361.54h-1.92s0,659.53,0,659.53h62.9v350.24h1.92v-352.16Z"/>
              <path class="cls-7" d="M864.03,1538.23v-368.29s-45.09-45.08-45.09-45.08v-94.56c1.65-.43,2.89-1.87,2.89-3.66,0-2.13-1.73-3.85-3.85-3.85-2.13,0-3.85,1.73-3.85,3.85,0,1.79,1.24,3.22,2.89,3.66v95.34l45.09,45.09v367.5h1.92Z"/>
              <path class="cls-8" d="M913.21,634.28c0,1.66,1.07,3.05,2.55,3.59v446.7l31.79,31.79v42.47s-60.98-60.98-60.98-60.98v-180.78c1.65-.44,2.89-1.87,2.89-3.66,0-2.13-1.72-3.85-3.85-3.85-2.13,0-3.86,1.72-3.85,3.85,0,1.79,1.24,3.22,2.89,3.65v181.58l62.9,62.9v163.76s-27.91-27.91-27.91-27.91c.33-.57.58-1.2.58-1.91,0-2.12-1.72-3.85-3.85-3.85s-3.85,1.73-3.85,3.85c0,2.13,1.72,3.86,3.85,3.85.71,0,1.34-.25,1.91-.58l29.26,29.26v82.26s-40.55,40.55-40.55,40.55v87.4h1.92v-86.61l40.55-40.55v-654.69c1.63-.45,2.85-1.88,2.85-3.65,0-2.13-1.72-3.85-3.85-3.85-2.13,0-3.85,1.73-3.85,3.85,0,1.8,1.26,3.25,2.94,3.67v357.24s-29.87-29.87-29.87-29.87v-445.77c1.82-.31,3.23-1.82,3.23-3.72,0-2.13-1.72-3.85-3.85-3.85s-3.85,1.72-3.85,3.85Z"/>
              <path class="cls-12" d="M267.81,920.39v-291.11c1.65-.43,2.89-1.87,2.89-3.66,0-2.12-1.72-3.85-3.85-3.85-2.13,0-3.85,1.73-3.85,3.85,0,1.79,1.24,3.22,2.89,3.66v290.31s-45.08,45.09-45.08,45.09v573.55h1.92v-572.76l45.09-45.09Z"/>
              <path class="cls-10" d="M245.27,911.2v-330.63c1.65-.44,2.89-1.87,2.89-3.66,0-2.13-1.72-3.85-3.85-3.85-2.13,0-3.85,1.73-3.85,3.85,0,1.79,1.24,3.22,2.89,3.66v329.83l-45.09,45.09v582.74h1.92v-581.95l45.09-45.09Z"/>
              <path class="cls-11" d="M773.85,1538.23v-41.82c1.65-.44,2.89-1.87,2.89-3.66,0-2.13-1.72-3.85-3.85-3.85s-3.85,1.73-3.85,3.85c0,1.79,1.24,3.22,2.89,3.65v41.82h1.92Z"/>
              <path class="cls-13" d="M839.56,950.34v166.12s45.09,45.09,45.09,45.09v376.69h1.92v-377.08h-.96s.68-.68.68-.68l-44.8-44.8v-165.32c1.65-.44,2.89-1.87,2.89-3.66,0-2.13-1.72-3.85-3.85-3.85-2.12,0-3.85,1.72-3.85,3.85,0,1.79,1.24,3.22,2.89,3.65Z"/>
              <path class="cls-9" d="M796.4,1538.23v-223.01c1.65-.44,2.89-1.87,2.89-3.66,0-2.13-1.72-3.85-3.85-3.85-2.13,0-3.85,1.72-3.85,3.85,0,1.79,1.24,3.22,2.89,3.66v121.8l-100.93-100.92v-146.85c1.65-.44,2.89-1.87,2.89-3.65,0-2.13-1.72-3.86-3.85-3.85-2.12,0-3.85,1.72-3.85,3.85,0,1.78,1.24,3.22,2.89,3.65v147.64l102.84,102.84v98.5h1.92Z"/>
              <path class="cls-14" d="M771.72,1451.34c0-2.13-1.72-3.85-3.85-3.85-2.13,0-3.85,1.72-3.85,3.85,0,.71.24,1.34.58,1.91l-44.09,44.09v40.88h1.92v-40.09s43.53-43.53,43.53-43.53c.57.34,1.2.58,1.91.58,2.13,0,3.85-1.72,3.85-3.85Z"/>
              <path class="cls-17" d="M348.1,1113.24v-147.64c1.65-.43,2.89-1.87,2.89-3.65,0-2.13-1.72-3.85-3.85-3.85s-3.85,1.72-3.85,3.85c0,1.79,1.24,3.22,2.89,3.65v146.85s-100.92,100.92-100.92,100.92v-121.8c1.65-.43,2.89-1.87,2.89-3.66,0-2.13-1.73-3.85-3.85-3.85s-3.85,1.73-3.85,3.85c0,1.79,1.24,3.22,2.89,3.66v446.66h1.92v-322.14l102.84-102.84Z"/>
              <path class="cls-16" d="M818.94,1538.23v-349.91s-45.08-45.09-45.08-45.09v-290.31c1.65-.44,2.89-1.87,2.89-3.66,0-2.13-1.72-3.85-3.85-3.85-2.13,0-3.85,1.73-3.85,3.85,0,1.79,1.24,3.23,2.89,3.66v291.1l45.08,45.08v349.12h1.92Z"/>
              <path class="cls-15" d="M841.48,1538.23v-359.1l-45.09-45.08v-329.83c1.65-.44,2.89-1.87,2.89-3.65,0-2.13-1.72-3.85-3.85-3.85-2.13,0-3.85,1.72-3.85,3.85,0,1.78,1.24,3.22,2.89,3.65v330.63l45.09,45.09v358.31h1.92Z"/>
              <path class="cls-31" d="M270.7,1268.95c0-2.12-1.72-3.85-3.85-3.85s-3.85,1.72-3.85,3.85c0,1.79,1.24,3.22,2.89,3.66v265.62h1.92v-265.62c1.65-.44,2.89-1.87,2.89-3.66Z"/>
              <path class="cls-42" d="M672.98,1093.17v-67.58c1.65-.43,2.89-1.87,2.89-3.66,0-2.13-1.72-3.85-3.85-3.85s-3.86,1.72-3.85,3.85c0,1.79,1.24,3.22,2.89,3.66v66.79l-45.09,45.08v400.76s1.92,0,1.92,0v-399.97s45.08-45.09,45.08-45.09Z"/>
              <path class="cls-41" d="M693.56,1104.12v-291.1c1.65-.43,2.89-1.87,2.89-3.66,0-2.12-1.72-3.85-3.85-3.85s-3.85,1.72-3.85,3.85c0,1.79,1.24,3.22,2.89,3.65v290.31s-45.09,45.09-45.09,45.09v389.81h1.92v-389.02l45.09-45.09Z"/>
              <path class="cls-43" d="M608.87,1311.56c0-2.13-1.72-3.85-3.85-3.85-2.13,0-3.85,1.73-3.85,3.85,0,1.79,1.24,3.22,2.89,3.66v223.01h1.92v-223.01c1.65-.43,2.89-1.87,2.89-3.66Z"/>
              <path class="cls-40" d="M275.15,1229.61c.34-.57.58-1.2.58-1.91,0-2.13-1.73-3.85-3.85-3.85-2.13,0-3.85,1.73-3.85,3.85,0,2.13,1.72,3.85,3.85,3.85.71,0,1.34-.25,1.91-.58l43.53,43.53v263.73h1.92v-264.52l-44.09-44.09Z"/>
              <path class="cls-32" d="M736.42,1447.64v-26.96l-38.58-38.58c.41-.61.71-1.3.71-2.09,0-2.13-1.72-3.85-3.85-3.85s-3.85,1.73-3.85,3.85c0,2.12,1.72,3.85,3.85,3.85.63,0,1.21-.19,1.73-.46l38.07,38.08v25.37s-38.85,38.85-38.85,38.85v-46.36c1.65-.43,2.89-1.87,2.89-3.66,0-2.12-1.72-3.85-3.85-3.85-2.13,0-3.85,1.73-3.85,3.85,0,1.79,1.25,3.23,2.9,3.66v48.28s0,50.62,0,50.62h1.92s0-49.82,0-49.82l40.77-40.77Z"/>
              <path class="cls-27" d="M586.33,1384.57c0-2.12-1.72-3.85-3.85-3.85s-3.85,1.72-3.85,3.85c0,1.79,1.24,3.22,2.89,3.66v150s1.92,0,1.92,0v-150c1.65-.44,2.89-1.87,2.89-3.66Z"/>
              <path class="cls-30" d="M714.13,1115.08v-198.62l21.79-21.79v-30.92c1.65-.43,2.89-1.87,2.89-3.66,0-2.13-1.72-3.85-3.85-3.85s-3.85,1.72-3.85,3.85c0,1.79,1.24,3.22,2.89,3.65v30.14l-21.79,21.79v198.62l-45.09,45.09v378.86h1.92v-378.06s45.09-45.09,45.09-45.09Z"/>
              <path class="cls-29" d="M327.53,890.64v-198.62l-21.79-21.79v-30.13c1.65-.44,2.89-1.87,2.89-3.66,0-2.13-1.73-3.85-3.85-3.85s-3.85,1.73-3.85,3.85c0,1.79,1.24,3.22,2.89,3.66v30.92s21.79,21.79,21.79,21.79v198.62s45.09,45.09,45.09,45.09v601.71h1.92v-602.5l-45.08-45.09Z"/>
              <path class="cls-28" d="M348.9,1211.84c0-2.13-1.73-3.85-3.85-3.85s-3.85,1.73-3.85,3.85c0,1.79,1.24,3.22,2.89,3.66v46.55s-38.85-38.85-38.85-38.85v-25.37l37.88-37.88c.58.34,1.21.6,1.93.6,2.13,0,3.85-1.72,3.85-3.85s-1.72-3.85-3.85-3.85c-2.13,0-3.85,1.72-3.85,3.85,0,.7.24,1.33.57,1.9l-38.44,38.44v26.96l40.77,40.77v273.47s1.92,0,1.92,0v-322.73c1.65-.44,2.89-1.87,2.89-3.66Z"/>
              <path class="cls-24" d="M560.9,1464.14v-182.54l45.09-45.09v-165.02l-45.08-45.08v-178.51c1.58-.48,2.76-1.89,2.76-3.63,0-2.13-1.73-3.85-3.85-3.85-2.13,0-3.85,1.73-3.85,3.85,0,1.83,1.31,3.3,3.03,3.68v179.25s45.09,45.09,45.09,45.09v163.43l-45.09,45.08v182.54l-54.18,54.18v-77.96l32.07-32.07v-111.7l-56.1-56.1v-182.54l-45.09-45.09v-163.43s45.09-45.09,45.09-45.09v-179.29c1.65-.43,2.89-1.87,2.89-3.66,0-2.12-1.72-3.85-3.85-3.85s-3.85,1.72-3.85,3.85c0,1.79,1.24,3.22,2.89,3.66v178.49s-45.09,45.09-45.09,45.09v165.02s45.09,45.09,45.09,45.09v182.54l56.1,56.1v110.11l-30.15,30.15v-73.38s-46.57-45.97-46.57-45.97v-156.58h-1.92v157.38l46.57,45.97v20.43s-67.2-67.2-67.2-67.2v-229.6s-1.92,0-1.92,0v230.39s69.12,69.12,69.12,69.12v132.02s0,18.78,0,18.78h1.92v-17.99s56.1-56.1,56.1-56.1Z"/>
              <path class="cls-38" d="M393.19,1317.51v-392.74l-45.09-45.08v-290.32c1.65-.44,2.89-1.87,2.89-3.66,0-2.13-1.72-3.85-3.85-3.85-2.13,0-3.85,1.73-3.85,3.85,0,1.79,1.24,3.22,2.89,3.66v291.1l45.09,45.09v392.74l69.02,69.02v150.9h1.92v-151.7s-69.02-69.02-69.02-69.02Z"/>
              <path class="cls-22" d="M414.7,1318.45v-403.69l-45.09-45.09v-69.68c1.15-.67,1.96-1.86,1.96-3.28,0-2.13-1.73-3.85-3.85-3.85-2.13,0-3.85,1.72-3.85,3.85,0,2.12,1.71,3.83,3.83,3.85v69.91l45.09,45.09v403.69l68.77,68.77v150.22s1.92,0,1.92,0v-151.01l-68.77-68.77Z"/>
              <path class="cls-23" d="M1117.26,902v-95.35c1.65-.43,2.89-1.87,2.89-3.66,0-2.12-1.72-3.85-3.85-3.85s-3.85,1.72-3.85,3.85c0,1.79,1.24,3.22,2.89,3.66v94.55l-45.08,45.09v591.93s1.92,0,1.92,0v-591.14l45.09-45.09Z"/>
              <path class="cls-37" d="M1049.63,1186.07v-248.17l45.09-45.08v-166.12c1.65-.43,2.89-1.87,2.89-3.65,0-2.13-1.72-3.85-3.85-3.85s-3.85,1.73-3.85,3.85c0,1.79,1.24,3.22,2.89,3.66v165.32l-44.8,44.8.68.68h-.96v248.57h-60.98v-248.17l62.9-62.9v-181.58c1.65-.43,2.89-1.87,2.89-3.66,0-2.12-1.72-3.85-3.85-3.85-2.13,0-3.85,1.73-3.85,3.85,0,1.79,1.24,3.23,2.89,3.66v180.79s-60.98,60.98-60.98,60.98v-42.48s31.79-31.79,31.79-31.79v-450.29h-1.92v449.5l-29.87,29.87v-361.54h-1.92s0,659.53,0,659.53h62.9v350.24h1.92v-352.16Z"/>
              <path class="cls-21" d="M1758.57,1538.23v-368.29s-45.09-45.08-45.09-45.08v-94.56c1.65-.43,2.89-1.87,2.89-3.66,0-2.13-1.73-3.85-3.85-3.85-2.13,0-3.85,1.73-3.85,3.85,0,1.79,1.24,3.22,2.89,3.66v95.34l45.09,45.09v367.5h1.92Z"/>
              <path class="cls-34" d="M1807.75,634.28c0,1.66,1.07,3.05,2.55,3.59v446.7l31.79,31.79v42.47s-60.98-60.98-60.98-60.98v-180.78c1.65-.44,2.89-1.87,2.89-3.66,0-2.13-1.73-3.85-3.85-3.85-2.13,0-3.86,1.72-3.85,3.85,0,1.79,1.24,3.22,2.89,3.65v181.58l62.9,62.9v163.76s-27.9-27.91-27.9-27.91c.33-.57.58-1.2.58-1.91,0-2.12-1.72-3.85-3.85-3.85s-3.85,1.73-3.85,3.85c0,2.13,1.72,3.86,3.85,3.85.71,0,1.34-.25,1.91-.58l29.26,29.26v82.26s-40.55,40.55-40.55,40.55v87.4h1.92v-86.61s40.55-40.55,40.55-40.55v-654.69c1.63-.45,2.85-1.88,2.85-3.65,0-2.13-1.72-3.85-3.85-3.85-2.13,0-3.85,1.73-3.85,3.85,0,1.8,1.26,3.25,2.94,3.67v357.24s-29.87-29.87-29.87-29.87v-445.77c1.82-.31,3.23-1.82,3.23-3.72,0-2.13-1.72-3.85-3.85-3.85s-3.85,1.72-3.85,3.85Z"/>
              <path class="cls-33" d="M1162.35,920.39v-291.11c1.65-.43,2.89-1.87,2.89-3.66,0-2.12-1.72-3.85-3.85-3.85-2.13,0-3.85,1.73-3.85,3.85,0,1.79,1.24,3.22,2.89,3.66v290.31s-45.09,45.09-45.09,45.09v573.55h1.92v-572.76l45.09-45.09Z"/>
              <path class="cls-36" d="M1139.8,911.2v-330.63c1.65-.44,2.89-1.87,2.89-3.66,0-2.13-1.72-3.85-3.85-3.85-2.13,0-3.85,1.73-3.85,3.85,0,1.79,1.24,3.22,2.89,3.66v329.83l-45.09,45.09v582.74h1.92v-581.95s45.08-45.09,45.08-45.09Z"/>
              <path class="cls-35" d="M1668.39,1538.23v-41.82c1.65-.44,2.89-1.87,2.89-3.66,0-2.13-1.72-3.85-3.85-3.85s-3.85,1.73-3.85,3.85c0,1.79,1.24,3.22,2.89,3.65v41.82h1.91Z"/>
              <path class="cls-45" d="M1734.1,950.34v166.12s45.09,45.09,45.09,45.09v376.69h1.92v-377.08h-.96s.68-.68.68-.68l-44.8-44.8v-165.32c1.65-.44,2.89-1.87,2.89-3.66,0-2.13-1.72-3.85-3.85-3.85-2.13,0-3.85,1.72-3.85,3.85,0,1.79,1.24,3.22,2.89,3.65Z"/>
              <path class="cls-39" d="M1690.94,1538.23v-223.01c1.65-.44,2.89-1.87,2.89-3.66,0-2.13-1.73-3.85-3.85-3.85-2.13,0-3.85,1.72-3.85,3.85,0,1.79,1.24,3.22,2.89,3.66v121.8l-100.92-100.92v-146.85c1.65-.44,2.89-1.87,2.89-3.65,0-2.13-1.72-3.86-3.85-3.85-2.13,0-3.85,1.72-3.85,3.85,0,1.78,1.24,3.22,2.89,3.65v147.64l102.84,102.84v98.5h1.92Z"/>
              <path class="cls-46" d="M1666.26,1451.34c0-2.13-1.72-3.85-3.85-3.85-2.13,0-3.85,1.72-3.85,3.85,0,.71.24,1.34.58,1.91l-44.1,44.09v40.88h1.92v-40.09l43.53-43.53c.57.34,1.2.58,1.91.58,2.13,0,3.86-1.72,3.85-3.85Z"/>
              <path class="cls-26" d="M1242.65,1113.24v-147.64c1.65-.43,2.89-1.87,2.89-3.65,0-2.13-1.73-3.85-3.85-3.85s-3.85,1.72-3.85,3.85c0,1.79,1.24,3.22,2.89,3.65v146.85s-100.93,100.92-100.93,100.92v-121.8c1.65-.43,2.89-1.87,2.89-3.66,0-2.13-1.73-3.85-3.85-3.85s-3.85,1.73-3.85,3.85c0,1.79,1.24,3.22,2.89,3.66v446.66h1.92v-322.14l102.84-102.84Z"/>
              <path class="cls-44" d="M1713.48,1538.23v-349.91s-45.08-45.09-45.08-45.09v-290.31c1.65-.44,2.89-1.87,2.89-3.66,0-2.13-1.72-3.85-3.85-3.85-2.13,0-3.85,1.73-3.85,3.85,0,1.79,1.24,3.23,2.89,3.66v291.1l45.08,45.08v349.12h1.92Z"/>
              <path class="cls-25" d="M1736.02,1538.23v-359.1l-45.09-45.08v-329.83c1.65-.44,2.89-1.87,2.89-3.65,0-2.13-1.73-3.85-3.85-3.85-2.13,0-3.85,1.72-3.85,3.85,0,1.78,1.24,3.22,2.89,3.65v330.63l45.09,45.09v358.31h1.92Z"/>
              <path class="cls-47" d="M1165.24,1268.95c0-2.12-1.72-3.85-3.85-3.85s-3.85,1.72-3.85,3.85c0,1.79,1.24,3.22,2.89,3.66v265.62h1.92v-265.62c1.65-.44,2.89-1.87,2.89-3.66Z"/>
              <path class="cls-48" d="M1567.52,1093.17v-67.58c1.65-.43,2.89-1.87,2.89-3.66,0-2.13-1.72-3.85-3.85-3.85s-3.85,1.72-3.85,3.85c0,1.79,1.24,3.22,2.89,3.66v66.79s-45.08,45.08-45.08,45.08v400.76s1.92,0,1.92,0v-399.97s45.08-45.09,45.08-45.09Z"/>
              <path class="cls-49" d="M1588.1,1104.12v-291.1c1.65-.43,2.89-1.87,2.89-3.66,0-2.12-1.72-3.85-3.85-3.85s-3.85,1.72-3.85,3.85c0,1.79,1.24,3.22,2.89,3.65v290.31l-45.09,45.09v389.81h1.91v-389.02l45.09-45.09Z"/>
              <path class="cls-50" d="M1503.42,1311.56c0-2.13-1.72-3.85-3.85-3.85-2.13,0-3.85,1.73-3.85,3.85,0,1.79,1.24,3.22,2.89,3.66v223.01h1.92v-223.01c1.65-.43,2.89-1.87,2.89-3.66Z"/>
              <path class="cls-55" d="M1169.68,1229.61c.34-.57.58-1.2.59-1.91,0-2.13-1.73-3.85-3.86-3.85-2.12,0-3.85,1.73-3.85,3.85,0,2.13,1.72,3.85,3.85,3.85.71,0,1.34-.25,1.91-.58l43.53,43.53v263.73h1.92v-264.52l-44.09-44.09Z"/>
              <path class="cls-53" d="M1630.96,1447.64v-26.96l-38.58-38.58c.41-.61.7-1.3.7-2.09,0-2.13-1.72-3.85-3.85-3.85s-3.85,1.73-3.85,3.85c0,2.12,1.72,3.85,3.85,3.85.63,0,1.2-.19,1.73-.46l38.08,38.08v25.37s-38.85,38.85-38.85,38.85v-46.36c1.65-.43,2.89-1.87,2.89-3.66,0-2.12-1.72-3.85-3.85-3.85-2.13,0-3.85,1.73-3.85,3.85,0,1.79,1.25,3.23,2.89,3.66v48.28s0,50.62,0,50.62h1.92s0-49.82,0-49.82l40.76-40.77Z"/>
              <path class="cls-56" d="M1480.87,1384.57c0-2.12-1.72-3.85-3.85-3.85s-3.85,1.72-3.85,3.85c0,1.79,1.24,3.22,2.89,3.66v150s1.92,0,1.92,0v-150c1.65-.44,2.89-1.87,2.89-3.66Z"/>
              <path class="cls-54" d="M1608.67,1115.08v-198.62s21.79-21.79,21.79-21.79v-30.92c1.65-.43,2.89-1.87,2.89-3.66,0-2.13-1.72-3.85-3.85-3.85s-3.85,1.72-3.85,3.85c0,1.79,1.24,3.22,2.89,3.65v30.14l-21.79,21.79v198.62l-45.08,45.09v378.86h1.92v-378.06s45.09-45.09,45.09-45.09Z"/>
              <path class="cls-51" d="M1222.07,890.64v-198.62l-21.79-21.79v-30.13c1.65-.44,2.89-1.87,2.89-3.66,0-2.13-1.73-3.85-3.85-3.85s-3.86,1.73-3.85,3.85c0,1.79,1.24,3.22,2.89,3.66v30.92s21.79,21.79,21.79,21.79v198.62s45.09,45.09,45.09,45.09v601.71h1.92v-602.5l-45.08-45.09Z"/>
              <path class="cls-52" d="M1243.44,1211.84c0-2.13-1.73-3.85-3.85-3.85s-3.85,1.73-3.85,3.85c0,1.79,1.24,3.22,2.89,3.66v46.55l-38.85-38.85v-25.37l37.88-37.88c.58.34,1.21.6,1.93.6,2.13,0,3.85-1.72,3.85-3.85,0-2.13-1.73-3.85-3.85-3.85-2.13,0-3.85,1.72-3.85,3.85,0,.7.24,1.33.57,1.9l-38.44,38.44v26.96l40.77,40.77v273.47s1.92,0,1.92,0v-322.73c1.65-.44,2.88-1.87,2.89-3.66Z"/>
              <path class="cls-18" d="M1455.44,1464.14v-182.54l45.08-45.09v-165.02l-45.08-45.08v-178.51c1.58-.48,2.76-1.89,2.76-3.63,0-2.13-1.73-3.85-3.85-3.85-2.13,0-3.85,1.73-3.85,3.85,0,1.83,1.31,3.3,3.02,3.68v179.25s45.09,45.09,45.09,45.09v163.43l-45.09,45.08v182.54l-54.18,54.18v-77.96l32.07-32.07v-111.7s-56.1-56.1-56.1-56.1v-182.54l-45.09-45.09v-163.43l45.09-45.09v-179.29c1.65-.43,2.89-1.87,2.89-3.66,0-2.12-1.72-3.85-3.85-3.85s-3.85,1.72-3.85,3.85c0,1.79,1.24,3.22,2.89,3.66v178.49s-45.09,45.09-45.09,45.09v165.02l45.09,45.09v182.54l56.1,56.1v110.11l-30.15,30.15v-73.38s-46.58-45.97-46.58-45.97v-156.58h-1.92v157.38l46.57,45.97v20.43s-67.2-67.2-67.2-67.2v-229.6h-1.92v230.39l69.12,69.12v132.02s0,18.78,0,18.78h1.92v-17.99s56.1-56.1,56.1-56.1Z"/>
              <path class="cls-19" d="M1287.73,1317.51v-392.74l-45.09-45.08v-290.32c1.65-.44,2.89-1.87,2.89-3.66,0-2.13-1.73-3.85-3.85-3.85-2.13,0-3.85,1.73-3.85,3.85,0,1.79,1.24,3.22,2.89,3.66v291.1l45.09,45.09v392.74l69.02,69.02v150.9h1.92v-151.7s-69.02-69.02-69.02-69.02Z"/>
              <path class="cls-20" d="M1309.24,1318.45v-403.69l-45.09-45.09v-69.68c1.15-.67,1.96-1.86,1.96-3.28,0-2.13-1.73-3.85-3.85-3.85-2.13,0-3.85,1.72-3.85,3.85,0,2.12,1.71,3.83,3.83,3.85v69.91l45.09,45.09v403.69l68.77,68.77v150.22s1.92,0,1.92,0v-151.01l-68.77-68.77Z"/>
            </g>
          </g>
        </g>
      </g>
    </g>
  </g>
</svg>