<?xml version="1.0" encoding="UTF-8"?>
<svg id="Layer_2" data-name="Layer 2" xmlns="http://www.w3.org/2000/svg" xmlns:xlink="http://www.w3.org/1999/xlink" viewBox="0 0 504.69 50.98">
  <defs>
    <style>
      .cls-1 {
        fill: #241e33;
      }

      .cls-2 {
        fill: url(#_ÂÁ_Ï_ÌÌ_È_ËÂÌÚ_2-2);
      }

      .cls-3 {
        fill: url(#_ÂÁ_Ï_ÌÌ_È_ËÂÌÚ_3);
      }

      .cls-4 {
        fill: url(#_ÂÁ_Ï_ÌÌ_È_ËÂÌÚ_2);
      }

      .cls-5 {
        fill: #fff;
      }

      .cls-6 {
        fill: #3c354f;
      }
    </style>
    <radialGradient id="_ÂÁ_Ï_ÌÌ_È_ËÂÌÚ_3" data-name="¡ÂÁ˚ÏˇÌÌ˚È „‡‰ËÂÌÚ 3" cx="-43078.39" cy="-2070.08" fx="-43078.39" fy="-2070.08" r="1566.72" gradientTransform="translate(4546.57 212.1) scale(.1)" gradientUnits="userSpaceOnUse">
      <stop offset="0" stop-color="#241883"/>
      <stop offset=".35" stop-color="#241a60"/>
      <stop offset=".75" stop-color="#241d3f"/>
      <stop offset=".97" stop-color="#241e33"/>
    </radialGradient>
    <linearGradient id="_ÂÁ_Ï_ÌÌ_È_ËÂÌÚ_2" data-name="¡ÂÁ˚ÏˇÌÌ˚È „‡‰ËÂÌÚ 2" x1="2" y1="25.49" x2="502.69" y2="25.49" gradientUnits="userSpaceOnUse">
      <stop offset="0" stop-color="#d730c4"/>
      <stop offset=".23" stop-color="#b048d4"/>
      <stop offset=".57" stop-color="#7a69eb"/>
      <stop offset=".83" stop-color="#597ef9"/>
      <stop offset=".97" stop-color="#4d86ff"/>
    </linearGradient>
    <linearGradient id="_ÂÁ_Ï_ÌÌ_È_ËÂÌÚ_2-2" data-name="¡ÂÁ˚ÏˇÌÌ˚È „‡‰ËÂÌÚ 2" x1="46.96" y1="25.49" x2="499.14" y2="25.49" xlink:href="#_ÂÁ_Ï_ÌÌ_È_ËÂÌÚ_2"/>
  </defs>
  <g id="Layer_1-2" data-name="Layer 1">
    <g>
      <g>
        <polygon class="cls-6" points="494.42 0 10.26 0 .4 13.1 0 13.63 0 37.35 10.26 50.98 494.42 50.98 504.28 37.88 504.69 37.35 504.69 13.63 494.42 0"/>
        <polygon class="cls-1" points="11.54 48.41 2.57 36.49 2.57 14.49 11.54 2.57 493.14 2.57 502.12 14.49 502.12 36.49 493.14 48.41 11.54 48.41"/>
        <path class="cls-3" d="M56.86,2.57c1.99,19.25,167.42,34.39,216.18,34.39,44.23,0,214.48-15.14,216.46-34.39H56.86Z"/>
        <path class="cls-4" d="M493.43,2H11.26L2,14.3v22.38l9.26,12.3h482.17l9.26-12.3V14.3l-9.26-12.3ZM501.55,36.3l-8.69,11.54H53.4l-8.57-11.38V14.52l8.57-11.38h439.46l8.69,11.54v21.62Z"/>
        <path class="cls-2" d="M54.99,4.9l-8.04,10.55v20.09l8.04,10.55h436l8.14-10.69V15.59l-8.14-10.69H54.99ZM498.38,35.14l-7.76,10.19H55.37l-7.65-10.04V15.7l7.65-10.04h435.25l7.76,10.19v19.29Z"/>
      </g>
      <g>
        <path class="cls-5" d="M79.15,20.8c3.06,0,4.3,1.42,4.3,4.12v1.48c0,2.7-1.24,4.12-4.3,4.12h-8.28v3.84c0,.3-.14.44-.44.44h-2.16c-.3,0-.46-.14-.46-.44v-12.96c0-.4.2-.6.6-.6h10.74ZM70.87,27.88h7.66c1.36,0,1.86-.58,1.86-1.78v-.76c0-1.2-.5-1.78-1.86-1.78h-7.4c-.18,0-.26.06-.26.24v4.08Z"/>
        <path class="cls-5" d="M92.31,20.8c1.02,0,1.64.32,2.3,1.52l6.62,12.02c.14.26.08.46-.24.46h-2.54c-.26,0-.36-.06-.46-.26l-1.42-2.58h-9.4l-1.38,2.58c-.1.2-.22.26-.46.26h-2.6c-.34,0-.4-.2-.26-.46l6.56-12.02c.66-1.2,1.26-1.52,2.1-1.52h1.18ZM88.43,29.64h6.88l-3.18-5.86c-.06-.1-.12-.14-.22-.14h-.12c-.1,0-.16.04-.22.14l-3.14,5.86Z"/>
        <path class="cls-5" d="M101.37,20.8c.24,0,.36.06.48.24l5.34,7.22,5.38-7.22c.12-.18.24-.24.48-.24h2.62c.22,0,.32.22.18.4l-7.18,9.32v3.84c0,.3-.14.44-.44.44h-2.16c-.3,0-.46-.14-.46-.44v-3.84l-7.1-9.32c-.14-.18-.06-.4.18-.4h2.68Z"/>
        <path class="cls-5" d="M120.03,20.8c.3,0,.44.14.44.44v7.98c0,2.12.6,2.74,2.66,2.74h8.1c.3,0,.44.14.44.44v1.96c0,.3-.14.44-.44.44h-8.22c-4.04,0-5.6-1.44-5.6-5.28v-8.28c0-.3.16-.44.46-.44h2.16Z"/>
        <path class="cls-5" d="M142.35,20.8c1.02,0,1.64.32,2.3,1.52l6.62,12.02c.14.26.08.46-.24.46h-2.54c-.26,0-.36-.06-.46-.26l-1.42-2.58h-9.4l-1.38,2.58c-.1.2-.22.26-.46.26h-2.6c-.34,0-.4-.2-.26-.46l6.56-12.02c.66-1.2,1.26-1.52,2.1-1.52h1.18ZM138.47,29.64h6.88l-3.18-5.86c-.06-.1-.12-.14-.22-.14h-.12c-.1,0-.16.04-.22.14l-3.14,5.86Z"/>
        <path class="cls-5" d="M166.87,20.8c.3,0,.44.14.44.44v1.9c0,.3-.14.44-.44.44h-10.02c-.76,0-1.06.42-1.06,1.12v.68c0,.74.34,1.12,1.04,1.12h7.5c2.3,0,3.5,1.24,3.5,3.44v1.6c0,1.94-1.12,3.26-3.54,3.26h-11.08c-.3,0-.46-.14-.46-.44v-1.9c0-.3.16-.44.46-.44h10.5c.76,0,1.06-.42,1.06-1.12v-.82c0-.74-.34-1.12-1.04-1.12h-7.5c-2.3,0-3.5-1.24-3.5-3.44v-1.46c0-1.94,1.12-3.26,3.54-3.26h10.6ZM161.25,35.62c.32,0,.46.18.38.52l-.88,3.64c-.08.3-.22.46-.5.46h-1.14c-.32,0-.48-.18-.46-.46l.32-3.7c.02-.3.2-.46.48-.46h1.8Z"/>
        <path class="cls-5" d="M175.89,18.5c.22,0,.32.14.24.36l-6,18.56c-.08.22-.12.32-.38.32h-1.4c-.22,0-.32-.12-.24-.36l6-18.54c.08-.24.12-.34.38-.34h1.4Z"/>
        <path class="cls-5" d="M190.69,20.8c.3,0,.44.14.44.44v1.9c0,.3-.14.44-.44.44h-10.02c-.76,0-1.06.42-1.06,1.12v.68c0,.74.34,1.12,1.04,1.12h7.5c2.3,0,3.5,1.24,3.5,3.44v1.6c0,1.94-1.12,3.26-3.54,3.26h-11.08c-.3,0-.46-.14-.46-.44v-1.9c0-.3.16-.44.46-.44h10.5c.76,0,1.06-.42,1.06-1.12v-.82c0-.74-.34-1.12-1.04-1.12h-7.5c-2.3,0-3.5-1.24-3.5-3.44v-1.46c0-1.94,1.12-3.26,3.54-3.26h10.6Z"/>
        <path class="cls-5" d="M202.45,20.8c1.02,0,1.64.32,2.3,1.52l6.62,12.02c.14.26.08.46-.24.46h-2.54c-.26,0-.36-.06-.46-.26l-1.42-2.58h-9.4l-1.38,2.58c-.1.2-.22.26-.46.26h-2.6c-.34,0-.4-.2-.26-.46l6.56-12.02c.66-1.2,1.26-1.52,2.1-1.52h1.18ZM198.57,29.64h6.88l-3.18-5.86c-.06-.1-.12-.14-.22-.14h-.12c-.1,0-.16.04-.22.14l-3.14,5.86Z"/>
        <path class="cls-5" d="M215.69,20.8c.3,0,.44.14.44.44v5.32h2.82c1.26,0,1.64-.14,2.22-.9l3.44-4.6c.14-.18.22-.26.58-.26h2.48c.34,0,.4.3.26.48l-3.88,5.02c-.46.6-.82,1.02-1.2,1.34.54.34,1.02.8,1.52,1.44l4.1,5.2c.1.14.14.52-.26.52h-2.56c-.34,0-.42-.08-.56-.26l-3.68-4.76c-.54-.7-1-.9-2.24-.9h-3.04v5.48c0,.3-.14.44-.44.44h-2.16c-.3,0-.46-.14-.46-.44v-13.12c0-.3.16-.44.46-.44h2.16Z"/>
        <path class="cls-5" d="M232.73,20.8c.3,0,.44.14.44.44v7.98c0,2.12.6,2.74,2.66,2.74h8.1c.3,0,.44.14.44.44v1.96c0,.3-.14.44-.44.44h-8.22c-4.04,0-5.6-1.44-5.6-5.28v-8.28c0-.3.16-.44.46-.44h2.16Z"/>
        <path class="cls-5" d="M255.05,20.8c1.02,0,1.64.32,2.3,1.52l6.62,12.02c.14.26.08.46-.24.46h-2.54c-.26,0-.36-.06-.46-.26l-1.42-2.58h-9.4l-1.38,2.58c-.1.2-.22.26-.46.26h-2.6c-.34,0-.4-.2-.26-.46l6.56-12.02c.66-1.2,1.26-1.52,2.1-1.52h1.18ZM251.17,29.64h6.88l-3.18-5.86c-.06-.1-.12-.14-.22-.14h-.12c-.1,0-.16.04-.22.14l-3.14,5.86Z"/>
        <path class="cls-5" d="M287.95,20.8c.3,0,.44.14.44.44v1.96c0,.3-.14.46-.44.46h-10.02c-2.06,0-2.66.6-2.66,2.72v2.88c0,2.12.6,2.74,2.66,2.74h6.6c.7,0,1-.32,1-1.22v-1.62c0-.18-.06-.26-.24-.26h-5.86c-.28,0-.44-.16-.44-.46v-1.5c0-.3.16-.46.44-.46h8.34c.4,0,.6.2.6.6v4.66c0,2.24-.88,3.06-2.48,3.06h-8.08c-4.04,0-5.6-1.44-5.6-5.28v-3.44c0-3.84,1.56-5.28,5.6-5.28h10.14Z"/>
        <path class="cls-5" d="M302.51,20.8c4.06,0,5.6,1.44,5.6,5.28v3.44c0,3.84-1.54,5.28-5.6,5.28h-6.18c-4.04,0-5.6-1.44-5.6-5.28v-3.44c0-3.84,1.56-5.28,5.6-5.28h6.18ZM293.79,29.3c0,2.1.6,2.72,2.66,2.72h5.94c2.06,0,2.66-.62,2.66-2.72v-3c0-2.1-.6-2.72-2.66-2.72h-5.94c-2.06,0-2.66.62-2.66,2.72v3ZM297.61,17.1c.3,0,.44.12.44.36v1.9c0,.24-.14.36-.44.36h-1.96c-.3,0-.44-.12-.44-.36v-1.9c0-.24.14-.36.44-.36h1.96ZM303.19,17.1c.3,0,.46.12.46.36v1.9c0,.24-.16.36-.46.36h-1.96c-.3,0-.44-.12-.44-.36v-1.9c0-.24.14-.36.44-.36h1.96Z"/>
        <path class="cls-5" d="M321.93,20.8c3.06,0,4.3,1.42,4.3,4.12v1.14c0,2.28-.88,3.62-2.98,4l3.42,4.24c.12.14.1.5-.26.5h-2.58c-.34,0-.44-.08-.56-.26l-3.16-4.16h-6.46v3.98c0,.3-.14.44-.44.44h-2.16c-.3,0-.46-.14-.46-.44v-12.96c0-.4.2-.6.6-.6h10.74ZM313.65,27.94h7.66c1.36,0,1.86-.58,1.86-1.78v-.84c0-1.2-.5-1.78-1.86-1.78h-7.4c-.18,0-.26.08-.26.24v4.16Z"/>
        <path class="cls-5" d="M342.57,20.8c.3,0,.46.14.46.44v1.9c0,.3-.16.44-.46.44h-8.74c-2.08,0-2.66.62-2.66,2.72v.2h11.3c.3,0,.44.14.44.44v1.58c0,.3-.14.44-.44.44h-11.3v.34c0,2.1.58,2.72,2.66,2.72h8.74c.3,0,.46.14.46.44v1.9c0,.3-.16.44-.46.44h-8.8c-4.04,0-5.6-1.44-5.6-5.28v-3.44c0-3.84,1.56-5.28,5.6-5.28h8.8Z"/>
        <path class="cls-5" d="M347.15,20.8c.26,0,.36.08.46.26l5.86,10.76c.06.12.12.14.24.14h.1c.1,0,.16-.02.22-.14l5.78-10.76c.1-.2.22-.26.46-.26h2.62c.32,0,.38.2.24.46l-6.56,12.02c-.66,1.22-1.26,1.52-2.1,1.52h-1.16c-1.04,0-1.62-.3-2.3-1.52l-6.64-12.02c-.14-.26-.08-.46.26-.46h2.52Z"/>
        <path class="cls-5" d="M367.45,20.8c.3,0,.44.14.44.44v13.12c0,.3-.14.44-.44.44h-2.16c-.3,0-.46-.14-.46-.44v-13.12c0-.3.16-.44.46-.44h2.16ZM367.33,17.1c.3,0,.44.12.44.36v1.9c0,.24-.14.36-.44.36h-1.96c-.3,0-.44-.12-.44-.36v-1.9c0-.24.14-.36.44-.36h1.96Z"/>
        <path class="cls-5" d="M383.93,16.88c.16,0,.24.1.24.28v1.36c0,.18-.08.28-.24.28h-.48c-1.86,0-2.94,1.28-2.94,5.84v6.8c0,4.56,1.08,5.86,2.94,5.86h.48c.16,0,.24.08.24.28v1.36c0,.18-.08.26-.24.26h-.48c-3.3,0-4.86-2.1-4.86-7.76v-6.8c0-5.66,1.56-7.76,4.86-7.76h.48Z"/>
        <path class="cls-5" d="M396.37,20.8c4.04,0,5.6,1.44,5.6,5.28v3.44c0,3.84-1.56,5.28-5.6,5.28h-4.62c-4.04,0-5.6-1.44-5.6-5.28v-3.44c0-3.84,1.56-5.28,5.6-5.28h4.62ZM389.11,29.4c0,2.12.58,2.74,2.64,2.74h4.62c2.06,0,2.64-.62,2.64-2.74v-3.2c0-2.12-.58-2.74-2.64-2.74h-4.62c-2.06,0-2.64.62-2.64,2.74v3.2Z"/>
        <path class="cls-5" d="M409.95,26.84c.24,0,.36.12.36.36v1.44c0,.24-.12.36-.36.36h-6.02c-.24,0-.36-.12-.36-.36v-1.44c0-.24.12-.36.36-.36h6.02Z"/>
        <path class="cls-5" d="M414.35,20.8c1.32,0,1.84.54,1.84,1.7v11.86c0,.3-.14.44-.44.44h-2.06c-.3,0-.44-.14-.44-.44v-10.48c0-.28-.12-.42-.42-.42h-1.14c-.3,0-.46-.14-.46-.44v-1.78c0-.3.16-.44.46-.44h2.66Z"/>
        <path class="cls-5" d="M430.19,20.8c2.42,0,3.54,1.32,3.54,3.26v1.4c0,2.18-1.2,3.42-3.5,3.42h-7.6c-.72,0-1.04.38-1.04,1.14v1.7c0,.28.12.42.4.42h11.26c.3,0,.46.14.46.44v1.78c0,.3-.16.44-.46.44h-12.76c-1.34,0-1.86-.54-1.86-1.7v-3.08c0-2.2,1.2-3.44,3.5-3.44h7.6c.72,0,1.04-.38,1.04-1.12v-.86c0-.7-.3-1.14-1.06-1.14h-10.12c-.3,0-.44-.14-.44-.44v-1.78c0-.3.14-.44.44-.44h10.6Z"/>
        <path class="cls-5" d="M446.17,20.8c4.04,0,5.6,1.44,5.6,5.28v3.44c0,3.84-1.56,5.28-5.6,5.28h-4.62c-4.04,0-5.6-1.44-5.6-5.28v-3.44c0-3.84,1.56-5.28,5.6-5.28h4.62ZM438.91,29.4c0,2.12.58,2.74,2.64,2.74h4.62c2.06,0,2.64-.62,2.64-2.74v-3.2c0-2.12-.58-2.74-2.64-2.74h-4.62c-2.06,0-2.64.62-2.64,2.74v3.2Z"/>
        <path class="cls-5" d="M465.59,20.8c3.06,0,4.3,1.42,4.3,4.12v1.48c0,2.7-1.24,4.12-4.3,4.12h-8.28v3.84c0,.3-.14.44-.44.44h-2.16c-.3,0-.46-.14-.46-.44v-12.96c0-.4.2-.6.6-.6h10.74ZM457.31,27.88h7.66c1.36,0,1.86-.58,1.86-1.78v-.76c0-1.2-.5-1.78-1.86-1.78h-7.4c-.18,0-.26.06-.26.24v4.08Z"/>
        <path class="cls-5" d="M471.61,39.2c-.16,0-.24-.1-.24-.28v-1.36c0-.18.08-.28.24-.28h.48c1.86,0,2.94-1.28,2.94-5.84v-6.8c0-4.56-1.08-5.86-2.94-5.86h-.48c-.16,0-.24-.08-.24-.28v-1.36c0-.18.08-.26.24-.26h.48c3.3,0,4.86,2.1,4.86,7.76v6.8c0,5.66-1.56,7.76-4.86,7.76h-.48Z"/>
      </g>
      <g>
        <path class="cls-5" d="M35.24,38.61c-.25-.25-.56-.46-.81-.75-.11-.13-.33-.57-.41-.61-.12-.08-.92.49-1.11.59-4.15,2.22-8.79,2.62-13.21.85-6.91-2.77-10.97-10.37-9.2-17.67-.3-.02-.62-.11-.9-.22-.39-.15-.69-.43-1.07-.53-.2,1.01-.34,1.98-.41,3.01,0,.05-.06.09-.06.11-.04.72.03,1.45,0,2.17l.22,1.78c1.22,7.44,7.31,13.35,14.79,14.34.41.05.85.04,1.24.15h2.1c.16,0,.44-.05.64-.07,2.98-.28,5.74-1.38,8.23-2.98.03-.1-.02-.11-.07-.16Z"/>
        <path class="cls-5" d="M12.43,13.17c.57.28,1.16.48,1.58,1,.64-.55,1.22-1.16,1.89-1.69,4.74-3.74,11.17-4.38,16.56-1.63.2-.68.68-1.19,1.15-1.69-2.01-1.02-4.21-1.74-6.47-1.97-.22-.02-.47.06-.64-.07h-2.17c-.77.05-1.68.2-2.45.36-3.7.77-7.04,2.76-9.54,5.57-.02.13.02.08.08.12Z"/>
        <path class="cls-5" d="M42.69,22.82c-.28-2.97-1.38-5.75-2.98-8.23-.1-.03-.11.02-.16.07-.44.45-.81,1.03-1.46,1.22,3.14,4.59,3.49,10.71.95,15.65.68.2,1.19.68,1.69,1.15.23-.58.54-1.12.78-1.7.7-1.73,1.07-3.58,1.26-5.42v-2.1c0-.16-.05-.44-.07-.64Z"/>
        <path class="cls-5" d="M16.83,34.29l3.81-1.14c4.86,2.45,10.74.87,13.39-3.95,3.76-6.85-1.64-15.1-9.37-14.53-7.07.52-11.22,8.27-7.91,14.52l-1.16,4c-.05.71.54,1.23,1.24,1.1ZM22.48,19.41h5.81c1.14.26,1.13,1.74,0,2.01h-5.75c-1.11-.3-1.14-1.66-.06-2.01ZM22.48,23.48h5.81c1.14.26,1.13,1.74,0,2.01h-5.75c-1.11-.3-1.14-1.66-.06-2.01ZM22.48,27.54h5.81c1.14.26,1.13,1.74,0,2.01h-5.75c-1.11-.3-1.14-1.66-.06-2.01Z"/>
        <path class="cls-5" d="M36.49,14.3c2.64-.27,2.23-4.4-.52-4.04-2.57.34-2.16,4.32.52,4.04Z"/>
        <path class="cls-5" d="M11.35,19.05c2.64-.27,2.23-4.4-.52-4.04-2.57.34-2.16,4.32.52,4.04Z"/>
        <path class="cls-5" d="M37.32,33.31c-2.57.34-2.16,4.32.52,4.04,2.64-.27,2.23-4.4-.52-4.04Z"/>
      </g>
    </g>
  </g>
</svg>