<?xml version="1.0" encoding="UTF-8"?>
<svg id="Layer_2" data-name="Layer 2" xmlns="http://www.w3.org/2000/svg" xmlns:xlink="http://www.w3.org/1999/xlink" viewBox="0 0 492.45 657.72">
  <defs>
    <style>
      .cls-1 {
        fill: #241e33;
      }

      .cls-2 {
        fill: url(#_ÂÁ_Ï_ÌÌ_È_ËÂÌÚ_2-2);
      }

      .cls-3 {
        fill: url(#_ÂÁ_Ï_ÌÌ_È_ËÂÌÚ_2-3);
      }

      .cls-4 {
        fill: url(#_ÂÁ_Ï_ÌÌ_È_ËÂÌÚ_2-4);
      }

      .cls-5 {
        fill: url(#_ÂÁ_Ï_ÌÌ_È_ËÂÌÚ_3-2);
      }

      .cls-6 {
        fill: url(#linear-gradient);
      }

      .cls-7 {
        fill: url(#_ÂÁ_Ï_ÌÌ_È_ËÂÌÚ_3);
      }

      .cls-8 {
        fill: url(#_ÂÁ_Ï_ÌÌ_È_ËÂÌÚ_2);
      }

      .cls-9 {
        fill: url(#_ÂÁ_Ï_ÌÌ_È_ËÂÌÚ_4);
      }

      .cls-10 {
        fill: #00134a;
      }

      .cls-11 {
        fill: #3c354f;
      }
    </style>
    <radialGradient id="_ÂÁ_Ï_ÌÌ_È_ËÂÌÚ_3" data-name="¡ÂÁ˚ÏˇÌÌ˚È „‡‰ËÂÌÚ 3" cx="9636.21" cy="-8561.43" fx="9636.21" fy="-8561.43" r="1699.92" gradientTransform="translate(1404.68 878.86) rotate(-180) scale(.12 -.1)" gradientUnits="userSpaceOnUse">
      <stop offset="0" stop-color="#241883"/>
      <stop offset=".35" stop-color="#241a60"/>
      <stop offset=".75" stop-color="#241d3f"/>
      <stop offset=".97" stop-color="#241e33"/>
    </radialGradient>
    <radialGradient id="_ÂÁ_Ï_ÌÌ_È_ËÂÌÚ_3-2" data-name="¡ÂÁ˚ÏˇÌÌ˚È „‡‰ËÂÌÚ 3" cx="9763.1" cy="3674.36" fx="9763.1" fy="3674.36" r="1049.07" gradientTransform="translate(1404.68 987.75) rotate(-180) scale(.12 .1)" xlink:href="#_ÂÁ_Ï_ÌÌ_È_ËÂÌÚ_3"/>
    <linearGradient id="_ÂÁ_Ï_ÌÌ_È_ËÂÌÚ_2" data-name="¡ÂÁ˚ÏˇÌÌ˚È „‡‰ËÂÌÚ 2" x1="-21.23" y1="307.2" x2="519.9" y2="304.78" gradientUnits="userSpaceOnUse">
      <stop offset="0" stop-color="#d730c4"/>
      <stop offset=".23" stop-color="#b048d4"/>
      <stop offset=".57" stop-color="#7a69eb"/>
      <stop offset=".83" stop-color="#597ef9"/>
      <stop offset=".97" stop-color="#4d86ff"/>
    </linearGradient>
    <linearGradient id="_ÂÁ_Ï_ÌÌ_È_ËÂÌÚ_2-2" data-name="¡ÂÁ˚ÏˇÌÌ˚È „‡‰ËÂÌÚ 2" x1="-23.12" y1="340.07" x2="574.01" y2="337.4" xlink:href="#_ÂÁ_Ï_ÌÌ_È_ËÂÌÚ_2"/>
    <linearGradient id="_ÂÁ_Ï_ÌÌ_È_ËÂÌÚ_2-3" data-name="¡ÂÁ˚ÏˇÌÌ˚È „‡‰ËÂÌÚ 2" x1="-19.79" y1="606.72" x2="519.6" y2="604.31" xlink:href="#_ÂÁ_Ï_ÌÌ_È_ËÂÌÚ_2"/>
    <linearGradient id="_ÂÁ_Ï_ÌÌ_È_ËÂÌÚ_2-4" data-name="¡ÂÁ˚ÏˇÌÌ˚È „‡‰ËÂÌÚ 2" x1="-20.96" y1="8" x2="518.43" y2="5.59" xlink:href="#_ÂÁ_Ï_ÌÌ_È_ËÂÌÚ_2"/>
    <linearGradient id="linear-gradient" x1="240.9" y1="646.13" x2="240.9" y2="563" gradientUnits="userSpaceOnUse">
      <stop offset="0" stop-color="#0bf"/>
      <stop offset=".44" stop-color="#056ba4" stop-opacity=".55"/>
      <stop offset="1" stop-color="#0d0934" stop-opacity="0"/>
    </linearGradient>
    <linearGradient id="_ÂÁ_Ï_ÌÌ_È_ËÂÌÚ_4" data-name="¡ÂÁ˚ÏˇÌÌ˚È „‡‰ËÂÌÚ 4" x1="204.65" y1="604.2" x2="277.15" y2="604.2" gradientUnits="userSpaceOnUse">
      <stop offset="0" stop-color="#4d86ff"/>
      <stop offset=".03" stop-color="#587efa"/>
      <stop offset=".14" stop-color="#8562e6"/>
      <stop offset=".24" stop-color="#a84cd7"/>
      <stop offset=".34" stop-color="#c23ccc"/>
      <stop offset=".44" stop-color="#d133c6"/>
      <stop offset=".51" stop-color="#d730c4"/>
      <stop offset=".58" stop-color="#d233c6"/>
      <stop offset=".67" stop-color="#c33ccc"/>
      <stop offset=".76" stop-color="#ab4ad6"/>
      <stop offset=".86" stop-color="#8a5fe4"/>
      <stop offset=".96" stop-color="#6079f6"/>
      <stop offset="1" stop-color="#4d86ff"/>
    </linearGradient>
  </defs>
  <g id="Layer_1-2" data-name="Layer 1">
    <g>
      <g>
        <polygon class="cls-11" points="492.45 0 21.39 0 .84 27.3 0 28.42 0 583.6 0 612.01 471.06 612.01 491.61 584.71 492.45 583.6 492.45 28.42 492.45 0"/>
        <polygon class="cls-1" points="5.35 606.66 5.35 581.8 5.35 30.21 24.07 5.35 487.1 5.35 487.1 30.21 487.1 581.8 468.39 606.66 5.35 606.66"/>
        <path class="cls-7" d="M480.64,11.79c-9.54,76.61-108.17,136.85-228.45,136.85S33.28,88.4,23.74,11.79h456.9Z"/>
        <path class="cls-5" d="M378,602.87c-5.89-47.28-66.76-84.46-140.99-84.46s-135.1,37.18-140.99,84.46h281.97Z"/>
        <path class="cls-8" d="M28.34,10.21l-16.75,21.99v569.61h452.31l16.98-22.29V10.21H28.34ZM479.28,578.98l-16.18,21.24H13.17V32.73l15.95-20.94h450.16v567.19Z"/>
        <g>
          <polygon class="cls-11" points="0 116.36 0 574.22 18.8 560.64 18.8 102.83 0 116.36"/>
          <polygon class="cls-1" points=".1 122.24 0 568 15.83 556.25 15.83 110.92 .1 122.24"/>
          <polygon class="cls-2" points="0 129.05 0 560.64 13.65 550.62 13.65 119.23 0 129.05"/>
        </g>
        <g>
          <g>
            <polygon class="cls-11" points="353.73 593.78 129.5 593.78 112.49 612.01 369.31 612.01 353.73 593.78"/>
            <polygon class="cls-1" points="157.03 612.01 327.07 612.01 314.52 596.86 169.21 596.86 157.03 612.01"/>
            <polygon class="cls-3" points="308.89 599.05 174.81 599.05 164.79 612.01 318.91 612.01 308.89 599.05"/>
          </g>
          <g>
            <g>
              <polygon class="cls-1" points="161.49 596.86 149.3 612.01 137.21 612.01 150.54 596.86 161.49 596.86"/>
              <polygon class="cls-1" points="143.64 596.86 131.45 612.01 119.36 612.01 132.69 596.86 143.64 596.86"/>
            </g>
            <g>
              <polygon class="cls-1" points="320.31 596.86 332.49 612.01 344.59 612.01 331.26 596.86 320.31 596.86"/>
              <polygon class="cls-1" points="338.16 596.86 350.34 612.01 362.43 612.01 349.11 596.86 338.16 596.86"/>
            </g>
          </g>
        </g>
        <g>
          <polygon class="cls-11" points="355.18 20.39 138.27 20.39 123.69 0 368.76 0 355.18 20.39"/>
          <polygon class="cls-1" points="135.58 .14 359.17 0 348.21 15.83 146.2 15.83 135.58 .14"/>
          <polygon class="cls-4" points="345.16 13.65 149.2 13.65 139.18 0 355.18 0 345.16 13.65"/>
        </g>
      </g>
      <g>
        <g>
          <path class="cls-10" d="M285.65,573.2l-.08-1.37-1.37-.12c-25.5-2.31-42.2-20.66-42.36-20.84l-.95-1.11-.95,1.11c-.17.19-16.86,18.53-42.36,20.84l-1.36.12-.08,1.37c0,.19-1.02,19.32,3.88,38.97,6.57,26.37,20.7,41.73,40.85,44.44h.03s.03,0,.03,0c20.15-2.71,34.27-18.08,40.84-44.44,4.9-19.65,3.89-38.78,3.88-38.97Z"/>
          <path class="cls-11" d="M240.9,657.72l-.22-.03c-20.58-2.77-35.02-18.42-41.71-45.25-4.87-19.55-3.95-38.5-3.91-39.29l.13-2.32,2.31-.21c25.03-2.27,41.48-20.3,41.64-20.48l1.77-2.06,1.78,2.07c.15.17,16.55,18.19,41.63,20.47l2.31.21.13,2.31c.01.18,1.01,19.55-3.91,39.3-6.69,26.84-21.13,42.49-41.76,45.26l-.17.02ZM197.26,572.83l-.02.43c-.04.78-.94,19.41,3.85,38.65,6.44,25.84,20.21,40.92,39.81,43.61,19.62-2.71,33.37-17.79,39.81-43.61,4.88-19.58,3.86-38.45,3.85-38.64l-.02-.43-.42-.04c-25.82-2.34-42.92-21.02-43.09-21.21l-.13-.15-.12.14c-.18.2-17.03,18.86-43.09,21.22l-.42.04Z"/>
        </g>
        <path class="cls-10" d="M275.71,581.24l-.06-1.07-1.06-.1c-19.83-1.8-32.82-16.07-32.95-16.21l-.74-.86-.74.86c-.13.14-13.12,14.41-32.95,16.21l-1.06.1-.06,1.07c0,.15-.79,15.03,3.02,30.31,5.11,20.51,16.1,32.46,31.77,34.57h0s.02,0,.02,0c0,0,.01,0,.02,0h0c15.67-2.12,26.66-14.07,31.77-34.58,3.81-15.29,3.03-30.17,3.02-30.31Z"/>
        <path class="cls-6" d="M275.71,581.24l-.06-1.07-1.06-.1c-19.83-1.8-32.82-16.07-32.95-16.21l-.74-.86-.74.86c-.13.14-13.12,14.41-32.95,16.21l-1.06.1-.06,1.07c0,.15-.79,15.03,3.02,30.31,5.11,20.51,16.1,32.46,31.77,34.57h0s.02,0,.02,0c0,0,.01,0,.02,0h0c15.67-2.12,26.66-14.07,31.77-34.58,3.81-15.29,3.03-30.17,3.02-30.31Z"/>
        <path class="cls-9" d="M240.93,647.5l-.22-.02c-16.29-2.19-27.67-14.5-32.93-35.6-3.84-15.42-3.07-30.59-3.06-30.73l.12-2.23,2.24-.21c19.16-1.74,31.94-15.63,32.06-15.77l1.75-2.05,1.78,2.07c.49.54,12.95,14.01,32.04,15.74l2.24.21.12,2.24c0,.15.8,15.22-3.06,30.72-5.26,21.1-16.64,33.41-32.92,35.6l-.17.02ZM207.45,581.42c-.07,1.39-.62,15.32,2.99,29.79,4.95,19.85,15.48,31.44,30.47,33.53,14.98-2.08,25.52-13.67,30.47-33.53,3.58-14.35,3.05-28.4,2.99-29.79-18.74-1.74-31.42-14.22-33.45-16.35-2.1,2.17-14.92,14.63-33.45,16.35Z"/>
      </g>
    </g>
  </g>
</svg>