<?xml version="1.0" encoding="UTF-8"?>
<svg id="Layer_2" data-name="Layer 2" xmlns="http://www.w3.org/2000/svg" viewBox="0 0 159.69 33.66">
  <defs>
    <style>
      .cls-1 {
        fill: #241e33;
      }

      .cls-2 {
        fill: #fff;
      }

      .cls-3 {
        fill: red;
      }
    </style>
  </defs>
  <g id="Layer_1-2" data-name="Layer 1">
    <g>
      <g>
        <path class="cls-1" d="M140.51,0H19.17l-6.64,8.81v16.03l6.64,8.81h121.34l6.64-8.81V8.81l-6.64-8.81Z"/>
        <g>
          <g>
            <polygon class="cls-3" points="4.42 24.85 4.42 18.53 0 18.53 0 24.85 6.64 33.66 11.06 33.66 4.42 24.85"/>
            <polygon class="cls-3" points="4.42 8.81 11.06 0 6.64 0 0 8.81 0 15.13 4.42 15.13 4.42 8.81"/>
            <polygon class="cls-3" points="9.95 24.85 9.95 18.53 5.53 18.53 5.53 24.85 12.16 33.66 16.59 33.66 9.95 24.85"/>
            <polygon class="cls-3" points="5.53 8.81 5.53 15.13 9.95 15.13 9.95 8.81 16.59 0 12.16 0 5.53 8.81 5.53 8.81"/>
          </g>
          <g>
            <polygon class="cls-3" points="155.26 24.85 155.26 18.53 159.69 18.53 159.69 24.85 153.05 33.66 148.63 33.66 155.26 24.85"/>
            <polygon class="cls-3" points="155.26 8.81 148.63 0 153.05 0 159.69 8.81 159.69 15.13 155.26 15.13 155.26 8.81"/>
            <polygon class="cls-3" points="149.73 24.85 149.73 18.53 154.16 18.53 154.16 24.85 147.52 33.66 143.1 33.66 149.73 24.85"/>
            <polygon class="cls-3" points="154.16 8.81 154.16 15.13 149.73 15.13 149.73 8.81 143.1 0 147.52 0 154.16 8.81 154.16 8.81"/>
          </g>
        </g>
        <polygon class="cls-3" points="144.71 9.67 144.71 23.99 138.68 31.8 21.01 31.8 14.98 23.99 14.98 9.67 21.01 1.87 138.68 1.87 144.71 9.67"/>
        <path class="cls-2" d="M138.88,32.21H20.81s-6.24-8.08-6.24-8.08v-14.6L20.81,1.45h118.08l6.24,8.08v14.6l-6.24,8.08ZM21.01,31.8h117.67s6.03-7.81,6.03-7.81v-14.32l-6.03-7.81H21.01l-6.03,7.81v14.32l6.03,7.81Z"/>
      </g>
      <g>
        <g>
          <path class="cls-2" d="M38.03,5.69c-6.15,0-11.15,5-11.15,11.15s5,11.15,11.15,11.15,11.15-5,11.15-11.15-5-11.15-11.15-11.15ZM38.03,25.6c-4.84,0-8.77-3.93-8.77-8.77s3.93-8.77,8.77-8.77,8.77,3.93,8.77,8.77-3.93,8.77-8.77,8.77Z"/>
          <path class="cls-2" d="M43.28,13.72c.27-.27.27-.71,0-.98l-1.16-1.16c-.27-.27-.71-.27-.98,0l-2.62,2.62c-.27.27-.71.27-.98,0l-2.62-2.62c-.27-.27-.71-.27-.98,0l-1.16,1.16c-.27.27-.27.71,0,.98l2.62,2.62c.27.27.27.71,0,.98l-2.62,2.62c-.27.27-.27.71,0,.98l1.16,1.16c.27.27.71.27.98,0l2.62-2.62c.27-.27.71-.27.98,0l2.62,2.62c.27.27.71.27.98,0l1.16-1.16c.27-.27.27-.71,0-.98l-2.62-2.62c-.27-.27-.27-.71,0-.98l2.62-2.62Z"/>
        </g>
        <g>
          <path class="cls-2" d="M69.88,10.52c.25,0,.36.12.36.36v1.61c0,.25-.12.38-.36.38h-8.24c-1.69,0-2.19.49-2.19,2.24v2.37c0,1.74.49,2.25,2.19,2.25h5.43c.58,0,.82-.26.82-1v-1.33c0-.15-.05-.21-.2-.21h-4.82c-.23,0-.36-.13-.36-.38v-1.23c0-.25.13-.38.36-.38h6.86c.33,0,.49.17.49.49v3.83c0,1.84-.72,2.52-2.04,2.52h-6.65c-3.32,0-4.61-1.19-4.61-4.34v-2.83c0-3.16,1.28-4.34,4.61-4.34h8.34Z"/>
          <path class="cls-2" d="M84,10.52c.25,0,.38.12.38.36v1.56c0,.25-.13.36-.38.36h-7.19c-1.71,0-2.19.51-2.19,2.24v.17h9.29c.25,0,.36.12.36.36v1.3c0,.25-.12.36-.36.36h-9.29v.28c0,1.73.48,2.24,2.19,2.24h7.19c.25,0,.38.12.38.36v1.56c0,.25-.13.36-.38.36h-7.24c-3.32,0-4.61-1.19-4.61-4.34v-2.83c0-3.16,1.28-4.34,4.61-4.34h7.24Z"/>
          <path class="cls-2" d="M98.16,10.52c.25,0,.36.12.36.36v1.61c0,.25-.12.38-.36.38h-7.32c-1.69,0-2.19.49-2.19,2.24v2.34c0,1.74.49,2.25,2.19,2.25h7.32c.25,0,.36.12.36.36v1.61c0,.25-.12.36-.36.36h-7.42c-3.32,0-4.61-1.19-4.61-4.34v-2.83c0-3.16,1.28-4.34,4.61-4.34h7.42ZM93.62,22.71c.26,0,.38.15.31.43l-.72,2.99c-.07.25-.18.38-.41.38h-.94c-.26,0-.4-.15-.38-.38l.26-3.04c.02-.25.16-.38.39-.38h1.48Z"/>
          <path class="cls-2" d="M103.53,10.52c.99,0,1.32.21,1.76,1.25l3.42,7.9c.05.12.11.15.23.15h.2c.12,0,.18-.03.23-.15l3.42-7.9c.44-1.04.77-1.25,1.74-1.25h1.76c1.15,0,1.45.46,1.45,1.71v9.44c0,.25-.13.36-.38.36h-1.68c-.25,0-.36-.12-.36-.36v-8.59c0-.12-.03-.16-.13-.16h-.15c-.12,0-.18.03-.21.13l-3.32,7.37c-.54,1.18-1,1.61-2.11,1.61h-.79c-1.1,0-1.56-.43-2.11-1.61l-3.32-7.37c-.03-.1-.1-.13-.21-.13h-.15c-.1,0-.13.05-.13.16v8.59c0,.25-.12.36-.36.36h-1.68c-.25,0-.38-.12-.38-.36v-9.44c0-1.25.3-1.71,1.46-1.71h1.79Z"/>
          <path class="cls-2" d="M131.62,10.52c.25,0,.38.12.38.36v1.56c0,.25-.13.36-.38.36h-7.19c-1.71,0-2.19.51-2.19,2.24v.17h9.29c.25,0,.36.12.36.36v1.3c0,.25-.12.36-.36.36h-9.29v.28c0,1.73.48,2.24,2.19,2.24h7.19c.25,0,.38.12.38.36v1.56c0,.25-.13.36-.38.36h-7.24c-3.32,0-4.61-1.19-4.61-4.34v-2.83c0-3.16,1.28-4.34,4.61-4.34h7.24Z"/>
        </g>
      </g>
    </g>
  </g>
</svg>