<?xml version="1.0" encoding="UTF-8"?>
<svg id="Layer_2" data-name="Layer 2" xmlns="http://www.w3.org/2000/svg" viewBox="0 0 159.69 33.66">
  <defs>
    <style>
      .cls-1 {
        fill: #241e33;
      }

      .cls-2 {
        font-family: ConthraxSb-Regular, Conthrax;
        font-size: 16.44px;
      }

      .cls-2, .cls-3 {
        fill: #fff;
      }

      .cls-4 {
        fill: red;
      }
    </style>
  </defs>
  <g id="Layer_1-2" data-name="Layer 1">
    <g>
      <g>
        <path class="cls-1" d="M140.51,0H19.17l-6.64,8.81v16.03l6.64,8.81h121.34l6.64-8.81V8.81l-6.64-8.81Z"/>
        <g>
          <g>
            <polygon class="cls-4" points="4.42 24.85 4.42 18.53 0 18.53 0 24.85 6.64 33.66 11.06 33.66 4.42 24.85"/>
            <polygon class="cls-4" points="4.42 8.81 11.06 0 6.64 0 0 8.81 0 15.13 4.42 15.13 4.42 8.81"/>
            <polygon class="cls-4" points="9.95 24.85 9.95 18.53 5.53 18.53 5.53 24.85 12.16 33.66 16.59 33.66 9.95 24.85"/>
            <polygon class="cls-4" points="5.53 8.81 5.53 15.13 9.95 15.13 9.95 8.81 16.59 0 12.16 0 5.53 8.81 5.53 8.81"/>
          </g>
          <g>
            <polygon class="cls-4" points="155.26 24.85 155.26 18.53 159.69 18.53 159.69 24.85 153.05 33.66 148.63 33.66 155.26 24.85"/>
            <polygon class="cls-4" points="155.26 8.81 148.63 0 153.05 0 159.69 8.81 159.69 15.13 155.26 15.13 155.26 8.81"/>
            <polygon class="cls-4" points="149.73 24.85 149.73 18.53 154.16 18.53 154.16 24.85 147.52 33.66 143.1 33.66 149.73 24.85"/>
            <polygon class="cls-4" points="154.16 8.81 154.16 15.13 149.73 15.13 149.73 8.81 143.1 0 147.52 0 154.16 8.81 154.16 8.81"/>
          </g>
        </g>
        <polygon class="cls-4" points="144.71 9.67 144.71 23.99 138.68 31.8 21.01 31.8 14.98 23.99 14.98 9.67 21.01 1.87 138.68 1.87 144.71 9.67"/>
        <path class="cls-3" d="M138.88,32.21H20.81s-6.24-8.08-6.24-8.08v-14.6L20.81,1.45h118.08l6.24,8.08v14.6l-6.24,8.08ZM21.01,31.8h117.67s6.03-7.81,6.03-7.81v-14.32l-6.03-7.81H21.01l-6.03,7.81v14.32l6.03,7.81Z"/>
      </g>
      <g>
        <g>
          <path class="cls-3" d="M38.03,5.69c-6.15,0-11.15,5-11.15,11.15s5,11.15,11.15,11.15,11.15-5,11.15-11.15-5-11.15-11.15-11.15ZM38.03,25.6c-4.84,0-8.77-3.93-8.77-8.77s3.93-8.77,8.77-8.77,8.77,3.93,8.77,8.77-3.93,8.77-8.77,8.77Z"/>
          <path class="cls-3" d="M43.28,13.72c.27-.27.27-.71,0-.98l-1.16-1.16c-.27-.27-.71-.27-.98,0l-2.62,2.62c-.27.27-.71.27-.98,0l-2.62-2.62c-.27-.27-.71-.27-.98,0l-1.16,1.16c-.27.27-.27.71,0,.98l2.62,2.62c.27.27.27.71,0,.98l-2.62,2.62c-.27.27-.27.71,0,.98l1.16,1.16c.27.27.71.27.98,0l2.62-2.62c.27-.27.71-.27.98,0l2.62,2.62c.27.27.71.27.98,0l1.16-1.16c.27-.27.27-.71,0-.98l-2.62-2.62c-.27-.27-.27-.71,0-.98l2.62-2.62Z"/>
        </g>
        <text class="cls-2" transform="translate(55.98 22.04)"><tspan x="0" y="0">GEÇME</tspan></text>
      </g>
    </g>
  </g>
</svg>