<?xml version="1.0" encoding="UTF-8"?>
<svg id="Layer_2" data-name="Layer 2" xmlns="http://www.w3.org/2000/svg" xmlns:xlink="http://www.w3.org/1999/xlink" viewBox="0 0 353.73 50.98">
  <defs>
    <style>
      .cls-1 {
        fill: #241e33;
      }

      .cls-2 {
        fill: url(#_ÂÁ_Ï_ÌÌ_È_ËÂÌÚ_2-2);
      }

      .cls-3 {
        fill: url(#_ÂÁ_Ï_ÌÌ_È_ËÂÌÚ_3);
      }

      .cls-4 {
        fill: url(#_ÂÁ_Ï_ÌÌ_È_ËÂÌÚ_2);
      }

      .cls-5 {
        fill: #fff;
      }

      .cls-6 {
        fill: #3c354f;
      }
    </style>
    <radialGradient id="_ÂÁ_Ï_ÌÌ_È_ËÂÌÚ_3" data-name="¡ÂÁ˚ÏˇÌÌ˚È „‡‰ËÂÌÚ 3" cx="-21605.37" cy="-296.61" fx="-21605.37" fy="-296.61" r="1566.72" gradientTransform="translate(1274.95 32.29) scale(.05 .1)" gradientUnits="userSpaceOnUse">
      <stop offset="0" stop-color="#241883"/>
      <stop offset=".35" stop-color="#241a60"/>
      <stop offset=".75" stop-color="#241d3f"/>
      <stop offset=".97" stop-color="#241e33"/>
    </radialGradient>
    <linearGradient id="_ÂÁ_Ï_ÌÌ_È_ËÂÌÚ_2" data-name="¡ÂÁ˚ÏˇÌÌ˚È „‡‰ËÂÌÚ 2" x1="2" y1="25.49" x2="351.74" y2="25.49" gradientUnits="userSpaceOnUse">
      <stop offset="0" stop-color="#d730c4"/>
      <stop offset=".23" stop-color="#b048d4"/>
      <stop offset=".57" stop-color="#7a69eb"/>
      <stop offset=".83" stop-color="#597ef9"/>
      <stop offset=".97" stop-color="#4d86ff"/>
    </linearGradient>
    <linearGradient id="_ÂÁ_Ï_ÌÌ_È_ËÂÌÚ_2-2" data-name="¡ÂÁ˚ÏˇÌÌ˚È „‡‰ËÂÌÚ 2" x1="46.96" y1="25.49" x2="348.19" y2="25.49" xlink:href="#_ÂÁ_Ï_ÌÌ_È_ËÂÌÚ_2"/>
  </defs>
  <g id="Layer_1-2" data-name="Layer 1">
    <g>
      <polygon class="cls-6" points="343.47 0 10.26 0 .4 13.1 0 13.63 0 37.35 10.26 50.98 343.47 50.98 353.33 37.88 353.73 37.35 353.73 13.63 343.47 0"/>
      <polygon class="cls-1" points="11.54 48.41 2.57 36.49 2.57 14.49 11.54 2.57 342.19 2.57 351.17 14.49 351.17 36.49 342.19 48.41 11.54 48.41"/>
      <path class="cls-3" d="M88.83,4.9c1,19.25,84.16,34.39,108.67,34.39,22.23,0,107.81-15.14,108.81-34.39H88.83Z"/>
      <path class="cls-4" d="M342.48,2H11.26L2,14.3v22.38l9.26,12.3h331.22l9.26-12.3V14.3l-9.26-12.3ZM350.6,36.3l-8.69,11.54H53.4l-8.57-11.38V14.52l8.57-11.38h288.5l8.69,11.54v21.62Z"/>
      <path class="cls-2" d="M54.99,4.9l-8.04,10.55v20.09l8.04,10.55h285.05l8.14-10.69V15.59l-8.14-10.69H54.99ZM347.43,35.14l-7.76,10.19H55.37l-7.65-10.04V15.7l7.65-10.04h284.29l7.76,10.19v19.29Z"/>
      <g>
        <path class="cls-5" d="M97.79,20.8c4.06,0,5.6,1.44,5.6,5.28v3.44c0,3.84-1.54,5.28-5.6,5.28h-6.18c-4.04,0-5.6-1.44-5.6-5.28v-3.44c0-3.84,1.56-5.28,5.6-5.28h6.18ZM89.06,29.3c0,2.1.6,2.72,2.66,2.72h5.94c2.06,0,2.66-.62,2.66-2.72v-3c0-2.1-.6-2.72-2.66-2.72h-5.94c-2.06,0-2.66.62-2.66,2.72v3Z"/>
        <path class="cls-5" d="M108.44,20.8c.3,0,.44.14.44.44v7.98c0,2.12.6,2.74,2.66,2.74h8.1c.3,0,.44.14.44.44v1.96c0,.3-.14.44-.44.44h-8.22c-4.04,0-5.6-1.44-5.6-5.28v-8.28c0-.3.16-.44.46-.44h2.16Z"/>
        <path class="cls-5" d="M133.31,20.8c.3,0,.46.14.46.44v1.96c0,.3-.16.46-.46.46h-6.28v10.7c0,.3-.14.44-.44.44h-2.18c-.3,0-.44-.14-.44-.44v-10.7h-6.28c-.3,0-.46-.16-.46-.46v-1.96c0-.3.16-.44.46-.44h15.62Z"/>
        <path class="cls-5" d="M141.83,20.8c1.02,0,1.64.32,2.3,1.52l6.62,12.02c.14.26.08.46-.24.46h-2.54c-.26,0-.36-.06-.46-.26l-1.42-2.58h-9.4l-1.38,2.58c-.1.2-.22.26-.46.26h-2.6c-.34,0-.4-.2-.26-.46l6.56-12.02c.66-1.2,1.26-1.52,2.1-1.52h1.18ZM137.94,29.64h6.88l-3.18-5.86c-.06-.1-.12-.14-.22-.14h-.12c-.1,0-.16.04-.22.14l-3.14,5.86Z"/>
        <path class="cls-5" d="M154.22,20.8c.3,0,.44.14.44.44v7.98c0,2.12.6,2.74,2.66,2.74h8.1c.3,0,.44.14.44.44v1.96c0,.3-.14.44-.44.44h-8.22c-4.04,0-5.6-1.44-5.6-5.28v-8.28c0-.3.16-.44.46-.44h2.16Z"/>
        <path class="cls-5" d="M176.55,20.8c1.02,0,1.64.32,2.3,1.52l6.62,12.02c.14.26.08.46-.24.46h-2.54c-.26,0-.36-.06-.46-.26l-1.42-2.58h-9.4l-1.38,2.58c-.1.2-.22.26-.46.26h-2.6c-.34,0-.4-.2-.26-.46l6.56-12.02c.66-1.2,1.26-1.52,2.1-1.52h1.18ZM172.66,29.64h6.88l-3.18-5.86c-.06-.1-.12-.14-.22-.14h-.12c-.1,0-.16.04-.22.14l-3.14,5.86Z"/>
        <path class="cls-5" d="M191.12,20.8c1.2,0,1.6.26,2.14,1.52l4.16,9.6c.06.14.14.18.28.18h.24c.14,0,.22-.04.28-.18l4.16-9.6c.54-1.26.94-1.52,2.12-1.52h2.14c1.4,0,1.76.56,1.76,2.08v11.48c0,.3-.16.44-.46.44h-2.04c-.3,0-.44-.14-.44-.44v-10.44c0-.14-.04-.2-.16-.2h-.18c-.14,0-.22.04-.26.16l-4.04,8.96c-.66,1.44-1.22,1.96-2.56,1.96h-.96c-1.34,0-1.9-.52-2.56-1.96l-4.04-8.96c-.04-.12-.12-.16-.26-.16h-.18c-.12,0-.16.06-.16.2v10.44c0,.3-.14.44-.44.44h-2.04c-.3,0-.46-.14-.46-.44v-11.48c0-1.52.36-2.08,1.78-2.08h2.18Z"/>
        <path class="cls-5" d="M219.92,20.8c1.02,0,1.64.32,2.3,1.52l6.62,12.02c.14.26.08.46-.24.46h-2.54c-.26,0-.36-.06-.46-.26l-1.42-2.58h-9.4l-1.38,2.58c-.1.2-.22.26-.46.26h-2.6c-.34,0-.4-.2-.26-.46l6.56-12.02c.66-1.2,1.26-1.52,2.1-1.52h1.18ZM216.04,29.64h6.88l-3.18-5.86c-.06-.1-.12-.14-.22-.14h-.12c-.1,0-.16.04-.22.14l-3.14,5.86Z"/>
        <path class="cls-5" d="M252.47,20.8c.3,0,.46.14.46.44v1.96c0,.3-.16.46-.46.46h-6.28v10.7c0,.3-.14.44-.44.44h-2.18c-.3,0-.44-.14-.44-.44v-10.7h-6.28c-.3,0-.46-.16-.46-.46v-1.96c0-.3.16-.44.46-.44h15.62Z"/>
        <path class="cls-5" d="M268.55,20.8c.3,0,.46.14.46.44v1.9c0,.3-.16.44-.46.44h-8.74c-2.08,0-2.66.62-2.66,2.72v.2h11.3c.3,0,.44.14.44.44v1.58c0,.3-.14.44-.44.44h-11.3v.34c0,2.1.58,2.72,2.66,2.72h8.74c.3,0,.46.14.46.44v1.9c0,.3-.16.44-.46.44h-8.8c-4.04,0-5.6-1.44-5.6-5.28v-3.44c0-3.84,1.56-5.28,5.6-5.28h8.8Z"/>
        <path class="cls-5" d="M285.21,20.8c.3,0,.44.14.44.44v1.9c0,.3-.14.44-.44.44h-10.02c-.76,0-1.06.42-1.06,1.12v.68c0,.74.34,1.12,1.04,1.12h7.5c2.3,0,3.5,1.24,3.5,3.44v1.6c0,1.94-1.12,3.26-3.54,3.26h-11.08c-.3,0-.46-.14-.46-.44v-1.9c0-.3.16-.44.46-.44h10.5c.76,0,1.06-.42,1.06-1.12v-.82c0-.74-.34-1.12-1.04-1.12h-7.5c-2.3,0-3.5-1.24-3.5-3.44v-1.46c0-1.94,1.12-3.26,3.54-3.26h10.6Z"/>
        <path class="cls-5" d="M303.67,20.8c.3,0,.46.14.46.44v1.96c0,.3-.16.46-.46.46h-6.28v10.7c0,.3-.14.44-.44.44h-2.18c-.3,0-.44-.14-.44-.44v-10.7h-6.28c-.3,0-.46-.16-.46-.46v-1.96c0-.3.16-.44.46-.44h15.62Z"/>
        <path class="cls-5" d="M308.52,20.8c.3,0,.44.14.44.44v13.12c0,.3-.14.44-.44.44h-2.16c-.3,0-.46-.14-.46-.44v-13.12c0-.3.16-.44.46-.44h2.16ZM308.4,17.1c.3,0,.44.12.44.36v1.9c0,.24-.14.36-.44.36h-1.96c-.3,0-.44-.12-.44-.36v-1.9c0-.24.14-.36.44-.36h1.96Z"/>
      </g>
      <g>
        <path class="cls-5" d="M37.53,18.42c-.09-.04-.46-.19-.52-.19h-8.35v-3.5c1.3-.55,2.04-1.83,1.57-3.22-.3-.9-1.1-1.48-2.01-1.65h-.66l-.88.31c-1.84,1.06-1.62,3.7.32,4.51v3.55c-1.65,0-3.31,0-4.96,0,.03,1.49.16,2.78,1.76,3.39.72.27,2,0,1.81,1.21-.19,1.18-2.32.43-2.97.06-1.91-1.08-2.22-2.62-2.26-4.66h-8.29c-.88.15-1.46.75-1.69,1.6v16.64c.22.84.76,1.38,1.6,1.6h25.02c.84-.22,1.38-.76,1.6-1.6v-16.64c-.19-.63-.48-1.12-1.1-1.41ZM22.91,34.76h-8.33c-.37-.02-.73-.32-.79-.69-.05-.3-.03-1,0-1.32.12-1.6,1.1-3.21,2.53-3.94v-.08c-1.55-1.62-.96-4.38,1.08-5.26,2.97-1.28,5.82,1.97,4.18,4.73-.07.12-.44.57-.41.61,1.46.74,2.43,2.37,2.54,3.99.05.72.17,1.89-.8,1.96ZM27.71,11.52c1.1-.23,1.38,1.42.36,1.63-1.08.22-1.4-1.41-.36-1.63ZM32.88,33.1h-6.78c-.9-.25-.93-1.35-.05-1.64h6.87c.95.22.91,1.47-.05,1.64ZM34.53,29.8h-8.48c-.9-.24-.93-1.37-.05-1.64h8.58c.95.22.91,1.47-.05,1.64ZM34.53,26.49h-8.43c-.9-.23-.93-1.36-.05-1.64h8.53c.95.22.91,1.47-.05,1.64Z"/>
        <path class="cls-5" d="M22.05,18.23c-.01-.7,0-1.4,0-2.09.77.99,2.21.1,1.43-.96-.24-.33-1.32-1.39-1.65-1.65-.58-.46-1.25-.26-1.43.45,0,1.42-.03,2.85,0,4.27.55,0,1.1,0,1.65,0Z"/>
        <path class="cls-5" d="M17.14,30.21c-1.03.56-1.72,1.72-1.71,2.89h6.61c-.03-2.5-2.66-4.11-4.91-2.89Z"/>
        <path class="cls-5" d="M18.93,28.14c2.15-.22,1.81-3.58-.42-3.29-2.09.27-1.75,3.51.42,3.29Z"/>
      </g>
    </g>
  </g>
</svg>