<?xml version="1.0" encoding="UTF-8"?>
<svg id="Layer_2" data-name="Layer 2" xmlns="http://www.w3.org/2000/svg" viewBox="0 0 58.46 66.03">
  <defs>
    <style>
      .cls-1 {
        fill: #fff;
      }
    </style>
  </defs>
  <g id="Layer_1-2" data-name="Layer 1">
    <g>
      <path class="cls-1" d="M9.72,30.98l.23.23h38.6l.23-.23v-14.57L29.3,6.13l-19.59,10.29v14.57ZM22.37,20.65c.23-1.12,1.48-1.59,2.52-1.46-.08-2.3-.18-4.14,1.81-5.62,1.57-1.16,3.63-1.11,5.16.07,1.93,1.48,1.8,3.31,1.73,5.55,1.34-.08,2.32.56,2.51,1.92.16,1.12.17,5.07-.19,6.04-.27.74-.86,1.12-1.65,1.2-3.17.36-6.98-.27-10.22,0-1.07-.21-1.63-.78-1.73-1.88-.1-1.11-.16-4.84.04-5.83Z"/>
      <path class="cls-1" d="M58.28,35.29c-.35-1.2-1.78-2.06-3-2.11l-52.2.03c-1.39.02-2.82,1.17-2.97,2.58-.12,1.1-.17,5.14.03,6.12.18.9,1.34,2.11,2.31,2.2h53.46c1.07-.01,2.31-1.31,2.47-2.32.14-.87.12-5.76-.09-6.5ZM12.57,39.69c.56.71,1.5,2.13.15,2.56-1.16.37-1.47-1.22-1.87-1.13-1.61,2.48-3.59.54-1.59-1.43-.57-.58-1.72-.34-1.81-1.35-.18-1.97,2.3-.71,2.42-.83-.54-3.24,2.6-3.21,2.1,0,.17.18,1.18-.71,1.96-.09,1.56,1.23-1.35,2.1-1.36,2.26ZM24.89,39.47c-.35.4,1.3,1.34.58,2.46-.71,1.11-1.96-.18-2.31-.96-.27,0-.9,2.12-2.18,1.12-1.07-.84.72-2.32.45-2.62-.93-.04-2.34-.92-1.57-1.95.5-.67,1.55-.1,2.17-.07.47-.35-.47-2.34,1.12-2.34,1.28,0,.95,1.54.98,2.41.16.16,2.09-1.02,2.38.41.21,1.05-.76,1.41-1.63,1.54ZM37.06,39.69c.52.71,1.53,1.96.26,2.52-1.18.51-1.54-1.18-1.97-1.08-1.57,2.45-3.55.56-1.6-1.43-.02-.34-2.41-.49-1.72-2.02.46-1.03,2.21-.04,2.32-.15-.48-3.24,2.59-3.25,2.1,0,.1.1,2.21-1.03,2.38.56.13,1.26-1.75,1.25-1.77,1.61ZM49.37,39.47c-.27.31,1.49,1.72.45,2.62-1.19,1.03-1.93-1.12-2.17-1.12-.35.79-1.6,2.07-2.31.96-.7-1.09.88-2.12.58-2.46-.7-.07-1.87-.56-1.78-1.39.18-1.61,2.4-.43,2.53-.56-.02-.97-.25-2.68,1.24-2.38,1.19.24.44,1.57.86,2.31.21.15,1.89-.81,2.23.32.33,1.13-.66,1.61-1.62,1.7Z"/>
      <path class="cls-1" d="M7.61,15.21c.58-.49,1.29-.84,1.95-1.2,6.47-3.54,13.14-6.74,19.63-10.25,6.57,3.42,13.23,6.7,19.73,10.25.66.36,1.37.72,1.95,1.2v16h3V12.96L29.19,0,4.61,12.96v18.25h3v-16Z"/>
      <path class="cls-1" d="M18.68,52.21c3.47,2.54,7.1,4.89,10.61,7.36l13.69-9.74c.37-.22,3.2-3.37,2.93-3.6H12.57c.12.44.48.91.75,1.27,1.45,1.94,3.43,3.29,5.36,4.71Z"/>
      <path class="cls-1" d="M44.03,51.63c-3.57,3.09-9.64,7.16-13.69,9.74-.31.2-.83.66-1.16.63l-14.73-10.37c-1.78-1.58-3.23-3.4-4.51-5.4h-3.38c1.39,3.56,4.01,6.52,7.01,8.84l15.72,10.97c4.88-3.62,10.19-6.86,15.02-10.52,3.25-2.46,6.11-5.41,7.61-9.28h-3.38c-1.29,1.98-2.72,3.85-4.51,5.4Z"/>
      <path class="cls-1" d="M31.49,16.41c0-.21-.68-1.04-.91-1.19-1.01-.67-2.39-.52-3.15.44-.08.11-.45.71-.45.75v2.78h4.51v-2.78Z"/>
    </g>
  </g>
</svg>