<?xml version="1.0" encoding="UTF-8"?>
<svg id="Layer_2" data-name="Layer 2" xmlns="http://www.w3.org/2000/svg" xmlns:xlink="http://www.w3.org/1999/xlink" viewBox="0 0 133.03 189.6">
  <defs>
    <style>
      .cls-1 {
        fill: url(#linear-gradient-4);
      }

      .cls-2 {
        fill: url(#linear-gradient-3);
      }

      .cls-3 {
        fill: url(#linear-gradient-2);
      }

      .cls-4 {
        fill: url(#linear-gradient);
      }

      .cls-5 {
        fill: #fff;
      }
    </style>
    <linearGradient id="linear-gradient" x1="9.3" y1="116.44" x2="55.69" y2="23.66" gradientUnits="userSpaceOnUse">
      <stop offset="0" stop-color="#eb1d25"/>
      <stop offset="1" stop-color="#b92125"/>
    </linearGradient>
    <linearGradient id="linear-gradient-2" x1="61.76" y1="117.57" x2="111.92" y2="43.23" xlink:href="#linear-gradient"/>
    <linearGradient id="linear-gradient-3" x1="71.29" y1="120.73" x2="120.1" y2="48.37" gradientUnits="userSpaceOnUse">
      <stop offset="0" stop-color="#9d1d1f"/>
      <stop offset="1" stop-color="#d32027"/>
    </linearGradient>
    <linearGradient id="linear-gradient-4" x1="0" y1="61.78" x2="52.36" y2="61.78" xlink:href="#linear-gradient-3"/>
  </defs>
  <g id="Layer_1-2" data-name="Layer 1">
    <g>
      <path class="cls-4" d="M103.72,27.99c-14.45,7.73-28.79,18.3-41.94,31.46-18.07,18.07-31.26,38.36-38.92,58.12C8.77,99.92,0,75.08,0,47.57c0-4.97.29-9.84.84-14.61,9.48-2.77,19.53-6.92,29.54-12.4C41.58,14.42,51.4,7.33,59.31,0c7.91,7.34,17.73,14.42,28.93,20.56,5.18,2.84,10.37,5.32,15.48,7.43Z"/>
      <path class="cls-3" d="M118.62,47.57c0,46.88-25.46,85.99-59.31,95.03-11.26-3-21.59-9.34-30.37-18.18,7.06-20.55,20.02-41.9,38.24-61.01,13.21-13.85,27.74-24.99,42.43-33.12,2.76,1,5.49,1.9,8.17,2.68.55,4.76.84,9.64.84,14.61Z"/>
      <path class="cls-5" d="M24.17,119.51c.73.83,1.46,1.65,2.21,2.44.34.37.69.73,1.04,1.08C48.08,57.49,113.29,25.61,113.29,25.61,47.91,58.32,27.51,111.22,24.17,119.51Z"/>
      <g>
        <path class="cls-5" d="M11.27,162.25l-2.63-.84c-.47-.14-.7-.39-.7-.74,0-.25.12-.45.38-.61.26-.16.59-.24,1.01-.24.5,0,.96.12,1.38.35.42.23.73.53.94.9l2.28-.67c-.28-.77-.85-1.41-1.7-1.95-.85-.53-1.82-.79-2.92-.79s-2.04.31-2.78.91c-.74.61-1.1,1.34-1.09,2.21,0,.66.2,1.22.64,1.71.44.48,1.02.84,1.75,1.06l2.69.83c.75.24,1.12.58,1.12,1.01,0,.27-.15.5-.45.7-.3.2-.69.29-1.18.29-.66,0-1.22-.16-1.68-.48-.47-.32-.8-.74-1.01-1.25l-2.36.73c.33.89.92,1.64,1.77,2.25.85.61,1.9.92,3.13.92v-.04c1.27,0,2.3-.31,3.1-.95.79-.63,1.19-1.42,1.19-2.37,0-.81-.25-1.43-.74-1.86-.5-.43-1.2-.79-2.11-1.07Z"/>
        <rect class="cls-5" x="15.46" y="157.84" width="2.51" height="10.45"/>
        <path class="cls-5" d="M16.71,154.44c-.36,0-.66.12-.92.37-.26.25-.38.55-.38.9s.12.66.38.91c.26.25.56.37.92.37s.66-.12.92-.37c.26-.25.38-.55.38-.91s-.12-.65-.38-.9c-.26-.25-.56-.37-.92-.37Z"/>
        <path class="cls-5" d="M27.8,167.5c.65-.52.98-1.25.98-2.19,0-1.12-.54-1.95-1.63-2.48h0c.84-.47,1.25-1.19,1.25-2.14,0-.85-.33-1.54-.98-2.06-.66-.52-1.52-.79-2.58-.79h-5.1v10.45h5.37c1.14,0,2.03-.26,2.68-.79ZM22.16,159.97h2.68c.33-.02.6.07.81.27.21.2.32.44.32.74s-.11.55-.32.77c-.21.21-.48.31-.81.31h-2.68v-2.09ZM22.16,164h2.95c.38,0,.67.09.88.29.21.2.31.46.31.79s-.11.58-.32.78-.5.31-.87.31h-2.95v-2.17Z"/>
        <polygon class="cls-5" points="37.98 166.05 32.54 166.05 32.54 164.06 37.23 164.06 37.23 161.9 32.54 161.9 32.54 160.08 37.99 160.08 37.99 157.84 30.12 157.84 30.12 168.29 37.98 168.29 37.98 166.05"/>
        <path class="cls-5" d="M41.93,164.86h1.79l2.23,3.43h2.85l-2.52-3.75c.68-.28,1.2-.71,1.57-1.28.37-.58.56-1.21.56-1.9,0-.93-.34-1.74-1.03-2.46-.69-.71-1.58-1.07-2.68-1.07h-5.23v10.45h2.45v-3.43ZM41.93,160.05h2.7c.38,0,.7.13.97.39.27.26.4.56.4.92s-.14.69-.42.94c-.28.26-.63.39-1.06.39h-2.6v-2.63Z"/>
        <path class="cls-5" d="M58.78,168.49c1.59,0,2.87-.46,3.85-1.38.98-.92,1.47-2.09,1.47-3.53v-1.23s-5.33,0-5.33,0v2.14h2.74c-.11.46-.38.87-.82,1.2-.44.34-1.01.5-1.71.5-1.04,0-1.86-.31-2.44-.93-.58-.62-.87-1.36-.87-2.23s.28-1.6.85-2.19c.57-.6,1.29-.9,2.17-.9,1.29,0,2.21.52,2.76,1.57l2.3-.66c-.35-.93-.97-1.7-1.86-2.32-.89-.62-1.97-.93-3.23-.93-1.56,0-2.87.52-3.92,1.56-1.06,1.04-1.58,2.33-1.58,3.88s.53,2.84,1.6,3.88c1.06,1.04,2.41,1.56,4.03,1.56Z"/>
        <path class="cls-5" d="M71.52,157.09h0c.32,0,.59-.12.82-.34.23-.23.34-.5.34-.82s-.12-.57-.34-.79c-.23-.23-.5-.34-.82-.34s-.59.11-.82.33c-.23.22-.34.49-.34.81s.11.59.34.82c.23.23.5.34.82.34Z"/>
        <path class="cls-5" d="M70.03,168.52c1.47,0,2.6-.42,3.42-1.25.82-.83,1.22-1.93,1.22-3.31v-6.11h-2.49v6.07c0,.69-.18,1.25-.55,1.68-.36.43-.9.64-1.6.64s-1.23-.21-1.6-.64c-.36-.43-.55-.99-.55-1.68v-6.07h-2.51v6.11c0,1.38.41,2.48,1.22,3.31.81.83,1.95,1.25,3.43,1.25Z"/>
        <path class="cls-5" d="M68.56,157.09h0c.32,0,.6-.12.83-.34.23-.23.35-.5.35-.82s-.12-.57-.35-.79c-.23-.23-.51-.34-.83-.34s-.59.11-.82.33c-.23.22-.34.49-.34.81s.11.59.34.82c.23.23.5.34.82.34Z"/>
        <polygon class="cls-5" points="82.32 168.29 86.4 157.84 83.66 157.84 80.96 165.11 78.27 157.84 75.52 157.84 79.6 168.29 82.32 168.29"/>
        <polygon class="cls-5" points="95.14 166.05 89.7 166.05 89.7 164.06 94.39 164.06 94.39 161.9 89.7 161.9 89.7 160.08 95.15 160.08 95.15 157.84 87.28 157.84 87.28 168.29 95.14 168.29 95.14 166.05"/>
        <polygon class="cls-5" points="99.12 162.31 103.82 168.29 105.84 168.29 105.84 157.84 103.36 157.84 103.36 163.83 98.66 157.84 96.64 157.84 96.64 168.29 99.12 168.29 99.12 162.31"/>
        <polygon class="cls-5" points="110.11 157.84 107.63 157.84 107.63 168.29 115.02 168.29 115.02 166.02 110.11 166.02 110.11 157.84"/>
        <path class="cls-5" d="M117.46,154.44c-.36,0-.66.12-.92.37-.26.25-.38.55-.38.9s.12.66.38.91c.26.25.56.37.92.37s.66-.12.92-.37c.26-.25.38-.55.38-.91s-.12-.65-.38-.9c-.26-.25-.56-.37-.92-.37Z"/>
        <rect class="cls-5" x="116.21" y="157.84" width="2.51" height="10.45"/>
        <polygon class="cls-5" points="125.91 162.35 129.91 157.84 126.77 157.84 122.98 162.38 122.98 157.84 120.5 157.84 120.5 168.29 122.98 168.29 122.98 165.65 124.28 164.19 127.2 168.29 130.21 168.29 125.91 162.35"/>
        <path class="cls-5" d="M29.52,180.74h0c.84-.47,1.25-1.19,1.25-2.14,0-.85-.33-1.54-.98-2.06-.66-.52-1.52-.79-2.58-.79h-5.1v10.45h5.37c1.14,0,2.03-.26,2.68-.79.65-.52.98-1.25.98-2.19,0-1.12-.54-1.95-1.63-2.48ZM24.53,177.89h2.68c.33-.02.6.07.81.27.21.2.32.44.32.74s-.11.55-.32.77c-.21.21-.48.31-.81.31h-2.68v-2.09ZM28.36,183.78c-.21.2-.5.31-.87.31h-2.95v-2.17h2.95c.38,0,.67.09.88.29.21.2.31.46.31.79s-.11.58-.32.78Z"/>
        <path class="cls-5" d="M35.31,175.75l-3.86,10.45h2.55l.74-2h4.42l.73,2h2.55l-3.86-10.45h-3.26ZM35.53,182.04l1.42-3.92,1.41,3.92h-2.84Z"/>
        <path class="cls-5" d="M50.82,181.24c-.5-.43-1.2-.79-2.11-1.07l-2.63-.84c-.47-.14-.7-.39-.7-.74,0-.25.12-.45.38-.61s.59-.24,1.01-.24c.5,0,.96.12,1.38.35.42.23.73.53.94.9l2.28-.67c-.28-.77-.85-1.41-1.7-1.95-.85-.53-1.82-.79-2.92-.79s-2.04.31-2.78.91c-.74.61-1.1,1.34-1.09,2.21,0,.66.2,1.22.64,1.71.44.48,1.02.84,1.75,1.06l2.69.83c.75.24,1.12.58,1.12,1.01,0,.27-.15.5-.45.7s-.69.29-1.18.29c-.66,0-1.22-.16-1.68-.48-.47-.32-.8-.74-1.01-1.25l-2.36.73c.29.78.79,1.46,1.49,2.04.7.58,1.56.94,2.57,1.07l-.39,1.22c.26-.08.52-.08.8,0,.28.08.42.23.42.45,0,.26-.19.39-.57.39-.38,0-.7-.09-.97-.28l-.26.88c.44.35.98.52,1.61.52.55,0,.98-.12,1.31-.37.33-.25.49-.58.49-1.01,0-.28-.09-.52-.29-.75-.2-.23-.44-.36-.72-.42l.21-.63c1.06-.13,1.9-.5,2.54-1.1.63-.61.95-1.33.95-2.17v-.05c0-.81-.26-1.43-.75-1.86Z"/>
        <path class="cls-5" d="M66.4,175.75l-3.84,10.39-4.25-5.87,4-4.51h-3.13l-3.79,4.54v-4.54h-2.48v10.45h2.48v-2.64l1.3-1.47,2.92,4.1h5.48l.74-2h4.42l.73,2h2.55l-3.86-10.45h-3.26ZM66.61,182.04l1.42-3.92,1.41,3.92h-2.84Z"/>
        <polygon class="cls-5" points="81.13 181.74 76.43 175.75 74.42 175.75 74.42 186.21 76.9 186.21 76.9 180.22 81.6 186.21 83.61 186.21 83.61 175.75 81.13 175.75 81.13 181.74"/>
        <polygon class="cls-5" points="87.88 175.75 85.4 175.75 85.4 186.21 92.8 186.21 92.8 183.94 87.88 183.94 87.88 175.75"/>
        <rect class="cls-5" x="93.98" y="175.75" width="2.51" height="10.45"/>
        <path class="cls-5" d="M103.42,173.48c-.54,0-.81-.29-.81-.88h-1.81c0,.66.22,1.22.66,1.65.44.44,1.09.66,1.95.66h0c.86,0,1.51-.23,1.95-.66.44-.44.66-.98.66-1.65h-1.81c0,.59-.27.88-.81.88Z"/>
        <path class="cls-5" d="M103.47,182.41h2.74c-.11.46-.38.87-.82,1.2-.44.34-1.01.5-1.71.5-1.04,0-1.86-.31-2.44-.93-.58-.62-.88-1.36-.88-2.23s.28-1.6.85-2.19c.57-.6,1.29-.9,2.17-.9,1.29,0,2.21.52,2.76,1.57l2.3-.66c-.35-.93-.97-1.7-1.86-2.32-.89-.62-1.97-.93-3.23-.93-1.56,0-2.87.52-3.92,1.56-1.06,1.04-1.58,2.33-1.58,3.88s.53,2.84,1.6,3.88c1.06,1.04,2.41,1.56,4.03,1.56s2.87-.46,3.85-1.38c.98-.92,1.47-2.09,1.47-3.53v-1.23s-5.33,0-5.33,0v2.14Z"/>
        <rect class="cls-5" x="110.2" y="175.75" width="2.51" height="10.45"/>
      </g>
      <path class="cls-5" d="M113.99,25.29l19.01-9.11c.06-.13.04-.23-.12-.26l-8.24,1.84s6.86-9.08-11.65-11.49c0,0,5.2,2.19,6.29,7.98,1.46,7.74-5.29,11.04-5.29,11.04Z"/>
      <path class="cls-2" d="M117.78,32.96c-2.68-.78-5.41-1.68-8.17-2.68,0,0,0,0,0,0-1.96,11.88-12.33,59.66-50.3,112.31,0,0,0,0,0,0,33.85-9.03,59.31-48.14,59.31-95.03,0-4.97-.29-9.84-.84-14.61Z"/>
      <path class="cls-1" d="M22.86,117.57C9.1,63.2,38.68,21.59,52.36,5.98c-6.47,5.18-13.86,10.13-21.98,14.58-10.01,5.49-20.07,9.64-29.54,12.4-.55,4.76-.84,9.64-.84,14.61,0,27.51,8.77,52.35,22.86,70.01,0,0,0,0,0,0Z"/>
    </g>
  </g>
</svg>