<?xml version="1.0" encoding="UTF-8"?>
<svg id="Layer_2" data-name="Layer 2" xmlns="http://www.w3.org/2000/svg" viewBox="0 0 64.89 64.89">
  <defs>
    <style>
      .cls-1 {
        fill: #fff;
      }
    </style>
  </defs>
  <g id="Layer_1-2" data-name="Layer 1">
    <g>
      <path class="cls-1" d="M62.36,19.7c-.21-.1-1.06-.44-1.21-.44h-19.2v-8.05c2.99-1.26,4.68-4.2,3.61-7.41-.69-2.06-2.53-3.4-4.62-3.81h-1.52l-2.01.71c-4.24,2.43-3.73,8.51.75,10.38v8.17c-3.8,0-7.61,0-11.41,0,.06,3.43.37,6.4,4.06,7.79,1.66.63,4.61.02,4.17,2.78-.43,2.72-5.33.99-6.84.14-4.4-2.48-5.11-6.02-5.19-10.71H3.88c-2.03.34-3.36,1.73-3.88,3.68v38.27c.51,1.93,1.75,3.17,3.68,3.68h57.54c1.93-.51,3.17-1.75,3.68-3.68V22.94c-.45-1.45-1.11-2.58-2.53-3.23ZM28.71,57.29H9.56c-.85-.05-1.69-.75-1.82-1.6-.11-.68-.06-2.3,0-3.03.27-3.68,2.53-7.39,5.83-9.07v-.18c-3.57-3.72-2.2-10.06,2.49-12.09,6.84-2.95,13.39,4.52,9.6,10.87-.16.27-1,1.3-.94,1.4,3.36,1.7,5.58,5.45,5.83,9.19.11,1.64.4,4.34-1.84,4.51ZM39.76,3.83c2.53-.53,3.18,3.26.83,3.74-2.49.51-3.22-3.25-.83-3.74ZM51.65,53.48h-15.58c-2.07-.57-2.14-3.11-.11-3.78l15.81-.02c2.18.53,2.1,3.41-.12,3.8ZM55.45,45.88h-19.51c-2.06-.54-2.15-3.15-.11-3.78l19.73-.02c2.18.52,2.1,3.41-.12,3.8ZM55.45,38.28h-19.39c-2.07-.53-2.13-3.13-.11-3.78l19.61-.02c2.18.52,2.1,3.41-.12,3.8Z"/>
      <path class="cls-1" d="M26.74,19.26c-.03-1.6.02-3.21,0-4.82,1.78,2.29,5.08.22,3.29-2.22-.55-.75-3.04-3.2-3.8-3.8-1.33-1.05-2.87-.6-3.29,1.03.02,3.27-.07,6.54-.01,9.81,1.27,0,2.54,0,3.8,0Z"/>
      <path class="cls-1" d="M15.46,46.83c-2.37,1.28-3.95,3.94-3.93,6.66h15.21c-.06-5.76-6.12-9.45-11.28-6.66Z"/>
      <path class="cls-1" d="M19.57,42.06c4.93-.51,4.17-8.23-.97-7.56-4.8.63-4.03,8.07.97,7.56Z"/>
    </g>
  </g>
</svg>