<?xml version="1.0" encoding="UTF-8"?>
<svg id="Layer_2" data-name="Layer 2" xmlns="http://www.w3.org/2000/svg" xmlns:xlink="http://www.w3.org/1999/xlink" viewBox="0 0 144.53 40.78">
  <defs>
    <style>
      .cls-1 {
        fill: #241e33;
      }

      .cls-2 {
        fill: url(#_ÂÁ_Ï_ÌÌ_È_ËÂÌÚ_2-2);
      }

      .cls-3 {
        fill: url(#_ÂÁ_Ï_ÌÌ_È_ËÂÌÚ_3);
      }

      .cls-4 {
        fill: url(#_ÂÁ_Ï_ÌÌ_È_ËÂÌÚ_2);
      }

      .cls-5 {
        fill: #fff;
      }

      .cls-6 {
        fill: #3c354f;
      }
    </style>
    <radialGradient id="_ÂÁ_Ï_ÌÌ_È_ËÂÌÚ_3" data-name="¡ÂÁ˚ÏˇÌÌ˚È „‡‰ËÂÌÚ 3" cx="2456.43" cy="-1901.16" fx="2456.43" fy="-1901.16" r="341.58" gradientTransform="translate(-205.01 194.85) scale(.12 .1)" gradientUnits="userSpaceOnUse">
      <stop offset="0" stop-color="#241883"/>
      <stop offset=".35" stop-color="#241a60"/>
      <stop offset=".75" stop-color="#241d3f"/>
      <stop offset=".97" stop-color="#241e33"/>
    </radialGradient>
    <linearGradient id="_ÂÁ_Ï_ÌÌ_È_ËÂÌÚ_2" data-name="¡ÂÁ˚ÏˇÌÌ˚È „‡‰ËÂÌÚ 2" x1="1.6" y1="20.39" x2="142.93" y2="20.39" gradientUnits="userSpaceOnUse">
      <stop offset="0" stop-color="#d730c4"/>
      <stop offset=".23" stop-color="#b048d4"/>
      <stop offset=".57" stop-color="#7a69eb"/>
      <stop offset=".83" stop-color="#597ef9"/>
      <stop offset=".97" stop-color="#4d86ff"/>
    </linearGradient>
    <linearGradient id="_ÂÁ_Ï_ÌÌ_È_ËÂÌÚ_2-2" data-name="¡ÂÁ˚ÏˇÌÌ˚È „‡‰ËÂÌÚ 2" x1="37.46" y1="20.39" x2="139.99" y2="20.39" xlink:href="#_ÂÁ_Ï_ÌÌ_È_ËÂÌÚ_2"/>
  </defs>
  <g id="Layer_1-2" data-name="Layer 1">
    <g>
      <polygon class="cls-6" points="136.32 0 8.21 0 .32 10.48 0 10.9 0 29.87 8.21 40.78 136.32 40.78 144.2 30.3 144.53 29.87 144.53 10.9 136.32 0"/>
      <polygon class="cls-1" points="9.23 38.72 2.05 29.19 2.05 11.59 9.23 2.05 135.29 2.05 142.47 11.59 142.47 29.19 135.29 38.72 9.23 38.72"/>
      <path class="cls-3" d="M43.13,2.05c1.92,15.4,21.75,27.51,45.94,27.51s44.03-12.11,45.94-27.51H43.13Z"/>
      <path class="cls-4" d="M135.52,1.6H9.01L1.6,11.44v17.9l7.41,9.84h126.51l7.41-9.84V11.44l-7.41-9.84ZM142.01,29.03l-6.95,9.23H42.72l-6.86-9.11V11.62l6.86-9.11h92.35l6.95,9.23v17.29Z"/>
      <path class="cls-2" d="M43.89,3.92l-6.43,8.44v16.07l6.43,8.44h89.58l6.51-8.55v-15.84l-6.51-8.55H43.89ZM139.38,28.11l-6.21,8.15H44.19l-6.12-8.03v-15.66l6.12-8.03h88.98l6.21,8.15v15.43Z"/>
      <g>
        <path class="cls-5" d="M21.6,9.69l-2.99,9.36-2.07-3.95c-2.98,1.09-5.44,3.74-6.36,6.79-1.29,4.31.18,8.81,3.67,11.57.18.14.54.33.66.46.06.06,0,.06-.05.05-.14-.02-.41-.13-.56-.19-2.56-.99-4.91-3.08-6.23-5.48-3.69-6.69-.52-15.03,6.6-17.6l-1.92-3.95,9.25,2.94Z"/>
        <path class="cls-5" d="M28.48,9.66c3.98,3.9,4.83,10.1,2.06,14.94-1.44,2.52-3.8,4.5-6.53,5.48l1.92,3.87-.08.08-9.18-3.02,3-9.28,2.07,3.95c.12.04,1.17-.5,1.36-.61,2.53-1.41,4.49-3.94,5.16-6.77,1.07-4.51-.79-8.99-4.57-11.55,1.78.59,3.46,1.59,4.79,2.91Z"/>
      </g>
      <g>
        <path class="cls-5" d="M73.17,12.25l-5.64,8.86v5.5h-1.64v-5.5l-5.63-8.86h1.86l4.59,7.33,4.6-7.33h1.85Z"/>
        <path class="cls-5" d="M73.73,25.41c-1-.98-1.5-2.29-1.5-3.92,0-1.53.49-2.8,1.46-3.82s2.22-1.53,3.75-1.53,2.84.48,3.75,1.45c.91.97,1.37,2.19,1.37,3.66,0,.31,0,.56-.04.74h-8.73c.07,1.04.45,1.88,1.13,2.52s1.58.96,2.7.96c.83,0,1.53-.19,2.1-.56s.99-.84,1.26-1.41l1.45.43c-.38.83-.98,1.53-1.8,2.1-.82.57-1.83.85-3.03.85-1.59,0-2.88-.49-3.88-1.47ZM80.99,20.8c-.07-.98-.42-1.77-1.05-2.37s-1.47-.9-2.52-.9-1.85.32-2.52.96-1.04,1.42-1.11,2.33l7.21-.02Z"/>
        <path class="cls-5" d="M90.33,16.14c1.27,0,2.27.4,3,1.19.73.79,1.1,1.88,1.1,3.27v6.01h-1.58v-5.79c0-1.01-.25-1.8-.75-2.36-.5-.56-1.21-.84-2.13-.84-1.03,0-1.86.35-2.49,1.06s-.95,1.64-.95,2.79v5.14h-1.57v-10.23h1.57v1.8c.38-.61.9-1.11,1.55-1.49s1.4-.57,2.25-.57h0Z"/>
        <path class="cls-5" d="M98.25,14.49c-.31,0-.57-.1-.78-.31-.21-.21-.31-.47-.31-.78,0-.29.11-.54.32-.74.21-.2.47-.3.77-.3s.56.1.77.3.32.44.32.73c0,.31-.1.57-.3.78-.2.21-.46.31-.77.31h-.02ZM97.47,16.39h1.57v10.23h-1.57v-10.23Z"/>
        <path class="cls-5" d="M102.22,11.64h1.57v14.96h-1.57v-14.96Z"/>
        <path class="cls-5" d="M107.72,25.41c-1-.98-1.5-2.29-1.5-3.92,0-1.53.49-2.8,1.46-3.82.97-1.02,2.22-1.53,3.75-1.53s2.84.48,3.75,1.45,1.37,2.19,1.37,3.66c0,.31,0,.56-.04.74h-8.73c.07,1.04.45,1.88,1.13,2.52s1.58.96,2.7.96c.83,0,1.53-.19,2.1-.56.57-.37.99-.84,1.26-1.41l1.45.43c-.38.83-.98,1.53-1.8,2.1-.82.57-1.83.85-3.03.85-1.59,0-2.88-.49-3.88-1.47ZM114.97,20.8c-.07-.98-.42-1.77-1.05-2.37-.63-.6-1.47-.9-2.52-.9s-1.85.32-2.52.96c-.67.64-1.04,1.42-1.11,2.33l7.21-.02Z"/>
      </g>
    </g>
  </g>
</svg>