<?xml version="1.0" encoding="UTF-8"?>
<svg id="Layer_2" data-name="Layer 2" xmlns="http://www.w3.org/2000/svg" xmlns:xlink="http://www.w3.org/1999/xlink" viewBox="0 0 405.85 179.59">
  <defs>
    <style>
      .cls-1 {
        fill: url(#linear-gradient);
      }
    </style>
    <linearGradient id="linear-gradient" x1="-15.75" y1="-44.62" x2="390.1" y2="-44.62" gradientTransform="translate(15.75 134.42)" gradientUnits="userSpaceOnUse">
      <stop offset=".1" stop-color="#d730c4"/>
      <stop offset=".3" stop-color="#b048d4"/>
      <stop offset=".61" stop-color="#7a69eb"/>
      <stop offset=".84" stop-color="#597ef9"/>
      <stop offset=".97" stop-color="#4d86ff"/>
    </linearGradient>
  </defs>
  <g id="Layer_1-2" data-name="Layer 1">
    <g>
      <g>
        <path d="M89.8,164.62c1.33,0,2.66-.04,3.97-.11v-4.09c-1.32.07-2.64.11-3.97.11-39.01,0-70.74-31.74-70.74-70.74,0-1.77.07-3.52.19-5.25,2.06-.48,3.6-2.32,3.6-4.52,0-2.56-2.08-4.64-4.64-4.64s-4.64,2.08-4.64,4.64c0,1.44.65,2.72,1.68,3.57-.17,2.05-.26,4.11-.26,6.2,0,41.26,33.57,74.83,74.83,74.83ZM18.2,77.9c1.17,0,2.12.95,2.12,2.12s-.95,2.12-2.12,2.12-2.12-.95-2.12-2.12.95-2.12,2.12-2.12Z"/>
        <path d="M89.8,175.51c-22.89,0-44.42-8.92-60.61-25.1-16.19-16.19-25.1-37.71-25.1-60.61S13,45.38,29.19,29.19c1.53-1.53,3.12-2.99,4.74-4.39.72.46,1.57.73,2.48.73,2.56,0,4.64-2.08,4.64-4.64s-2.08-4.64-4.64-4.64-4.64,2.08-4.64,4.64c0,.13,0,.26.02.39C12.35,37.73,0,62.32,0,89.8c0,49.59,40.2,89.8,89.8,89.8,10.16,0,19.92-1.69,29.03-4.8l-1.79-3.69c-8.67,2.89-17.84,4.4-27.24,4.4ZM36.41,18.76c1.17,0,2.12.95,2.12,2.12s-.95,2.12-2.12,2.12-2.12-.95-2.12-2.12.95-2.12,2.12-2.12Z"/>
        <path d="M147.47,48.88l3.65-1.91c-13.54-19.33-35.98-32-61.32-32-21.86,0-41.55,9.42-55.24,24.41l4.24,1.44c12.88-13.41,30.98-21.77,51-21.77,23.77,0,44.84,11.79,57.67,29.82Z"/>
        <path d="M174.6,54.16c0-2.53-2.02-4.58-4.54-4.64C155.3,20.15,124.9,0,89.8,0c-.54,0-1.08.01-1.62.02l1.02,4.07c.2,0,.4,0,.6,0,22.9,0,44.42,8.92,60.61,25.1,6.55,6.55,11.9,13.99,15.96,22.03-.66.8-1.05,1.82-1.05,2.94,0,2.56,2.08,4.64,4.64,4.64s4.64-2.08,4.64-4.64ZM167.83,54.16c0-1.17.95-2.12,2.12-2.12s2.12.95,2.12,2.12-.95,2.12-2.12,2.12-2.12-.95-2.12-2.12Z"/>
        <path d="M130.71,125.14c-2.56,0-4.64,2.08-4.64,4.64,0,.7.16,1.36.44,1.96-9.82,8.6-22.66,13.83-36.71,13.83-30.75,0-55.77-25.02-55.77-55.77s25.02-55.77,55.77-55.77c5.48,0,10.78.81,15.79,2.29l1.5-3.83c-5.47-1.65-11.28-2.55-17.28-2.55-33,0-59.85,26.85-59.85,59.86s26.85,59.85,59.85,59.85c15.34,0,29.34-5.81,39.94-15.33.31.07.64.1.97.1,2.57,0,4.64-2.08,4.64-4.64s-2.08-4.64-4.64-4.64ZM130.71,131.9c-1.17,0-2.12-.95-2.12-2.12s.95-2.12,2.12-2.12,2.12.95,2.12,2.12-.95,2.12-2.12,2.12Z"/>
        <path d="M85.35,97.18h-18.2c-.52,0-.8.24-.8.76v3.29c0,.52.28.76.8.76h19.21c4.19,0,6.14-2.29,6.14-5.65v-2.77c0-3.81-2.08-5.96-6.07-5.96h-13c-1.21,0-1.8-.66-1.8-1.94v-1.18c0-1.21.52-1.94,1.84-1.94h17.37c.52,0,.76-.24.76-.76v-3.29c0-.52-.24-.76-.76-.76h-18.37c-4.19,0-6.14,2.29-6.14,5.65v2.53c0,3.81,2.08,5.96,6.07,5.96h13c1.21,0,1.8.66,1.8,1.94v1.42c0,1.21-.52,1.94-1.84,1.94Z"/>
        <path d="M96.44,101.24c0,.52.28.76.8.76h3.74c.52,0,.76-.24.76-.76v-22.74c0-.52-.24-.76-.76-.76h-3.74c-.52,0-.8.24-.8.76v22.74Z"/>
        <path d="M97.38,75.86h3.4c.52,0,.76-.21.76-.62v-3.29c0-.42-.24-.62-.76-.62h-3.4c-.52,0-.76.21-.76.62v3.29c0,.42.24.62.76.62Z"/>
        <path d="M133.95,85.12v-1.66c0-3.85-1.8-5.72-6.59-5.72h-19.97c-.69,0-1.04.35-1.04,1.04v22.19c0,.69.35,1.04,1.04,1.04h20.59c4.61,0,6.14-2.32,6.14-6v-2.01c0-2.05-.76-3.54-2.39-4.47,1.46-.97,2.22-2.43,2.22-4.4ZM111.66,82.97c0-.31.14-.45.45-.45h14.18c1.8,0,2.57.66,2.57,2.08v1.18c0,1.35-.69,2.05-2.98,2.05h-14.21v-4.85ZM128.89,95.1c0,1.46-.73,2.11-2.57,2.11h-14.21c-.31,0-.45-.14-.45-.45v-5.17h14.21c2.29,0,3.02.76,3.02,2.18v1.32Z"/>
        <path d="M162.9,77.74h-15.25c-7,0-9.71,2.5-9.71,9.15v5.96c0,6.66,2.7,9.15,9.71,9.15h15.25c.52,0,.8-.24.8-.76v-3.29c0-.52-.28-.76-.8-.76h-15.15c-3.61,0-4.61-1.07-4.61-4.71v-.59h19.59c.52,0,.76-.24.76-.76v-2.74c0-.52-.24-.76-.76-.76h-19.59v-.35c0-3.64,1.01-4.71,4.61-4.71h15.15c.52,0,.8-.24.8-.76v-3.29c0-.52-.28-.76-.8-.76Z"/>
        <path d="M189.63,93.79c3.64-.66,5.17-2.98,5.17-6.93v-1.98c0-4.68-2.15-7.14-7.45-7.14h-18.62c-.69,0-1.04.35-1.04,1.04v22.46c0,.52.28.76.8.76h3.74c.52,0,.76-.24.76-.76v-6.9h11.2l5.48,7.21c.21.31.38.45.97.45h4.47c.62,0,.66-.62.45-.87l-5.93-7.35ZM189.49,87.03c0,2.08-.87,3.09-3.22,3.09h-13.28v-7.21c0-.28.14-.42.45-.42h12.83c2.36,0,3.22,1.01,3.22,3.09v1.46Z"/>
        <path d="M244.44,77.74h-3.71c-2.05,0-2.74.45-3.67,2.63l-7.21,16.64c-.1.24-.24.31-.49.31h-.42c-.24,0-.38-.07-.49-.31l-7.21-16.64c-.94-2.18-1.63-2.63-3.71-2.63h-3.78c-2.46,0-3.09.97-3.09,3.61v19.9c0,.52.28.76.8.76h3.54c.52,0,.76-.24.76-.76v-18.1c0-.24.07-.35.28-.35h.31c.24,0,.38.07.45.28l7,15.53c1.14,2.5,2.11,3.4,4.44,3.4h1.66c2.32,0,3.29-.9,4.44-3.4l7-15.53c.07-.21.21-.28.45-.28h.31c.21,0,.28.1.28.35v18.1c0,.52.24.76.76.76h3.54c.52,0,.8-.24.8-.76v-19.9c0-2.63-.62-3.61-3.05-3.61Z"/>
        <path d="M271.45,80.37c-1.14-2.08-2.22-2.63-3.99-2.63h-2.05c-1.46,0-2.5.55-3.64,2.63l-11.37,20.84c-.24.45-.14.8.45.8h4.51c.42,0,.62-.1.8-.45l2.39-4.47h16.29l2.46,4.47c.17.35.35.45.8.45h4.4c.55,0,.66-.35.42-.8l-11.48-20.84ZM260.74,93.06l5.44-10.16c.1-.17.21-.24.38-.24h.21c.17,0,.28.07.38.24l5.51,10.16h-11.93Z"/>
        <path d="M309.55,77.74h-15.64c-7,0-9.71,2.5-9.71,9.15v5.96c0,6.66,2.7,9.15,9.71,9.15h15.64c.52,0,.76-.24.76-.76v-3.4c0-.52-.24-.76-.76-.76h-15.43c-3.57,0-4.61-1.07-4.61-4.75v-4.92c0-3.67,1.04-4.71,4.61-4.71h15.43c.52,0,.76-.28.76-.8v-3.4c0-.52-.24-.76-.76-.76Z"/>
        <path d="M338.71,77.74h-15.25c-7,0-9.71,2.5-9.71,9.15v5.96c0,6.66,2.7,9.15,9.71,9.15h15.25c.52,0,.8-.24.8-.76v-3.29c0-.52-.28-.76-.8-.76h-15.15c-3.61,0-4.61-1.07-4.61-4.71v-.59h19.59c.52,0,.76-.24.76-.76v-2.74c0-.52-.24-.76-.76-.76h-19.59v-.35c0-3.64,1.01-4.71,4.61-4.71h15.15c.52,0,.8-.24.8-.76v-3.29c0-.52-.28-.76-.8-.76Z"/>
        <path d="M365.44,93.79c3.64-.66,5.17-2.98,5.17-6.93v-1.98c0-4.68-2.15-7.14-7.45-7.14h-18.62c-.69,0-1.04.35-1.04,1.04v22.46c0,.52.28.76.8.76h3.74c.52,0,.76-.24.76-.76v-6.9h11.2l5.48,7.21c.21.31.38.45.97.45h4.47c.62,0,.66-.62.45-.87l-5.93-7.35ZM365.3,87.03c0,2.08-.87,3.09-3.22,3.09h-13.28v-7.21c0-.28.14-.42.45-.42h12.83c2.36,0,3.22,1.01,3.22,3.09v1.46Z"/>
        <path d="M405.73,101.21l-11.48-20.84c-1.14-2.08-2.22-2.63-3.99-2.63h-2.05c-1.46,0-2.5.55-3.64,2.63l-11.37,20.84c-.24.45-.14.8.45.8h4.51c.42,0,.62-.1.8-.45l2.39-4.47h16.29l2.46,4.47c.17.35.35.45.8.45h4.4c.55,0,.66-.35.42-.8ZM383.54,93.06l5.44-10.16c.1-.17.21-.24.38-.24h.21c.17,0,.28.07.38.24l5.51,10.16h-11.93Z"/>
      </g>
      <g>
        <path class="cls-1" d="M89.8,164.62c1.33,0,2.66-.04,3.97-.11v-4.09c-1.32.07-2.64.11-3.97.11-39.01,0-70.74-31.74-70.74-70.74,0-1.77.07-3.52.19-5.25,2.06-.48,3.6-2.32,3.6-4.52,0-2.56-2.08-4.64-4.64-4.64s-4.64,2.08-4.64,4.64c0,1.44.65,2.72,1.68,3.57-.17,2.05-.26,4.11-.26,6.2,0,41.26,33.57,74.83,74.83,74.83ZM18.2,77.9c1.17,0,2.12.95,2.12,2.12s-.95,2.12-2.12,2.12-2.12-.95-2.12-2.12.95-2.12,2.12-2.12Z"/>
        <path class="cls-1" d="M89.8,175.51c-22.89,0-44.42-8.92-60.61-25.1-16.19-16.19-25.1-37.71-25.1-60.61S13,45.38,29.19,29.19c1.53-1.53,3.12-2.99,4.74-4.39.72.46,1.57.73,2.48.73,2.56,0,4.64-2.08,4.64-4.64s-2.08-4.64-4.64-4.64-4.64,2.08-4.64,4.64c0,.13,0,.26.02.39C12.35,37.73,0,62.32,0,89.8c0,49.59,40.2,89.8,89.8,89.8,10.16,0,19.92-1.69,29.03-4.8l-1.79-3.69c-8.67,2.89-17.84,4.4-27.24,4.4ZM36.41,18.76c1.17,0,2.12.95,2.12,2.12s-.95,2.12-2.12,2.12-2.12-.95-2.12-2.12.95-2.12,2.12-2.12Z"/>
        <path class="cls-1" d="M147.47,48.88l3.65-1.91c-13.54-19.33-35.98-32-61.32-32-21.86,0-41.55,9.42-55.24,24.41l4.24,1.44c12.88-13.41,30.98-21.77,51-21.77,23.77,0,44.84,11.79,57.67,29.82Z"/>
        <path class="cls-1" d="M174.6,54.16c0-2.53-2.02-4.58-4.54-4.64C155.3,20.15,124.9,0,89.8,0c-.54,0-1.08.01-1.62.02l1.02,4.07c.2,0,.4,0,.6,0,22.9,0,44.42,8.92,60.61,25.1,6.55,6.55,11.9,13.99,15.96,22.03-.66.8-1.05,1.82-1.05,2.94,0,2.56,2.08,4.64,4.64,4.64s4.64-2.08,4.64-4.64ZM167.83,54.16c0-1.17.95-2.12,2.12-2.12s2.12.95,2.12,2.12-.95,2.12-2.12,2.12-2.12-.95-2.12-2.12Z"/>
        <path class="cls-1" d="M130.71,125.14c-2.56,0-4.64,2.08-4.64,4.64,0,.7.16,1.36.44,1.96-9.82,8.6-22.66,13.83-36.71,13.83-30.75,0-55.77-25.02-55.77-55.77s25.02-55.77,55.77-55.77c5.48,0,10.78.81,15.79,2.29l1.5-3.83c-5.47-1.65-11.28-2.55-17.28-2.55-33,0-59.85,26.85-59.85,59.86s26.85,59.85,59.85,59.85c15.34,0,29.34-5.81,39.94-15.33.31.07.64.1.97.1,2.57,0,4.64-2.08,4.64-4.64s-2.08-4.64-4.64-4.64ZM130.71,131.9c-1.17,0-2.12-.95-2.12-2.12s.95-2.12,2.12-2.12,2.12.95,2.12,2.12-.95,2.12-2.12,2.12Z"/>
        <path class="cls-1" d="M85.35,97.18h-18.2c-.52,0-.8.24-.8.76v3.29c0,.52.28.76.8.76h19.21c4.19,0,6.14-2.29,6.14-5.65v-2.77c0-3.81-2.08-5.96-6.07-5.96h-13c-1.21,0-1.8-.66-1.8-1.94v-1.18c0-1.21.52-1.94,1.84-1.94h17.37c.52,0,.76-.24.76-.76v-3.29c0-.52-.24-.76-.76-.76h-18.37c-4.19,0-6.14,2.29-6.14,5.65v2.53c0,3.81,2.08,5.96,6.07,5.96h13c1.21,0,1.8.66,1.8,1.94v1.42c0,1.21-.52,1.94-1.84,1.94Z"/>
        <path class="cls-1" d="M96.44,101.24c0,.52.28.76.8.76h3.74c.52,0,.76-.24.76-.76v-22.74c0-.52-.24-.76-.76-.76h-3.74c-.52,0-.8.24-.8.76v22.74Z"/>
        <path class="cls-1" d="M97.38,75.86h3.4c.52,0,.76-.21.76-.62v-3.29c0-.42-.24-.62-.76-.62h-3.4c-.52,0-.76.21-.76.62v3.29c0,.42.24.62.76.62Z"/>
        <path class="cls-1" d="M133.95,85.12v-1.66c0-3.85-1.8-5.72-6.59-5.72h-19.97c-.69,0-1.04.35-1.04,1.04v22.19c0,.69.35,1.04,1.04,1.04h20.59c4.61,0,6.14-2.32,6.14-6v-2.01c0-2.05-.76-3.54-2.39-4.47,1.46-.97,2.22-2.43,2.22-4.4ZM111.66,82.97c0-.31.14-.45.45-.45h14.18c1.8,0,2.57.66,2.57,2.08v1.18c0,1.35-.69,2.05-2.98,2.05h-14.21v-4.85ZM128.89,95.1c0,1.46-.73,2.11-2.57,2.11h-14.21c-.31,0-.45-.14-.45-.45v-5.17h14.21c2.29,0,3.02.76,3.02,2.18v1.32Z"/>
        <path class="cls-1" d="M162.9,77.74h-15.25c-7,0-9.71,2.5-9.71,9.15v5.96c0,6.66,2.7,9.15,9.71,9.15h15.25c.52,0,.8-.24.8-.76v-3.29c0-.52-.28-.76-.8-.76h-15.15c-3.61,0-4.61-1.07-4.61-4.71v-.59h19.59c.52,0,.76-.24.76-.76v-2.74c0-.52-.24-.76-.76-.76h-19.59v-.35c0-3.64,1.01-4.71,4.61-4.71h15.15c.52,0,.8-.24.8-.76v-3.29c0-.52-.28-.76-.8-.76Z"/>
        <path class="cls-1" d="M189.63,93.79c3.64-.66,5.17-2.98,5.17-6.93v-1.98c0-4.68-2.15-7.14-7.45-7.14h-18.62c-.69,0-1.04.35-1.04,1.04v22.46c0,.52.28.76.8.76h3.74c.52,0,.76-.24.76-.76v-6.9h11.2l5.48,7.21c.21.31.38.45.97.45h4.47c.62,0,.66-.62.45-.87l-5.93-7.35ZM189.49,87.03c0,2.08-.87,3.09-3.22,3.09h-13.28v-7.21c0-.28.14-.42.45-.42h12.83c2.36,0,3.22,1.01,3.22,3.09v1.46Z"/>
        <path class="cls-1" d="M244.44,77.74h-3.71c-2.05,0-2.74.45-3.67,2.63l-7.21,16.64c-.1.24-.24.31-.49.31h-.42c-.24,0-.38-.07-.49-.31l-7.21-16.64c-.94-2.18-1.63-2.63-3.71-2.63h-3.78c-2.46,0-3.09.97-3.09,3.61v19.9c0,.52.28.76.8.76h3.54c.52,0,.76-.24.76-.76v-18.1c0-.24.07-.35.28-.35h.31c.24,0,.38.07.45.28l7,15.53c1.14,2.5,2.11,3.4,4.44,3.4h1.66c2.32,0,3.29-.9,4.44-3.4l7-15.53c.07-.21.21-.28.45-.28h.31c.21,0,.28.1.28.35v18.1c0,.52.24.76.76.76h3.54c.52,0,.8-.24.8-.76v-19.9c0-2.63-.62-3.61-3.05-3.61Z"/>
        <path class="cls-1" d="M271.45,80.37c-1.14-2.08-2.22-2.63-3.99-2.63h-2.05c-1.46,0-2.5.55-3.64,2.63l-11.37,20.84c-.24.45-.14.8.45.8h4.51c.42,0,.62-.1.8-.45l2.39-4.47h16.29l2.46,4.47c.17.35.35.45.8.45h4.4c.55,0,.66-.35.42-.8l-11.48-20.84ZM260.74,93.06l5.44-10.16c.1-.17.21-.24.38-.24h.21c.17,0,.28.07.38.24l5.51,10.16h-11.93Z"/>
        <path class="cls-1" d="M309.55,77.74h-15.64c-7,0-9.71,2.5-9.71,9.15v5.96c0,6.66,2.7,9.15,9.71,9.15h15.64c.52,0,.76-.24.76-.76v-3.4c0-.52-.24-.76-.76-.76h-15.43c-3.57,0-4.61-1.07-4.61-4.75v-4.92c0-3.67,1.04-4.71,4.61-4.71h15.43c.52,0,.76-.28.76-.8v-3.4c0-.52-.24-.76-.76-.76Z"/>
        <path class="cls-1" d="M338.71,77.74h-15.25c-7,0-9.71,2.5-9.71,9.15v5.96c0,6.66,2.7,9.15,9.71,9.15h15.25c.52,0,.8-.24.8-.76v-3.29c0-.52-.28-.76-.8-.76h-15.15c-3.61,0-4.61-1.07-4.61-4.71v-.59h19.59c.52,0,.76-.24.76-.76v-2.74c0-.52-.24-.76-.76-.76h-19.59v-.35c0-3.64,1.01-4.71,4.61-4.71h15.15c.52,0,.8-.24.8-.76v-3.29c0-.52-.28-.76-.8-.76Z"/>
        <path class="cls-1" d="M365.44,93.79c3.64-.66,5.17-2.98,5.17-6.93v-1.98c0-4.68-2.15-7.14-7.45-7.14h-18.62c-.69,0-1.04.35-1.04,1.04v22.46c0,.52.28.76.8.76h3.74c.52,0,.76-.24.76-.76v-6.9h11.2l5.48,7.21c.21.31.38.45.97.45h4.47c.62,0,.66-.62.45-.87l-5.93-7.35ZM365.3,87.03c0,2.08-.87,3.09-3.22,3.09h-13.28v-7.21c0-.28.14-.42.45-.42h12.83c2.36,0,3.22,1.01,3.22,3.09v1.46Z"/>
        <path class="cls-1" d="M405.73,101.21l-11.48-20.84c-1.14-2.08-2.22-2.63-3.99-2.63h-2.05c-1.46,0-2.5.55-3.64,2.63l-11.37,20.84c-.24.45-.14.8.45.8h4.51c.42,0,.62-.1.8-.45l2.39-4.47h16.29l2.46,4.47c.17.35.35.45.8.45h4.4c.55,0,.66-.35.42-.8ZM383.54,93.06l5.44-10.16c.1-.17.21-.24.38-.24h.21c.17,0,.28.07.38.24l5.51,10.16h-11.93Z"/>
      </g>
    </g>
  </g>
</svg>